<svg clip-rule="evenodd" fill-rule="evenodd" stroke-linejoin="round" stroke-miterlimit="2" viewBox="0 0 24 24" xmlns="http://www.w3.org/2000/svg"><path d="m9.027 13.112-3.29-1.899c-.284-.165-.47-.458-.496-.785-.027-.328.109-.647.363-.855l9.018-7.383c.322-.263.774-.3 1.134-.092s.554.617.487 1.028c0 0-1.27 7.752-1.271 7.752l3.291 1.9c.284.164.47.457.496.784.027.328-.109.647-.363.855l-9.018 7.383c-.322.264-.774.3-1.134.092s-.554-.617-.487-1.027zm2.086-.359-.954 5.823s5.851-4.79 5.851-4.79l-2.636-1.522c-.36-.208-.554-.617-.487-1.027l.954-5.823s-5.851 4.79-5.851 4.79l2.636 1.522c.36.208.554.617.487 1.027z"/></svg>