<svg xmlns="http://www.w3.org/2000/svg" version="1.1" xmlns:xlink="http://www.w3.org/1999/xlink" width="512" height="512" x="0" y="0" viewBox="0 0 8.467 8.467" style="enable-background:new 0 0 512 512" xml:space="preserve" class=""><g><path fill="#e2e6eb" d="M5.465 1.216c-.91-.019-1.849.503-2.106 1.678-1.048-.357-1.994.348-1.896 1.475a1.493 1.493 0 0 0-.934 1.387c0 .829.668 1.496 1.497 1.496h1.818l-.002-1.706-.426.155c-.31.133-.538-.257-.273-.5l.807-.783c.184-.184.404-.163.567 0l.807.784c.265.242.036.632-.273.499l-.426-.155v1.706H6.44c.829 0 1.496-.667 1.496-1.496 0-.61-.362-1.132-.883-1.365 1.01-1.97-.259-3.149-1.589-3.175z" opacity="1" data-original="#75b5ff" class=""></path><path fill="#b4ded0" d="M5.465 1.215c-.05 0-.106.001-.157.003C4.146 3.05 5.942 4.39 7.054 4.39c1.01-1.97-.259-3.148-1.589-3.175z" opacity="1" data-original="#488bff" class=""></path></g></svg>