<svg width="23" height="23" viewBox="0 0 23 23" fill="none" xmlns="http://www.w3.org/2000/svg">
<path d="M8.34347 10.5432L6.40482 9.42499C3.90793 8.30428 3.12485 5.8692 2.88578 4.25368C2.87253 4.16424 2.91341 4.10121 2.93901 4.07161C2.96507 4.04138 3.0227 3.99075 3.11565 3.99075H4.08681L4.58931 3.58645L4.39214 3.00391L3.92689 2.59961H3.11565C2.64293 2.59961 2.19466 2.80486 1.88582 3.1628C1.57783 3.5197 1.44073 3.99156 1.50964 4.4574C1.68183 5.62079 2.13163 7.30949 3.29677 8.74762C4.52408 10.2625 6.23497 11.1394 8.39307 11.3628L8.84417 11.1524L8.34347 10.5432Z" fill="#FFE27A"/>
<path d="M3.92773 2.59961C3.95105 2.93747 3.99709 3.42172 4.08766 3.99075H4.99445L5.28482 3.29518L4.79729 2.59961H3.92773Z" fill="#F9CF58"/>
<path d="M8.25726 9.94338C7.55387 9.84487 6.94096 9.66482 6.40625 9.4248C7.10187 10.166 7.83203 10.5982 8.39436 11.3623C8.76016 11.4002 9.1384 11.4199 9.52971 11.4202L9.66614 10.6401L8.25726 9.94338Z" fill="#F9CF58"/>
<path d="M14.6569 10.5432L16.5956 9.42499C19.0925 8.30428 19.8756 5.8692 20.1146 4.25368C20.1279 4.16424 20.087 4.10121 20.0615 4.07161C20.0354 4.04138 19.9778 3.99075 19.8848 3.99075H18.9137L18.4112 3.58645L18.6083 3.00391L19.0735 2.59961H19.8848C20.3575 2.59961 20.8058 2.80486 21.1146 3.1628C21.4226 3.5197 21.5597 3.99156 21.4908 4.4574C21.3186 5.62079 20.8688 7.30949 19.7037 8.74762C18.4763 10.2625 16.7654 11.1394 14.6074 11.3628L14.1562 11.1524L14.6569 10.5432Z" fill="#FFE27A"/>
<path d="M19.0739 2.59961C19.0506 2.93747 19.0045 3.42172 18.914 3.99075H18.0072L17.7168 3.29518L18.2043 2.59961H19.0739Z" fill="#F9CF58"/>
<path d="M14.7448 9.94338C15.4482 9.84487 16.0611 9.66482 16.5958 9.4248C15.9002 10.166 15.1701 10.5982 14.6077 11.3623C14.2419 11.4002 13.8637 11.4199 13.4724 11.4202L13.3359 10.6401L14.7448 9.94338Z" fill="#F9CF58"/>
<path d="M17.8591 2.07324L18.2136 2.50364C18.0865 3.8977 17.6352 6.73919 16.0365 8.69365C14.6536 10.3843 13.0178 10.4565 12.813 14.2392L12.3874 14.6696H10.6134L10.1877 14.2392C9.98295 10.4565 8.34717 10.3843 6.96425 8.69365C5.36557 6.73919 4.91428 3.8977 4.78711 2.50364L5.14168 2.07324H17.8591Z" fill="#FFBA57"/>
<path d="M18.2144 2.50372C18.2616 1.98717 18.2643 1.66903 18.2643 1.66903L11.5013 1.1377L4.73828 1.66903C4.73828 1.66903 4.74098 1.98717 4.7881 2.50372H18.2144Z" fill="#FFAC3E"/>
<path d="M10.1875 14.2393C10.2016 14.4994 10.209 14.7769 10.209 15.074L11.5003 15.8825L12.7916 15.074C12.7916 14.7769 12.799 14.4994 12.8131 14.2393H10.1875Z" fill="#FFAC3E"/>
<path d="M18.6227 1.26504H4.37887C3.91788 1.26504 3.58492 0.539781 3.65608 0.41692C3.80046 0.167693 4.07008 0 4.37887 0H18.6227C18.9315 0 19.2011 0.167693 19.3455 0.41692C19.4166 0.539781 19.0837 1.26504 18.6227 1.26504Z" fill="#FFE27A"/>
<path d="M18.6234 0.834316H4.37962C4.07082 0.834316 3.80188 0.666219 3.6575 0.416992C3.58634 0.539854 3.54492 0.682121 3.54492 0.834316C3.54492 1.2953 3.91863 1.66901 4.37962 1.66901H18.6234C19.0844 1.66901 19.4581 1.2953 19.4581 0.834316C19.4581 0.682121 19.4167 0.539854 19.3456 0.416992C19.2012 0.666219 18.9322 0.834316 18.6234 0.834316Z" fill="#F9CF58"/>
<path d="M14.6599 15.0742H8.34004C7.63341 15.0742 7.03555 15.5965 6.94067 16.2967L6.38477 20.3994L6.67595 20.8298H16.324L16.6151 20.3994L16.0592 16.2967C15.9644 15.5965 15.3665 15.0742 14.6599 15.0742Z" fill="#E0E0E0"/>
<path d="M6.3846 20.3994L6.27148 21.2341L11.4998 21.835L16.7281 21.2341L16.615 20.3994H6.3846Z" fill="#CECECE"/>
<path d="M17.3701 22.5959H5.63281L5.22852 22.1655V22.1618C5.22852 21.6496 5.64373 21.2344 6.15593 21.2344H16.847C17.3592 21.2344 17.7744 21.6496 17.7744 22.1618V22.1655L17.3701 22.5959Z" fill="#5A5A5A"/>
<path d="M5.46036 22.9997H17.5425C17.6706 22.9997 17.7744 22.8959 17.7744 22.7678V22.165H5.22852V22.7678C5.22852 22.8959 5.33233 22.9997 5.46036 22.9997Z" fill="#4C4C4C"/>
</svg>
