<svg width="772" height="772" viewBox="0 0 772 772" fill="none" xmlns="http://www.w3.org/2000/svg">
<mask id="mask0_4_43" style="mask-type:alpha" maskUnits="userSpaceOnUse" x="0" y="0" width="772" height="772">
<path d="M386.25 37.6627C194.073 37.6627 37.6626 194.147 37.6626 386.25C37.6626 578.353 194.147 734.837 386.25 734.837C578.352 734.837 734.837 578.353 734.837 386.25C734.837 194.147 578.352 37.6627 386.25 37.6627ZM385.734 68.6351C391.694 68.7895 397.358 71.2738 401.518 75.5582C405.679 79.8426 408.006 85.5881 408.004 91.5695C408.004 97.652 405.588 103.485 401.287 107.786C396.986 112.088 391.152 114.504 385.07 114.504C378.987 114.504 373.154 112.088 368.853 107.786C364.552 103.485 362.136 97.652 362.136 91.5695C362.134 88.501 362.749 85.4635 363.943 82.6368C365.136 79.8101 366.885 77.2518 369.086 75.1132C371.286 72.9747 373.893 71.2994 376.753 70.1867C379.613 69.0739 382.666 68.5463 385.734 68.6351ZM438.239 106.392C478.501 113.933 516.638 130.148 550.003 153.911C583.367 177.673 611.159 208.414 631.448 243.998L604.384 305.058C599.738 315.603 604.532 327.992 615.003 332.712L667.066 355.794C668.681 372.068 668.879 388.451 667.656 404.76H638.675C635.799 404.76 634.619 406.677 634.619 409.479V422.753C634.619 454.02 616.994 460.879 601.508 462.575C586.759 464.271 570.462 456.38 568.397 447.383C559.695 398.491 545.242 388.093 522.381 370.026C550.772 352.033 580.27 325.411 580.27 289.867C580.27 251.446 553.943 227.258 536.024 215.385C510.803 198.793 482.928 195.475 475.406 195.475H176.006C217.406 149.225 272.899 117.915 333.892 106.392L369.215 143.411C377.179 151.744 390.379 152.113 398.712 144.075L438.239 106.392ZM112.291 276.15C118.258 276.323 123.923 278.815 128.081 283.098C132.24 287.38 134.564 293.115 134.562 299.085C134.562 305.167 132.146 311.001 127.845 315.302C123.544 319.603 117.71 322.019 111.628 322.019C105.545 322.019 99.7117 319.603 95.4106 315.302C91.1096 311.001 88.6933 305.167 88.6933 299.085C88.6921 296.016 89.3065 292.979 90.5004 290.152C91.6942 287.325 93.4431 284.767 95.6436 282.628C97.844 280.49 100.451 278.815 103.311 277.702C106.17 276.589 109.224 276.062 112.291 276.15ZM659.102 277.183C665.069 277.355 670.733 279.848 674.892 284.13C679.05 288.413 681.375 294.148 681.373 300.117C681.373 306.2 678.956 312.033 674.655 316.334C670.354 320.635 664.521 323.051 658.438 323.051C652.356 323.051 646.522 320.635 642.221 316.334C637.92 312.033 635.504 306.2 635.504 300.117C635.503 297.049 636.117 294.011 637.311 291.184C638.505 288.358 640.254 285.799 642.454 283.661C644.655 281.522 647.262 279.847 650.121 278.734C652.981 277.622 656.035 277.094 659.102 277.183ZM155.505 280.87H195.474V461.1H114.799C104.835 426.112 101.73 389.527 105.654 353.36L155.063 331.384C165.608 326.665 170.402 314.35 165.682 303.804L155.505 280.87ZM322.314 282.787H417.517C422.458 282.787 452.25 288.466 452.25 310.81C452.25 329.32 429.39 335.957 410.585 335.957H322.24L322.314 282.787ZM322.314 412.281H395.246C401.883 412.281 430.865 414.199 440.083 451.218C442.959 462.575 449.374 499.594 453.725 511.467C458.076 524.741 475.701 551.289 494.506 551.289H613.528C605.552 561.971 596.828 572.074 587.423 581.524L538.973 571.126C527.69 568.692 516.555 575.919 514.122 587.202L502.618 640.887C465.624 657.645 425.45 666.222 384.838 666.031C344.227 665.84 304.135 656.886 267.301 639.781L255.797 586.096C253.363 574.813 242.302 567.586 231.019 570.02L183.602 580.196C174.802 571.12 166.623 561.462 159.119 551.289H389.716C392.297 551.289 394.067 550.846 394.067 548.413V466.852C394.067 464.492 392.297 463.976 389.716 463.976H322.24L322.314 412.281ZM215.901 599.075C221.868 599.247 227.533 601.74 231.691 606.022C235.85 610.305 238.175 616.04 238.172 622.009C238.172 628.091 235.756 633.925 231.455 638.226C227.154 642.527 221.32 644.943 215.238 644.943C209.155 644.943 203.322 642.527 199.021 638.226C194.72 633.925 192.303 628.091 192.303 622.009C192.302 618.94 192.917 615.903 194.11 613.076C195.304 610.25 197.053 607.691 199.254 605.553C201.454 603.414 204.061 601.739 206.921 600.626C209.78 599.513 212.834 598.986 215.901 599.075ZM555.492 600.107C561.459 600.28 567.123 602.772 571.282 607.055C575.44 611.337 577.765 617.072 577.762 623.041C577.762 629.124 575.346 634.957 571.045 639.258C566.744 643.559 560.911 645.976 554.828 645.976C548.746 645.976 542.912 643.559 538.611 639.258C534.31 634.957 531.894 629.124 531.894 623.041C531.893 619.973 532.507 616.935 533.701 614.109C534.895 611.282 536.644 608.724 538.844 606.585C541.045 604.447 543.652 602.771 546.511 601.659C549.371 600.546 552.425 600.018 555.492 600.107Z" fill="black"/>
<path fill-rule="evenodd" clip-rule="evenodd" d="M715.369 386.25C715.369 473.538 680.694 557.25 618.972 618.972C557.25 680.694 473.538 715.369 386.25 715.369C298.962 715.369 215.25 680.694 153.528 618.972C91.8062 557.25 57.1312 473.538 57.1312 386.25C57.1312 298.962 91.8062 215.25 153.528 153.528C215.25 91.8061 298.962 57.1312 386.25 57.1312C473.538 57.1312 557.25 91.8061 618.972 153.528C680.694 215.25 715.369 298.962 715.369 386.25ZM709.174 354.466L760.5 386.25L709.174 418.034L753.273 459.256L696.785 480.421L732.035 529.461L672.376 539.195L697.449 594.208L637.053 592.069L650.917 650.917L592.069 637.053L594.208 697.449L539.195 672.376L529.461 732.035L480.421 696.785L459.256 753.273L418.034 709.174L386.25 760.5L354.466 709.174L313.244 753.273L292.079 696.785L243.039 732.035L233.305 672.376L178.292 697.449L180.431 637.053L121.583 650.917L135.447 592.069L75.051 594.208L100.124 539.195L40.4651 529.461L75.7147 480.421L19.2269 459.256L63.3257 418.034L12 386.25L63.3257 354.466L19.2269 313.244L75.7147 292.079L40.4651 243.039L100.124 233.305L75.051 178.292L135.447 180.431L121.583 121.583L180.431 135.447L178.292 75.051L233.305 100.124L243.039 40.4651L292.079 75.7147L313.244 19.2269L354.466 63.3257L386.25 12L418.034 63.3257L459.256 19.2269L480.421 75.7147L529.461 40.4651L539.195 100.124L594.208 75.051L592.069 135.447L650.917 121.583L637.053 180.431L697.449 178.292L672.376 233.305L732.035 243.039L696.785 292.079L753.273 313.244L709.174 354.466Z" fill="black" stroke="black" stroke-width="22.1232" stroke-linecap="round" stroke-linejoin="round"/>
</mask>
<g mask="url(#mask0_4_43)">
<path fill-rule="evenodd" clip-rule="evenodd" d="M384.914 782.988H387.178C605.873 782.379 783 604.908 783 386.054C783 166.816 605.277 -10.8797 386.053 -10.8797C166.815 -10.8797 -10.8809 166.83 -10.8809 386.054C-10.8809 604.908 166.22 782.365 384.914 782.988Z" fill="#D61F26"/>
<path fill-rule="evenodd" clip-rule="evenodd" d="M187.546 729.849V42.2437C68.9322 110.871 -10.8809 239.135 -10.8809 386.053C-10.8809 532.957 68.9322 661.222 187.546 729.849Z" fill="#3F6932"/>
<path fill-rule="evenodd" clip-rule="evenodd" d="M584.57 42.2585V729.85C703.184 661.21 782.998 532.958 782.998 386.054C782.998 239.15 703.184 110.885 584.57 42.2585Z" fill="#FFD938"/>
</g>
</svg>
