<?xml version="1.0" encoding="utf-8"?>
<!-- Generator: Adobe Illustrator 27.0.1, SVG Export Plug-In . SVG Version: 6.00 Build 0)  -->
<svg version="1.1" id="Layer_1" xmlns="http://www.w3.org/2000/svg" xmlns:xlink="http://www.w3.org/1999/xlink" x="0px" y="0px"
	 viewBox="0 0 190.4 46" style="enable-background:new 0 0 190.4 46;" xml:space="preserve">
<style type="text/css">
	.st0{opacity:0.5;fill-rule:evenodd;clip-rule:evenodd;fill:#1C60DD;enable-background:new    ;}
	.st1{opacity:0.7;fill-rule:evenodd;clip-rule:evenodd;fill:#1C60DD;enable-background:new    ;}
	.st2{opacity:0.9;fill-rule:evenodd;clip-rule:evenodd;fill:#1C60DD;enable-background:new    ;}
	.st3{fill-rule:evenodd;clip-rule:evenodd;fill:#FFFFFF;}
	.st4{fill-rule:evenodd;clip-rule:evenodd;fill:#C0C9D7;}
	.st5{fill:#1C60DD;}
	.st6{opacity:0.3;fill:url(#SVGID_1_);enable-background:new    ;}
	.st7{opacity:0.2;fill:url(#SVGID_00000116205168542538314430000008075735560520664490_);enable-background:new    ;}
	.st8{fill-rule:evenodd;clip-rule:evenodd;fill:#B0B5BE;}
	.st9{fill:#0D111D;}
</style>
<g>
	<path class="st0" d="M0.2,19l1.3-4.9l9.1-5.2v6.5L0.2,21.9V19z"/>
	<path class="st1" d="M4.5,19.2l10.2-6.3V18c0,0-0.2,1.7-0.9,2c-0.6,0.2-9.3,5.4-9.3,5.4L4.5,19.2z"/>
	<path class="st2" d="M10,22.2l9.1-5.3v5.2c0,0,0,1.4-0.9,1.9c-0.6,0.3-8.2,4.7-8.2,4.7L10,22.2z"/>
	<path class="st0" d="M13.8,7l5-3.2v6.5l-5,3L13.8,7z"/>
	<path class="st1" d="M17.8,10.9l5-2.9v6.8l-5,2.9L17.8,10.9z"/>
	<path class="st0" d="M21.7,2.1L25.1,0v4.5c0,0,0,2.3-0.9,2.7c-0.2,0.1-2.5,1.4-2.5,1.4L21.7,2.1z"/>
	<path class="st2" d="M21.8,15.3l3.4-2l-0.1,5.2c0,0,0.1,1.4-0.9,2c-0.2,0.2-2.5,1.3-2.5,1.3C21.7,21.8,21.8,15.1,21.8,15.3z"/>
	<path class="st1" d="M25.8,6.3l2.7-1.8c0,0,0,2.7,0,4.5c0,0.6-0.1,1.1-0.4,1.6c-0.2,0.5-0.6,1-1,1.3c0,0-1.4,0.9-1.4,0.9
		C25.8,12.9,25.8,6.3,25.8,6.3z"/>
	<path class="st3" d="M10.5,8.9c0,0.1-8.3,4.2-9.6,5.6c0.6-0.5-0.5,0.5-0.7,2.1l0.4,15.1c0,0-0.6,2,2.5,3.8
		c2.2,1.3,15.1,9.1,16.6,9.8c1.6,0.7,2-0.4,2-0.4V30.2c0,0,0.5-2.3-2.2-4c-0.5-0.4-17.2-8-17.9-10.3C0.9,13.3,10.5,9.5,10.5,8.9z"/>
	<path class="st4" d="M21,30.1l0.8-0.6v15.6c0,0-0.4,0.8-0.8,0.9C20.9,46,21,30.1,21,30.1z"/>
	<path class="st5" d="M1.1,16.4c0.1,0.2,0.2,0.4,0.4,0.5C1.3,16.7,1.2,16.5,1.1,16.4c-1-2.6,6.1-5.4,9.1-7.3c0,0-7.2,3.5-8.6,4.8
		c-1.3,1.1-1.3,1.8-1.3,1.8L0,16.5c0-0.4,0-0.8,0.2-0.9C0.2,15.7,1.1,16.2,1.1,16.4z"/>
	<path class="st5" d="M18.8,26.8c-0.6-0.5-8-3.9-13.2-6.9c0.3,0.2,0.6,0.4,0.8,0.5l12.2,24.4c0.3,0.1,0.5,0.2,0.6,0.3L21,46V30.3
		C20.9,30.3,21.2,28.1,18.8,26.8z"/>
	
		<linearGradient id="SVGID_1_" gradientUnits="userSpaceOnUse" x1="8.3297" y1="24.5096" x2="0.3688" y2="15.2886" gradientTransform="matrix(1 0 0 -1 0 48.001)">
		<stop  offset="0" style="stop-color:#000000"/>
		<stop  offset="1" style="stop-color:#1C60DD;stop-opacity:0"/>
	</linearGradient>
	<path class="st6" d="M0.6,33.7c-0.3-0.6-0.5-1.2-0.6-1.8C0,32.6,0.2,33.2,0.6,33.7z"/>
	<path class="st5" d="M5.6,19.9c-1.8-1.1-3.3-2.1-4.1-3c-0.1-0.2-0.3-0.3-0.4-0.5c0-0.1-0.9-0.8-0.9-0.9C0.1,15.6,0,16,0,16.5
		l0,15.4c0.1,1.1,0.2,1.2,0.5,1.8C1,34.4,1.2,34.7,2,35.4c1.9,1.1,13.4,7.7,16.6,9.4L6.4,20.4L5.6,19.9z"/>
	
		<linearGradient id="SVGID_00000147919984742513060450000011125531725695577736_" gradientUnits="userSpaceOnUse" x1="12.2212" y1="21.1514" x2="4.2607" y2="11.9286" gradientTransform="matrix(1 0 0 -1 0 48.001)">
		<stop  offset="0.19" style="stop-color:#000000"/>
		<stop  offset="1" style="stop-color:#1C60DD;stop-opacity:0"/>
	</linearGradient>
	<path style="opacity:0.2;fill:url(#SVGID_00000147919984742513060450000011125531725695577736_);enable-background:new    ;" d="
		M5.5,19.9c-1.8-1.1-3.3-2.1-4.1-3c-0.1-0.2-0.3-0.3-0.4-0.5c0-0.1-0.9-0.8-0.9-0.9c-0.1,0.1-0.2,0.7-0.2,1.1L0,32
		c0,1,0.2,1.2,0.5,1.8c0.4,0.7,0.9,1.1,1.5,1.6c1.9,1.1,13.4,7.7,16.6,9.4L6.3,20.4L5.5,19.9z"/>
	<path class="st8" d="M18.3,33.2l-2.5-1.6c-0.5-0.3-0.9-0.1-0.7,0.4v4.2c0.1,0.2,0.3,0.7,0.2,0.9c-0.4,0,1.4,1.5,2.5,2.1
		c0.3,0.2,0.9,0.2,0.8-0.4v-5c0-0.1,0-0.2-0.1-0.3C18.5,33.3,18.4,33.2,18.3,33.2z"/>
	<path class="st3" d="M18.2,33.4c-0.4-0.5-1.7-1.2-2.6-1.9c-0.2-0.2-0.6,0-0.6,0.2c0.1,3.2,0.1,4.6,0.3,5.2c0.1,0.5,1.6,1.5,2.5,2
		c0.3,0.2,0.6,0.2,0.6-0.1c0-1.3,0-4.4,0-5.2C18.3,33.6,18.3,33.5,18.2,33.4L18.2,33.4z"/>
	<path class="st9" d="M29.9,24c0,4.8,3.7,8.1,8.2,8.1c3.3,0,6.2-1.6,7.4-4.8h-3.2c-0.9,1.7-2.4,2.5-4.3,2.5c-3.2,0-5.5-2.3-5.5-5.9
		c0-3.6,2.3-5.8,5.5-5.8c1.9,0,3.4,0.8,4.3,2.5h3.2c-1.2-3.1-4.1-4.8-7.4-4.8C33.6,15.9,29.9,19.2,29.9,24z"/>
	<path class="st9" d="M60,25.7c0-4-2.9-6.5-6.5-6.5c-3.6,0-6.5,2.5-6.5,6.5c0,4,2.7,6.5,6.3,6.5C57,32.2,60,29.6,60,25.7z
		 M49.7,25.7c0-2.9,1.8-4.2,3.7-4.2c2,0,3.8,1.4,3.8,4.2c0,2.9-1.9,4.3-3.9,4.3C51.4,29.9,49.7,28.5,49.7,25.7z"/>
	<path class="st9" d="M61.9,32h2.6V19.4h-2.6V32z M63.2,17.7c0.9,0,1.7-0.7,1.7-1.7c0-0.9-0.7-1.7-1.7-1.7c-0.9,0-1.7,0.7-1.7,1.7
		C61.5,17,62.3,17.7,63.2,17.7z"/>
	<path class="st9" d="M76.2,32h2.6v-7.4c0-3.5-2.2-5.4-5.2-5.4c-1.5,0-2.9,0.6-3.8,1.6v-1.4h-2.6V32h2.6v-7c0-2.3,1.3-3.5,3.2-3.5
		c1.9,0,3.2,1.2,3.2,3.5V32z"/>
	<path class="st9" d="M84.1,23.4v-5.2H87c2,0,3,1,3,2.6c0,1.6-0.9,2.6-3,2.6H84.1z M92.7,20.8c0-2.6-1.9-4.7-5.7-4.7h-5.5V32h2.6
		v-6.5H87C91.2,25.5,92.7,23.1,92.7,20.8z"/>
	<path class="st9" d="M93.6,25.6c0,3.9,2.6,6.6,5.9,6.6c2.1,0,3.6-1,4.4-2.1V32h2.6V19.4H104v1.8c-0.8-1-2.3-2-4.4-2
		C96.2,19.2,93.6,21.7,93.6,25.6z M104,25.7c0,2.7-1.9,4.3-3.8,4.3c-2,0-3.8-1.6-3.8-4.3c0-2.7,1.9-4.2,3.8-4.2
		C102.1,21.4,104,23,104,25.7z"/>
	<path class="st9" d="M114.4,29l-3.6-9.6h-2.9l5,12.4l-2.6,6.1h2.7l7.8-18.5h-2.7L114.4,29z"/>
	<path class="st9" d="M140,32h2.6v-7.4c0-3.5-2.3-5.4-5.2-5.4c-1.8,0-3.6,1-4.4,2.5c-0.9-1.6-2.6-2.5-4.6-2.5
		c-1.5,0-2.9,0.6-3.7,1.6v-1.4h-2.6V32h2.6v-7c0-2.3,1.3-3.5,3.2-3.5c1.9,0,3.2,1.2,3.2,3.5v7h2.6v-7c0-2.3,1.3-3.5,3.2-3.5
		c1.9,0,3.2,1.2,3.2,3.5V32z"/>
	<path class="st9" d="M150.6,21.4c2,0,3.5,1.2,3.5,3.2h-7C147.4,22.6,148.9,21.4,150.6,21.4z M156.6,28.2h-2.8c-0.5,1-1.4,1.8-3,1.8
		c-1.9,0-3.4-1.3-3.6-3.3h9.7c0.1-0.4,0.1-0.8,0.1-1.3c0-3.7-2.6-6.2-6.2-6.2c-3.7,0-6.3,2.5-6.3,6.5c0,4,2.7,6.5,6.3,6.5
		C153.8,32.2,155.8,30.4,156.6,28.2z"/>
	<path class="st9" d="M167.8,32h2.6v-7.4c0-3.5-2.2-5.4-5.2-5.4c-1.5,0-2.9,0.6-3.8,1.6v-1.4h-2.6V32h2.6v-7c0-2.3,1.3-3.5,3.2-3.5
		c1.9,0,3.2,1.2,3.2,3.5V32z"/>
	<path class="st9" d="M173.5,28.5c0,2.6,1.4,3.5,3.7,3.5h2.1v-2.2h-1.6c-1.1,0-1.5-0.4-1.5-1.3v-7h3.1v-2.1h-3.1v-3.1h-2.6v3.1H172
		v2.1h1.5V28.5z"/>
	<path class="st9" d="M190.4,28.5c-0.1-4.6-7.3-3.1-7.3-5.7c0-0.8,0.7-1.4,2.1-1.4c1.4,0,2.3,0.8,2.4,1.9h2.6c-0.1-2.5-2-4-4.9-4
		c-3,0-4.9,1.6-4.9,3.6c0,4.6,7.4,3.2,7.4,5.7c0,0.9-0.8,1.5-2.3,1.5c-1.4,0-2.4-0.8-2.5-1.9h-2.7c0.1,2.3,2.3,4.1,5.3,4.1
		C188.5,32.2,190.4,30.6,190.4,28.5z"/>
</g>
</svg>
