<svg width="122" height="21" viewBox="0 0 122 21" fill="none" xmlns="http://www.w3.org/2000/svg">
<path d="M27.427 4.50189C27.5458 6.75748 26.0836 8.69084 24.0546 9.27085C24.0272 9.28926 24.0089 9.29847 23.9907 9.30768C22.0074 9.84165 20.5452 11.6645 20.5452 13.8373C20.5452 13.8557 20.5269 13.8833 20.5086 13.9109C20.2253 16.2218 18.2603 18.0078 15.8933 18.0078H15.8019C13.4348 18.0078 11.4699 16.2218 11.1866 13.9109C11.1591 13.8741 11.15 13.8557 11.15 13.8373C11.15 11.6737 9.68772 9.84165 7.7045 9.30768C7.68622 9.29847 7.66794 9.28926 7.64052 9.27085C5.6116 8.69084 4.14932 6.75748 4.26813 4.50189C4.38694 2.16344 6.25135 0.248495 8.57273 0.0827779C11.2962 -0.110558 13.5628 2.06217 13.5628 4.75967C13.5628 4.78729 13.5628 4.82412 13.5628 4.85174C13.6907 5.85525 14.1294 6.7851 14.8057 7.50321C15.3723 8.10163 16.3137 8.10163 16.8803 7.50321C17.5566 6.7851 18.0044 5.85525 18.1233 4.85174C18.1233 4.82412 18.1233 4.78729 18.1233 4.75967C18.1233 2.06217 20.3898 -0.110558 23.1133 0.0827779C25.4255 0.248495 27.2991 2.16344 27.427 4.50189Z" fill="#00B8C2"/>
<path d="M26.9243 20.9447C29.4935 20.9447 31.5762 18.8467 31.5762 16.2586C31.5762 13.6705 29.4935 11.5725 26.9243 11.5725C24.3552 11.5725 22.2724 13.6705 22.2724 16.2586C22.2724 18.8467 24.3552 20.9447 26.9243 20.9447Z" fill="#FDB515"/>
<path d="M4.65188 20.9906C7.22105 20.9906 9.30377 18.8926 9.30377 16.3045C9.30377 13.7164 7.22105 11.6184 4.65188 11.6184C2.08272 11.6184 0 13.7164 0 16.3045C0 18.8926 2.08272 20.9906 4.65188 20.9906Z" fill="#FDB515"/>
<path d="M99.3712 3.92196C100.446 3.92196 101.318 3.044 101.318 1.96098C101.318 0.877961 100.446 0 99.3712 0C98.2961 0 97.4246 0.877961 97.4246 1.96098C97.4246 3.044 98.2961 3.92196 99.3712 3.92196Z" fill="white"/>
<path d="M47.4235 16.7745H44.1151C43.9232 16.7745 43.7678 16.6179 43.7678 16.4246C43.7678 16.4154 43.7678 16.4062 43.7678 16.3878C43.7678 14.2519 43.7678 12.1252 43.7587 9.98927C43.7496 9.07783 43.2835 8.41496 42.5249 8.20321C41.4008 7.89019 40.432 8.52544 40.2766 9.68546C40.2401 9.96165 40.2218 10.2378 40.2218 10.514C40.2127 12.4566 40.2218 14.3992 40.2218 16.3417V16.4062C40.2218 16.5995 40.0664 16.756 39.8745 16.756H36.6209C36.429 16.756 36.2737 16.5995 36.2737 16.4062V5.16507C36.2737 4.97173 36.429 4.81522 36.6209 4.81522H39.4632C39.6552 4.81522 39.8105 4.97173 39.8105 5.16507C39.8105 5.45968 40.1396 5.61619 40.3772 5.44127C41.2454 4.75999 42.2416 4.52062 43.3292 4.52982C44.5538 4.52982 45.6231 4.87046 46.4456 5.80032C46.5827 5.95683 46.8203 5.94762 46.9574 5.80032C47.6063 5.12825 48.4106 4.76919 49.3336 4.63109C51.0153 4.37331 52.5964 4.53903 53.9033 5.78191C54.7258 6.56446 55.1919 7.55876 55.265 8.67274C55.3564 10.0261 55.3381 11.3887 55.3473 12.742C55.3564 13.9573 55.3473 15.1817 55.3473 16.4154C55.3473 16.6087 55.1919 16.7652 55 16.7652H51.6916C51.4996 16.7652 51.3443 16.6087 51.3443 16.4154C51.3443 16.4062 51.3443 16.397 51.3443 16.3878C51.3443 14.2427 51.3717 12.0976 51.326 9.96165C51.2712 8.41496 50.0831 7.9086 48.9132 8.24924C48.2004 8.46099 47.78 9.1791 47.7708 10.155C47.7617 12.2357 47.7708 14.3071 47.7708 16.3878C47.7708 16.4062 47.7708 16.4154 47.7708 16.4338C47.7708 16.6179 47.6155 16.7745 47.4235 16.7745Z" fill="white"/>
<path d="M68.2428 6.52752C66.8902 4.99924 65.1263 4.40082 63.134 4.40082C62.9055 4.40082 62.677 4.39161 62.4394 4.40082C62.2749 4.41003 62.1104 4.43765 61.955 4.46527C60.1729 4.75987 58.6649 5.53322 57.6321 7.0615C56.6177 8.56215 56.3435 10.2469 56.6542 12.0238C56.9558 13.727 57.7966 15.108 59.2498 16.0746C60.6481 17.0045 62.2018 17.2991 63.856 17.161C65.1995 17.0413 66.4333 16.5994 67.5025 15.7432C68.8917 14.6292 69.5954 13.1286 69.7508 11.3793C69.897 9.56566 69.4584 7.90849 68.2428 6.52752ZM63.1523 13.6718C61.5346 13.6718 60.4288 12.4933 60.4288 10.7717C60.4288 9.06851 61.5255 7.90849 63.1523 7.90849C64.779 7.90849 65.8849 9.07772 65.8849 10.7717C65.8849 12.4841 64.7699 13.6625 63.1523 13.6718Z" fill="white"/>
<path d="M82.6644 16.7742H79.2098C79.0636 16.7742 78.9539 16.6545 78.9539 16.5164V16.3875C78.9539 14.4081 78.963 12.4287 78.9448 10.4586C78.9448 10.1179 78.9082 9.76807 78.826 9.44584C78.5792 8.49757 77.8206 8.03725 76.6965 8.1109C75.8191 8.16614 75.1428 8.79218 75.024 9.69442C74.9875 9.97061 74.9692 10.2468 74.9692 10.523C74.96 12.4656 74.9692 14.4081 74.9692 16.3507V16.5072C74.9692 16.6545 74.8504 16.765 74.7133 16.765H71.2769C71.1307 16.765 71.021 16.6453 71.021 16.5072V5.08197C71.021 4.93466 71.1398 4.82419 71.2769 4.82419H74.5122C74.6585 4.82419 74.7681 4.94387 74.7681 5.08197V5.24768C74.7681 5.46864 75.0332 5.58832 75.1977 5.44102C75.2982 5.34895 75.4079 5.2661 75.5175 5.19244C78.241 3.35115 82.1435 4.97149 82.7832 8.21217C82.8746 8.69091 82.9295 9.19727 82.9295 9.68521C82.9478 11.9592 82.9386 14.2332 82.9386 16.5072C82.9295 16.6637 82.8107 16.7742 82.6644 16.7742Z" fill="white"/>
<path d="M87.874 16.7743H84.4193C84.2822 16.7743 84.1725 16.6638 84.1725 16.5257V5.06362C84.1725 4.92553 84.2822 4.81505 84.4193 4.81505H87.6729C87.81 4.81505 87.9196 4.92553 87.9196 5.06362V5.26617C87.9196 5.47792 88.1755 5.5976 88.3309 5.4595C88.4406 5.36744 88.5503 5.27537 88.6599 5.20172C91.3834 3.36042 95.2859 4.98077 95.9257 8.22145C96.017 8.70019 96.0719 9.20654 96.0719 9.69449C96.0902 11.9685 96.081 14.2425 96.081 16.5165C96.081 16.6546 95.9622 16.7651 95.8343 16.7651H92.3613C92.2242 16.7651 92.1146 16.6546 92.1146 16.5165C92.1146 16.4797 92.1146 16.4336 92.1146 16.3968C92.1146 14.4174 92.1237 12.438 92.1054 10.4678C92.1054 10.1272 92.0689 9.77735 91.9866 9.45512C91.7399 8.50685 90.9813 8.04653 89.8572 8.12018C88.9798 8.17542 88.3035 8.80146 88.1847 9.70369C88.1481 9.97989 88.1299 10.2561 88.1299 10.5323C88.1207 12.4748 88.1299 14.4174 88.1299 16.36V16.5349C88.1207 16.6546 88.011 16.7743 87.874 16.7743Z" fill="white"/>
<path d="M122 4.79669C121.954 4.92558 121.927 5.02686 121.89 5.11892C119.779 10.4127 117.659 15.6972 115.548 21.0001H111.508C111.992 19.7204 112.477 18.4499 112.97 17.1794C113.062 16.9585 113.053 16.7743 112.961 16.5626C111.746 13.773 110.53 10.9835 109.315 8.19389H108.602C108.446 8.19389 108.318 8.32278 108.318 8.47929V16.4705C108.318 16.627 108.19 16.7559 108.035 16.7559H104.599C104.443 16.7559 104.315 16.627 104.315 16.4705V8.48849C104.315 8.33198 104.187 8.20309 104.032 8.20309H102.789C102.634 8.20309 102.506 8.0742 102.506 7.91769V5.0821C102.506 4.92558 102.634 4.79669 102.789 4.79669H104.297C104.297 4.82431 104.297 4.83352 104.306 4.79669V4.76907C104.306 4.73225 104.315 4.68622 104.315 4.61256C104.352 4.06017 104.398 3.48017 104.562 2.9554C105.047 1.41791 106.198 0.616949 107.697 0.257896C108.565 0.0461469 110.174 0.0277339 111.051 0.184244C111.115 0.193451 111.28 0.211864 111.435 0.230277C111.581 0.24869 111.691 0.368374 111.691 0.515678V3.14873C111.691 3.30524 111.563 3.43413 111.407 3.43413C110.877 3.43413 109.927 3.43413 109.653 3.43413C108.812 3.43413 108.355 3.87605 108.328 4.69542C108.328 4.68622 108.328 4.67701 108.328 4.6678C108.328 4.32716 108.328 4.62177 108.328 4.8059C108.328 4.91638 108.328 4.98082 108.328 4.8059C109.525 4.8059 110.695 4.8059 111.864 4.81511C111.901 4.81511 111.938 4.81511 111.965 4.81511H112.02C112.102 4.81511 112.221 4.9532 112.257 5.05448C113.135 7.18117 114.003 9.30787 114.88 11.4346C114.926 11.5543 114.981 11.6739 115.054 11.8489C115.429 10.8914 115.785 9.98915 116.132 9.07771C116.644 7.75198 117.165 6.43545 117.659 5.10971C117.75 4.87035 117.86 4.8059 118.116 4.8059C119.386 4.8059 120.666 4.79669 122 4.79669Z" fill="white"/>
<path d="M104.307 4.75979C104.307 4.769 104.307 4.7782 104.307 4.78741H104.297C104.288 4.68614 104.307 4.36391 104.307 4.75979Z" fill="white"/>
<path d="M111.855 4.806C110.685 4.79679 109.516 4.79679 108.318 4.79679C108.318 4.97171 108.318 4.90727 108.318 4.79679C108.318 4.62187 108.318 4.32726 108.318 4.65869C108.318 4.6679 108.318 4.67711 108.318 4.68631C108.318 4.71393 108.328 4.74155 108.337 4.78758H111.764C111.791 4.78758 111.828 4.79679 111.855 4.806Z" fill="white"/>
<path d="M101.263 5.12821V16.4522C101.263 16.6271 101.126 16.7652 100.952 16.7652H97.6438C97.4702 16.7652 97.3331 16.6271 97.3331 16.4522V5.12821C97.3331 4.95328 97.4702 4.81519 97.6438 4.81519H100.952C101.126 4.81519 101.263 4.95328 101.263 5.12821Z" fill="white"/>
</svg>
