<svg width="54" height="50" viewBox="0 0 54 50" fill="none" xmlns="http://www.w3.org/2000/svg">
    <g opacity="0.8">
        <path
            d="M15.75 33.3333C10.7794 33.3333 6.75 29.6023 6.75 25C6.75 21.0269 9.75277 17.7033 13.7716 16.8686C13.5938 16.1332 13.5 15.3684 13.5 14.5833C13.5 8.83033 18.5368 4.16663 24.75 4.16663C30.1934 4.16663 34.7339 7.74631 35.7754 12.502C35.8501 12.5006 35.925 12.5 36 12.5C42.2132 12.5 47.25 17.1637 47.25 22.9166C47.25 27.9561 43.385 32.1598 38.25 33.1249M33.75 27.0833L27 20.8333M27 20.8333L20.25 27.0833M27 20.8333L27 45.8333"
            stroke="#727597" stroke-width="2" stroke-linecap="round" stroke-linejoin="round"/>
    </g>
</svg>
