<svg width="424" height="145" viewBox="0 0 424 145" fill="none" xmlns="http://www.w3.org/2000/svg">
<path d="M0 126.15H75V144.75H0V126.15ZM108.15 115.5C100.85 114.9 94.9 113.8 90.3 112.2C85.8 110.5 82.45 109.1 80.25 108L86.7 90.75C90.2 92.45 94.35 94 99.15 95.4C104.05 96.8 109.2 97.5 114.6 97.5C120.7 97.5 124.85 96.7 127.05 95.1C129.35 93.4 130.5 91.05 130.5 88.05C130.5 86.15 130.05 84.55 129.15 83.25C128.25 81.85 126.95 80.6 125.25 79.5C123.55 78.4 121.4 77.35 118.8 76.35C116.2 75.25 113.2 74.1 109.8 72.9C106.5 71.7 103.25 70.4 100.05 69C96.95 67.5 94.1 65.7 91.5 63.6C89 61.5 86.95 58.95 85.35 55.95C83.85 52.85 83.1 49.15 83.1 44.85C83.1 41.55 83.55 38.4 84.45 35.4C85.45 32.3 86.95 29.5 88.95 27C90.95 24.5 93.55 22.4 96.75 20.7C99.95 18.9 103.75 17.6 108.15 16.8V0.599997H127.05V16.2C132.25 16.7 136.7 17.45 140.4 18.45C144.2 19.45 147.2 20.45 149.4 21.45L144.75 39.45C141.45 38.05 137.6 36.85 133.2 35.85C128.9 34.85 124.35 34.35 119.55 34.35C114.75 34.35 111.3 35.15 109.2 36.75C107.1 38.35 106.05 40.45 106.05 43.05C106.05 44.65 106.35 46.05 106.95 47.25C107.65 48.35 108.7 49.35 110.1 50.25C111.5 51.15 113.2 52.05 115.2 52.95C117.3 53.75 119.8 54.65 122.7 55.65C127.1 57.25 131.15 59 134.85 60.9C138.65 62.8 141.9 65 144.6 67.5C147.4 69.9 149.55 72.75 151.05 76.05C152.65 79.35 153.45 83.2 153.45 87.6C153.45 90.6 153 93.6 152.1 96.6C151.2 99.5 149.7 102.2 147.6 104.7C145.5 107.2 142.75 109.35 139.35 111.15C136.05 112.95 131.95 114.25 127.05 115.05V133.35H108.15V115.5ZM238.104 114.3C234.304 115.4 229.404 116.4 223.404 117.3C217.404 118.3 211.104 118.8 204.504 118.8C197.804 118.8 192.204 117.9 187.704 116.1C183.304 114.3 179.804 111.8 177.204 108.6C174.604 105.3 172.754 101.4 171.654 96.9C170.554 92.4 170.004 87.45 170.004 82.05V38.1H192.354V79.35C192.354 86.55 193.304 91.75 195.204 94.95C197.104 98.15 200.654 99.75 205.854 99.75C207.454 99.75 209.154 99.7 210.954 99.6C212.754 99.4 214.354 99.2 215.754 99V38.1H238.104V114.3ZM278.134 76.95C278.134 83.85 279.684 89.4 282.784 93.6C285.884 97.8 290.484 99.9 296.584 99.9C298.584 99.9 300.434 99.85 302.134 99.75C303.834 99.55 305.234 99.35 306.334 99.15V58.5C304.934 57.6 303.084 56.85 300.784 56.25C298.584 55.65 296.334 55.35 294.034 55.35C283.434 55.35 278.134 62.55 278.134 76.95ZM328.684 114.45C326.684 115.05 324.384 115.65 321.784 116.25C319.184 116.75 316.434 117.2 313.534 117.6C310.734 118 307.834 118.3 304.834 118.5C301.934 118.8 299.134 118.95 296.434 118.95C289.934 118.95 284.134 118 279.034 116.1C273.934 114.2 269.634 111.5 266.134 108C262.634 104.4 259.934 100.1 258.034 95.1C256.234 90 255.334 84.3 255.334 78C255.334 71.6 256.134 65.85 257.734 60.75C259.334 55.55 261.634 51.15 264.634 47.55C267.634 43.95 271.284 41.2 275.584 39.3C279.984 37.4 284.984 36.45 290.584 36.45C293.684 36.45 296.434 36.75 298.834 37.35C301.334 37.95 303.834 38.8 306.334 39.9V4.19999L328.684 0.599997V114.45ZM423.411 77.4C423.411 83.6 422.511 89.3 420.711 94.5C418.911 99.6 416.311 104 412.911 107.7C409.511 111.3 405.411 114.1 400.611 116.1C395.911 118.1 390.611 119.1 384.711 119.1C378.911 119.1 373.611 118.1 368.811 116.1C364.111 114.1 360.061 111.3 356.661 107.7C353.261 104 350.611 99.6 348.711 94.5C346.811 89.3 345.861 83.6 345.861 77.4C345.861 71.2 346.811 65.55 348.711 60.45C350.711 55.35 353.411 51 356.811 47.4C360.311 43.8 364.411 41 369.111 39C373.911 37 379.111 36 384.711 36C390.411 36 395.611 37 400.311 39C405.111 41 409.211 43.8 412.611 47.4C416.011 51 418.661 55.35 420.561 60.45C422.461 65.55 423.411 71.2 423.411 77.4ZM400.611 77.4C400.611 70.5 399.211 65.1 396.411 61.2C393.711 57.2 389.811 55.2 384.711 55.2C379.611 55.2 375.661 57.2 372.861 61.2C370.061 65.1 368.661 70.5 368.661 77.4C368.661 84.3 370.061 89.8 372.861 93.9C375.661 97.9 379.611 99.9 384.711 99.9C389.811 99.9 393.711 97.9 396.411 93.9C399.211 89.8 400.611 84.3 400.611 77.4Z" fill="black"/>
</svg>
