<?xml version="1.0" standalone="no"?>
<!DOCTYPE svg PUBLIC "-//W3C//DTD SVG 1.1//EN" "http://www.w3.org/Graphics/SVG/1.1/DTD/svg11.dtd" >
<svg xmlns="http://www.w3.org/2000/svg" xmlns:xlink="http://www.w3.org/1999/xlink" version="1.1">
<metadata>
Created by FontForge 20190801 at Mon Aug 27 12:38:56 2018
 By www-data
Copyright (c) 2018 by Swiss Typefaces. All rights reserved. |DCNT
</metadata>
<defs>
<font id="EuclidCircularALight" horiz-adv-x="0" >
  <font-face 
    font-family="EuclidCircularALight"
    font-weight="300"
    font-stretch="normal"
    units-per-em="1000"
    panose-1="2 11 3 4 0 0 0 0 0 0"
    ascent="732"
    descent="-268"
    x-height="500"
    cap-height="710"
    bbox="-358 -258 1385 1000"
    underline-thickness="50"
    underline-position="-265"
    unicode-range="U+0020-FEFF"
  />
<missing-glyph horiz-adv-x="694" 
d="M97 0v710h500v-710h-500zM336 355l-220 327v-654zM357 355l221 -327v654zM563 691h-432l216 -321zM347 339l-216 -320h432z" />
    <glyph glyph-name="_368" unicode="ff" horiz-adv-x="695" 
d="M124 0v434h-107v66h107v112q0 71 38.5 107.5t102.5 36.5q42 0 75 -13v-63q-25 11 -64 11q-42 0 -62 -19.5t-20 -65.5v-106h127v-66h-127v-434h-70zM466 0v434h-87v66h87v112q0 71 38.5 107.5t102.5 36.5q42 0 75 -13v-63q-25 11 -64 11q-42 0 -62 -19.5t-20 -65.5v-106
h146v-66h-146v-434h-70z" />
    <glyph glyph-name="f_i" unicode="fi" horiz-adv-x="595" 
d="M124 0v434h-107v66h107v112q0 71 38.5 107.5t102.5 36.5q42 0 75 -13v-63q-25 11 -64 11q-42 0 -62 -19.5t-20 -65.5v-106h146v-66h-146v-434h-70zM475 650q-23 0 -38.5 15.5t-15.5 37.5t15.5 37.5t38.5 15.5q22 0 37 -15.5t15 -37.5t-15 -37.5t-37 -15.5zM439 0v500h70
v-500h-70z" />
    <glyph glyph-name="_372" unicode="ffi" horiz-adv-x="937" 
d="M817 650q-23 0 -38.5 15.5t-15.5 37.5t15.5 37.5t38.5 15.5q22 0 37 -15.5t15 -37.5t-15 -37.5t-37 -15.5zM781 0v500h70v-500h-70zM124 0v434h-107v66h107v112q0 71 38.5 107.5t102.5 36.5q42 0 75 -13v-63q-25 11 -64 11q-42 0 -62 -19.5t-20 -65.5v-106h127v-66h-127
v-434h-70zM466 0v434h-87v66h87v112q0 71 38.5 107.5t102.5 36.5q42 0 75 -13v-63q-25 11 -64 11q-42 0 -62 -19.5t-20 -65.5v-106h146v-66h-146v-434h-70z" />
    <glyph glyph-name="f_l" unicode="fl" horiz-adv-x="595" 
d="M124 0v434h-107v66h107v112q0 71 38.5 107.5t102.5 36.5q42 0 75 -13v-63q-25 11 -64 11q-42 0 -62 -19.5t-20 -65.5v-106h146v-66h-146v-434h-70zM439 0v750h70v-750h-70z" />
    <glyph glyph-name="_376" unicode="ffl" horiz-adv-x="937" 
d="M781 0v750h70v-750h-70zM124 0v434h-107v66h107v112q0 71 38.5 107.5t102.5 36.5q42 0 75 -13v-63q-25 11 -64 11q-42 0 -62 -19.5t-20 -65.5v-106h127v-66h-127v-434h-70zM466 0v434h-87v66h87v112q0 71 38.5 107.5t102.5 36.5q42 0 75 -13v-63q-25 11 -64 11
q-42 0 -62 -19.5t-20 -65.5v-106h146v-66h-146v-434h-70z" />
    <glyph glyph-name="f_t" unicode="ft" horiz-adv-x="720" 
d="M124 0v434h-107v66h107v112q0 71 38.5 107.5t102.5 36.5q42 0 75 -13v-63q-25 11 -64 11q-42 0 -62 -19.5t-20 -65.5v-106h131v-66h-131v-434h-70zM618 -5q-63 0 -102.5 36.5t-39.5 107.5v295h-93v66h93v139h70v-139h146v-66h-146v-289q0 -46 20.5 -65.5t62.5 -19.5
q38 0 63 11v-63q-33 -13 -74 -13z" />
    <glyph glyph-name="t_t" unicode="tt" horiz-adv-x="729" 
d="M627 -5q-63 0 -102.5 36.5t-39.5 107.5v295h-97v66h97v139h70v-139h146v-66h-146v-289q0 -46 20.5 -65.5t62.5 -19.5q38 0 63 11v-63q-33 -13 -74 -13zM265 -5q-63 0 -102.5 36.5t-39.5 107.5v295h-107v66h107v139h70v-139h137v-66h-137v-289q0 -46 20.5 -65.5
t62.5 -19.5q38 0 63 11v-63q-33 -13 -74 -13z" />
    <glyph glyph-name="uni0407_uni0407" unicode="&#x407;&#x407;" horiz-adv-x="548" 
d="M99 0v710h76v-710h-76zM373 0v710h76v-710h-76zM24 789q-23 0 -38.5 15.5t-15.5 37.5t15.5 37.5t38.5 15.5q22 0 37 -15.5t15 -37.5t-15 -37.5t-37 -15.5zM275 789q-23 0 -38.5 15.5t-15.5 37.5t15.5 37.5t38.5 15.5q22 0 37 -15.5t15 -37.5t-15 -37.5t-37 -15.5z
M525 789q-23 0 -38.5 15.5t-15.5 37.5t15.5 37.5t38.5 15.5q22 0 37 -15.5t15 -37.5t-15 -37.5t-37 -15.5z" />
    <glyph glyph-name="uni0457_uni0458" unicode="&#x457;&#x458;" horiz-adv-x="484" 
d="M156 0h-70v500h70v-500zM41 602q-23 0 -39.5 16.5t-16.5 39.5t16.5 39t39.5 16t39.5 -16t16.5 -39t-16.5 -39.5t-39.5 -16.5zM241 602q-23 0 -39.5 16.5t-16.5 39.5t16.5 39t39.5 16t39.5 -16t16.5 -39t-16.5 -39.5t-39.5 -16.5zM441 602q-23 0 -39.5 16.5t-16.5 39.5
t16.5 39t39.5 16t39.5 -16t16.5 -39t-16.5 -39.5t-39.5 -16.5zM398 500v-575q0 -71 -38.5 -107.5t-102.5 -36.5q-20 0 -35 3v64q16 -2 29 -2q77 0 77 85v569h70z" />
    <glyph glyph-name="uni0457_uni0457" unicode="&#x457;&#x457;" horiz-adv-x="484" 
d="M156 0h-70v500h70v-500zM398 0h-70v500h70v-500zM41 602q-23 0 -39.5 16.5t-16.5 39.5t16.5 39t39.5 16t39.5 -16t16.5 -39t-16.5 -39.5t-39.5 -16.5zM241 602q-23 0 -39.5 16.5t-16.5 39.5t16.5 39t39.5 16t39.5 -16t16.5 -39t-16.5 -39.5t-39.5 -16.5zM441 602
q-23 0 -39.5 16.5t-16.5 39.5t16.5 39t39.5 16t39.5 -16t16.5 -39t-16.5 -39.5t-39.5 -16.5z" />
    <glyph glyph-name=".notdef" horiz-adv-x="694" 
d="M97 0v710h500v-710h-500zM336 355l-220 327v-654zM357 355l221 -327v654zM563 691h-432l216 -321zM347 339l-216 -320h432z" />
    <glyph glyph-name=".null" 
 />
    <glyph glyph-name="nonmarkingreturn" horiz-adv-x="333" 
 />
    <glyph glyph-name="space" unicode=" " horiz-adv-x="245" 
 />
    <glyph glyph-name="exclam" unicode="!" horiz-adv-x="266" 
d="M111 212l-13 208v290h70v-290l-13 -208h-44zM133 -8q-27 0 -46.5 20t-19.5 47t19.5 47t46.5 20t46.5 -20t19.5 -47t-19.5 -47t-46.5 -20z" />
    <glyph glyph-name="quotedbl" unicode="&#x22;" horiz-adv-x="406" 
d="M69 475v235h66v-235h-66zM271 475v235h66v-235h-66z" />
    <glyph glyph-name="numbersign" unicode="#" horiz-adv-x="741" 
d="M354 0l64 205h-193l-63 -205h-68l64 205h-124v63h143l58 183h-128v63h148l61 196h67l-61 -196h192l62 196h66l-61 -196h125v-63h-144l-58 -183h130v-63h-150l-63 -205h-67zM303 451l-58 -183h192l58 183h-192z" />
    <glyph glyph-name="dollar" unicode="$" horiz-adv-x="517" 
d="M235 -88v81q-79 9 -133 61t-56 143h70q17 -118 119 -136v272l-33 14q-150 59 -150 200q0 75 52 121.5t131 52.5v77h54v-78q69 -11 117.5 -55t48.5 -118h-70q-7 41 -32 68t-64 35v-257l22 -9q160 -66 160 -204q0 -88 -51.5 -136.5t-130.5 -52.5v-79h-54zM401 173
q0 51 -27.5 82.5t-84.5 56.5v-253q49 5 80.5 36t31.5 78zM122 546q0 -45 26 -75.5t86 -55.5l1 -1v239q-53 -6 -83 -35t-30 -72z" />
    <glyph glyph-name="percent" unicode="%" horiz-adv-x="994" 
d="M311 0h-78l450 710h78zM764 -8q-82 0 -139.5 58t-57.5 139q0 82 57.5 139.5t139.5 57.5q81 0 139 -57.5t58 -139.5q0 -81 -58 -139t-139 -58zM764 58q54 0 92 38.5t38 92.5t-38 92.5t-92 38.5t-92 -38.5t-38 -92.5t38 -92.5t92 -38.5zM230 324q-82 0 -139.5 58t-57.5 139
q0 82 57.5 139.5t139.5 57.5q81 0 139 -57.5t58 -139.5q0 -81 -58 -139t-139 -58zM230 390q54 0 92 38.5t38 92.5t-38 92.5t-92 38.5t-92 -38.5t-38 -92.5t38 -92.5t92 -38.5z" />
    <glyph glyph-name="ampersand" unicode="&#x26;" horiz-adv-x="737" 
d="M279 -10q-92 0 -152 57t-60 144q0 69 40 114.5t110 86.5l16 9q-41 41 -65.5 80t-24.5 85q0 70 50.5 113t124.5 43t121 -46t47 -115q0 -103 -143 -176l163 -159l89 116h80l-123 -161l186 -181h-93l-133 129q-61 -73 -113 -106t-120 -33zM284 55q51 0 92.5 28.5t89.5 90.5
l-186 181l-22 -11q-59 -32 -89 -65.5t-30 -86.5q0 -62 42.5 -99.5t102.5 -37.5zM212 564q0 -25 13 -49t26.5 -39t45.5 -45l6 3q38 21 57.5 33.5t37.5 36t18 51.5q0 46 -27 75.5t-73 29.5q-44 0 -74 -26t-30 -70z" />
    <glyph glyph-name="quotesingle" unicode="'" horiz-adv-x="204" 
d="M69 475v235h66v-235h-66z" />
    <glyph glyph-name="parenleft" unicode="(" horiz-adv-x="268" 
d="M236 -160h-59q-128 233 -128 480t128 480h59q-121 -235 -121 -480t121 -480z" />
    <glyph glyph-name="parenright" unicode=")" horiz-adv-x="267" 
d="M90 -160h-59q121 235 121 480t-121 480h59q128 -233 128 -480t-128 -480z" />
    <glyph glyph-name="asterisk" unicode="*" horiz-adv-x="424" 
d="M136 394l-47 33l75 104l-122 41l16 56l124 -41v123h58v-123l124 40l18 -55l-123 -40l76 -105l-46 -33l-78 104z" />
    <glyph glyph-name="plus" unicode="+" horiz-adv-x="502" 
d="M39 258v63h179v179h66v-179h179v-63h-179v-179h-66v179h-179z" />
    <glyph glyph-name="comma" unicode="," horiz-adv-x="248" 
d="M178 20l-100 -160h-50l65 140q-35 20 -35 59q0 27 19.5 47t46.5 20t46.5 -20t19.5 -47q0 -20 -12 -39z" />
    <glyph glyph-name="hyphen" unicode="-" horiz-adv-x="381" 
d="M68 244v72h245v-72h-245z" />
    <glyph glyph-name="period" unicode="." horiz-adv-x="244" 
d="M122 -8q-27 0 -46.5 20t-19.5 47t19.5 47t46.5 20t46.5 -20t19.5 -47t-19.5 -47t-46.5 -20z" />
    <glyph glyph-name="slash" unicode="/" horiz-adv-x="497" 
d="M22 -110l386 820h67l-386 -820h-67z" />
    <glyph glyph-name="zero" unicode="0" horiz-adv-x="620" 
d="M310 -10q-108 0 -177.5 73.5t-69.5 189.5v206q0 116 69.5 189.5t177.5 73.5t177.5 -73.5t69.5 -189.5v-206q0 -116 -69.5 -189.5t-177.5 -73.5zM310 58q79 0 128 52.5t49 142.5v206q0 90 -49 142.5t-128 52.5t-128 -52.5t-49 -142.5v-206q0 -90 49 -142.5t128 -52.5z" />
    <glyph glyph-name="one" unicode="1" horiz-adv-x="312" 
d="M143 0v641h-133l61 69h142v-710h-70z" />
    <glyph glyph-name="two" unicode="2" horiz-adv-x="553" 
d="M504 67v-67h-452v30q0 37 11.5 70t27 56.5t43.5 50.5t48.5 42t56.5 41t53 39q41 31 59 46.5t38.5 39t27 48t6.5 59.5q0 59 -39.5 95.5t-101.5 36.5q-67 0 -112.5 -39.5t-47.5 -113.5h-72q0 99 65.5 160t163.5 61q92 0 154 -53.5t62 -150.5q0 -73 -36.5 -125.5
t-131.5 -122.5q-19 -14 -54 -38t-52.5 -37.5t-39.5 -34.5t-33.5 -43.5t-16.5 -49.5h373z" />
    <glyph glyph-name="three" unicode="3" horiz-adv-x="578" 
d="M297 -10q-108 0 -179 64t-71 158h72q2 -67 54.5 -110.5t123.5 -43.5q66 0 110.5 37t44.5 103q0 71 -45 105t-123 34h-50v69h57q58 0 99.5 35t41.5 89t-40.5 89t-99.5 35q-68 0 -113.5 -39t-47.5 -114h-72q0 99 66.5 160t166.5 61q89 0 150.5 -52t61.5 -140
q-1 -51 -28.5 -92.5t-72.5 -62.5q58 -23 89.5 -69.5t31.5 -107.5q0 -93 -63.5 -150.5t-163.5 -57.5z" />
    <glyph glyph-name="four" unicode="4" horiz-adv-x="610" 
d="M402 0v202h-385v57l395 451h60v-441h100v-67h-100v-202h-70zM111 269h291v332z" />
    <glyph glyph-name="five" unicode="5" horiz-adv-x="550" 
d="M271 -10q-94 0 -163 59.5t-71 138.5h72q12 -56 57.5 -93t104.5 -37q70 0 118 48.5t48 117.5q0 70 -45.5 118t-115.5 48q-91 0 -142 -72l-69 20l70 372h328v-69h-270l-42 -225q51 42 131 42q99 0 163 -70t64 -175q0 -91 -69.5 -157t-168.5 -66z" />
    <glyph glyph-name="six" unicode="6" horiz-adv-x="556" 
d="M275 -10q-99 0 -168.5 68.5t-69.5 162.5q0 90 78 178l274 311h91l-231 -262q19 5 42 5q91 0 156.5 -69.5t65.5 -159.5q0 -97 -69.5 -165.5t-168.5 -68.5zM275 58q70 0 118 48.5t48 117.5t-48 117.5t-118 48.5t-118 -48.5t-48 -117.5t48 -117.5t118 -48.5z" />
    <glyph glyph-name="seven" unicode="7" horiz-adv-x="498" 
d="M144 0h-78l335 641h-373v69h457v-57z" />
    <glyph glyph-name="eight" unicode="8" horiz-adv-x="566" 
d="M283 -10q-102 0 -168 63t-66 159q0 66 32 115t89 74q-79 50 -79 141q0 78 55 129t137 51q83 0 137.5 -51t54.5 -129q0 -91 -77 -141q57 -25 88 -74t31 -115q0 -97 -64.5 -159.5t-169.5 -62.5zM283 58q76 0 120 43.5t44 109.5q0 67 -44 110t-119 43q-74 0 -119.5 -43
t-45.5 -110q0 -65 45.5 -109t118.5 -44zM283 431q57 0 90 33t33 79q0 49 -32.5 80t-90.5 31q-55 0 -89 -31.5t-34 -79.5q0 -46 34 -79t89 -33z" />
    <glyph glyph-name="nine" unicode="9" horiz-adv-x="556" 
d="M75 0l232 263q-17 -4 -41 -4q-91 0 -156.5 69.5t-65.5 159.5q0 97 69.5 165.5t168.5 68.5t168.5 -68.5t69.5 -162.5q0 -90 -78 -178l-276 -313h-91zM282 322q70 0 118 48.5t48 117.5t-48 117.5t-118 48.5t-118 -48.5t-48 -117.5t48 -117.5t118 -48.5z" />
    <glyph glyph-name="colon" unicode=":" horiz-adv-x="266" 
d="M133 378q-27 0 -46.5 20t-19.5 47t19.5 47t46.5 20t46.5 -20t19.5 -47t-19.5 -47t-46.5 -20zM133 -8q-27 0 -46.5 20t-19.5 47t19.5 47t46.5 20t46.5 -20t19.5 -47t-19.5 -47t-46.5 -20z" />
    <glyph glyph-name="semicolon" unicode=";" horiz-adv-x="280" 
d="M196 20l-100 -160h-50l65 140q-35 20 -35 59q0 27 19.5 47t46.5 20t46.5 -20t19.5 -47q0 -20 -12 -39zM142 378q-27 0 -46.5 20t-19.5 47t19.5 47t46.5 20t46.5 -20t19.5 -47t-19.5 -47t-46.5 -20z" />
    <glyph glyph-name="less" unicode="&#x3c;" horiz-adv-x="412" 
d="M376 543l-253 -253l253 -253h-89l-253 253l253 253h89z" />
    <glyph glyph-name="equal" unicode="=" horiz-adv-x="566" 
d="M71 149v63h424v-63h-424zM71 368v63h424v-63h-424z" />
    <glyph glyph-name="greater" unicode="&#x3e;" horiz-adv-x="412" 
d="M289 290l-253 253h89l253 -253l-253 -253h-89z" />
    <glyph glyph-name="question" unicode="?" horiz-adv-x="502" 
d="M197 229v20q0 58 93 129q50 36 72 66t22 74q0 58 -37 97t-94 39q-65 0 -107 -41.5t-42 -104.5h-70q0 89 62.5 151.5t156.5 62.5q89 0 145 -60t56 -144q0 -44 -20 -83t-40 -58t-49 -41q-53 -41 -67 -62q-11 -18 -11 -35v-10h-70zM232 -8q-27 0 -46.5 20t-19.5 47t19.5 47
t46.5 20t46.5 -20t19.5 -47t-19.5 -47t-46.5 -20z" />
    <glyph glyph-name="at" unicode="@" horiz-adv-x="815" 
d="M398 -10q-158 0 -253.5 99t-95.5 248q0 111 55 200t143.5 137t191.5 48q146 0 242.5 -87.5t96.5 -228.5q0 -121 -52 -184t-124 -63q-83 0 -105 64q-18 -27 -55.5 -45t-74.5 -18q-64 0 -108.5 46.5t-44.5 126.5q0 94 59.5 156t143.5 62q45 0 76.5 -22t41.5 -52l12 65h69
l-50 -243q-9 -33 -1 -56t40 -23q49 0 77.5 47.5t28.5 140.5q0 113 -76.5 183t-196.5 70q-132 0 -227 -90.5t-95 -233.5q0 -128 76.5 -207t205.5 -79q105 0 186 40v-67q-87 -34 -186 -34zM376 221q49 0 86.5 34t47.5 86q12 63 -15 106t-79 43q-48 0 -87 -34.5t-47 -85.5
q-12 -63 15 -106t79 -43z" />
    <glyph glyph-name="A" unicode="A" horiz-adv-x="710" 
d="M8 0l316 710h61l317 -710h-80l-99 221h-339l-98 -221h-78zM353 603l-138 -311h277z" />
    <glyph glyph-name="B" unicode="B" horiz-adv-x="628" 
d="M99 0v710h224q98 0 155 -53t57 -129q0 -104 -81 -151q128 -43 128 -170q0 -91 -66.5 -149t-176.5 -58h-240zM175 69h172q78 0 119 36t41 96t-40.5 96.5t-118.5 36.5h-173v-265zM175 400h153q62 0 97 33.5t35 86.5q0 50 -35.5 85.5t-96.5 35.5h-153v-241z" />
    <glyph glyph-name="C" unicode="C" horiz-adv-x="791" 
d="M415 -12q-154 0 -260.5 106t-106.5 261t106.5 261t260.5 106q132 0 223.5 -72.5t115.5 -171.5h-80q-25 74 -95 123t-164 49q-123 0 -206.5 -85.5t-83.5 -209.5q0 -125 83.5 -210t206.5 -85q94 0 164 49t95 123h80q-24 -99 -115.5 -171.5t-223.5 -72.5z" />
    <glyph glyph-name="D" unicode="D" horiz-adv-x="723" 
d="M99 0v710h194q167 0 274.5 -100.5t107.5 -254.5t-107.5 -254.5t-274.5 -100.5h-194zM175 72h118q137 0 221 79.5t84 203.5t-84 203.5t-221 79.5h-118v-566z" />
    <glyph glyph-name="E" unicode="E" horiz-adv-x="554" 
d="M99 0v710h405v-72h-329v-237h269v-72h-269v-257h329v-72h-405z" />
    <glyph glyph-name="F" unicode="F" horiz-adv-x="528" 
d="M99 0v710h407v-72h-331v-237h262v-72h-262v-329h-76z" />
    <glyph glyph-name="G" unicode="G" horiz-adv-x="820" 
d="M415 -12q-154 0 -260.5 106t-106.5 261t106.5 261t260.5 106q123 0 215 -66t122 -156h-84q-31 66 -98.5 108t-154.5 42q-123 0 -206.5 -85.5t-83.5 -209.5q0 -125 83.5 -210t206.5 -85q116 0 192.5 76t86.5 192h-279v72h357q12 -181 -93.5 -296.5t-263.5 -115.5z" />
    <glyph glyph-name="H" unicode="H" horiz-adv-x="765" 
d="M99 0v710h76v-309h415v309h76v-710h-76v329h-415v-329h-76z" />
    <glyph glyph-name="I" unicode="I" horiz-adv-x="274" 
d="M99 0v710h76v-710h-76z" />
    <glyph glyph-name="J" unicode="J" horiz-adv-x="523" 
d="M229 -12q-90 0 -148.5 53t-58.5 145h76q0 -60 38 -93.5t92 -33.5q56 0 91.5 35.5t35.5 111.5v504h76v-514q0 -105 -57 -156.5t-145 -51.5z" />
    <glyph glyph-name="K" unicode="K" horiz-adv-x="664" 
d="M573 0l-399 343v-343h-75v710h75v-311l327 311h103l-353 -337l435 -373h-113z" />
    <glyph glyph-name="L" unicode="L" horiz-adv-x="547" 
d="M99 0v710h76v-638h355v-72h-431z" />
    <glyph glyph-name="M" unicode="M" horiz-adv-x="886" 
d="M99 710h70l274 -365l274 365h70v-710h-76v579l-268 -357l-268 357v-579h-76v710z" />
    <glyph glyph-name="N" unicode="N" horiz-adv-x="794" 
d="M695 0h-67l-453 581v-581h-76v710h67l453 -581v581h76v-710z" />
    <glyph glyph-name="O" unicode="O" horiz-adv-x="830" 
d="M415 60q123 0 206.5 85t83.5 210q0 124 -83.5 209.5t-206.5 85.5t-206.5 -85.5t-83.5 -209.5q0 -125 83.5 -210t206.5 -85zM415 -12q-154 0 -260.5 106t-106.5 261t106.5 261t260.5 106t260.5 -106t106.5 -261t-106.5 -261t-260.5 -106z" />
    <glyph glyph-name="P" unicode="P" horiz-adv-x="584" 
d="M552 488q0 -96 -66.5 -158.5t-175.5 -62.5h-135v-267h-76v710h211q109 0 175.5 -63t66.5 -159zM475 488q0 66 -43.5 108.5t-121.5 42.5h-135v-301h135q78 0 121.5 42t43.5 108z" />
    <glyph glyph-name="Q" unicode="Q" horiz-adv-x="839" 
d="M415 -12q-154 0 -260.5 106t-106.5 261t106.5 261t260.5 106t260.5 -106t106.5 -261q0 -141 -90 -244l116 -111h-103l-66 63q-101 -75 -224 -75zM415 60q97 0 171 54l-115 111l49 52l118 -114q67 79 67 192q0 124 -83.5 209.5t-206.5 85.5t-206.5 -85.5t-83.5 -209.5
q0 -125 83.5 -210t206.5 -85z" />
    <glyph glyph-name="R" unicode="R" horiz-adv-x="628" 
d="M99 0v710h232q98 0 154 -51.5t56 -139.5q0 -82 -49.5 -132.5t-136.5 -57.5l281 -329h-99l-281 330h-81v-330h-76zM175 400h147q142 0 142 119q0 120 -142 120h-147v-239z" />
    <glyph glyph-name="S" unicode="S" horiz-adv-x="552" 
d="M284 -12q-104 0 -170 55.5t-68 137.5h76q6 -58 54.5 -89.5t106.5 -31.5q62 0 103.5 32t41.5 85q0 89 -103 129l-105 40q-83 32 -120 78t-37 119q0 82 59 130.5t150 48.5q98 0 152.5 -54.5t63.5 -130.5h-76q-13 56 -52.5 84.5t-90.5 28.5q-56 0 -93 -29t-37 -77
q0 -47 25 -74.5t81 -49.5l94 -36q83 -32 124 -80.5t41 -124.5q0 -88 -61.5 -139.5t-158.5 -51.5z" />
    <glyph glyph-name="T" unicode="T" horiz-adv-x="567" 
d="M246 0v638h-230v72h535v-72h-230v-638h-75z" />
    <glyph glyph-name="U" unicode="U" horiz-adv-x="728" 
d="M364 -12q-123 0 -198.5 77.5t-75.5 209.5v435h76v-437q0 -101 53.5 -157t144.5 -56t144.5 56t53.5 157v437h76v-435q0 -132 -75.5 -209.5t-198.5 -77.5z" />
    <glyph glyph-name="V" unicode="V" horiz-adv-x="694" 
d="M316 0l-306 710h85l252 -586l252 586h84l-305 -710h-62z" />
    <glyph glyph-name="W" unicode="W" horiz-adv-x="942" 
d="M650 0l-179 516l-179 -516h-66l-202 710h79l162 -580l206 592l206 -592l162 580h79l-202 -710h-66z" />
    <glyph glyph-name="X" unicode="X" horiz-adv-x="662" 
d="M103 0h-96l276 359l-266 351h93l221 -289l221 289h93l-267 -351l277 -359h-96l-228 296z" />
    <glyph glyph-name="Y" unicode="Y" horiz-adv-x="669" 
d="M297 0v301l-280 409h92l226 -331l226 331h92l-281 -410v-300h-75z" />
    <glyph glyph-name="Z" unicode="Z" horiz-adv-x="578" 
d="M33 0v50l398 588h-386v72h488v-50l-399 -588h410v-72h-511z" />
    <glyph glyph-name="bracketleft" unicode="[" horiz-adv-x="298" 
d="M97 -160v960h176v-63h-110v-834h110v-63h-176z" />
    <glyph glyph-name="backslash" unicode="\" horiz-adv-x="497" 
d="M89 710l386 -820h-67l-386 820h67z" />
    <glyph glyph-name="bracketright" unicode="]" horiz-adv-x="298" 
d="M201 800v-960h-176v63h110v834h-110v63h176z" />
    <glyph glyph-name="asciicircum" unicode="^" horiz-adv-x="426" 
d="M125 500h-70l132 210h52l132 -210h-70l-88 140z" />
    <glyph glyph-name="underscore" unicode="_" horiz-adv-x="537" 
d="M58 -63v63h421v-63h-421z" />
    <glyph glyph-name="grave" unicode="`" 
d="M32 560l-125 190h95l90 -190h-60z" />
    <glyph glyph-name="a" unicode="a" horiz-adv-x="634" 
d="M293 -10q-105 0 -177 76t-72 184t72 184t177 76q57 0 107.5 -26t77.5 -68v84h70v-500h-70v84q-27 -42 -77.5 -68t-107.5 -26zM300 55q81 0 132.5 56.5t51.5 138.5t-51.5 138.5t-132.5 56.5t-132.5 -56.5t-51.5 -138.5t51.5 -138.5t132.5 -56.5z" />
    <glyph glyph-name="b" unicode="b" horiz-adv-x="634" 
d="M341 -10q-57 0 -107.5 26t-77.5 68v-84h-70v750h70v-334q27 42 77.5 68t107.5 26q105 0 177 -76t72 -184t-72 -184t-177 -76zM334 55q81 0 132.5 56.5t51.5 138.5t-51.5 138.5t-132.5 56.5t-132.5 -56.5t-51.5 -138.5t51.5 -138.5t132.5 -56.5z" />
    <glyph glyph-name="c" unicode="c" horiz-adv-x="590" 
d="M305 -10q-113 0 -187 75.5t-74 184.5t74 184.5t187 75.5q91 0 159 -50.5t91 -130.5h-76q-18 52 -65 84t-109 32q-84 0 -136.5 -56.5t-52.5 -138.5t52.5 -138.5t136.5 -56.5q62 0 109 32t65 84h76q-23 -80 -91 -130.5t-159 -50.5z" />
    <glyph glyph-name="d" unicode="d" horiz-adv-x="634" 
d="M293 -10q-105 0 -177 76t-72 184t72 184t177 76q57 0 107.5 -26t77.5 -68v334h70v-750h-70v84q-27 -42 -77.5 -68t-107.5 -26zM300 55q81 0 132.5 56.5t51.5 138.5t-51.5 138.5t-132.5 56.5t-132.5 -56.5t-51.5 -138.5t51.5 -138.5t132.5 -56.5z" />
    <glyph glyph-name="e" unicode="e" horiz-adv-x="575" 
d="M293 -10q-108 0 -178 74t-70 186t68 186t183 74t179 -83.5t54 -196.5h-412q0 -75 53 -125t123 -50q108 0 156 94h72q-19 -69 -78 -114t-150 -45zM293 445q-63 0 -111 -37.5t-61 -116.5h336q-12 74 -56 114t-108 40z" />
    <glyph glyph-name="f" unicode="f" horiz-adv-x="353" 
d="M124 0v434h-107v66h107v112q0 71 38.5 107.5t102.5 36.5q42 0 75 -13v-63q-25 11 -64 11q-42 0 -62 -19.5t-20 -65.5v-106h146v-66h-146v-434h-70z" />
    <glyph glyph-name="g" unicode="g" horiz-adv-x="631" 
d="M302 -219q-98 0 -164 46.5t-78 121.5h69q35 -104 174 -104q77 0 124.5 50t47.5 140v59q-28 -42 -77 -68t-106 -26q-106 0 -176.5 73.5t-70.5 181.5t70.5 181.5t176.5 73.5q57 0 106 -26t77 -68v84h70v-469q0 -119 -67.5 -184.5t-175.5 -65.5zM299 65q81 0 131.5 54
t50.5 136t-50.5 136t-131.5 54t-131.5 -54t-50.5 -136t50.5 -136t131.5 -54z" />
    <glyph glyph-name="h" unicode="h" horiz-adv-x="586" 
d="M156 0h-70v750h70v-334q51 94 164 94q83 0 135.5 -53t52.5 -144v-313h-70v303q0 65 -34.5 103.5t-91.5 38.5q-68 0 -112 -52.5t-44 -143.5v-249z" />
    <glyph glyph-name="i" unicode="i" horiz-adv-x="242" 
d="M122 650q-23 0 -38.5 15.5t-15.5 37.5t15.5 37.5t38.5 15.5q22 0 37 -15.5t15 -37.5t-15 -37.5t-37 -15.5zM86 0v500h70v-500h-70z" />
    <glyph glyph-name="j" unicode="j" horiz-adv-x="250" 
d="M164 500v-575q0 -71 -38.5 -107.5t-102.5 -36.5q-20 0 -35 3v64q16 -2 29 -2q77 0 77 85v569h70zM130 650q-23 0 -38.5 15.5t-15.5 37.5t15.5 37.5t38.5 15.5q22 0 37 -15.5t15 -37.5t-15 -37.5t-37 -15.5z" />
    <glyph glyph-name="k" unicode="k" horiz-adv-x="534" 
d="M447 0l-291 255v-255h-70v750h70v-447l235 197h99l-263 -220l320 -280h-100z" />
    <glyph glyph-name="l" unicode="l" horiz-adv-x="242" 
d="M86 0v750h70v-750h-70z" />
    <glyph glyph-name="m" unicode="m" horiz-adv-x="882" 
d="M734 0v303q0 64 -27.5 103t-78.5 39q-67 0 -107.5 -53.5t-40.5 -142.5v-249h-70v303q0 64 -27.5 103t-77.5 39q-66 0 -107.5 -53.5t-41.5 -142.5v-249h-70v500h70v-84q22 44 63 69t93 25q56 0 96.5 -30t58.5 -83q19 52 62.5 82.5t103.5 30.5q78 0 124.5 -54.5
t46.5 -142.5v-313h-70z" />
    <glyph glyph-name="n" unicode="n" horiz-adv-x="586" 
d="M86 0v500h70v-84q51 94 164 94q83 0 135.5 -53t52.5 -144v-313h-70v303q0 65 -34.5 103.5t-91.5 38.5q-68 0 -112 -52.5t-44 -143.5v-249h-70z" />
    <glyph glyph-name="o" unicode="o" horiz-adv-x="610" 
d="M305 -10q-113 0 -187 75.5t-74 184.5t74 184.5t187 75.5t187 -75.5t74 -184.5t-74 -184.5t-187 -75.5zM305 55q84 0 136.5 56.5t52.5 138.5t-52.5 138.5t-136.5 56.5t-136.5 -56.5t-52.5 -138.5t52.5 -138.5t136.5 -56.5z" />
    <glyph glyph-name="p" unicode="p" horiz-adv-x="635" 
d="M156 -209h-70v709h70v-84q27 42 77.5 68t107.5 26q105 0 177 -76t72 -184t-72 -184t-177 -76q-57 0 -107.5 26t-77.5 68v-293zM334 55q81 0 132.5 56.5t51.5 138.5t-51.5 138.5t-132.5 56.5t-132.5 -56.5t-51.5 -138.5t51.5 -138.5t132.5 -56.5z" />
    <glyph glyph-name="q" unicode="q" horiz-adv-x="634" 
d="M548 -209h-70v293q-27 -42 -77.5 -68t-107.5 -26q-105 0 -177 76t-72 184t72 184t177 76q57 0 107.5 -26t77.5 -68v84h70v-709zM300 55q81 0 132.5 56.5t51.5 138.5t-51.5 138.5t-132.5 56.5t-132.5 -56.5t-51.5 -138.5t51.5 -138.5t132.5 -56.5z" />
    <glyph glyph-name="r" unicode="r" horiz-adv-x="357" 
d="M86 0v500h70v-103q16 50 57 79t88 29q21 0 36 -4v-73q-18 7 -42 7q-53 0 -96 -48t-43 -136v-251h-70z" />
    <glyph glyph-name="s" unicode="s" horiz-adv-x="457" 
d="M237 -10q-80 0 -135 39t-61 112h70q21 -88 126 -88q46 0 76 19.5t30 55.5q0 33 -21.5 54.5t-68.5 34.5l-65 17q-129 35 -129 145q0 60 46 95.5t118 35.5q76 0 122.5 -40t52.5 -99h-69q-11 36 -39 56.5t-67 20.5q-40 0 -67 -19t-27 -50q0 -30 19 -49t63 -31l77 -20
q60 -15 92.5 -52.5t32.5 -93.5q0 -72 -48.5 -107.5t-127.5 -35.5z" />
    <glyph glyph-name="t" unicode="t" horiz-adv-x="367" 
d="M265 -5q-63 0 -102.5 36.5t-39.5 107.5v295h-107v66h107v139h70v-139h146v-66h-146v-289q0 -46 20.5 -65.5t62.5 -19.5q38 0 63 11v-63q-33 -13 -74 -13z" />
    <glyph glyph-name="u" unicode="u" horiz-adv-x="576" 
d="M261 -10q-81 0 -132 54t-51 143v313h70v-303q0 -65 34 -103.5t88 -38.5q65 0 107.5 53.5t42.5 142.5v249h70v-500h-70v84q-51 -94 -159 -94z" />
    <glyph glyph-name="v" unicode="v" horiz-adv-x="539" 
d="M242 0l-234 500h78l183 -397l183 397h79l-234 -500h-55z" />
    <glyph glyph-name="w" unicode="w" horiz-adv-x="751" 
d="M508 0l-133 381l-132 -381h-58l-171 500h72l129 -380l133 380h54l132 -380l130 380h73l-171 -500h-58z" />
    <glyph glyph-name="x" unicode="x" horiz-adv-x="518" 
d="M422 0l-163 201l-163 -201h-89l208 256l-187 244h85l145 -189l146 189h86l-188 -245l208 -255h-88z" />
    <glyph glyph-name="y" unicode="y" horiz-adv-x="540" 
d="M201 -209h-79l110 234l-222 475h78l183 -397l183 397h79z" />
    <glyph glyph-name="z" unicode="z" horiz-adv-x="479" 
d="M40 0v56l302 379h-298v65h388v-57l-301 -378h310v-65h-401z" />
    <glyph glyph-name="braceleft" unicode="{" horiz-adv-x="308" 
d="M283 -160h-53q-70 0 -96.5 34.5t-26.5 108.5v230q0 41 -11.5 58t-47.5 17h-17v63h17q36 0 47.5 17t11.5 58v231q0 75 26.5 109t95.5 34h54v-63h-48q-38 0 -50 -17t-12 -60v-227q0 -50 -10.5 -74.5t-41.5 -38.5q30 -17 41 -41.5t11 -72.5v-226q0 -44 12 -60.5t50 -16.5h48
v-63z" />
    <glyph glyph-name="bar" unicode="|" horiz-adv-x="261" 
d="M97 -110v820h67v-820h-67z" />
    <glyph glyph-name="braceright" unicode="}" horiz-adv-x="308" 
d="M78 -160h-53v63h48q38 0 50 16.5t12 60.5v226q0 48 11 72.5t41 41.5q-31 14 -41.5 38.5t-10.5 74.5v227q0 43 -12 60t-50 17h-48v63h54q69 0 95.5 -34t26.5 -109v-231q0 -41 11.5 -58t47.5 -17h17v-63h-17q-36 0 -47.5 -17t-11.5 -58v-230q0 -74 -26.5 -108.5
t-96.5 -34.5z" />
    <glyph glyph-name="asciitilde" unicode="~" horiz-adv-x="432" 
d="M72 230l55 119h46l95 -61l28 61h66l-55 -119h-46l-96 60l-27 -60h-66z" />
    <glyph glyph-name="uni00A0" unicode="&#xa0;" horiz-adv-x="245" 
 />
    <glyph glyph-name="exclamdown" unicode="&#xa1;" horiz-adv-x="252" 
d="M148 290l13 -208v-291h-70v291l13 208h44zM126 378q-27 0 -46.5 20t-19.5 47t19.5 47t46.5 20t46.5 -20t19.5 -47t-19.5 -47t-46.5 -20z" />
    <glyph glyph-name="cent" unicode="&#xa2;" horiz-adv-x="593" 
d="M278 -88v80q-102 10 -167 83.5t-65 174.5q0 100 65.5 174t166.5 84v80h54v-79q83 -8 144 -57.5t81 -122.5h-76q-16 46 -56 77t-93 37v-387q54 7 93.5 38t55.5 77h76q-20 -74 -81.5 -124t-143.5 -56v-79h-54zM118 250q0 -76 43.5 -129.5t116.5 -63.5v386
q-73 -10 -116.5 -64.5t-43.5 -128.5z" />
    <glyph glyph-name="sterling" unicode="&#xa3;" horiz-adv-x="555" 
d="M53 338v54h59q-21 75 -21 127q0 86 57.5 144.5t149.5 58.5q93 0 151.5 -61t58.5 -149h-70q-2 60 -40.5 101t-99.5 41q-62 0 -99.5 -37.5t-37.5 -97.5q0 -55 25 -127h196v-54h-179q26 -78 26 -137q0 -81 -41 -133h320v-68h-455v68h49q58 48 58 128q0 30 -32 142h-75z" />
    <glyph glyph-name="yen" unicode="&#xa5;" horiz-adv-x="658" 
d="M89 300v54h171l-229 356h84l214 -340l213 340h85l-229 -356h171v-54h-205v-74h205v-54h-205v-172h-70v172h-205v54h205v74h-205z" />
    <glyph glyph-name="brokenbar" unicode="&#xa6;" horiz-adv-x="261" 
d="M97 -110v367h67v-367h-67zM97 343v367h67v-367h-67z" />
    <glyph glyph-name="section" unicode="&#xa7;" horiz-adv-x="459" 
d="M240 -219q-64 0 -111.5 32t-55.5 98h68q8 -36 35.5 -52.5t63.5 -16.5q41 0 68.5 25.5t25.5 66.5q-4 81 -102 127l-65 29q-113 50 -113 164q0 116 114 163q-52 27 -80.5 65t-28.5 98q0 63 41.5 102.5t110.5 39.5q63 0 106 -32t51 -98h-68q-16 69 -89 69q-40 0 -62 -23
t-22 -59q0 -45 28.5 -71.5t73.5 -45.5l65 -29q113 -50 113 -164q0 -117 -116 -164q107 -61 111 -172q2 -68 -44.5 -110t-117.5 -42zM122 254q0 -71 83 -108l10 -5q62 21 93 49.5t31 78.5q0 71 -83 108l-10 4q-62 -20 -93 -48t-31 -79z" />
    <glyph glyph-name="dieresis" unicode="&#xa8;" 
d="M-110 602q-23 0 -38.5 15.5t-15.5 37.5t15.5 37.5t38.5 15.5q22 0 37 -15.5t15 -37.5t-15 -37.5t-37 -15.5zM112 602q-23 0 -38.5 15.5t-15.5 37.5t15.5 37.5t38.5 15.5q22 0 37 -15.5t15 -37.5t-15 -37.5t-37 -15.5z" />
    <glyph glyph-name="copyright" unicode="&#xa9;" horiz-adv-x="829" 
d="M419 163q-84 0 -139.5 55.5t-55.5 136.5t56 137t139 56q65 0 115.5 -37.5t64.5 -94.5h-72q-12 31 -41.5 49.5t-66.5 18.5q-56 0 -92 -37t-36 -92t36 -91.5t92 -36.5q37 0 66.5 18.5t41.5 49.5h72q-14 -57 -64 -94.5t-116 -37.5zM414 55q123 0 212 88.5t89 211.5
t-89 211.5t-212 88.5t-211.5 -88t-88.5 -212t88.5 -212t211.5 -88zM414 -12q-151 0 -259 108t-108 259t108 259t259 108q152 0 260 -107.5t108 -259.5t-108 -259.5t-260 -107.5z" />
    <glyph glyph-name="ordfeminine" unicode="&#xaa;" horiz-adv-x="425" 
d="M191 404q-62 0 -103.5 45.5t-41.5 110.5t41.5 110.5t103.5 45.5q66 0 100 -48v42h61v-300h-61v42q-34 -48 -100 -48zM202 460q41 0 67.5 28.5t26.5 71.5t-26.5 71.5t-67.5 28.5t-67.5 -28.5t-26.5 -71.5t26.5 -71.5t67.5 -28.5z" />
    <glyph glyph-name="guillemotleft" unicode="&#xab;" horiz-adv-x="462" 
d="M211 250l141 217h59l-116 -217l116 -217h-59zM47 250l141 217h59l-116 -217l116 -217h-59z" />
    <glyph glyph-name="uni00AD" unicode="&#xad;" horiz-adv-x="381" 
d="M68 244v72h245v-72h-245z" />
    <glyph glyph-name="registered" unicode="&#xae;" horiz-adv-x="829" 
d="M414 -12q-151 0 -259 108t-108 259t108 259t259 108q152 0 260 -107.5t108 -259.5t-108 -259.5t-260 -107.5zM414 55q123 0 212 88.5t89 211.5t-89 211.5t-212 88.5t-211.5 -88t-88.5 -212t88.5 -212t211.5 -88zM297 169v373h137q52 0 83 -30t31 -78q0 -75 -82 -99
l137 -166h-81l-133 161h-25v-161h-67zM364 388h63q25 0 40 12t15 34q0 46 -55 46h-63v-92z" />
    <glyph glyph-name="macron" unicode="&#xaf;" 
d="M-158 649v61h316v-61h-316z" />
    <glyph glyph-name="degree" unicode="&#xb0;" horiz-adv-x="338" 
d="M169 523q29 0 49 20t20 49t-20 49t-49 20t-49 -20t-20 -49t20 -49t49 -20zM169 470q-51 0 -86.5 35.5t-35.5 86.5t35.5 86.5t86.5 35.5t86.5 -35.5t35.5 -86.5t-35.5 -86.5t-86.5 -35.5z" />
    <glyph glyph-name="twosuperior" unicode="&#xb2;" horiz-adv-x="352" 
d="M317 469v-59h-283v23q0 19 3.5 36t14.5 33.5t17 26t26 26t25 20.5t30 21.5t27 18.5q41 30 57.5 51.5t16.5 53.5q0 31 -20 50t-53 19q-35 0 -58.5 -20.5t-23.5 -57.5h-62q0 61 41 99.5t103 38.5q57 0 96 -33.5t39 -94.5q0 -47 -22.5 -80.5t-74.5 -71.5q-6 -4 -22 -15
t-23 -15.5t-19 -14.5t-18.5 -17t-12.5 -17.5t-9 -20.5h205z" />
    <glyph glyph-name="threesuperior" unicode="&#xb3;" horiz-adv-x="365" 
d="M187 404q-65 0 -110.5 39t-45.5 101h61q3 -37 29.5 -59t65.5 -22q35 0 58 19t23 52q0 36 -24 54.5t-64 18.5h-33v54h34q33 0 53.5 17.5t21.5 46.5t-20 46.5t-52 17.5q-37 0 -60 -20.5t-24 -57.5h-61q0 62 42 100t103 38q58 0 96 -33.5t38 -87.5q-1 -64 -55 -93
q31 -13 49 -40t18 -63q0 -57 -40 -92.5t-103 -35.5z" />
    <glyph glyph-name="acute" unicode="&#xb4;" 
d="M-93 560l90 190h95l-125 -190h-60z" />
    <glyph glyph-name="paragraph" unicode="&#xb6;" horiz-adv-x="612" 
d="M256 -184v444q-93 0 -159 66t-66 159t66 159t159 66h247v-894h-67v828h-113v-828h-67z" />
    <glyph glyph-name="periodcentered" unicode="&#xb7;" horiz-adv-x="264" 
d="M132 202q-27 0 -46.5 20t-19.5 47t19.5 47t46.5 20t46.5 -20t19.5 -47t-19.5 -47t-46.5 -20z" />
    <glyph glyph-name="cedilla" unicode="&#xb8;" 
d="M-104 -204v52q30 -17 76 -17q31 0 50.5 11.5t19.5 32.5q0 31 -47 31q-25 0 -46 -10l-32 21l52 86h52l-34 -56q12 6 37 6q35 0 57 -20.5t22 -55.5q0 -43 -36.5 -69.5t-90.5 -26.5q-49 0 -80 15z" />
    <glyph glyph-name="onesuperior" unicode="&#xb9;" horiz-adv-x="224" 
d="M98 410v372h-85l47 60h99v-432h-61z" />
    <glyph glyph-name="ordmasculine" unicode="&#xba;" horiz-adv-x="404" 
d="M202 404q-67 0 -112 45t-45 111t45 111t112 45t112 -45t45 -111t-45 -111t-112 -45zM202 461q42 0 68.5 28.5t26.5 70.5t-26.5 70.5t-68.5 28.5t-68.5 -28t-26.5 -71t26.5 -71t68.5 -28z" />
    <glyph glyph-name="guillemotright" unicode="&#xbb;" horiz-adv-x="462" 
d="M274 467l141 -217l-141 -217h-59l116 217l-116 217h59zM110 467l141 -217l-141 -217h-59l116 217l-116 217h59z" />
    <glyph glyph-name="onequarter" unicode="&#xbc;" horiz-adv-x="776" 
d="M98 278v372h-85l47 60h99v-432h-61zM108 0h-69l500 710h69zM632 1v112h-225v49l232 271h54v-263h59v-57h-59v-112h-61zM484 170h148v171z" />
    <glyph glyph-name="onehalf" unicode="&#xbd;" horiz-adv-x="765" 
d="M98 278v372h-85l47 60h99v-432h-61zM108 0h-69l500 710h69zM730 60v-59h-283v23q0 19 3.5 36t14.5 33.5t17 26t26 26t25 20.5t30 21.5t27 18.5q41 30 57.5 51.5t16.5 53.5q0 31 -20 50t-53 19q-35 0 -58.5 -20.5t-23.5 -57.5h-62q0 61 41 99.5t103 38.5q57 0 96 -33.5
t39 -94.5q0 -47 -22.5 -80.5t-74.5 -71.5q-6 -4 -22 -15t-23 -15.5t-19 -14.5t-18.5 -17t-12.5 -17.5t-9 -20.5h205z" />
    <glyph glyph-name="threequarters" unicode="&#xbe;" horiz-adv-x="908" 
d="M187 272q-65 0 -110.5 39t-45.5 101h61q3 -37 29.5 -59t65.5 -22q35 0 58 19t23 52q0 36 -24 54.5t-64 18.5h-33v54h34q33 0 53.5 17.5t21.5 46.5t-20 46.5t-52 17.5q-37 0 -60 -20.5t-24 -57.5h-61q0 62 42 100t103 38q58 0 96 -33.5t38 -87.5q-1 -64 -55 -93
q31 -13 49 -40t18 -63q0 -57 -40 -92.5t-103 -35.5zM240 0h-69l500 710h69zM764 1v112h-225v49l232 271h54v-263h59v-57h-59v-112h-61zM616 170h148v171z" />
    <glyph glyph-name="questiondown" unicode="&#xbf;" horiz-adv-x="489" 
d="M296 273v-20q0 -57 -93 -129q-35 -27 -51.5 -43t-29.5 -41t-13 -56q0 -58 36.5 -97t94.5 -39q65 0 107 41.5t42 104.5h70q0 -89 -62.5 -151.5t-156.5 -62.5q-89 0 -145 60t-56 144q0 44 20 83t40 58t49 41q53 41 67 62q11 18 11 35v10h70zM261 510q27 0 46.5 -20
t19.5 -47t-19.5 -47t-46.5 -20t-46.5 20t-19.5 47t19.5 47t46.5 20z" />
    <glyph glyph-name="Agrave" unicode="&#xc0;" horiz-adv-x="710" 
d="M8 0l316 710h61l317 -710h-80l-99 221h-339l-98 -221h-78zM353 603l-138 -311h277zM384 770h-62l-112 157h94z" />
    <glyph glyph-name="Aacute" unicode="&#xc1;" horiz-adv-x="710" 
d="M8 0l316 710h61l317 -710h-80l-99 221h-339l-98 -221h-78zM353 603l-138 -311h277zM331 770l80 157h94l-112 -157h-62z" />
    <glyph glyph-name="Acircumflex" unicode="&#xc2;" horiz-adv-x="710" 
d="M8 0l316 710h61l317 -710h-80l-99 221h-339l-98 -221h-78zM353 603l-138 -311h277zM190 769v67l164 92l164 -92v-67l-164 92z" />
    <glyph glyph-name="Atilde" unicode="&#xc3;" horiz-adv-x="710" 
d="M8 0l316 710h61l317 -710h-80l-99 221h-339l-98 -221h-78zM353 603l-138 -311h277zM186 788l3 16q8 40 35.5 64.5t66.5 24.5q27 0 70.5 -21.5t57.5 -21.5q33 0 43 43h61l-3 -16q-8 -40 -35.5 -64.5t-66.5 -24.5q-27 0 -70.5 21.5t-57.5 21.5q-33 0 -43 -43h-61z" />
    <glyph glyph-name="Adieresis" unicode="&#xc4;" horiz-adv-x="710" 
d="M8 0l316 710h61l317 -710h-80l-99 221h-339l-98 -221h-78zM353 603l-138 -311h277zM244 789q-23 0 -38.5 15.5t-15.5 37.5t15.5 37.5t38.5 15.5q22 0 37 -15.5t15 -37.5t-15 -37.5t-37 -15.5zM466 789q-23 0 -38.5 15.5t-15.5 37.5t15.5 37.5t38.5 15.5q22 0 37 -15.5
t15 -37.5t-15 -37.5t-37 -15.5z" />
    <glyph glyph-name="Aring" unicode="&#xc5;" horiz-adv-x="710" 
d="M8 0l316 710h61l317 -710h-80l-99 221h-339l-98 -221h-78zM353 603l-138 -311h277zM354 753q-50 0 -85.5 35t-35.5 85t35.5 85t85.5 35t86 -35.5t36 -84.5t-36 -84.5t-86 -35.5zM354 800q31 0 52.5 21t21.5 52q0 30 -21.5 52t-52.5 22q-30 0 -51.5 -22t-21.5 -52
q0 -31 21.5 -52t51.5 -21z" />
    <glyph glyph-name="AE" unicode="&#xc6;" horiz-adv-x="906" 
d="M451 0v221h-253l-134 -221h-86l433 710h445v-72h-329v-237h269v-72h-269v-257h329v-72h-405zM450 638l-209 -346h210v346h-1z" />
    <glyph glyph-name="Ccedilla" unicode="&#xc7;" horiz-adv-x="791" 
d="M415 -12q-154 0 -260.5 106t-106.5 261t106.5 261t260.5 106q132 0 223.5 -72.5t115.5 -171.5h-80q-25 74 -95 123t-164 49q-123 0 -206.5 -85.5t-83.5 -209.5q0 -125 83.5 -210t206.5 -85q94 0 164 49t95 123h80q-24 -99 -115.5 -171.5t-223.5 -72.5zM312 -204v52
q30 -17 76 -17q31 0 50.5 11.5t19.5 32.5q0 31 -47 31q-25 0 -46 -10l-32 21l52 86h52l-35 -57q13 7 38 7q35 0 57 -20.5t22 -55.5q0 -43 -36.5 -69.5t-90.5 -26.5q-49 0 -80 15z" />
    <glyph glyph-name="Egrave" unicode="&#xc8;" horiz-adv-x="554" 
d="M99 0v710h405v-72h-329v-237h269v-72h-269v-257h329v-72h-405zM331 770h-62l-112 157h94z" />
    <glyph glyph-name="Eacute" unicode="&#xc9;" horiz-adv-x="554" 
d="M99 0v710h405v-72h-329v-237h269v-72h-269v-257h329v-72h-405zM278 770l80 157h94l-112 -157h-62z" />
    <glyph glyph-name="Ecircumflex" unicode="&#xca;" horiz-adv-x="554" 
d="M99 0v710h405v-72h-329v-237h269v-72h-269v-257h329v-72h-405zM137 769v67l164 92l164 -92v-67l-164 92z" />
    <glyph glyph-name="Edieresis" unicode="&#xcb;" horiz-adv-x="554" 
d="M99 0v710h405v-72h-329v-237h269v-72h-269v-257h329v-72h-405zM191 789q-23 0 -38.5 15.5t-15.5 37.5t15.5 37.5t38.5 15.5q22 0 37 -15.5t15 -37.5t-15 -37.5t-37 -15.5zM413 789q-23 0 -38.5 15.5t-15.5 37.5t15.5 37.5t38.5 15.5q22 0 37 -15.5t15 -37.5t-15 -37.5
t-37 -15.5z" />
    <glyph glyph-name="Igrave" unicode="&#xcc;" horiz-adv-x="274" 
d="M99 0v710h76v-710h-76zM167 770h-62l-112 157h94z" />
    <glyph glyph-name="Iacute" unicode="&#xcd;" horiz-adv-x="274" 
d="M99 0v710h76v-710h-76zM114 770l80 157h94l-112 -157h-62z" />
    <glyph glyph-name="Icircumflex" unicode="&#xce;" horiz-adv-x="274" 
d="M99 0v710h76v-710h-76zM-27 769v67l164 92l164 -92v-67l-164 92z" />
    <glyph glyph-name="Idieresis" unicode="&#xcf;" horiz-adv-x="274" 
d="M99 0v710h76v-710h-76zM27 789q-23 0 -38.5 15.5t-15.5 37.5t15.5 37.5t38.5 15.5q22 0 37 -15.5t15 -37.5t-15 -37.5t-37 -15.5zM249 789q-23 0 -38.5 15.5t-15.5 37.5t15.5 37.5t38.5 15.5q22 0 37 -15.5t15 -37.5t-15 -37.5t-37 -15.5z" />
    <glyph glyph-name="Eth" unicode="&#xd0;" horiz-adv-x="728" 
d="M104 0v710h194q167 0 274.5 -100.5t107.5 -254.5t-107.5 -254.5t-274.5 -100.5h-194zM180 72h118q137 0 221 79.5t84 203.5t-84 203.5t-221 79.5h-118v-566zM30 326v68h320v-68h-320z" />
    <glyph glyph-name="Ntilde" unicode="&#xd1;" horiz-adv-x="794" 
d="M695 0h-67l-453 581v-581h-76v710h67l453 -581v581h76v-710zM224 788l3 16q8 40 35.5 64.5t66.5 24.5q27 0 70.5 -21.5t57.5 -21.5q33 0 43 43h61l-3 -16q-8 -40 -35.5 -64.5t-66.5 -24.5q-27 0 -70.5 21.5t-57.5 21.5q-33 0 -43 -43h-61z" />
    <glyph glyph-name="Ograve" unicode="&#xd2;" horiz-adv-x="830" 
d="M415 60q123 0 206.5 85t83.5 210q0 124 -83.5 209.5t-206.5 85.5t-206.5 -85.5t-83.5 -209.5q0 -125 83.5 -210t206.5 -85zM415 -12q-154 0 -260.5 106t-106.5 261t106.5 261t260.5 106t260.5 -106t106.5 -261t-106.5 -261t-260.5 -106zM445 770h-62l-112 157h94z" />
    <glyph glyph-name="Oacute" unicode="&#xd3;" horiz-adv-x="830" 
d="M415 60q123 0 206.5 85t83.5 210q0 124 -83.5 209.5t-206.5 85.5t-206.5 -85.5t-83.5 -209.5q0 -125 83.5 -210t206.5 -85zM415 -12q-154 0 -260.5 106t-106.5 261t106.5 261t260.5 106t260.5 -106t106.5 -261t-106.5 -261t-260.5 -106zM392 770l80 157h94l-112 -157h-62
z" />
    <glyph glyph-name="Ocircumflex" unicode="&#xd4;" horiz-adv-x="830" 
d="M415 60q123 0 206.5 85t83.5 210q0 124 -83.5 209.5t-206.5 85.5t-206.5 -85.5t-83.5 -209.5q0 -125 83.5 -210t206.5 -85zM415 -12q-154 0 -260.5 106t-106.5 261t106.5 261t260.5 106t260.5 -106t106.5 -261t-106.5 -261t-260.5 -106zM251 769v67l164 92l164 -92v-67
l-164 92z" />
    <glyph glyph-name="Otilde" unicode="&#xd5;" horiz-adv-x="830" 
d="M415 60q123 0 206.5 85t83.5 210q0 124 -83.5 209.5t-206.5 85.5t-206.5 -85.5t-83.5 -209.5q0 -125 83.5 -210t206.5 -85zM415 -12q-154 0 -260.5 106t-106.5 261t106.5 261t260.5 106t260.5 -106t106.5 -261t-106.5 -261t-260.5 -106zM247 788l3 16q8 40 35.5 64.5
t66.5 24.5q27 0 70.5 -21.5t57.5 -21.5q33 0 43 43h61l-3 -16q-8 -40 -35.5 -64.5t-66.5 -24.5q-27 0 -70.5 21.5t-57.5 21.5q-33 0 -43 -43h-61z" />
    <glyph glyph-name="Odieresis" unicode="&#xd6;" horiz-adv-x="830" 
d="M415 60q123 0 206.5 85t83.5 210q0 124 -83.5 209.5t-206.5 85.5t-206.5 -85.5t-83.5 -209.5q0 -125 83.5 -210t206.5 -85zM415 -12q-154 0 -260.5 106t-106.5 261t106.5 261t260.5 106t260.5 -106t106.5 -261t-106.5 -261t-260.5 -106zM305 789q-23 0 -38.5 15.5
t-15.5 37.5t15.5 37.5t38.5 15.5q22 0 37 -15.5t15 -37.5t-15 -37.5t-37 -15.5zM527 789q-23 0 -38.5 15.5t-15.5 37.5t15.5 37.5t38.5 15.5q22 0 37 -15.5t15 -37.5t-15 -37.5t-37 -15.5z" />
    <glyph glyph-name="multiply" unicode="&#xd7;" horiz-adv-x="502" 
d="M104 99l-47 46l147 145l-147 145l47 46l147 -144l147 144l47 -46l-147 -145l147 -145l-47 -46l-147 144z" />
    <glyph glyph-name="Oslash" unicode="&#xd8;" horiz-adv-x="830" 
d="M415 60q123 0 206.5 85t83.5 210q0 124 -83.5 209.5t-206.5 85.5t-206.5 -85.5t-83.5 -209.5q0 -125 83.5 -210t206.5 -85zM415 -12q-154 0 -260.5 106t-106.5 261t106.5 261t260.5 106t260.5 -106t106.5 -261t-106.5 -261t-260.5 -106zM746 689l-614 -709l-47 42
l614 708z" />
    <glyph glyph-name="Ugrave" unicode="&#xd9;" horiz-adv-x="728" 
d="M364 -12q-123 0 -198.5 77.5t-75.5 209.5v435h76v-437q0 -101 53.5 -157t144.5 -56t144.5 56t53.5 157v437h76v-435q0 -132 -75.5 -209.5t-198.5 -77.5zM394 770h-62l-112 157h94z" />
    <glyph glyph-name="Uacute" unicode="&#xda;" horiz-adv-x="728" 
d="M364 -12q-123 0 -198.5 77.5t-75.5 209.5v435h76v-437q0 -101 53.5 -157t144.5 -56t144.5 56t53.5 157v437h76v-435q0 -132 -75.5 -209.5t-198.5 -77.5zM341 770l80 157h94l-112 -157h-62z" />
    <glyph glyph-name="Ucircumflex" unicode="&#xdb;" horiz-adv-x="728" 
d="M364 -12q-123 0 -198.5 77.5t-75.5 209.5v435h76v-437q0 -101 53.5 -157t144.5 -56t144.5 56t53.5 157v437h76v-435q0 -132 -75.5 -209.5t-198.5 -77.5zM200 769v67l164 92l164 -92v-67l-164 92z" />
    <glyph glyph-name="Udieresis" unicode="&#xdc;" horiz-adv-x="728" 
d="M364 -12q-123 0 -198.5 77.5t-75.5 209.5v435h76v-437q0 -101 53.5 -157t144.5 -56t144.5 56t53.5 157v437h76v-435q0 -132 -75.5 -209.5t-198.5 -77.5zM254 789q-23 0 -38.5 15.5t-15.5 37.5t15.5 37.5t38.5 15.5q22 0 37 -15.5t15 -37.5t-15 -37.5t-37 -15.5zM476 789
q-23 0 -38.5 15.5t-15.5 37.5t15.5 37.5t38.5 15.5q22 0 37 -15.5t15 -37.5t-15 -37.5t-37 -15.5z" />
    <glyph glyph-name="Yacute" unicode="&#xdd;" horiz-adv-x="669" 
d="M297 0v301l-280 409h92l226 -331l226 331h92l-281 -410v-300h-75zM311 770l80 157h94l-112 -157h-62z" />
    <glyph glyph-name="Thorn" unicode="&#xde;" horiz-adv-x="594" 
d="M552 355q0 -96 -66.5 -158.5t-175.5 -62.5h-135v-134h-76v710h76v-133h135q109 0 175.5 -63t66.5 -159zM475 355q0 66 -43.5 108.5t-121.5 42.5h-135v-301h135q78 0 121.5 42t43.5 108z" />
    <glyph glyph-name="germandbls" unicode="&#xdf;" horiz-adv-x="569" 
d="M86 0v553q0 89 57 146t140 57q81 0 140 -54.5t59 -132.5q0 -52 -25 -94.5t-69 -66.5q65 -23 101.5 -77.5t36.5 -115.5q0 -87 -62 -151t-166 -64h-55v67h52q70 0 115 42t45 108q0 64 -45.5 107t-114.5 43h-49v67h28q59 0 98 37t39 90q0 54 -36.5 91t-90.5 37
q-55 0 -91.5 -39t-36.5 -99v-551h-70z" />
    <glyph glyph-name="agrave" unicode="&#xe0;" horiz-adv-x="634" 
d="M293 -10q-105 0 -177 76t-72 184t72 184t177 76q57 0 107.5 -26t77.5 -68v84h70v-500h-70v84q-27 -42 -77.5 -68t-107.5 -26zM300 55q81 0 132.5 56.5t51.5 138.5t-51.5 138.5t-132.5 56.5t-132.5 -56.5t-51.5 -138.5t51.5 -138.5t132.5 -56.5zM286 560l-125 190h95
l90 -190h-60z" />
    <glyph glyph-name="aacute" unicode="&#xe1;" horiz-adv-x="634" 
d="M293 -10q-105 0 -177 76t-72 184t72 184t177 76q57 0 107.5 -26t77.5 -68v84h70v-500h-70v84q-27 -42 -77.5 -68t-107.5 -26zM300 55q81 0 132.5 56.5t51.5 138.5t-51.5 138.5t-132.5 56.5t-132.5 -56.5t-51.5 -138.5t51.5 -138.5t132.5 -56.5zM294 560l90 190h95
l-125 -190h-60z" />
    <glyph glyph-name="acircumflex" unicode="&#xe2;" horiz-adv-x="634" 
d="M293 -10q-105 0 -177 76t-72 184t72 184t177 76q57 0 107.5 -26t77.5 -68v84h70v-500h-70v84q-27 -42 -77.5 -68t-107.5 -26zM300 55q81 0 132.5 56.5t51.5 138.5t-51.5 138.5t-132.5 56.5t-132.5 -56.5t-51.5 -138.5t51.5 -138.5t132.5 -56.5zM320 756l154 -102v-70
l-154 102l-154 -102v70z" />
    <glyph glyph-name="atilde" unicode="&#xe3;" horiz-adv-x="634" 
d="M293 -10q-105 0 -177 76t-72 184t72 184t177 76q57 0 107.5 -26t77.5 -68v84h70v-500h-70v84q-27 -42 -77.5 -68t-107.5 -26zM300 55q81 0 132.5 56.5t51.5 138.5t-51.5 138.5t-132.5 56.5t-132.5 -56.5t-51.5 -138.5t51.5 -138.5t132.5 -56.5zM151 600l3 16
q8 40 35.5 64.5t66.5 24.5q27 0 70.5 -21.5t57.5 -21.5q33 0 43 43h61l-3 -16q-8 -40 -35.5 -64.5t-66.5 -24.5q-27 0 -70.5 21.5t-57.5 21.5q-33 0 -43 -43h-61z" />
    <glyph glyph-name="adieresis" unicode="&#xe4;" horiz-adv-x="634" 
d="M293 -10q-105 0 -177 76t-72 184t72 184t177 76q57 0 107.5 -26t77.5 -68v84h70v-500h-70v84q-27 -42 -77.5 -68t-107.5 -26zM300 55q81 0 132.5 56.5t51.5 138.5t-51.5 138.5t-132.5 56.5t-132.5 -56.5t-51.5 -138.5t51.5 -138.5t132.5 -56.5zM210 602q-23 0 -38.5 15.5
t-15.5 37.5t15.5 37.5t38.5 15.5q22 0 37 -15.5t15 -37.5t-15 -37.5t-37 -15.5zM432 602q-23 0 -38.5 15.5t-15.5 37.5t15.5 37.5t38.5 15.5q22 0 37 -15.5t15 -37.5t-15 -37.5t-37 -15.5z" />
    <glyph glyph-name="aring" unicode="&#xe5;" horiz-adv-x="634" 
d="M293 -10q-105 0 -177 76t-72 184t72 184t177 76q57 0 107.5 -26t77.5 -68v84h70v-500h-70v84q-27 -42 -77.5 -68t-107.5 -26zM300 55q81 0 132.5 56.5t51.5 138.5t-51.5 138.5t-132.5 56.5t-132.5 -56.5t-51.5 -138.5t51.5 -138.5t132.5 -56.5zM320 543q-50 0 -85.5 35
t-35.5 85t35.5 85t85.5 35t86 -35.5t36 -84.5t-36 -84.5t-86 -35.5zM320 590q31 0 52.5 21t21.5 52q0 30 -21.5 52t-52.5 22q-30 0 -51.5 -22t-21.5 -52q0 -31 21.5 -52t51.5 -21z" />
    <glyph glyph-name="ae" unicode="&#xe6;" horiz-adv-x="898" 
d="M616 -10q-127 0 -202 103q-55 -103 -196 -103q-83 0 -129 43t-46 101q0 67 52.5 101.5t158.5 56.5q85 19 102 31q18 13 18 37q0 38 -28 61.5t-84 23.5q-60 0 -96.5 -28.5t-38.5 -79.5h-72q0 73 58.5 123t148.5 50q124 0 165 -93q30 43 80.5 68t111.5 25q115 0 179 -83.5
t54 -196.5h-412q0 -75 53 -125t123 -50q108 0 156 94h72q-19 -69 -78 -114t-150 -45zM616 445q-63 0 -111 -37.5t-61 -116.5h336q-12 74 -56 114t-108 40zM376 190v80q-23 -13 -140 -46q-64 -16 -88.5 -35t-24.5 -53q0 -39 29 -60t76 -21q148 0 148 135z" />
    <glyph glyph-name="ccedilla" unicode="&#xe7;" horiz-adv-x="590" 
d="M305 -10q-113 0 -187 75.5t-74 184.5t74 184.5t187 75.5q91 0 159 -50.5t91 -130.5h-76q-18 52 -65 84t-109 32q-84 0 -136.5 -56.5t-52.5 -138.5t52.5 -138.5t136.5 -56.5q62 0 109 32t65 84h76q-23 -80 -91 -130.5t-159 -50.5zM202 -204v52q30 -17 76 -17
q31 0 50.5 11.5t19.5 32.5q0 31 -47 31q-25 0 -46 -10l-32 21l52 86h52l-34 -56q12 6 37 6q35 0 57 -20.5t22 -55.5q0 -43 -36.5 -69.5t-90.5 -26.5q-49 0 -80 15z" />
    <glyph glyph-name="egrave" unicode="&#xe8;" horiz-adv-x="575" 
d="M293 -10q-108 0 -178 74t-70 186t68 186t183 74t179 -83.5t54 -196.5h-412q0 -75 53 -125t123 -50q108 0 156 94h72q-19 -69 -78 -114t-150 -45zM293 445q-63 0 -111 -37.5t-61 -116.5h336q-12 74 -56 114t-108 40zM260 560l-125 190h95l90 -190h-60z" />
    <glyph glyph-name="eacute" unicode="&#xe9;" horiz-adv-x="575" 
d="M293 -10q-108 0 -178 74t-70 186t68 186t183 74t179 -83.5t54 -196.5h-412q0 -75 53 -125t123 -50q108 0 156 94h72q-19 -69 -78 -114t-150 -45zM293 445q-63 0 -111 -37.5t-61 -116.5h336q-12 74 -56 114t-108 40zM268 560l90 190h95l-125 -190h-60z" />
    <glyph glyph-name="ecircumflex" unicode="&#xea;" horiz-adv-x="575" 
d="M293 -10q-108 0 -178 74t-70 186t68 186t183 74t179 -83.5t54 -196.5h-412q0 -75 53 -125t123 -50q108 0 156 94h72q-19 -69 -78 -114t-150 -45zM293 445q-63 0 -111 -37.5t-61 -116.5h336q-12 74 -56 114t-108 40zM294 756l154 -102v-70l-154 102l-154 -102v70z" />
    <glyph glyph-name="edieresis" unicode="&#xeb;" horiz-adv-x="575" 
d="M293 -10q-108 0 -178 74t-70 186t68 186t183 74t179 -83.5t54 -196.5h-412q0 -75 53 -125t123 -50q108 0 156 94h72q-19 -69 -78 -114t-150 -45zM293 445q-63 0 -111 -37.5t-61 -116.5h336q-12 74 -56 114t-108 40zM184 602q-23 0 -38.5 15.5t-15.5 37.5t15.5 37.5
t38.5 15.5q22 0 37 -15.5t15 -37.5t-15 -37.5t-37 -15.5zM406 602q-23 0 -38.5 15.5t-15.5 37.5t15.5 37.5t38.5 15.5q22 0 37 -15.5t15 -37.5t-15 -37.5t-37 -15.5z" />
    <glyph glyph-name="igrave" unicode="&#xec;" horiz-adv-x="242" 
d="M86 0v500h70v-500h-70zM87 560l-125 190h95l90 -190h-60z" />
    <glyph glyph-name="iacute" unicode="&#xed;" horiz-adv-x="242" 
d="M86 0v500h70v-500h-70zM95 560l90 190h95l-125 -190h-60z" />
    <glyph glyph-name="icircumflex" unicode="&#xee;" horiz-adv-x="242" 
d="M86 0v500h70v-500h-70zM121 756l154 -102v-70l-154 102l-154 -102v70z" />
    <glyph glyph-name="idieresis" unicode="&#xef;" horiz-adv-x="242" 
d="M86 0v500h70v-500h-70zM22 602q-23 0 -39.5 16.5t-16.5 39.5t16.5 39t39.5 16t39.5 -16t16.5 -39t-16.5 -39.5t-39.5 -16.5zM220 602q-23 0 -39.5 16.5t-16.5 39.5t16.5 39t39.5 16t39.5 -16t16.5 -39t-16.5 -39.5t-39.5 -16.5z" />
    <glyph glyph-name="eth" unicode="&#xf0;" horiz-adv-x="610" 
d="M483 578h-85l113 -165q55 -81 55 -163q0 -109 -74 -184.5t-187 -75.5t-187 75.5t-74 184.5t74 184.5t187 75.5q32 0 67 -8l-51 76h-144v61h102l-75 111h77l76 -111h126v-61zM305 55q84 0 136.5 56.5t52.5 138.5t-52.5 138.5t-136.5 56.5t-136.5 -56.5t-52.5 -138.5
t52.5 -138.5t136.5 -56.5z" />
    <glyph glyph-name="ntilde" unicode="&#xf1;" horiz-adv-x="586" 
d="M86 0v500h70v-84q51 94 164 94q83 0 135.5 -53t52.5 -144v-313h-70v303q0 65 -34.5 103.5t-91.5 38.5q-68 0 -112 -52.5t-44 -143.5v-249h-70zM128 600l3 16q8 40 35.5 64.5t66.5 24.5q27 0 70.5 -21.5t57.5 -21.5q33 0 43 43h61l-3 -16q-8 -40 -35.5 -64.5t-66.5 -24.5
q-27 0 -70.5 21.5t-57.5 21.5q-33 0 -43 -43h-61z" />
    <glyph glyph-name="ograve" unicode="&#xf2;" horiz-adv-x="610" 
d="M305 -10q-113 0 -187 75.5t-74 184.5t74 184.5t187 75.5t187 -75.5t74 -184.5t-74 -184.5t-187 -75.5zM305 55q84 0 136.5 56.5t52.5 138.5t-52.5 138.5t-136.5 56.5t-136.5 -56.5t-52.5 -138.5t52.5 -138.5t136.5 -56.5zM271 560l-125 190h95l90 -190h-60z" />
    <glyph glyph-name="oacute" unicode="&#xf3;" horiz-adv-x="610" 
d="M305 -10q-113 0 -187 75.5t-74 184.5t74 184.5t187 75.5t187 -75.5t74 -184.5t-74 -184.5t-187 -75.5zM305 55q84 0 136.5 56.5t52.5 138.5t-52.5 138.5t-136.5 56.5t-136.5 -56.5t-52.5 -138.5t52.5 -138.5t136.5 -56.5zM279 560l90 190h95l-125 -190h-60z" />
    <glyph glyph-name="ocircumflex" unicode="&#xf4;" horiz-adv-x="610" 
d="M305 -10q-113 0 -187 75.5t-74 184.5t74 184.5t187 75.5t187 -75.5t74 -184.5t-74 -184.5t-187 -75.5zM305 55q84 0 136.5 56.5t52.5 138.5t-52.5 138.5t-136.5 56.5t-136.5 -56.5t-52.5 -138.5t52.5 -138.5t136.5 -56.5zM305 756l154 -102v-70l-154 102l-154 -102v70z
" />
    <glyph glyph-name="otilde" unicode="&#xf5;" horiz-adv-x="610" 
d="M305 -10q-113 0 -187 75.5t-74 184.5t74 184.5t187 75.5t187 -75.5t74 -184.5t-74 -184.5t-187 -75.5zM305 55q84 0 136.5 56.5t52.5 138.5t-52.5 138.5t-136.5 56.5t-136.5 -56.5t-52.5 -138.5t52.5 -138.5t136.5 -56.5zM136 600l3 16q8 40 35.5 64.5t66.5 24.5
q27 0 70.5 -21.5t57.5 -21.5q33 0 43 43h61l-3 -16q-8 -40 -35.5 -64.5t-66.5 -24.5q-27 0 -70.5 21.5t-57.5 21.5q-33 0 -43 -43h-61z" />
    <glyph glyph-name="odieresis" unicode="&#xf6;" horiz-adv-x="610" 
d="M305 -10q-113 0 -187 75.5t-74 184.5t74 184.5t187 75.5t187 -75.5t74 -184.5t-74 -184.5t-187 -75.5zM305 55q84 0 136.5 56.5t52.5 138.5t-52.5 138.5t-136.5 56.5t-136.5 -56.5t-52.5 -138.5t52.5 -138.5t136.5 -56.5zM195 602q-23 0 -38.5 15.5t-15.5 37.5t15.5 37.5
t38.5 15.5q22 0 37 -15.5t15 -37.5t-15 -37.5t-37 -15.5zM417 602q-23 0 -38.5 15.5t-15.5 37.5t15.5 37.5t38.5 15.5q22 0 37 -15.5t15 -37.5t-15 -37.5t-37 -15.5z" />
    <glyph glyph-name="oslash" unicode="&#xf8;" horiz-adv-x="622" 
d="M311 -10q-113 0 -187 75.5t-74 184.5t74 184.5t187 75.5t187 -75.5t74 -184.5t-74 -184.5t-187 -75.5zM311 55q84 0 136.5 56.5t52.5 138.5t-52.5 138.5t-136.5 56.5t-136.5 -56.5t-52.5 -138.5t52.5 -138.5t136.5 -56.5zM565 473l-469 -483l-39 38l470 482z" />
    <glyph glyph-name="ugrave" unicode="&#xf9;" horiz-adv-x="576" 
d="M261 -10q-81 0 -132 54t-51 143v313h70v-303q0 -65 34 -103.5t88 -38.5q65 0 107.5 53.5t42.5 142.5v249h70v-500h-70v84q-51 -94 -159 -94zM249 560l-125 190h95l90 -190h-60z" />
    <glyph glyph-name="uacute" unicode="&#xfa;" horiz-adv-x="576" 
d="M261 -10q-81 0 -132 54t-51 143v313h70v-303q0 -65 34 -103.5t88 -38.5q65 0 107.5 53.5t42.5 142.5v249h70v-500h-70v84q-51 -94 -159 -94zM257 560l90 190h95l-125 -190h-60z" />
    <glyph glyph-name="ucircumflex" unicode="&#xfb;" horiz-adv-x="576" 
d="M261 -10q-81 0 -132 54t-51 143v313h70v-303q0 -65 34 -103.5t88 -38.5q65 0 107.5 53.5t42.5 142.5v249h70v-500h-70v84q-51 -94 -159 -94zM283 756l154 -102v-70l-154 102l-154 -102v70z" />
    <glyph glyph-name="udieresis" unicode="&#xfc;" horiz-adv-x="576" 
d="M261 -10q-81 0 -132 54t-51 143v313h70v-303q0 -65 34 -103.5t88 -38.5q65 0 107.5 53.5t42.5 142.5v249h70v-500h-70v84q-51 -94 -159 -94zM173 602q-23 0 -38.5 15.5t-15.5 37.5t15.5 37.5t38.5 15.5q22 0 37 -15.5t15 -37.5t-15 -37.5t-37 -15.5zM395 602
q-23 0 -38.5 15.5t-15.5 37.5t15.5 37.5t38.5 15.5q22 0 37 -15.5t15 -37.5t-15 -37.5t-37 -15.5z" />
    <glyph glyph-name="yacute" unicode="&#xfd;" horiz-adv-x="540" 
d="M201 -209h-79l110 234l-222 475h78l183 -397l183 397h79zM245 560l90 190h95l-125 -190h-60z" />
    <glyph glyph-name="thorn" unicode="&#xfe;" horiz-adv-x="634" 
d="M156 -209h-70v959h70v-334q27 42 77.5 68t107.5 26q105 0 177 -76t72 -184t-72 -184t-177 -76q-57 0 -107.5 26t-77.5 68v-293zM334 55q81 0 132.5 56.5t51.5 138.5t-51.5 138.5t-132.5 56.5t-132.5 -56.5t-51.5 -138.5t51.5 -138.5t132.5 -56.5z" />
    <glyph glyph-name="ydieresis" unicode="&#xff;" horiz-adv-x="540" 
d="M201 -209h-79l110 234l-222 475h78l183 -397l183 397h79zM161 602q-23 0 -38.5 15.5t-15.5 37.5t15.5 37.5t38.5 15.5q22 0 37 -15.5t15 -37.5t-15 -37.5t-37 -15.5zM383 602q-23 0 -38.5 15.5t-15.5 37.5t15.5 37.5t38.5 15.5q22 0 37 -15.5t15 -37.5t-15 -37.5
t-37 -15.5z" />
    <glyph glyph-name="Amacron" unicode="&#x100;" horiz-adv-x="710" 
d="M8 0l316 710h61l317 -710h-80l-99 221h-339l-98 -221h-78zM353 603l-138 -311h277zM196 809v61h316v-61h-316z" />
    <glyph glyph-name="amacron" unicode="&#x101;" horiz-adv-x="634" 
d="M293 -10q-105 0 -177 76t-72 184t72 184t177 76q57 0 107.5 -26t77.5 -68v84h70v-500h-70v84q-27 -42 -77.5 -68t-107.5 -26zM300 55q81 0 132.5 56.5t51.5 138.5t-51.5 138.5t-132.5 56.5t-132.5 -56.5t-51.5 -138.5t51.5 -138.5t132.5 -56.5zM162 649v61h316v-61h-316z
" />
    <glyph glyph-name="Abreve" unicode="&#x102;" horiz-adv-x="710" 
d="M8 0l316 710h61l317 -710h-80l-99 221h-339l-98 -221h-78zM353 603l-138 -311h277zM354 762q-65 0 -109.5 42t-44.5 111h51q0 -49 29 -76t74 -27t74 27t29 76h51q0 -69 -44.5 -111t-109.5 -42z" />
    <glyph glyph-name="abreve" unicode="&#x103;" horiz-adv-x="634" 
d="M293 -10q-105 0 -177 76t-72 184t72 184t177 76q57 0 107.5 -26t77.5 -68v84h70v-500h-70v84q-27 -42 -77.5 -68t-107.5 -26zM300 55q81 0 132.5 56.5t51.5 138.5t-51.5 138.5t-132.5 56.5t-132.5 -56.5t-51.5 -138.5t51.5 -138.5t132.5 -56.5zM320 585q-66 0 -110 42
t-44 112v11h51v-11q0 -49 29 -76.5t74 -27.5t74 27.5t29 76.5v11h51v-11q0 -70 -44 -112t-110 -42z" />
    <glyph glyph-name="Aogonek" unicode="&#x104;" horiz-adv-x="710" 
d="M8 0l316 710h61l317 -710q-93 -62 -93 -119q0 -36 36 -36q27 0 57 24v-63q-28 -25 -74 -25q-38 0 -64 24t-26 62q0 29 15 56.5t30 42.5t39 34l-99 221h-339l-98 -221h-78zM353 603l-138 -311h277z" />
    <glyph glyph-name="aogonek" unicode="&#x105;" horiz-adv-x="634" 
d="M293 -10q-105 0 -177 76t-72 184t72 184t177 76q57 0 107.5 -26t77.5 -68v84h70v-500h-70v84q-27 -42 -77.5 -68t-107.5 -26zM300 55q81 0 132.5 56.5t51.5 138.5t-51.5 138.5t-132.5 56.5t-132.5 -56.5t-51.5 -138.5t51.5 -138.5t132.5 -56.5zM477 -219q-37 0 -63 24
t-26 59q0 32 17.5 61.5t30.5 40.5t42 34h70q-95 -63 -95 -122q0 -19 11 -29t27 -10q27 0 57 24v-57q-28 -25 -71 -25z" />
    <glyph glyph-name="Cacute" unicode="&#x106;" horiz-adv-x="791" 
d="M415 -12q-154 0 -260.5 106t-106.5 261t106.5 261t260.5 106q132 0 223.5 -72.5t115.5 -171.5h-80q-25 74 -95 123t-164 49q-123 0 -206.5 -85.5t-83.5 -209.5q0 -125 83.5 -210t206.5 -85q94 0 164 49t95 123h80q-24 -99 -115.5 -171.5t-223.5 -72.5zM387 770l80 157h94
l-112 -157h-62z" />
    <glyph glyph-name="cacute" unicode="&#x107;" horiz-adv-x="590" 
d="M305 -10q-113 0 -187 75.5t-74 184.5t74 184.5t187 75.5q91 0 159 -50.5t91 -130.5h-76q-18 52 -65 84t-109 32q-84 0 -136.5 -56.5t-52.5 -138.5t52.5 -138.5t136.5 -56.5q62 0 109 32t65 84h76q-23 -80 -91 -130.5t-159 -50.5zM279 560l90 190h95l-125 -190h-60z" />
    <glyph glyph-name="Ccircumflex" unicode="&#x108;" horiz-adv-x="791" 
d="M415 -12q-154 0 -260.5 106t-106.5 261t106.5 261t260.5 106q132 0 223.5 -72.5t115.5 -171.5h-80q-25 74 -95 123t-164 49q-123 0 -206.5 -85.5t-83.5 -209.5q0 -125 83.5 -210t206.5 -85q94 0 164 49t95 123h80q-24 -99 -115.5 -171.5t-223.5 -72.5zM246 769v67l164 92
l164 -92v-67l-164 92z" />
    <glyph glyph-name="ccircumflex" unicode="&#x109;" horiz-adv-x="590" 
d="M305 -10q-113 0 -187 75.5t-74 184.5t74 184.5t187 75.5q91 0 159 -50.5t91 -130.5h-76q-18 52 -65 84t-109 32q-84 0 -136.5 -56.5t-52.5 -138.5t52.5 -138.5t136.5 -56.5q62 0 109 32t65 84h76q-23 -80 -91 -130.5t-159 -50.5zM305 756l154 -102v-70l-154 102
l-154 -102v70z" />
    <glyph glyph-name="Cdotaccent" unicode="&#x10a;" horiz-adv-x="791" 
d="M415 -12q-154 0 -260.5 106t-106.5 261t106.5 261t260.5 106q132 0 223.5 -72.5t115.5 -171.5h-80q-25 74 -95 123t-164 49q-123 0 -206.5 -85.5t-83.5 -209.5q0 -125 83.5 -210t206.5 -85q94 0 164 49t95 123h80q-24 -99 -115.5 -171.5t-223.5 -72.5zM410 789
q-23 0 -38.5 15.5t-15.5 37.5t15.5 37.5t38.5 15.5q22 0 37 -15.5t15 -37.5t-15 -37.5t-37 -15.5z" />
    <glyph glyph-name="cdotaccent" unicode="&#x10b;" horiz-adv-x="590" 
d="M305 -10q-113 0 -187 75.5t-74 184.5t74 184.5t187 75.5q91 0 159 -50.5t91 -130.5h-76q-18 52 -65 84t-109 32q-84 0 -136.5 -56.5t-52.5 -138.5t52.5 -138.5t136.5 -56.5q62 0 109 32t65 84h76q-23 -80 -91 -130.5t-159 -50.5zM305 602q-23 0 -38.5 15.5t-15.5 37.5
t15.5 37.5t38.5 15.5q22 0 37 -15.5t15 -37.5t-15 -37.5t-37 -15.5z" />
    <glyph glyph-name="Ccaron" unicode="&#x10c;" horiz-adv-x="791" 
d="M415 -12q-154 0 -260.5 106t-106.5 261t106.5 261t260.5 106q132 0 223.5 -72.5t115.5 -171.5h-80q-25 74 -95 123t-164 49q-123 0 -206.5 -85.5t-83.5 -209.5q0 -125 83.5 -210t206.5 -85q94 0 164 49t95 123h80q-24 -99 -115.5 -171.5t-223.5 -72.5zM410 769l-164 92
v67l164 -92l164 92v-67z" />
    <glyph glyph-name="ccaron" unicode="&#x10d;" horiz-adv-x="590" 
d="M305 -10q-113 0 -187 75.5t-74 184.5t74 184.5t187 75.5q91 0 159 -50.5t91 -130.5h-76q-18 52 -65 84t-109 32q-84 0 -136.5 -56.5t-52.5 -138.5t52.5 -138.5t136.5 -56.5q62 0 109 32t65 84h76q-23 -80 -91 -130.5t-159 -50.5zM305 584l-154 102v70l154 -102l154 102
v-70z" />
    <glyph glyph-name="Dcaron" unicode="&#x10e;" horiz-adv-x="723" 
d="M99 0v710h194q167 0 274.5 -100.5t107.5 -254.5t-107.5 -254.5t-274.5 -100.5h-194zM175 72h118q137 0 221 79.5t84 203.5t-84 203.5t-221 79.5h-118v-566zM342 769l-164 92v67l164 -92l164 92v-67z" />
    <glyph glyph-name="dcaron" unicode="&#x10f;" horiz-adv-x="634" 
d="M293 -10q-105 0 -177 76t-72 184t72 184t177 76q57 0 107.5 -26t77.5 -68v334h70v-750h-70v84q-27 -42 -77.5 -68t-107.5 -26zM300 55q81 0 132.5 56.5t51.5 138.5t-51.5 138.5t-132.5 56.5t-132.5 -56.5t-51.5 -138.5t51.5 -138.5t132.5 -56.5zM588 584l25 166h70
l-45 -166h-50z" />
    <glyph glyph-name="Dcroat" unicode="&#x110;" horiz-adv-x="728" 
d="M104 0v710h194q167 0 274.5 -100.5t107.5 -254.5t-107.5 -254.5t-274.5 -100.5h-194zM180 72h118q137 0 221 79.5t84 203.5t-84 203.5t-221 79.5h-118v-566zM30 326v68h320v-68h-320z" />
    <glyph glyph-name="dcroat" unicode="&#x111;" horiz-adv-x="634" 
d="M293 -10q-105 0 -177 76t-72 184t72 184t177 76q57 0 107.5 -26t77.5 -68v334h70v-750h-70v84q-27 -42 -77.5 -68t-107.5 -26zM300 55q81 0 132.5 56.5t51.5 138.5t-51.5 138.5t-132.5 56.5t-132.5 -56.5t-51.5 -138.5t51.5 -138.5t132.5 -56.5zM622 580h-318v61h318v-61
z" />
    <glyph glyph-name="Emacron" unicode="&#x112;" horiz-adv-x="554" 
d="M99 0v710h405v-72h-329v-237h269v-72h-269v-257h329v-72h-405zM143 809v61h316v-61h-316z" />
    <glyph glyph-name="emacron" unicode="&#x113;" horiz-adv-x="575" 
d="M293 -10q-108 0 -178 74t-70 186t68 186t183 74t179 -83.5t54 -196.5h-412q0 -75 53 -125t123 -50q108 0 156 94h72q-19 -69 -78 -114t-150 -45zM293 445q-63 0 -111 -37.5t-61 -116.5h336q-12 74 -56 114t-108 40zM136 649v61h316v-61h-316z" />
    <glyph glyph-name="Ebreve" unicode="&#x114;" horiz-adv-x="554" 
d="M99 0v710h405v-72h-329v-237h269v-72h-269v-257h329v-72h-405zM301 762q-65 0 -109.5 42t-44.5 111h51q0 -49 29 -76t74 -27t74 27t29 76h51q0 -69 -44.5 -111t-109.5 -42z" />
    <glyph glyph-name="ebreve" unicode="&#x115;" horiz-adv-x="575" 
d="M293 -10q-108 0 -178 74t-70 186t68 186t183 74t179 -83.5t54 -196.5h-412q0 -75 53 -125t123 -50q108 0 156 94h72q-19 -69 -78 -114t-150 -45zM293 445q-63 0 -111 -37.5t-61 -116.5h336q-12 74 -56 114t-108 40zM294 585q-66 0 -110 42t-44 112v11h51v-11
q0 -49 29 -76.5t74 -27.5t74 27.5t29 76.5v11h51v-11q0 -70 -44 -112t-110 -42z" />
    <glyph glyph-name="Edotaccent" unicode="&#x116;" horiz-adv-x="554" 
d="M99 0v710h405v-72h-329v-237h269v-72h-269v-257h329v-72h-405zM301 789q-23 0 -38.5 15.5t-15.5 37.5t15.5 37.5t38.5 15.5q22 0 37 -15.5t15 -37.5t-15 -37.5t-37 -15.5z" />
    <glyph glyph-name="edotaccent" unicode="&#x117;" horiz-adv-x="575" 
d="M293 -10q-108 0 -178 74t-70 186t68 186t183 74t179 -83.5t54 -196.5h-412q0 -75 53 -125t123 -50q108 0 156 94h72q-19 -69 -78 -114t-150 -45zM293 445q-63 0 -111 -37.5t-61 -116.5h336q-12 74 -56 114t-108 40zM294 602q-23 0 -38.5 15.5t-15.5 37.5t15.5 37.5
t38.5 15.5q22 0 37 -15.5t15 -37.5t-15 -37.5t-37 -15.5z" />
    <glyph glyph-name="Eogonek" unicode="&#x118;" horiz-adv-x="554" 
d="M99 0v710h405v-72h-329v-237h269v-72h-269v-257h329v-72h-405zM430 -219q-38 0 -64 24t-26 62q0 29 16 57t31.5 42.5t40.5 33.5h76q-93 -62 -93 -119q0 -36 36 -36q27 0 57 24v-63q-28 -25 -74 -25z" />
    <glyph glyph-name="eogonek" unicode="&#x119;" horiz-adv-x="576" 
d="M449 149h72q-9 -30 -35 -71q-83 -120 -83 -191q0 -48 51 -48q27 0 57 24v-57q-28 -25 -71 -25q-44 0 -73 27.5t-29 69.5q0 65 49 127q-45 -15 -94 -15q-108 0 -178 74t-70 186t68 186t183 74t179 -83.5t54 -196.5h-412q0 -75 53 -125t123 -50q108 0 156 94zM293 445
q-63 0 -111 -37.5t-61 -116.5h336q-12 74 -56 114t-108 40z" />
    <glyph glyph-name="Ecaron" unicode="&#x11a;" horiz-adv-x="554" 
d="M99 0v710h405v-72h-329v-237h269v-72h-269v-257h329v-72h-405zM301 769l-164 92v67l164 -92l164 92v-67z" />
    <glyph glyph-name="ecaron" unicode="&#x11b;" horiz-adv-x="575" 
d="M293 -10q-108 0 -178 74t-70 186t68 186t183 74t179 -83.5t54 -196.5h-412q0 -75 53 -125t123 -50q108 0 156 94h72q-19 -69 -78 -114t-150 -45zM293 445q-63 0 -111 -37.5t-61 -116.5h336q-12 74 -56 114t-108 40zM294 584l-154 102v70l154 -102l154 102v-70z" />
    <glyph glyph-name="Gcircumflex" unicode="&#x11c;" horiz-adv-x="820" 
d="M415 -12q-154 0 -260.5 106t-106.5 261t106.5 261t260.5 106q123 0 215 -66t122 -156h-84q-31 66 -98.5 108t-154.5 42q-123 0 -206.5 -85.5t-83.5 -209.5q0 -125 83.5 -210t206.5 -85q116 0 192.5 76t86.5 192h-279v72h357q12 -181 -93.5 -296.5t-263.5 -115.5zM251 769
v67l164 92l164 -92v-67l-164 92z" />
    <glyph glyph-name="gcircumflex" unicode="&#x11d;" horiz-adv-x="631" 
d="M302 -219q-98 0 -164 46.5t-78 121.5h69q35 -104 174 -104q77 0 124.5 50t47.5 140v59q-28 -42 -77 -68t-106 -26q-106 0 -176.5 73.5t-70.5 181.5t70.5 181.5t176.5 73.5q57 0 106 -26t77 -68v84h70v-469q0 -119 -67.5 -184.5t-175.5 -65.5zM299 65q81 0 131.5 54
t50.5 136t-50.5 136t-131.5 54t-131.5 -54t-50.5 -136t50.5 -136t131.5 -54zM315 756l154 -102v-70l-154 102l-154 -102v70z" />
    <glyph glyph-name="Gbreve" unicode="&#x11e;" horiz-adv-x="820" 
d="M415 -12q-154 0 -260.5 106t-106.5 261t106.5 261t260.5 106q123 0 215 -66t122 -156h-84q-31 66 -98.5 108t-154.5 42q-123 0 -206.5 -85.5t-83.5 -209.5q0 -125 83.5 -210t206.5 -85q116 0 192.5 76t86.5 192h-279v72h357q12 -181 -93.5 -296.5t-263.5 -115.5zM415 762
q-65 0 -109.5 42t-44.5 111h51q0 -49 29 -76t74 -27t74 27t29 76h51q0 -69 -44.5 -111t-109.5 -42z" />
    <glyph glyph-name="gbreve" unicode="&#x11f;" horiz-adv-x="631" 
d="M302 -219q-98 0 -164 46.5t-78 121.5h69q35 -104 174 -104q77 0 124.5 50t47.5 140v59q-28 -42 -77 -68t-106 -26q-106 0 -176.5 73.5t-70.5 181.5t70.5 181.5t176.5 73.5q57 0 106 -26t77 -68v84h70v-469q0 -119 -67.5 -184.5t-175.5 -65.5zM299 65q81 0 131.5 54
t50.5 136t-50.5 136t-131.5 54t-131.5 -54t-50.5 -136t50.5 -136t131.5 -54zM315 585q-66 0 -110 42t-44 112v11h51v-11q0 -49 29 -76.5t74 -27.5t74 27.5t29 76.5v11h51v-11q0 -70 -44 -112t-110 -42z" />
    <glyph glyph-name="Gdotaccent" unicode="&#x120;" horiz-adv-x="820" 
d="M415 -12q-154 0 -260.5 106t-106.5 261t106.5 261t260.5 106q123 0 215 -66t122 -156h-84q-31 66 -98.5 108t-154.5 42q-123 0 -206.5 -85.5t-83.5 -209.5q0 -125 83.5 -210t206.5 -85q116 0 192.5 76t86.5 192h-279v72h357q12 -181 -93.5 -296.5t-263.5 -115.5zM415 789
q-23 0 -38.5 15.5t-15.5 37.5t15.5 37.5t38.5 15.5q22 0 37 -15.5t15 -37.5t-15 -37.5t-37 -15.5z" />
    <glyph glyph-name="gdotaccent" unicode="&#x121;" horiz-adv-x="631" 
d="M302 -219q-98 0 -164 46.5t-78 121.5h69q35 -104 174 -104q77 0 124.5 50t47.5 140v59q-28 -42 -77 -68t-106 -26q-106 0 -176.5 73.5t-70.5 181.5t70.5 181.5t176.5 73.5q57 0 106 -26t77 -68v84h70v-469q0 -119 -67.5 -184.5t-175.5 -65.5zM299 65q81 0 131.5 54
t50.5 136t-50.5 136t-131.5 54t-131.5 -54t-50.5 -136t50.5 -136t131.5 -54zM315 602q-23 0 -38.5 15.5t-15.5 37.5t15.5 37.5t38.5 15.5q22 0 37 -15.5t15 -37.5t-15 -37.5t-37 -15.5z" />
    <glyph glyph-name="uni0122" unicode="&#x122;" horiz-adv-x="820" 
d="M415 -12q-154 0 -260.5 106t-106.5 261t106.5 261t260.5 106q123 0 215 -66t122 -156h-84q-31 66 -98.5 108t-154.5 42q-123 0 -206.5 -85.5t-83.5 -209.5q0 -125 83.5 -210t206.5 -85q116 0 192.5 76t86.5 192h-279v72h357q12 -181 -93.5 -296.5t-263.5 -115.5z
M356 -258l34 83q-27 19 -27 46q0 22 15 38t37 16t37 -16t15 -38q0 -17 -9 -30l-62 -99h-40z" />
    <glyph glyph-name="uni0123" unicode="&#x123;" horiz-adv-x="631" 
d="M302 -219q-98 0 -164 46.5t-78 121.5h69q35 -104 174 -104q77 0 124.5 50t47.5 140v59q-28 -42 -77 -68t-106 -26q-106 0 -176.5 73.5t-70.5 181.5t70.5 181.5t176.5 73.5q57 0 106 -26t77 -68v84h70v-469q0 -119 -67.5 -184.5t-175.5 -65.5zM299 65q81 0 131.5 54
t50.5 136t-50.5 136t-131.5 54t-131.5 -54t-50.5 -136t50.5 -136t131.5 -54zM315 602q-22 0 -37 16t-15 38q0 16 9 30l62 99h40l-34 -83q27 -19 27 -46q0 -22 -15 -38t-37 -16z" />
    <glyph glyph-name="Hcircumflex" unicode="&#x124;" horiz-adv-x="765" 
d="M99 0v710h76v-309h415v309h76v-710h-76v329h-415v-329h-76zM218 769v67l164 92l164 -92v-67l-164 92z" />
    <glyph glyph-name="hcircumflex" unicode="&#x125;" horiz-adv-x="586" 
d="M156 0h-70v750h70v-334q51 94 164 94q83 0 135.5 -53t52.5 -144v-313h-70v303q0 65 -34.5 103.5t-91.5 38.5q-68 0 -112 -52.5t-44 -143.5v-249zM129 769v67l164 92l164 -92v-67l-164 92z" />
    <glyph glyph-name="Hbar" unicode="&#x126;" horiz-adv-x="773" 
d="M103 0v710h76v-309h415v309h76v-710h-76v329h-415v-329h-76zM29 525v63h715v-63h-715z" />
    <glyph glyph-name="hbar" unicode="&#x127;" horiz-adv-x="586" 
d="M156 0h-70v750h70v-334q51 94 164 94q83 0 135.5 -53t52.5 -144v-313h-70v303q0 65 -34.5 103.5t-91.5 38.5q-68 0 -112 -52.5t-44 -143.5v-249zM330 580h-318v61h318v-61z" />
    <glyph glyph-name="Itilde" unicode="&#x128;" horiz-adv-x="274" 
d="M99 0v710h76v-710h-76zM-31 788l3 16q8 40 35.5 64.5t66.5 24.5q27 0 70.5 -21.5t57.5 -21.5q33 0 43 43h61l-3 -16q-8 -40 -35.5 -64.5t-66.5 -24.5q-27 0 -70.5 21.5t-57.5 21.5q-33 0 -43 -43h-61z" />
    <glyph glyph-name="itilde" unicode="&#x129;" horiz-adv-x="242" 
d="M86 0v500h70v-500h-70zM-48 600l3 16q8 40 35.5 64.5t66.5 24.5q27 0 70.5 -21.5t57.5 -21.5q33 0 43 43h61l-3 -16q-8 -40 -35.5 -64.5t-66.5 -24.5q-27 0 -70.5 21.5t-57.5 21.5q-33 0 -43 -43h-61z" />
    <glyph glyph-name="Imacron" unicode="&#x12a;" horiz-adv-x="274" 
d="M99 0v710h76v-710h-76zM-21 809v61h316v-61h-316z" />
    <glyph glyph-name="imacron" unicode="&#x12b;" horiz-adv-x="242" 
d="M86 0v500h70v-500h-70zM-37 649v61h316v-61h-316z" />
    <glyph glyph-name="Ibreve" unicode="&#x12c;" horiz-adv-x="274" 
d="M99 0v710h76v-710h-76zM137 762q-65 0 -109.5 42t-44.5 111h51q0 -49 29 -76t74 -27t74 27t29 76h51q0 -69 -44.5 -111t-109.5 -42z" />
    <glyph glyph-name="ibreve" unicode="&#x12d;" horiz-adv-x="242" 
d="M86 0v500h70v-500h-70zM121 585q-66 0 -110 42t-44 112v11h51v-11q0 -49 29 -76.5t74 -27.5t74 27.5t29 76.5v11h51v-11q0 -70 -44 -112t-110 -42z" />
    <glyph glyph-name="Iogonek" unicode="&#x12e;" horiz-adv-x="274" 
d="M99 0v710h76v-710h-76zM101 -219q-38 0 -64 24t-26 62q0 29 16 57t31.5 42.5t40.5 33.5h76q-93 -62 -93 -119q0 -36 36 -36q27 0 57 24v-63q-28 -25 -74 -25z" />
    <glyph glyph-name="iogonek" unicode="&#x12f;" horiz-adv-x="242" 
d="M122 650q-23 0 -38.5 15.5t-15.5 37.5t15.5 37.5t38.5 15.5q22 0 37 -15.5t15 -37.5t-15 -37.5t-37 -15.5zM86 0v500h70v-500h-70zM85 -219q-37 0 -63 24t-26 59q0 32 17.5 61.5t30.5 40.5t42 34h70q-95 -63 -95 -122q0 -19 11 -29t27 -10q27 0 57 24v-57
q-28 -25 -71 -25z" />
    <glyph glyph-name="Idotaccent" unicode="&#x130;" horiz-adv-x="274" 
d="M99 0v710h76v-710h-76zM137 789q-23 0 -38.5 15.5t-15.5 37.5t15.5 37.5t38.5 15.5q22 0 37 -15.5t15 -37.5t-15 -37.5t-37 -15.5z" />
    <glyph glyph-name="dotlessi" unicode="&#x131;" horiz-adv-x="242" 
d="M86 0v500h70v-500h-70z" />
    <glyph glyph-name="Jcircumflex" unicode="&#x134;" horiz-adv-x="523" 
d="M229 -12q-90 0 -148.5 53t-58.5 145h76q0 -60 38 -93.5t92 -33.5q56 0 91.5 35.5t35.5 111.5v504h76v-514q0 -105 -57 -156.5t-145 -51.5zM229 769v67l164 92l164 -92v-67l-164 92z" />
    <glyph glyph-name="jcircumflex" unicode="&#x135;" horiz-adv-x="250" 
d="M164 500v-575q0 -71 -38.5 -107.5t-102.5 -36.5q-20 0 -35 3v64q16 -2 29 -2q77 0 77 85v569h70zM128 756l154 -102v-70l-154 102l-154 -102v70z" />
    <glyph glyph-name="uni0136" unicode="&#x136;" horiz-adv-x="664" 
d="M573 0l-399 343v-343h-75v710h75v-311l327 311h103l-353 -337l435 -373h-113zM315 -258l34 83q-27 19 -27 46q0 22 15 38t37 16t37 -16t15 -38q0 -17 -9 -30l-62 -99h-40z" />
    <glyph glyph-name="uni0137" unicode="&#x137;" horiz-adv-x="534" 
d="M447 0l-291 255v-255h-70v750h70v-447l235 197h99l-263 -220l320 -280h-100zM241 -258l34 83q-27 19 -27 46q0 22 15 38t37 16t37 -16t15 -38q0 -17 -9 -30l-62 -99h-40z" />
    <glyph glyph-name="Lacute" unicode="&#x139;" horiz-adv-x="547" 
d="M99 0v710h76v-638h355v-72h-431zM114 770l80 157h94l-112 -157h-62z" />
    <glyph glyph-name="lacute" unicode="&#x13a;" horiz-adv-x="242" 
d="M86 0v750h70v-750h-70zM95 810l90 190h95l-125 -190h-60z" />
    <glyph glyph-name="uni013B" unicode="&#x13b;" horiz-adv-x="547" 
d="M99 0v710h76v-638h355v-72h-431zM248 -258l34 83q-27 19 -27 46q0 22 15 38t37 16t37 -16t15 -38q0 -17 -9 -30l-62 -99h-40z" />
    <glyph glyph-name="uni013C" unicode="&#x13c;" horiz-adv-x="242" 
d="M86 0v750h70v-750h-70zM62 -258l34 83q-27 19 -27 46q0 22 15 38t37 16t37 -16t15 -38q0 -17 -9 -30l-62 -99h-40z" />
    <glyph glyph-name="Lcaron" unicode="&#x13d;" horiz-adv-x="547" 
d="M99 0v710h76v-638h355v-72h-431zM285 584l25 166h70l-45 -166h-50z" />
    <glyph glyph-name="lcaron" unicode="&#x13e;" horiz-adv-x="242" 
d="M86 0v750h70v-750h-70zM197 584l25 166h70l-45 -166h-50z" />
    <glyph glyph-name="Ldot" unicode="&#x13f;" horiz-adv-x="551" 
d="M99 0v710h76v-638h355v-72h-431zM415 338q-23 0 -38.5 15.5t-15.5 37.5t15.5 37.5t38.5 15.5q22 0 37 -15.5t15 -37.5t-15 -37.5t-37 -15.5z" />
    <glyph glyph-name="ldot" unicode="&#x140;" horiz-adv-x="376" 
d="M86 0v750h70v-750h-70zM310 322q-23 0 -38.5 15.5t-15.5 37.5t15.5 37.5t38.5 15.5q22 0 37 -15.5t15 -37.5t-15 -37.5t-37 -15.5z" />
    <glyph glyph-name="Lslash" unicode="&#x141;" horiz-adv-x="563" 
d="M115 0v710h76v-638h355v-72h-431zM358 424l-317 -211v74l317 211v-74z" />
    <glyph glyph-name="lslash" unicode="&#x142;" horiz-adv-x="310" 
d="M122 0v750h70v-750h-70zM272 417l-230 -153v68l230 153v-68z" />
    <glyph glyph-name="Nacute" unicode="&#x143;" horiz-adv-x="794" 
d="M695 0h-67l-453 581v-581h-76v710h67l453 -581v581h76v-710zM369 770l80 157h94l-112 -157h-62z" />
    <glyph glyph-name="nacute" unicode="&#x144;" horiz-adv-x="586" 
d="M86 0v500h70v-84q51 94 164 94q83 0 135.5 -53t52.5 -144v-313h-70v303q0 65 -34.5 103.5t-91.5 38.5q-68 0 -112 -52.5t-44 -143.5v-249h-70zM271 560l90 190h95l-125 -190h-60z" />
    <glyph glyph-name="uni0145" unicode="&#x145;" horiz-adv-x="794" 
d="M695 0h-67l-453 581v-581h-76v710h67l453 -581v581h76v-710zM342 -258l34 83q-27 19 -27 46q0 22 15 38t37 16t37 -16t15 -38q0 -17 -9 -30l-62 -99h-40z" />
    <glyph glyph-name="uni0146" unicode="&#x146;" horiz-adv-x="586" 
d="M86 0v500h70v-84q51 94 164 94q83 0 135.5 -53t52.5 -144v-313h-70v303q0 65 -34.5 103.5t-91.5 38.5q-68 0 -112 -52.5t-44 -143.5v-249h-70zM238 -258l34 83q-27 19 -27 46q0 22 15 38t37 16t37 -16t15 -38q0 -17 -9 -30l-62 -99h-40z" />
    <glyph glyph-name="Ncaron" unicode="&#x147;" horiz-adv-x="794" 
d="M695 0h-67l-453 581v-581h-76v710h67l453 -581v581h76v-710zM392 769l-164 92v67l164 -92l164 92v-67z" />
    <glyph glyph-name="ncaron" unicode="&#x148;" horiz-adv-x="586" 
d="M86 0v500h70v-84q51 94 164 94q83 0 135.5 -53t52.5 -144v-313h-70v303q0 65 -34.5 103.5t-91.5 38.5q-68 0 -112 -52.5t-44 -143.5v-249h-70zM297 584l-154 102v70l154 -102l154 102v-70z" />
    <glyph glyph-name="Eng" unicode="&#x14a;" horiz-adv-x="794" 
d="M619 -67v78l-444 570v-581h-76v710h67l453 -581v581h76v-785q0 -71 -39.5 -107.5t-102.5 -36.5q-41 0 -74 13v65q25 -11 66 -11q37 0 55.5 19.5t18.5 65.5z" />
    <glyph glyph-name="eng" unicode="&#x14b;" horiz-adv-x="586" 
d="M86 0v500h70v-84q51 94 164 94q83 0 135.5 -53t52.5 -144v-383q0 -71 -39.5 -107.5t-102.5 -36.5q-27 0 -51 6v64q25 -5 40 -5q42 0 62.5 19.5t20.5 65.5v367q0 65 -34.5 103.5t-91.5 38.5q-68 0 -112 -52.5t-44 -143.5v-249h-70z" />
    <glyph glyph-name="Omacron" unicode="&#x14c;" horiz-adv-x="830" 
d="M415 60q123 0 206.5 85t83.5 210q0 124 -83.5 209.5t-206.5 85.5t-206.5 -85.5t-83.5 -209.5q0 -125 83.5 -210t206.5 -85zM415 -12q-154 0 -260.5 106t-106.5 261t106.5 261t260.5 106t260.5 -106t106.5 -261t-106.5 -261t-260.5 -106zM257 809v61h316v-61h-316z" />
    <glyph glyph-name="omacron" unicode="&#x14d;" horiz-adv-x="610" 
d="M305 -10q-113 0 -187 75.5t-74 184.5t74 184.5t187 75.5t187 -75.5t74 -184.5t-74 -184.5t-187 -75.5zM305 55q84 0 136.5 56.5t52.5 138.5t-52.5 138.5t-136.5 56.5t-136.5 -56.5t-52.5 -138.5t52.5 -138.5t136.5 -56.5zM147 649v61h316v-61h-316z" />
    <glyph glyph-name="Obreve" unicode="&#x14e;" horiz-adv-x="830" 
d="M415 60q123 0 206.5 85t83.5 210q0 124 -83.5 209.5t-206.5 85.5t-206.5 -85.5t-83.5 -209.5q0 -125 83.5 -210t206.5 -85zM415 -12q-154 0 -260.5 106t-106.5 261t106.5 261t260.5 106t260.5 -106t106.5 -261t-106.5 -261t-260.5 -106zM415 762q-65 0 -109.5 42
t-44.5 111h51q0 -49 29 -76t74 -27t74 27t29 76h51q0 -69 -44.5 -111t-109.5 -42z" />
    <glyph glyph-name="obreve" unicode="&#x14f;" horiz-adv-x="610" 
d="M305 -10q-113 0 -187 75.5t-74 184.5t74 184.5t187 75.5t187 -75.5t74 -184.5t-74 -184.5t-187 -75.5zM305 55q84 0 136.5 56.5t52.5 138.5t-52.5 138.5t-136.5 56.5t-136.5 -56.5t-52.5 -138.5t52.5 -138.5t136.5 -56.5zM305 585q-66 0 -110 42t-44 112v11h51v-11
q0 -49 29 -76.5t74 -27.5t74 27.5t29 76.5v11h51v-11q0 -70 -44 -112t-110 -42z" />
    <glyph glyph-name="Ohungarumlaut" unicode="&#x150;" horiz-adv-x="830" 
d="M415 60q123 0 206.5 85t83.5 210q0 124 -83.5 209.5t-206.5 85.5t-206.5 -85.5t-83.5 -209.5q0 -125 83.5 -210t206.5 -85zM415 -12q-154 0 -260.5 106t-106.5 261t106.5 261t260.5 106t260.5 -106t106.5 -261t-106.5 -261t-260.5 -106zM471 770l70 157h85l-105 -157h-50
zM309 770l70 157h85l-105 -157h-50z" />
    <glyph glyph-name="ohungarumlaut" unicode="&#x151;" horiz-adv-x="610" 
d="M305 -10q-113 0 -187 75.5t-74 184.5t74 184.5t187 75.5t187 -75.5t74 -184.5t-74 -184.5t-187 -75.5zM305 55q84 0 136.5 56.5t52.5 138.5t-52.5 138.5t-136.5 56.5t-136.5 -56.5t-52.5 -138.5t52.5 -138.5t136.5 -56.5zM361 560l70 190h85l-105 -190h-50zM199 560
l70 190h85l-105 -190h-50z" />
    <glyph glyph-name="OE" unicode="&#x152;" horiz-adv-x="1160" 
d="M415 60q123 0 206.5 85t83.5 210q0 124 -83.5 209.5t-206.5 85.5t-206.5 -85.5t-83.5 -209.5q0 -125 83.5 -210t206.5 -85zM705 0v133q-107 -145 -290 -145q-154 0 -260.5 106t-106.5 261t106.5 261t260.5 106q183 0 290 -145v133h405v-72h-329v-237h269v-72h-269v-257
h329v-72h-405z" />
    <glyph glyph-name="oe" unicode="&#x153;" horiz-adv-x="1024" 
d="M305 -10q-113 0 -187 75.5t-74 184.5t74 184.5t187 75.5q72 0 130 -33t93 -89q67 122 217 122q115 0 179 -83.5t54 -196.5h-412q0 -75 53 -125t123 -50q108 0 156 94h72q-19 -69 -78 -114t-150 -45q-71 0 -126 32t-88 90q-34 -56 -92 -89t-131 -33zM305 55
q84 0 136.5 56.5t52.5 138.5t-52.5 138.5t-136.5 56.5t-136.5 -56.5t-52.5 -138.5t52.5 -138.5t136.5 -56.5zM742 445q-63 0 -111 -37.5t-61 -116.5h336q-12 74 -56 114t-108 40z" />
    <glyph glyph-name="Racute" unicode="&#x154;" horiz-adv-x="628" 
d="M99 0v710h232q98 0 154 -51.5t56 -139.5q0 -82 -49.5 -132.5t-136.5 -57.5l281 -329h-99l-281 330h-81v-330h-76zM175 400h147q142 0 142 119q0 120 -142 120h-147v-239zM276 770l80 157h94l-112 -157h-62z" />
    <glyph glyph-name="racute" unicode="&#x155;" horiz-adv-x="357" 
d="M86 0v500h70v-103q16 50 57 79t88 29q21 0 36 -4v-73q-18 7 -42 7q-53 0 -96 -48t-43 -136v-251h-70zM185 560l90 190h95l-125 -190h-60z" />
    <glyph glyph-name="uni0156" unicode="&#x156;" horiz-adv-x="628" 
d="M99 0v710h232q98 0 154 -51.5t56 -139.5q0 -82 -49.5 -132.5t-136.5 -57.5l281 -329h-99l-281 330h-81v-330h-76zM175 400h147q142 0 142 119q0 120 -142 120h-147v-239zM297 -258l34 83q-27 19 -27 46q0 22 15 38t37 16t37 -16t15 -38q0 -17 -9 -30l-62 -99h-40z" />
    <glyph glyph-name="uni0157" unicode="&#x157;" horiz-adv-x="357" 
d="M86 0v500h70v-103q16 50 57 79t88 29q21 0 36 -4v-73q-18 7 -42 7q-53 0 -96 -48t-43 -136v-251h-70zM63 -258l34 83q-27 19 -27 46q0 22 15 38t37 16t37 -16t15 -38q0 -17 -9 -30l-62 -99h-40z" />
    <glyph glyph-name="Rcaron" unicode="&#x158;" horiz-adv-x="628" 
d="M99 0v710h232q98 0 154 -51.5t56 -139.5q0 -82 -49.5 -132.5t-136.5 -57.5l281 -329h-99l-281 330h-81v-330h-76zM175 400h147q142 0 142 119q0 120 -142 120h-147v-239zM299 769l-164 92v67l164 -92l164 92v-67z" />
    <glyph glyph-name="rcaron" unicode="&#x159;" horiz-adv-x="357" 
d="M86 0v500h70v-103q16 50 57 79t88 29q21 0 36 -4v-73q-18 7 -42 7q-53 0 -96 -48t-43 -136v-251h-70zM211 584l-154 102v70l154 -102l154 102v-70z" />
    <glyph glyph-name="Sacute" unicode="&#x15a;" horiz-adv-x="552" 
d="M284 -12q-104 0 -170 55.5t-68 137.5h76q6 -58 54.5 -89.5t106.5 -31.5q62 0 103.5 32t41.5 85q0 89 -103 129l-105 40q-83 32 -120 78t-37 119q0 82 59 130.5t150 48.5q98 0 152.5 -54.5t63.5 -130.5h-76q-13 56 -52.5 84.5t-90.5 28.5q-56 0 -93 -29t-37 -77
q0 -47 25 -74.5t81 -49.5l94 -36q83 -32 124 -80.5t41 -124.5q0 -88 -61.5 -139.5t-158.5 -51.5zM257 770l80 157h94l-112 -157h-62z" />
    <glyph glyph-name="sacute" unicode="&#x15b;" horiz-adv-x="457" 
d="M237 -10q-80 0 -135 39t-61 112h70q21 -88 126 -88q46 0 76 19.5t30 55.5q0 33 -21.5 54.5t-68.5 34.5l-65 17q-129 35 -129 145q0 60 46 95.5t118 35.5q76 0 122.5 -40t52.5 -99h-69q-11 36 -39 56.5t-67 20.5q-40 0 -67 -19t-27 -50q0 -30 19 -49t63 -31l77 -20
q60 -15 92.5 -52.5t32.5 -93.5q0 -72 -48.5 -107.5t-127.5 -35.5zM209 560l90 190h95l-125 -190h-60z" />
    <glyph glyph-name="Scircumflex" unicode="&#x15c;" horiz-adv-x="552" 
d="M284 -12q-104 0 -170 55.5t-68 137.5h76q6 -58 54.5 -89.5t106.5 -31.5q62 0 103.5 32t41.5 85q0 89 -103 129l-105 40q-83 32 -120 78t-37 119q0 82 59 130.5t150 48.5q98 0 152.5 -54.5t63.5 -130.5h-76q-13 56 -52.5 84.5t-90.5 28.5q-56 0 -93 -29t-37 -77
q0 -47 25 -74.5t81 -49.5l94 -36q83 -32 124 -80.5t41 -124.5q0 -88 -61.5 -139.5t-158.5 -51.5zM116 769v67l164 92l164 -92v-67l-164 92z" />
    <glyph glyph-name="scircumflex" unicode="&#x15d;" horiz-adv-x="457" 
d="M237 -10q-80 0 -135 39t-61 112h70q21 -88 126 -88q46 0 76 19.5t30 55.5q0 33 -21.5 54.5t-68.5 34.5l-65 17q-129 35 -129 145q0 60 46 95.5t118 35.5q76 0 122.5 -40t52.5 -99h-69q-11 36 -39 56.5t-67 20.5q-40 0 -67 -19t-27 -50q0 -30 19 -49t63 -31l77 -20
q60 -15 92.5 -52.5t32.5 -93.5q0 -72 -48.5 -107.5t-127.5 -35.5zM235 756l154 -102v-70l-154 102l-154 -102v70z" />
    <glyph glyph-name="Scedilla" unicode="&#x15e;" horiz-adv-x="552" 
d="M284 -12q-104 0 -170 55.5t-68 137.5h76q6 -58 54.5 -89.5t106.5 -31.5q62 0 103.5 32t41.5 85q0 89 -103 129l-105 40q-83 32 -120 78t-37 119q0 82 59 130.5t150 48.5q98 0 152.5 -54.5t63.5 -130.5h-76q-13 56 -52.5 84.5t-90.5 28.5q-56 0 -93 -29t-37 -77
q0 -47 25 -74.5t81 -49.5l94 -36q83 -32 124 -80.5t41 -124.5q0 -88 -61.5 -139.5t-158.5 -51.5zM181 -204v52q30 -17 76 -17q31 0 50.5 11.5t19.5 32.5q0 31 -47 31q-25 0 -46 -10l-32 21l52 86h52l-35 -57q13 7 38 7q35 0 57 -20.5t22 -55.5q0 -43 -36.5 -69.5
t-90.5 -26.5q-49 0 -80 15z" />
    <glyph glyph-name="scedilla" unicode="&#x15f;" horiz-adv-x="457" 
d="M237 -10q-80 0 -135 39t-61 112h70q21 -88 126 -88q46 0 76 19.5t30 55.5q0 33 -21.5 54.5t-68.5 34.5l-65 17q-129 35 -129 145q0 60 46 95.5t118 35.5q76 0 122.5 -40t52.5 -99h-69q-11 36 -39 56.5t-67 20.5q-40 0 -67 -19t-27 -50q0 -30 19 -49t63 -31l77 -20
q60 -15 92.5 -52.5t32.5 -93.5q0 -72 -48.5 -107.5t-127.5 -35.5zM131 -204v52q30 -17 76 -17q31 0 50.5 11.5t19.5 32.5q0 31 -47 31q-25 0 -46 -10l-32 21l52 86h52l-34 -56q12 6 37 6q35 0 57 -20.5t22 -55.5q0 -43 -36.5 -69.5t-90.5 -26.5q-49 0 -80 15z" />
    <glyph glyph-name="Scaron" unicode="&#x160;" horiz-adv-x="552" 
d="M284 -12q-104 0 -170 55.5t-68 137.5h76q6 -58 54.5 -89.5t106.5 -31.5q62 0 103.5 32t41.5 85q0 89 -103 129l-105 40q-83 32 -120 78t-37 119q0 82 59 130.5t150 48.5q98 0 152.5 -54.5t63.5 -130.5h-76q-13 56 -52.5 84.5t-90.5 28.5q-56 0 -93 -29t-37 -77
q0 -47 25 -74.5t81 -49.5l94 -36q83 -32 124 -80.5t41 -124.5q0 -88 -61.5 -139.5t-158.5 -51.5zM280 769l-164 92v67l164 -92l164 92v-67z" />
    <glyph glyph-name="scaron" unicode="&#x161;" horiz-adv-x="457" 
d="M237 -10q-80 0 -135 39t-61 112h70q21 -88 126 -88q46 0 76 19.5t30 55.5q0 33 -21.5 54.5t-68.5 34.5l-65 17q-129 35 -129 145q0 60 46 95.5t118 35.5q76 0 122.5 -40t52.5 -99h-69q-11 36 -39 56.5t-67 20.5q-40 0 -67 -19t-27 -50q0 -30 19 -49t63 -31l77 -20
q60 -15 92.5 -52.5t32.5 -93.5q0 -72 -48.5 -107.5t-127.5 -35.5zM235 584l-154 102v70l154 -102l154 102v-70z" />
    <glyph glyph-name="uni0162" unicode="&#x162;" horiz-adv-x="567" 
d="M246 0v638h-230v72h535v-72h-230v-638h-75zM224 -258l34 83q-27 19 -27 46q0 22 15 38t37 16t37 -16t15 -38q0 -17 -9 -30l-62 -99h-40z" />
    <glyph glyph-name="uni0163" unicode="&#x163;" horiz-adv-x="367" 
d="M265 -5q-63 0 -102.5 36.5t-39.5 107.5v295h-107v66h107v139h70v-139h146v-66h-146v-289q0 -46 20.5 -65.5t62.5 -19.5q38 0 63 11v-63q-33 -13 -74 -13zM172 -258l34 83q-27 19 -27 46q0 22 15 38t37 16t37 -16t15 -38q0 -17 -9 -30l-62 -99h-40z" />
    <glyph glyph-name="Tcaron" unicode="&#x164;" horiz-adv-x="567" 
d="M246 0v638h-230v72h535v-72h-230v-638h-75zM283 769l-164 92v67l164 -92l164 92v-67z" />
    <glyph glyph-name="tcaron" unicode="&#x165;" horiz-adv-x="367" 
d="M265 -5q-63 0 -102.5 36.5t-39.5 107.5v295h-107v66h107v139h70v-139h146v-66h-146v-289q0 -46 20.5 -65.5t62.5 -19.5q38 0 63 11v-63q-33 -13 -74 -13zM233 544l25 166h70l-45 -166h-50z" />
    <glyph glyph-name="Tbar" unicode="&#x166;" horiz-adv-x="593" 
d="M259 0v638h-230v72h535v-72h-230v-638h-75zM97 332v68h399v-68h-399z" />
    <glyph glyph-name="tbar" unicode="&#x167;" horiz-adv-x="381" 
d="M274 -5q-63 0 -102.5 36.5t-39.5 107.5v295h-107v66h107v139h70v-139h146v-66h-146v-289q0 -46 20.5 -65.5t62.5 -19.5q38 0 63 11v-63q-33 -13 -74 -13zM25 281v61h323v-61h-323z" />
    <glyph glyph-name="Utilde" unicode="&#x168;" horiz-adv-x="728" 
d="M364 -12q-123 0 -198.5 77.5t-75.5 209.5v435h76v-437q0 -101 53.5 -157t144.5 -56t144.5 56t53.5 157v437h76v-435q0 -132 -75.5 -209.5t-198.5 -77.5zM196 788l3 16q8 40 35.5 64.5t66.5 24.5q27 0 70.5 -21.5t57.5 -21.5q33 0 43 43h61l-3 -16q-8 -40 -35.5 -64.5
t-66.5 -24.5q-27 0 -70.5 21.5t-57.5 21.5q-33 0 -43 -43h-61z" />
    <glyph glyph-name="utilde" unicode="&#x169;" horiz-adv-x="576" 
d="M261 -10q-81 0 -132 54t-51 143v313h70v-303q0 -65 34 -103.5t88 -38.5q65 0 107.5 53.5t42.5 142.5v249h70v-500h-70v84q-51 -94 -159 -94zM114 600l3 16q8 40 35.5 64.5t66.5 24.5q27 0 70.5 -21.5t57.5 -21.5q33 0 43 43h61l-3 -16q-8 -40 -35.5 -64.5t-66.5 -24.5
q-27 0 -70.5 21.5t-57.5 21.5q-33 0 -43 -43h-61z" />
    <glyph glyph-name="Umacron" unicode="&#x16a;" horiz-adv-x="728" 
d="M364 -12q-123 0 -198.5 77.5t-75.5 209.5v435h76v-437q0 -101 53.5 -157t144.5 -56t144.5 56t53.5 157v437h76v-435q0 -132 -75.5 -209.5t-198.5 -77.5zM206 809v61h316v-61h-316z" />
    <glyph glyph-name="umacron" unicode="&#x16b;" horiz-adv-x="576" 
d="M261 -10q-81 0 -132 54t-51 143v313h70v-303q0 -65 34 -103.5t88 -38.5q65 0 107.5 53.5t42.5 142.5v249h70v-500h-70v84q-51 -94 -159 -94zM125 649v61h316v-61h-316z" />
    <glyph glyph-name="Ubreve" unicode="&#x16c;" horiz-adv-x="728" 
d="M364 -12q-123 0 -198.5 77.5t-75.5 209.5v435h76v-437q0 -101 53.5 -157t144.5 -56t144.5 56t53.5 157v437h76v-435q0 -132 -75.5 -209.5t-198.5 -77.5zM364 762q-65 0 -109.5 42t-44.5 111h51q0 -49 29 -76t74 -27t74 27t29 76h51q0 -69 -44.5 -111t-109.5 -42z" />
    <glyph glyph-name="ubreve" unicode="&#x16d;" horiz-adv-x="576" 
d="M261 -10q-81 0 -132 54t-51 143v313h70v-303q0 -65 34 -103.5t88 -38.5q65 0 107.5 53.5t42.5 142.5v249h70v-500h-70v84q-51 -94 -159 -94zM283 585q-66 0 -110 42t-44 112v11h51v-11q0 -49 29 -76.5t74 -27.5t74 27.5t29 76.5v11h51v-11q0 -70 -44 -112t-110 -42z" />
    <glyph glyph-name="Uring" unicode="&#x16e;" horiz-adv-x="728" 
d="M364 -12q-123 0 -198.5 77.5t-75.5 209.5v435h76v-437q0 -101 53.5 -157t144.5 -56t144.5 56t53.5 157v437h76v-435q0 -132 -75.5 -209.5t-198.5 -77.5zM364 753q-50 0 -85.5 35t-35.5 85t35.5 85t85.5 35t86 -35.5t36 -84.5t-36 -84.5t-86 -35.5zM364 800q31 0 52.5 21
t21.5 52q0 30 -21.5 52t-52.5 22q-30 0 -51.5 -22t-21.5 -52q0 -31 21.5 -52t51.5 -21z" />
    <glyph glyph-name="uring" unicode="&#x16f;" horiz-adv-x="576" 
d="M261 -10q-81 0 -132 54t-51 143v313h70v-303q0 -65 34 -103.5t88 -38.5q65 0 107.5 53.5t42.5 142.5v249h70v-500h-70v84q-51 -94 -159 -94zM283 543q-50 0 -85.5 35t-35.5 85t35.5 85t85.5 35t86 -35.5t36 -84.5t-36 -84.5t-86 -35.5zM283 590q31 0 52.5 21t21.5 52
q0 30 -21.5 52t-52.5 22q-30 0 -51.5 -22t-21.5 -52q0 -31 21.5 -52t51.5 -21z" />
    <glyph glyph-name="Uhungarumlaut" unicode="&#x170;" horiz-adv-x="728" 
d="M364 -12q-123 0 -198.5 77.5t-75.5 209.5v435h76v-437q0 -101 53.5 -157t144.5 -56t144.5 56t53.5 157v437h76v-435q0 -132 -75.5 -209.5t-198.5 -77.5zM420 770l70 157h85l-105 -157h-50zM258 770l70 157h85l-105 -157h-50z" />
    <glyph glyph-name="uhungarumlaut" unicode="&#x171;" horiz-adv-x="576" 
d="M261 -10q-81 0 -132 54t-51 143v313h70v-303q0 -65 34 -103.5t88 -38.5q65 0 107.5 53.5t42.5 142.5v249h70v-500h-70v84q-51 -94 -159 -94zM339 560l70 190h85l-105 -190h-50zM177 560l70 190h85l-105 -190h-50z" />
    <glyph glyph-name="Uogonek" unicode="&#x172;" horiz-adv-x="728" 
d="M419 -219q-38 0 -64 24t-26 62q0 66 78 125q-31 -4 -43 -4q-123 0 -198.5 77.5t-75.5 209.5v435h76v-437q0 -101 53.5 -157t144.5 -56t144.5 56t53.5 157v437h76v-435q0 -147 -91 -224q-88 -71 -114 -102q-33 -39 -33 -68q0 -36 36 -36q27 0 57 24v-63q-28 -25 -74 -25z
" />
    <glyph glyph-name="uogonek" unicode="&#x173;" horiz-adv-x="576" 
d="M261 -10q-81 0 -132 54t-51 143v313h70v-303q0 -65 34 -103.5t88 -38.5q65 0 107.5 53.5t42.5 142.5v249h70v-500h-70v84q-51 -94 -159 -94zM419 -219q-37 0 -63 24t-26 59q0 32 17.5 61.5t30.5 40.5t42 34h70q-95 -63 -95 -122q0 -19 11 -29t27 -10q27 0 57 24v-57
q-28 -25 -71 -25z" />
    <glyph glyph-name="Wcircumflex" unicode="&#x174;" horiz-adv-x="942" 
d="M650 0l-179 516l-179 -516h-66l-202 710h79l162 -580l206 592l206 -592l162 580h79l-202 -710h-66zM307 769v67l164 92l164 -92v-67l-164 92z" />
    <glyph glyph-name="wcircumflex" unicode="&#x175;" horiz-adv-x="751" 
d="M508 0l-133 381l-132 -381h-58l-171 500h72l129 -380l133 380h54l132 -380l130 380h73l-171 -500h-58zM375 756l154 -102v-70l-154 102l-154 -102v70z" />
    <glyph glyph-name="Ycircumflex" unicode="&#x176;" horiz-adv-x="669" 
d="M297 0v301l-280 409h92l226 -331l226 331h92l-281 -410v-300h-75zM170 769v67l164 92l164 -92v-67l-164 92z" />
    <glyph glyph-name="ycircumflex" unicode="&#x177;" horiz-adv-x="540" 
d="M201 -209h-79l110 234l-222 475h78l183 -397l183 397h79zM271 756l154 -102v-70l-154 102l-154 -102v70z" />
    <glyph glyph-name="Ydieresis" unicode="&#x178;" horiz-adv-x="669" 
d="M297 0v301l-280 409h92l226 -331l226 331h92l-281 -410v-300h-75zM224 789q-23 0 -38.5 15.5t-15.5 37.5t15.5 37.5t38.5 15.5q22 0 37 -15.5t15 -37.5t-15 -37.5t-37 -15.5zM446 789q-23 0 -38.5 15.5t-15.5 37.5t15.5 37.5t38.5 15.5q22 0 37 -15.5t15 -37.5t-15 -37.5
t-37 -15.5z" />
    <glyph glyph-name="Zacute" unicode="&#x179;" horiz-adv-x="578" 
d="M33 0v50l398 588h-386v72h488v-50l-399 -588h410v-72h-511zM275 770l80 157h94l-112 -157h-62z" />
    <glyph glyph-name="zacute" unicode="&#x17a;" horiz-adv-x="479" 
d="M40 0v56l302 379h-298v65h388v-57l-301 -378h310v-65h-401zM212 560l90 190h95l-125 -190h-60z" />
    <glyph glyph-name="Zdotaccent" unicode="&#x17b;" horiz-adv-x="578" 
d="M33 0v50l398 588h-386v72h488v-50l-399 -588h410v-72h-511zM298 789q-23 0 -38.5 15.5t-15.5 37.5t15.5 37.5t38.5 15.5q22 0 37 -15.5t15 -37.5t-15 -37.5t-37 -15.5z" />
    <glyph glyph-name="zdotaccent" unicode="&#x17c;" horiz-adv-x="479" 
d="M40 0v56l302 379h-298v65h388v-57l-301 -378h310v-65h-401zM238 602q-23 0 -38.5 15.5t-15.5 37.5t15.5 37.5t38.5 15.5q22 0 37 -15.5t15 -37.5t-15 -37.5t-37 -15.5z" />
    <glyph glyph-name="Zcaron" unicode="&#x17d;" horiz-adv-x="578" 
d="M33 0v50l398 588h-386v72h488v-50l-399 -588h410v-72h-511zM298 769l-164 92v67l164 -92l164 92v-67z" />
    <glyph glyph-name="zcaron" unicode="&#x17e;" horiz-adv-x="479" 
d="M40 0v56l302 379h-298v65h388v-57l-301 -378h310v-65h-401zM238 584l-154 102v70l154 -102l154 102v-70z" />
    <glyph glyph-name="uni018F" unicode="&#x18f;" horiz-adv-x="829" 
d="M414 -12q-154 0 -260.5 106t-106.5 261v43h655q-18 114 -99 183t-189 69q-88 0 -161 -42.5t-104 -107.5h-83q32 91 127.5 156.5t220.5 65.5q154 0 260.5 -106t106.5 -261t-106.5 -261t-260.5 -106zM414 60q114 0 195.5 73.5t93.5 195.5h-579q10 -120 93.5 -194.5
t196.5 -74.5z" />
    <glyph glyph-name="uni0218" unicode="&#x218;" horiz-adv-x="552" 
d="M284 -12q-104 0 -170 55.5t-68 137.5h76q6 -58 54.5 -89.5t106.5 -31.5q62 0 103.5 32t41.5 85q0 89 -103 129l-105 40q-83 32 -120 78t-37 119q0 82 59 130.5t150 48.5q98 0 152.5 -54.5t63.5 -130.5h-76q-13 56 -52.5 84.5t-90.5 28.5q-56 0 -93 -29t-37 -77
q0 -47 25 -74.5t81 -49.5l94 -36q83 -32 124 -80.5t41 -124.5q0 -88 -61.5 -139.5t-158.5 -51.5zM225 -258l34 83q-27 19 -27 46q0 22 15 38t37 16t37 -16t15 -38q0 -17 -9 -30l-62 -99h-40z" />
    <glyph glyph-name="uni0219" unicode="&#x219;" horiz-adv-x="457" 
d="M237 -10q-80 0 -135 39t-61 112h70q21 -88 126 -88q46 0 76 19.5t30 55.5q0 33 -21.5 54.5t-68.5 34.5l-65 17q-129 35 -129 145q0 60 46 95.5t118 35.5q76 0 122.5 -40t52.5 -99h-69q-11 36 -39 56.5t-67 20.5q-40 0 -67 -19t-27 -50q0 -30 19 -49t63 -31l77 -20
q60 -15 92.5 -52.5t32.5 -93.5q0 -72 -48.5 -107.5t-127.5 -35.5zM175 -258l34 83q-27 19 -27 46q0 22 15 38t37 16t37 -16t15 -38q0 -17 -9 -30l-62 -99h-40z" />
    <glyph glyph-name="uni021A" unicode="&#x21a;" horiz-adv-x="567" 
d="M246 0v638h-230v72h535v-72h-230v-638h-75zM224 -258l34 83q-27 19 -27 46q0 22 15 38t37 16t37 -16t15 -38q0 -17 -9 -30l-62 -99h-40z" />
    <glyph glyph-name="uni021B" unicode="&#x21b;" horiz-adv-x="367" 
d="M265 -5q-63 0 -102.5 36.5t-39.5 107.5v295h-107v66h107v139h70v-139h146v-66h-146v-289q0 -46 20.5 -65.5t62.5 -19.5q38 0 63 11v-63q-33 -13 -74 -13zM172 -258l34 83q-27 19 -27 46q0 22 15 38t37 16t37 -16t15 -38q0 -17 -9 -30l-62 -99h-40z" />
    <glyph glyph-name="uni0232" unicode="&#x232;" horiz-adv-x="669" 
d="M297 0v301l-280 409h92l226 -331l226 331h92l-281 -410v-300h-75zM176 809v61h316v-61h-316z" />
    <glyph glyph-name="uni0233" unicode="&#x233;" horiz-adv-x="540" 
d="M201 -209h-79l110 234l-222 475h78l183 -397l183 397h79zM113 649v61h316v-61h-316z" />
    <glyph glyph-name="uni0237" unicode="&#x237;" horiz-adv-x="250" 
d="M164 500v-575q0 -71 -38.5 -107.5t-102.5 -36.5q-20 0 -35 3v64q16 -2 29 -2q77 0 77 85v569h70z" />
    <glyph glyph-name="uni0259" unicode="&#x259;" horiz-adv-x="576" 
d="M286 510q105 0 174.5 -74t69.5 -186q0 -117 -64.5 -188.5t-179.5 -71.5q-118 0 -184 83.5t-56 196.5h412q-2 75 -53 125t-119 50q-112 0 -160 -94h-72q19 70 78.5 114.5t153.5 44.5zM289 55q62 0 108 37t57 117h-336q12 -74 58.5 -114t112.5 -40z" />
    <glyph glyph-name="uni02BB" unicode="&#x2bb;" horiz-adv-x="243" 
d="M56 550l100 160h50l-65 -140q35 -20 35 -59q0 -27 -19.5 -47t-46.5 -20t-46.5 20t-19.5 47q0 20 12 39z" />
    <glyph glyph-name="uni02BC" unicode="&#x2bc;" horiz-adv-x="246" 
d="M200 616l-100 -160h-50l65 140q-35 20 -35 59q0 27 19.5 47t46.5 20t46.5 -20t19.5 -47q0 -20 -12 -39z" />
    <glyph glyph-name="circumflex" unicode="&#x2c6;" 
d="M0 756l154 -102v-70l-154 102l-154 -102v70z" />
    <glyph glyph-name="caron" unicode="&#x2c7;" 
d="M0 584l-154 102v70l154 -102l154 102v-70z" />
    <glyph glyph-name="breve" unicode="&#x2d8;" 
d="M0 585q-66 0 -110 42t-44 112v11h51v-11q0 -49 29 -76.5t74 -27.5t74 27.5t29 76.5v11h51v-11q0 -70 -44 -112t-110 -42z" />
    <glyph glyph-name="dotaccent" unicode="&#x2d9;" 
d="M0 602q-23 0 -38.5 15.5t-15.5 37.5t15.5 37.5t38.5 15.5q22 0 37 -15.5t15 -37.5t-15 -37.5t-37 -15.5z" />
    <glyph glyph-name="ring" unicode="&#x2da;" 
d="M0 543q-50 0 -85.5 35t-35.5 85t35.5 85t85.5 35t86 -35.5t36 -84.5t-36 -84.5t-86 -35.5zM0 590q31 0 52.5 21t21.5 52q0 30 -21.5 52t-52.5 22q-30 0 -51.5 -22t-21.5 -52q0 -31 21.5 -52t51.5 -21z" />
    <glyph glyph-name="ogonek" unicode="&#x2db;" 
d="M9 -219q-37 0 -63 24t-26 59q0 32 17.5 61.5t30.5 40.5t42 34h70q-95 -63 -95 -122q0 -19 11 -29t27 -10q27 0 57 24v-57q-28 -25 -71 -25z" />
    <glyph glyph-name="tilde" unicode="&#x2dc;" 
d="M-169 600l3 16q8 40 35.5 64.5t66.5 24.5q27 0 70.5 -21.5t57.5 -21.5q33 0 43 43h61l-3 -16q-8 -40 -35.5 -64.5t-66.5 -24.5q-27 0 -70.5 21.5t-57.5 21.5q-33 0 -43 -43h-61z" />
    <glyph glyph-name="hungarumlaut" unicode="&#x2dd;" 
d="M3 560l70 190h85l-105 -190h-50zM-159 560l70 190h85l-105 -190h-50z" />
    <glyph glyph-name="uni0401" unicode="&#x401;" horiz-adv-x="554" 
d="M99 0v710h405v-72h-329v-237h269v-72h-269v-257h329v-72h-405zM190 789q-23 0 -38.5 15.5t-15.5 37.5t15.5 37.5t38.5 15.5q22 0 37 -15.5t15 -37.5t-15 -37.5t-37 -15.5zM412 789q-23 0 -38.5 15.5t-15.5 37.5t15.5 37.5t38.5 15.5q22 0 37 -15.5t15 -37.5t-15 -37.5
t-37 -15.5z" />
    <glyph glyph-name="uni0402" unicode="&#x402;" horiz-adv-x="741" 
d="M477 440q110 0 170 -68.5t60 -158.5q0 -103 -65 -164t-164 -61q-44 0 -84 5v71q47 -5 86 -5q61 0 106 41.5t45 112.5q0 70 -44.5 112.5t-121.5 42.5q-84 0 -141 -57t-57 -161v-150h-76v638h-174v72h478v-72h-228v-305q33 52 88.5 79.5t121.5 27.5z" />
    <glyph glyph-name="uni0403" unicode="&#x403;" horiz-adv-x="511" 
d="M494 710v-72h-319v-638h-76v710h395zM274 770l80 157h94l-112 -157h-62z" />
    <glyph glyph-name="uni0404" unicode="&#x404;" horiz-adv-x="791" 
d="M415 -11q-154 0 -260.5 106t-106.5 261t106.5 261t260.5 106q132 0 223.5 -72.5t115.5 -171.5h-80q-25 74 -95 123t-164 49q-113 0 -193.5 -72t-94.5 -183h384v-72h-385q12 -114 93 -188.5t196 -74.5q94 0 164 49t95 123h80q-24 -99 -115.5 -171.5t-223.5 -72.5z" />
    <glyph glyph-name="uni0405" unicode="&#x405;" horiz-adv-x="554" 
d="M285 -12q-104 0 -170 55.5t-68 137.5h76q6 -58 54.5 -89.5t106.5 -31.5q62 0 103.5 32t41.5 85q0 89 -103 129l-105 40q-83 32 -120 78t-37 119q0 82 59 130.5t150 48.5q98 0 152.5 -54.5t63.5 -130.5h-76q-13 56 -52.5 84.5t-90.5 28.5q-56 0 -93 -29t-37 -77
q0 -47 25 -74.5t81 -49.5l94 -36q83 -32 124 -80.5t41 -124.5q0 -88 -61.5 -139.5t-158.5 -51.5z" />
    <glyph glyph-name="uni0406" unicode="&#x406;" horiz-adv-x="274" 
d="M99 0v710h76v-710h-76z" />
    <glyph glyph-name="uni0407" unicode="&#x407;" horiz-adv-x="274" 
d="M99 0v710h76v-710h-76zM38 812q-23 0 -39.5 16.5t-16.5 39.5t16.5 39t39.5 16t39.5 -16t16.5 -39t-16.5 -39.5t-39.5 -16.5zM236 812q-23 0 -39.5 16.5t-16.5 39.5t16.5 39t39.5 16t39.5 -16t16.5 -39t-16.5 -39.5t-39.5 -16.5z" />
    <glyph glyph-name="uni0408" unicode="&#x408;" horiz-adv-x="523" 
d="M229 -12q-90 0 -148.5 53t-58.5 145h76q0 -60 38 -93.5t92 -33.5q56 0 91.5 35.5t35.5 111.5v504h76v-514q0 -105 -57 -156.5t-145 -51.5z" />
    <glyph glyph-name="uni0409" unicode="&#x409;" horiz-adv-x="1027" 
d="M917 205q0 58 -43 91.5t-122 33.5h-126v-259h126q81 0 123 34.5t42 99.5zM138 710h488v-309h127q112 0 176.5 -55.5t64.5 -139.5q0 -94 -64 -150t-177 -56h-203v638h-336v-461q0 -189 -140 -189q-32 0 -53 4v70q13 -3 45 -3q38 0 55 28.5t17 102.5v520z" />
    <glyph glyph-name="uni040A" unicode="&#x40a;" horiz-adv-x="1044" 
d="M99 0v710h76v-309h392v309h76v-309h127q112 0 176.5 -55.5t64.5 -139.5q0 -94 -64 -150t-177 -56h-203v329h-392v-329h-76zM769 330h-126v-259h126q81 0 123 34.5t42 99.5q0 58 -43 91.5t-122 33.5z" />
    <glyph glyph-name="uni040B" unicode="&#x40b;" horiz-adv-x="750" 
d="M191 638h-174v72h478v-72h-228v-305q67 107 216 107q100 0 161 -67.5t61 -179.5v-193h-76v185q0 89 -43 136t-118 47q-82 0 -141.5 -55t-59.5 -162v-151h-76v638z" />
    <glyph glyph-name="uni040C" unicode="&#x40c;" horiz-adv-x="664" 
d="M573 0l-399 343v-343h-75v710h75v-311l327 311h103l-353 -337l435 -373h-113zM318 770l80 157h94l-112 -157h-62z" />
    <glyph glyph-name="uni040E" unicode="&#x40e;" horiz-adv-x="690" 
d="M135 -6v69q23 -4 59 -4q67 0 107 77l17 32l-278 542h86l235 -461l248 461h81l-307 -575q-45 -82 -84.5 -114.5t-97.5 -32.5q-32 0 -66 6zM367 762q-65 0 -109.5 42t-44.5 111h58q0 -47 26.5 -74t69.5 -27t69.5 27t26.5 74h58q0 -69 -44.5 -111t-109.5 -42z" />
    <glyph glyph-name="uni040F" unicode="&#x40f;" horiz-adv-x="745" 
d="M410 0v-148h-74v148h-237v710h76v-638h395v638h76v-710h-236z" />
    <glyph glyph-name="uni0410" unicode="&#x410;" horiz-adv-x="710" 
d="M8 0l316 710h61l317 -710h-80l-99 221h-339l-98 -221h-78zM353 603l-138 -311h277z" />
    <glyph glyph-name="uni0411" unicode="&#x411;" horiz-adv-x="620" 
d="M175 407h171q107 0 173 -53t66 -151q0 -97 -66 -150t-173 -53h-247v710h419v-72h-343v-231zM508 203q0 64 -41.5 98.5t-119.5 34.5h-172v-265h172q78 0 119.5 34.5t41.5 97.5z" />
    <glyph glyph-name="uni0412" unicode="&#x412;" horiz-adv-x="628" 
d="M99 0v710h224q98 0 155 -53t57 -129q0 -104 -81 -151q128 -43 128 -170q0 -91 -66.5 -149t-176.5 -58h-240zM175 69h172q78 0 119 36t41 96t-40.5 96.5t-118.5 36.5h-173v-265zM175 400h153q62 0 97 33.5t35 86.5q0 50 -35.5 85.5t-96.5 35.5h-153v-241z" />
    <glyph glyph-name="uni0413" unicode="&#x413;" horiz-adv-x="511" 
d="M494 710v-72h-319v-638h-76v710h395z" />
    <glyph glyph-name="uni0414" unicode="&#x414;" horiz-adv-x="753" 
d="M643 -148v148h-537v-148h-72v220h14q28 0 46.5 19t32 79.5t13.5 162.5v377h488v-638h87v-220h-72zM216 638v-320q0 -178 -47 -246h383v566h-336z" />
    <glyph glyph-name="uni0415" unicode="&#x415;" horiz-adv-x="554" 
d="M99 0v710h405v-72h-329v-237h269v-72h-269v-257h329v-72h-405z" />
    <glyph glyph-name="uni0416" unicode="&#x416;" horiz-adv-x="950" 
d="M852 0l-339 320v-320h-76v320l-339 -320h-105l372 351l-343 359h96l319 -335v335h76v-335l319 335h96l-343 -359l372 -351h-105z" />
    <glyph glyph-name="uni0417" unicode="&#x417;" horiz-adv-x="581" 
d="M137 545h-77q17 90 81 133.5t146 43.5q94 0 152.5 -53.5t58.5 -138.5q0 -48 -22.5 -90.5t-68.5 -68.5q58 -21 88 -67.5t30 -107.5q0 -99 -69.5 -153.5t-168.5 -54.5q-97 0 -167 47.5t-84 140.5h77q13 -59 62 -88t113 -29q73 0 117.5 38.5t44.5 101.5q0 60 -41.5 97.5
t-117.5 37.5h-81v66h84q61 0 95 36t34 89q0 57 -37 91.5t-102 34.5q-51 0 -92 -27.5t-55 -78.5z" />
    <glyph glyph-name="uni0418" unicode="&#x418;" horiz-adv-x="794" 
d="M166 0h-67v710h76v-581l453 581h67v-710h-76v581z" />
    <glyph glyph-name="uni0419" unicode="&#x419;" horiz-adv-x="794" 
d="M166 0h-67v710h76v-581l453 581h67v-710h-76v581zM406 762q-65 0 -109.5 42t-44.5 111h58q0 -47 26.5 -74t69.5 -27t69.5 27t26.5 74h58q0 -69 -44.5 -111t-109.5 -42z" />
    <glyph glyph-name="uni041A" unicode="&#x41a;" horiz-adv-x="664" 
d="M573 0l-399 343v-343h-75v710h75v-311l327 311h103l-353 -337l435 -373h-113z" />
    <glyph glyph-name="uni041B" unicode="&#x41b;" horiz-adv-x="725" 
d="M138 190v520h488v-710h-76v638h-336v-461q0 -189 -140 -189q-33 0 -53 4v70q13 -3 45 -3q38 0 55 28.5t17 102.5z" />
    <glyph glyph-name="uni041C" unicode="&#x41c;" horiz-adv-x="886" 
d="M99 710h70l274 -365l274 365h70v-710h-76v579l-268 -357l-268 357v-579h-76v710z" />
    <glyph glyph-name="uni041D" unicode="&#x41d;" horiz-adv-x="765" 
d="M99 0v710h76v-309h415v309h76v-710h-76v329h-415v-329h-76z" />
    <glyph glyph-name="uni041E" unicode="&#x41e;" horiz-adv-x="830" 
d="M415 60q123 0 206.5 85t83.5 210q0 124 -83.5 209.5t-206.5 85.5t-206.5 -85.5t-83.5 -209.5q0 -125 83.5 -210t206.5 -85zM415 -12q-154 0 -260.5 106t-106.5 261t106.5 261t260.5 106t260.5 -106t106.5 -261t-106.5 -261t-260.5 -106z" />
    <glyph glyph-name="uni041F" unicode="&#x41f;" horiz-adv-x="746" 
d="M573 0v638h-401v-638h-73v710h548v-710h-74z" />
    <glyph glyph-name="uni0420" unicode="&#x420;" horiz-adv-x="584" 
d="M552 488q0 -96 -66.5 -158.5t-175.5 -62.5h-135v-267h-76v710h211q109 0 175.5 -63t66.5 -159zM475 488q0 66 -43.5 108.5t-121.5 42.5h-135v-301h135q78 0 121.5 42t43.5 108z" />
    <glyph glyph-name="uni0421" unicode="&#x421;" horiz-adv-x="791" 
d="M415 -12q-154 0 -260.5 106t-106.5 261t106.5 261t260.5 106q132 0 223.5 -72.5t115.5 -171.5h-80q-25 74 -95 123t-164 49q-123 0 -206.5 -85.5t-83.5 -209.5q0 -125 83.5 -210t206.5 -85q94 0 164 49t95 123h80q-24 -99 -115.5 -171.5t-223.5 -72.5z" />
    <glyph glyph-name="uni0422" unicode="&#x422;" horiz-adv-x="567" 
d="M246 0v638h-230v72h535v-72h-230v-638h-75z" />
    <glyph glyph-name="uni0423" unicode="&#x423;" horiz-adv-x="690" 
d="M135 -6v69q23 -4 59 -4q67 0 107 77l17 32l-278 542h86l235 -461l248 461h81l-307 -575q-45 -82 -84.5 -114.5t-97.5 -32.5q-32 0 -66 6z" />
    <glyph glyph-name="uni0424" unicode="&#x424;" horiz-adv-x="859" 
d="M392 135v446h-8q-128 0 -195.5 -58.5t-67.5 -163.5q0 -107 66.5 -165.5t196.5 -58.5h8zM467 -30h-75v95h-7q-158 0 -249.5 79t-91.5 215q0 135 91 213.5t250 78.5h7v89h75v-89h7q159 0 250 -78.5t91 -213.5q0 -136 -91.5 -215t-249.5 -79h-7v-95zM467 135h8
q130 0 196.5 58.5t66.5 165.5q0 105 -67.5 163.5t-195.5 58.5h-8v-446z" />
    <glyph glyph-name="uni0425" unicode="&#x425;" horiz-adv-x="662" 
d="M103 0h-96l276 359l-266 351h93l221 -289l221 289h93l-267 -351l277 -359h-96l-228 296z" />
    <glyph glyph-name="uni0426" unicode="&#x426;" horiz-adv-x="758" 
d="M633 72h88v-220h-74v148h-548v710h76v-638h382v638h76v-638z" />
    <glyph glyph-name="uni0427" unicode="&#x427;" horiz-adv-x="685" 
d="M586 0h-76v377q-32 -51 -91.5 -79t-135.5 -28q-109 0 -173.5 66.5t-64.5 180.5v193h76v-186q0 -90 46 -136.5t131 -46.5q86 0 149 55.5t63 162.5v151h76v-710z" />
    <glyph glyph-name="uni0428" unicode="&#x428;" horiz-adv-x="990" 
d="M99 0v710h76v-638h282v638h76v-638h282v638h76v-710h-792z" />
    <glyph glyph-name="uni0429" unicode="&#x429;" horiz-adv-x="1016" 
d="M905 -148v148h-806v710h76v-638h282v638h76v-638h282v638h76v-638h88v-220h-74z" />
    <glyph glyph-name="uni042A" unicode="&#x42a;" horiz-adv-x="701" 
d="M288 416h137q112 0 177 -56.5t65 -151.5t-65 -151.5t-177 -56.5h-213v638h-196v72h272v-294zM288 71h134q82 0 125 35.5t43 101.5t-43 101.5t-125 35.5h-134v-274z" />
    <glyph glyph-name="uni042B" unicode="&#x42b;" horiz-adv-x="833" 
d="M175 416h137q112 0 177 -56.5t65 -151.5t-65 -151.5t-177 -56.5h-213v710h76v-294zM175 71h134q82 0 125 35.5t43 101.5t-43 101.5t-125 35.5h-134v-274zM658 0v710h76v-710h-76z" />
    <glyph glyph-name="uni042C" unicode="&#x42c;" horiz-adv-x="588" 
d="M175 416h137q112 0 177 -56.5t65 -151.5t-65 -151.5t-177 -56.5h-213v710h76v-294zM175 71h134q82 0 125 35.5t43 101.5t-43 101.5t-125 35.5h-134v-274z" />
    <glyph glyph-name="uni042D" unicode="&#x42d;" horiz-adv-x="791" 
d="M376 -11q-132 0 -223.5 72.5t-115.5 171.5h80q25 -74 95 -123t164 -49q115 0 196 74.5t93 188.5h-385v72h384q-14 111 -94.5 183t-193.5 72q-94 0 -164 -49t-95 -123h-80q24 99 115.5 171.5t223.5 72.5q154 0 260.5 -106t106.5 -261t-106.5 -261t-260.5 -106z" />
    <glyph glyph-name="uni042E" unicode="&#x42e;" horiz-adv-x="1065" 
d="M99 0v710h76v-310h132q16 138 116 230t238 92q150 0 253 -106.5t103 -260.5t-103 -260.5t-253 -106.5q-142 0 -243.5 97.5t-111.5 242.5h-131v-328h-76zM940 355q0 124 -80.5 209.5t-198.5 85.5t-198.5 -85.5t-80.5 -209.5q0 -125 80.5 -210t198.5 -85t198.5 85t80.5 210
z" />
    <glyph glyph-name="uni042F" unicode="&#x42f;" horiz-adv-x="624" 
d="M449 0v303h-100l-257 -303h-97l267 312q-84 12 -131.5 66.5t-47.5 129.5q0 89 64.5 145.5t174.5 56.5h203v-710h-76zM160 508q0 -63 42.5 -98.5t122.5 -35.5h124v265h-124q-79 0 -122 -35t-43 -96z" />
    <glyph glyph-name="uni0430" unicode="&#x430;" horiz-adv-x="634" 
d="M293 -10q-105 0 -177 76t-72 184t72 184t177 76q57 0 107.5 -26t77.5 -68v84h70v-500h-70v84q-27 -42 -77.5 -68t-107.5 -26zM300 55q81 0 132.5 56.5t51.5 138.5t-51.5 138.5t-132.5 56.5t-132.5 -56.5t-51.5 -138.5t51.5 -138.5t132.5 -56.5z" />
    <glyph glyph-name="uni0431" unicode="&#x431;" horiz-adv-x="631" 
d="M325 -10q-115 0 -187 77.5t-72 198.5v58q0 182 63.5 274.5t212.5 120.5l190 35v-67l-175 -32q-113 -21 -160 -78t-62 -173q69 100 198 100q113 0 183.5 -73t70.5 -178q0 -111 -73.5 -187t-188.5 -76zM325 55q83 0 136.5 56.5t53.5 141.5q0 82 -53 134t-135 52
q-83 0 -136 -53t-53 -132q0 -87 52 -143t135 -56z" />
    <glyph glyph-name="uni0432" unicode="&#x432;" horiz-adv-x="541" 
d="M86 0v500h211q80 0 123 -34.5t43 -97.5q0 -65 -54 -102q87 -36 87 -123q0 -64 -45 -103.5t-134 -39.5h-231zM156 64h170q46 0 72 21.5t26 60.5t-26 60.5t-72 21.5h-170v-164zM156 290h151q37 0 61 18t24 56t-24 55t-61 17h-151v-146z" />
    <glyph glyph-name="uni0433" unicode="&#x433;" horiz-adv-x="405" 
d="M86 0v500h303v-66h-233v-434h-70z" />
    <glyph glyph-name="uni0434" unicode="&#x434;" horiz-adv-x="617" 
d="M34 66h12q33 0 52.5 36.5t19.5 136.5v261h387v-434h74v-193h-68v127h-409v-127h-68v193zM188 434v-211q0 -107 -33 -157h280v368h-247z" />
    <glyph glyph-name="uni0435" unicode="&#x435;" horiz-adv-x="575" 
d="M293 -10q-108 0 -178 74t-70 186t68 186t183 74t179 -83.5t54 -196.5h-412q0 -75 53 -125t123 -50q108 0 156 94h72q-19 -69 -78 -114t-150 -45zM293 445q-63 0 -111 -37.5t-61 -116.5h336q-12 74 -56 114t-108 40z" />
    <glyph glyph-name="uni0436" unicode="&#x436;" horiz-adv-x="764" 
d="M670 0l-253 229v-229h-70v229l-253 -229h-96l280 254l-244 246h90l223 -227v227h70v-227l223 227h90l-245 -246l281 -254h-96z" />
    <glyph glyph-name="uni0437" unicode="&#x437;" horiz-adv-x="478" 
d="M235 -10q-76 0 -130 36.5t-68 101.5h70q28 -77 129 -77q60 0 91 26t31 65q0 42 -31 65t-88 23h-57v62h58q47 0 73.5 19.5t26.5 58.5q0 38 -29 58.5t-76 20.5q-95 0 -118 -76h-69q12 66 64 101.5t123 35.5q80 0 126.5 -37.5t46.5 -98.5q0 -76 -65 -112q86 -37 86 -125
q0 -64 -51.5 -105.5t-142.5 -41.5z" />
    <glyph glyph-name="uni0438" unicode="&#x438;" horiz-adv-x="604" 
d="M148 0h-62v500h70v-389l300 389h62v-500h-70v389z" />
    <glyph glyph-name="uni0439" unicode="&#x439;" horiz-adv-x="604" 
d="M148 0h-62v500h70v-389l300 389h62v-500h-70v389zM309 585q-66 0 -110 42t-44 112v11h61v-11q0 -49 26 -76.5t67 -27.5t67 27.5t26 76.5v11h61v-11q0 -70 -44 -112t-110 -42z" />
    <glyph glyph-name="uni043A" unicode="&#x43a;" horiz-adv-x="515" 
d="M424 0l-268 230v-230h-70v500h70v-228l238 228h92l-258 -246l296 -254h-100z" />
    <glyph glyph-name="uni043B" unicode="&#x43b;" horiz-adv-x="573" 
d="M60 -6q-28 0 -39 3v64q8 -2 32 -2q30 0 45 23t15 79v339h374v-500h-70v434h-234v-292q0 -72 -33.5 -110t-89.5 -38z" />
    <glyph glyph-name="uni043C" unicode="&#x43c;" horiz-adv-x="690" 
d="M86 500h67l192 -259l192 259h67v-500h-70v384l-189 -254l-189 254v-384h-70v500z" />
    <glyph glyph-name="uni043D" unicode="&#x43d;" horiz-adv-x="605" 
d="M86 0v500h70v-211h293v211h70v-500h-70v223h-293v-223h-70z" />
    <glyph glyph-name="uni043E" unicode="&#x43e;" horiz-adv-x="610" 
d="M305 -10q-113 0 -187 75.5t-74 184.5t74 184.5t187 75.5t187 -75.5t74 -184.5t-74 -184.5t-187 -75.5zM305 55q84 0 136.5 56.5t52.5 138.5t-52.5 138.5t-136.5 56.5t-136.5 -56.5t-52.5 -138.5t52.5 -138.5t136.5 -56.5z" />
    <glyph glyph-name="uni043F" unicode="&#x43f;" horiz-adv-x="594" 
d="M86 0v500h422v-500h-70v434h-282v-434h-70z" />
    <glyph glyph-name="uni0440" unicode="&#x440;" horiz-adv-x="635" 
d="M156 -209h-70v709h70v-84q27 42 77.5 68t107.5 26q105 0 177 -76t72 -184t-72 -184t-177 -76q-57 0 -107.5 26t-77.5 68v-293zM334 55q81 0 132.5 56.5t51.5 138.5t-51.5 138.5t-132.5 56.5t-132.5 -56.5t-51.5 -138.5t51.5 -138.5t132.5 -56.5z" />
    <glyph glyph-name="uni0441" unicode="&#x441;" horiz-adv-x="590" 
d="M305 -10q-113 0 -187 75.5t-74 184.5t74 184.5t187 75.5q91 0 159 -50.5t91 -130.5h-76q-18 52 -65 84t-109 32q-84 0 -136.5 -56.5t-52.5 -138.5t52.5 -138.5t136.5 -56.5q62 0 109 32t65 84h76q-23 -80 -91 -130.5t-159 -50.5z" />
    <glyph glyph-name="uni0442" unicode="&#x442;" horiz-adv-x="441" 
d="M182 0v434h-165v66h407v-66h-172v-434h-70z" />
    <glyph glyph-name="uni0443" unicode="&#x443;" horiz-adv-x="541" 
d="M533 500l-277 -597q-30 -66 -65.5 -94t-89.5 -28q-34 0 -53 5v63q16 -3 49 -3q56 0 92 78l45 98l-224 478h78l183 -396l183 396h79z" />
    <glyph glyph-name="uni0444" unicode="&#x444;" horiz-adv-x="722" 
d="M396 -209h-70v199h-4q-128 0 -203 75t-75 185t75 185t203 75h4v241h70v-241h4q128 0 203 -75t75 -185t-75 -185t-203 -75h-4v-199zM400 445h-4v-390h4q97 0 151.5 55t54.5 140q0 84 -56 139.5t-150 55.5zM326 55v390h-4q-94 0 -150 -55.5t-56 -139.5q0 -85 54.5 -140
t151.5 -55h4z" />
    <glyph glyph-name="uni0445" unicode="&#x445;" horiz-adv-x="518" 
d="M422 0l-163 201l-163 -201h-89l208 256l-187 244h85l145 -189l146 189h86l-188 -245l208 -255h-88z" />
    <glyph glyph-name="uni0446" unicode="&#x446;" horiz-adv-x="615" 
d="M578 66v-193h-68v127h-424v500h70v-434h277v434h70v-434h75z" />
    <glyph glyph-name="uni0447" unicode="&#x447;" horiz-adv-x="537" 
d="M451 0h-70v242q-22 -33 -64.5 -52t-93.5 -19q-84 0 -132.5 47.5t-48.5 131.5v150h70v-144q0 -120 126 -120q55 0 99 37.5t44 106.5v120h70v-500z" />
    <glyph glyph-name="uni0448" unicode="&#x448;" horiz-adv-x="814" 
d="M86 0v500h70v-434h216v434h70v-434h216v434h70v-500h-642z" />
    <glyph glyph-name="uni0449" unicode="&#x449;" horiz-adv-x="840" 
d="M803 66v-193h-68v127h-649v500h70v-434h216v434h70v-434h216v434h70v-434h75z" />
    <glyph glyph-name="uni044A" unicode="&#x44a;" horiz-adv-x="569" 
d="M162 0v436h-144v64h214v-190h122q90 0 136.5 -44.5t46.5 -109.5q0 -66 -47 -111t-137 -45h-191zM232 244v-178h122q53 0 82 24t29 66t-28.5 65t-81.5 23h-123z" />
    <glyph glyph-name="uni044B" unicode="&#x44b;" horiz-adv-x="698" 
d="M542 0v500h70v-500h-70zM86 0v500h70v-190h122q90 0 136.5 -44.5t46.5 -109.5q0 -66 -47 -111t-137 -45h-191zM156 244v-178h122q53 0 82 24t29 66t-28.5 65t-81.5 23h-123z" />
    <glyph glyph-name="uni044C" unicode="&#x44c;" horiz-adv-x="493" 
d="M86 0v500h70v-190h122q90 0 136.5 -44.5t46.5 -109.5q0 -66 -47 -111t-137 -45h-191zM156 244v-178h122q53 0 82 24t29 66t-28.5 65t-81.5 23h-123z" />
    <glyph glyph-name="uni044D" unicode="&#x44d;" horiz-adv-x="590" 
d="M285 -10q-91 0 -159 50.5t-91 130.5h76q18 -52 65 -84t109 -32q76 0 127.5 47t59.5 119h-251v66h250q-12 69 -62 113.5t-124 44.5q-62 0 -109 -32t-65 -84h-76q23 80 91 130.5t159 50.5q113 0 187 -75.5t74 -184.5t-74 -184.5t-187 -75.5z" />
    <glyph glyph-name="uni044E" unicode="&#x44e;" horiz-adv-x="799" 
d="M505 -10q-102 0 -171 66t-77 168h-101v-224h-70v500h70v-212h102q12 96 81 159t166 63q108 0 178.5 -74.5t70.5 -185.5t-70.5 -185.5t-178.5 -74.5zM505 56q78 0 127.5 55.5t49.5 138.5t-49.5 138.5t-127.5 55.5t-127.5 -55.5t-49.5 -138.5t49.5 -138.5t127.5 -55.5z" />
    <glyph glyph-name="uni044F" unicode="&#x44f;" horiz-adv-x="518" 
d="M-2 0l213 200q-63 10 -98.5 49.5t-35.5 94.5q0 67 47.5 111.5t133.5 44.5h174v-500h-70v190h-69l-202 -190h-93zM262 256h100v178h-100q-113 0 -113 -90q0 -88 113 -88z" />
    <glyph glyph-name="uni0451" unicode="&#x451;" horiz-adv-x="575" 
d="M293 -10q-108 0 -178 74t-70 186t68 186t183 74t179 -83.5t54 -196.5h-412q0 -75 53 -125t123 -50q108 0 156 94h72q-19 -69 -78 -114t-150 -45zM293 445q-63 0 -111 -37.5t-61 -116.5h336q-12 74 -56 114t-108 40zM185 602q-23 0 -38.5 15.5t-15.5 37.5t15.5 37.5
t38.5 15.5q22 0 37 -15.5t15 -37.5t-15 -37.5t-37 -15.5zM407 602q-23 0 -38.5 15.5t-15.5 37.5t15.5 37.5t38.5 15.5q22 0 37 -15.5t15 -37.5t-15 -37.5t-37 -15.5z" />
    <glyph glyph-name="uni0452" unicode="&#x452;" horiz-adv-x="586" 
d="M367 -219q-20 0 -35 3v64q16 -2 29 -2q77 0 77 85v372q0 65 -34.5 103.5t-91.5 38.5q-68 0 -112 -52.5t-44 -143.5v-249h-70v589h-74v63h74v98h70v-98h176v-63h-176v-173q51 94 164 94q83 0 135.5 -53t52.5 -144v-388q0 -71 -38.5 -107.5t-102.5 -36.5z" />
    <glyph glyph-name="uni0453" unicode="&#x453;" horiz-adv-x="405" 
d="M86 0v500h303v-66h-233v-434h-70zM210 560l90 190h95l-125 -190h-60z" />
    <glyph glyph-name="uni0454" unicode="&#x454;" horiz-adv-x="590" 
d="M305 -10q-113 0 -187 75.5t-74 184.5t74 184.5t187 75.5q91 0 159 -50.5t91 -130.5h-76q-18 52 -65 84t-109 32q-74 0 -124 -44.5t-62 -113.5h250v-66h-251q8 -72 59.5 -119t127.5 -47q62 0 109 32t65 84h76q-23 -80 -91 -130.5t-159 -50.5z" />
    <glyph glyph-name="uni0455" unicode="&#x455;" horiz-adv-x="457" 
d="M237 -10q-80 0 -135 39t-61 112h70q21 -88 126 -88q46 0 76 19.5t30 55.5q0 33 -21.5 54.5t-68.5 34.5l-65 17q-129 35 -129 145q0 60 46 95.5t118 35.5q76 0 122.5 -40t52.5 -99h-69q-11 36 -39 56.5t-67 20.5q-40 0 -67 -19t-27 -50q0 -30 19 -49t63 -31l77 -20
q60 -15 92.5 -52.5t32.5 -93.5q0 -72 -48.5 -107.5t-127.5 -35.5z" />
    <glyph glyph-name="uni0456" unicode="&#x456;" horiz-adv-x="242" 
d="M122 650q-23 0 -38.5 15.5t-15.5 37.5t15.5 37.5t38.5 15.5q22 0 37 -15.5t15 -37.5t-15 -37.5t-37 -15.5zM86 0v500h70v-500h-70z" />
    <glyph glyph-name="uni0457" unicode="&#x457;" horiz-adv-x="242" 
d="M86 0v500h70v-500h-70zM22 602q-23 0 -39.5 16.5t-16.5 39.5t16.5 39t39.5 16t39.5 -16t16.5 -39t-16.5 -39.5t-39.5 -16.5zM220 602q-23 0 -39.5 16.5t-16.5 39.5t16.5 39t39.5 16t39.5 -16t16.5 -39t-16.5 -39.5t-39.5 -16.5z" />
    <glyph glyph-name="uni0458" unicode="&#x458;" horiz-adv-x="250" 
d="M164 500v-575q0 -71 -38.5 -107.5t-102.5 -36.5q-20 0 -35 3v64q16 -2 29 -2q77 0 77 85v569h70zM130 650q-23 0 -38.5 15.5t-15.5 37.5t15.5 37.5t38.5 15.5q22 0 37 -15.5t15 -37.5t-15 -37.5t-37 -15.5z" />
    <glyph glyph-name="uni0459" unicode="&#x459;" horiz-adv-x="806" 
d="M480 223v-157h122q48 0 74.5 20.5t26.5 57.5t-26.5 58t-74.5 21h-122zM113 500h367v-211h122q83 0 128 -43t45 -102t-45 -101.5t-128 -42.5h-192v434h-227v-292q0 -72 -33.5 -110t-89.5 -38q-28 0 -39 3v64q8 -2 32 -2q30 0 45 23t15 79v339z" />
    <glyph glyph-name="uni045A" unicode="&#x45a;" horiz-adv-x="835" 
d="M732 144q0 37 -26.5 58t-74.5 21h-122v-157h122q48 0 74.5 20.5t26.5 57.5zM804 144q0 -59 -45 -101.5t-128 -42.5h-192v223h-283v-223h-70v500h70v-211h283v211h70v-211h122q83 0 128 -43t45 -102z" />
    <glyph glyph-name="uni045B" unicode="&#x45b;" horiz-adv-x="586" 
d="M86 579h-74v63h74v88h70v-88h176v-63h-176v-163q51 94 164 94q83 0 135.5 -53t52.5 -144v-313h-70v303q0 65 -34.5 103.5t-91.5 38.5q-68 0 -112 -52.5t-44 -143.5v-249h-70v579z" />
    <glyph glyph-name="uni045C" unicode="&#x45c;" horiz-adv-x="515" 
d="M424 0l-268 230v-230h-70v500h70v-228l238 228h92l-258 -246l296 -254h-100zM251 560l90 190h95l-125 -190h-60z" />
    <glyph glyph-name="uni045E" unicode="&#x45e;" horiz-adv-x="541" 
d="M533 500l-277 -597q-30 -66 -65.5 -94t-89.5 -28q-34 0 -53 5v63q16 -3 49 -3q56 0 92 78l45 98l-224 478h78l183 -396l183 396h79zM271 585q-66 0 -110 42t-44 112v11h61v-11q0 -49 26 -76.5t67 -27.5t67 27.5t26 76.5v11h61v-11q0 -70 -44 -112t-110 -42z" />
    <glyph glyph-name="uni045F" unicode="&#x45f;" horiz-adv-x="601" 
d="M515 0h-180v-127h-68v127h-181v500h70v-434h289v434h70v-500z" />
    <glyph glyph-name="uni0462" unicode="&#x462;" horiz-adv-x="700" 
d="M286 416h137q112 0 177 -56.5t65 -151.5t-65 -151.5t-177 -56.5h-213v539h-182v63h182v108h76v-108h228v-63h-228v-123zM286 71h134q82 0 125 35.5t43 101.5t-43 101.5t-125 35.5h-134v-274z" />
    <glyph glyph-name="uni0463" unicode="&#x463;" horiz-adv-x="546" 
d="M19 437v63h118v250h70v-250h210v-63h-210v-127h122q90 0 136.5 -44.5t46.5 -109.5q0 -66 -47 -111t-137 -45h-191v437h-118zM330 244h-123v-178h122q53 0 82 24t29 66t-28.5 65t-81.5 23z" />
    <glyph glyph-name="uni0472" unicode="&#x472;" horiz-adv-x="830" 
d="M415 60q123 0 206.5 85t83.5 210q0 124 -83.5 209.5t-206.5 85.5t-206.5 -85.5t-83.5 -209.5q0 -125 83.5 -210t206.5 -85zM415 -12q-154 0 -260.5 106t-106.5 261t106.5 261t260.5 106t260.5 -106t106.5 -261t-106.5 -261t-260.5 -106zM549 366q92 0 163 50v-71
q-71 -50 -163 -50q-49 0 -136 25t-131 25q-92 0 -163 -50v71q71 50 163 50q55 0 137.5 -25t129.5 -25z" />
    <glyph glyph-name="uni0473" unicode="&#x473;" horiz-adv-x="610" 
d="M305 -10q-113 0 -187 75.5t-74 184.5t74 184.5t187 75.5t187 -75.5t74 -184.5t-74 -184.5t-187 -75.5zM305 55q84 0 136.5 56.5t52.5 138.5t-52.5 138.5t-136.5 56.5t-136.5 -56.5t-52.5 -138.5t52.5 -138.5t136.5 -56.5zM101 281v-62h409v62h-409z" />
    <glyph glyph-name="uni0474" unicode="&#x474;" horiz-adv-x="770" 
d="M96 710l252 -586l200 464q34 78 66 106t85 28q31 0 54 -7v-70q-56 9 -80.5 -5.5t-50.5 -75.5l-243 -564h-62l-306 710h85z" />
    <glyph glyph-name="uni0475" unicode="&#x475;" horiz-adv-x="590" 
d="M8 500h78l183 -396l136 293q28 61 56 87t70 26q27 0 47 -5v-64q-41 6 -60.5 -4.5t-39.5 -51.5l-181 -385h-55z" />
    <glyph glyph-name="uni0490" unicode="&#x490;" horiz-adv-x="511" 
d="M494 710v-72h-319v-638h-76v710h395zM494 710h-74v148h74v-148z" />
    <glyph glyph-name="uni0491" unicode="&#x491;" horiz-adv-x="405" 
d="M86 0v500h303v-66h-233v-434h-70zM389 500h-68v127h68v-127z" />
    <glyph glyph-name="uni0492" unicode="&#x492;" horiz-adv-x="526" 
d="M506 710v-72h-319v-638h-76v710h395zM19 323v72h353v-72h-353z" />
    <glyph glyph-name="uni0493" unicode="&#x493;" horiz-adv-x="419" 
d="M99 0v500h303v-66h-233v-434h-70zM306 235h-288v64h288v-64z" />
    <glyph glyph-name="uni0496" unicode="&#x496;" horiz-adv-x="972" 
d="M852 0l-339 320v-320h-76v320l-339 -320h-105l372 351l-343 359h96l319 -335v335h76v-335l319 335h96l-343 -359l372 -351h-105zM895 -148v148h-28v72h102v-220h-74z" />
    <glyph glyph-name="uni0497" unicode="&#x497;" horiz-adv-x="784" 
d="M670 0l-253 229v-229h-70v229l-253 -229h-96l280 254l-244 246h90l223 -227v227h70v-227l223 227h90l-245 -246l281 -254h-96zM708 -127v127h-30v66h98v-193h-68z" />
    <glyph glyph-name="uni049A" unicode="&#x49a;" horiz-adv-x="685" 
d="M573 0l-399 343v-343h-75v710h75v-311l327 311h103l-353 -337l435 -373h-113zM617 -148v148h-28v72h102v-220h-74z" />
    <glyph glyph-name="uni049B" unicode="&#x49b;" horiz-adv-x="534" 
d="M424 0l-268 230v-230h-70v500h70v-228l238 228h92l-258 -246l296 -254h-100zM463 -127v127h-30v66h98v-193h-68z" />
    <glyph glyph-name="uni04A2" unicode="&#x4a2;" horiz-adv-x="791" 
d="M99 0v710h76v-309h415v309h76v-710h-76v329h-415v-329h-76zM680 -148v148h-28v72h102v-220h-74z" />
    <glyph glyph-name="uni04A3" unicode="&#x4a3;" horiz-adv-x="631" 
d="M86 0v500h70v-211h293v211h70v-500h-70v223h-293v-223h-70zM526 -127v127h-30v66h98v-193h-68z" />
    <glyph glyph-name="uni04AE" unicode="&#x4ae;" horiz-adv-x="669" 
d="M297 0v301l-280 409h92l226 -331l226 331h92l-281 -410v-300h-75z" />
    <glyph glyph-name="uni04AF" unicode="&#x4af;" horiz-adv-x="541" 
d="M236 -209v209l-227 500h78l183 -410l183 410h79l-226 -499v-210h-70z" />
    <glyph glyph-name="uni04B0" unicode="&#x4b0;" horiz-adv-x="668" 
d="M297 0v301l-280 409h92l226 -331l226 331h92l-281 -410v-300h-75zM529 302v-72h-392v72h392z" />
    <glyph glyph-name="uni04B1" unicode="&#x4b1;" horiz-adv-x="541" 
d="M236 -209v209l-227 500h78l183 -410l183 410h79l-226 -499v-210h-70zM97 -64v64h349v-64h-349z" />
    <glyph glyph-name="uni04B2" unicode="&#x4b2;" horiz-adv-x="693" 
d="M103 0h-96l276 359l-266 351h93l221 -289l221 289h93l-267 -351l277 -359h-96l-228 296zM613 -148v148h-28v72h102v-220h-74z" />
    <glyph glyph-name="uni04B3" unicode="&#x4b3;" horiz-adv-x="544" 
d="M422 0l-163 201l-163 -201h-89l208 256l-187 244h85l145 -189l146 189h86l-188 -245l208 -255h-88zM465 -127v127h-30v66h98v-193h-68z" />
    <glyph glyph-name="uni04B6" unicode="&#x4b6;" horiz-adv-x="711" 
d="M586 0h-76v377q-32 -51 -91.5 -79t-135.5 -28q-109 0 -173.5 66.5t-64.5 180.5v193h76v-186q0 -90 46 -136.5t131 -46.5q86 0 149 55.5t63 162.5v151h76v-710zM600 -148v148h-28v72h102v-220h-74z" />
    <glyph glyph-name="uni04B7" unicode="&#x4b7;" horiz-adv-x="563" 
d="M451 0h-70v242q-22 -33 -64.5 -52t-93.5 -19q-84 0 -132.5 47.5t-48.5 131.5v150h70v-144q0 -120 126 -120q55 0 99 37.5t44 106.5v120h70v-500zM458 -127v127h-30v66h98v-193h-68z" />
    <glyph glyph-name="uni04BA" unicode="&#x4ba;" horiz-adv-x="685" 
d="M99 710h76v-377q32 51 91.5 79t135.5 28q109 0 173.5 -66.5t64.5 -180.5v-193h-76v186q0 90 -46 136.5t-131 46.5q-86 0 -149 -55.5t-63 -162.5v-151h-76v710z" />
    <glyph glyph-name="uni04BB" unicode="&#x4bb;" horiz-adv-x="586" 
d="M156 0h-70v750h70v-334q51 94 164 94q83 0 135.5 -53t52.5 -144v-313h-70v303q0 65 -34.5 103.5t-91.5 38.5q-68 0 -112 -52.5t-44 -143.5v-249z" />
    <glyph glyph-name="uni04C0" unicode="&#x4c0;" horiz-adv-x="274" 
d="M99 0v710h76v-710h-76z" />
    <glyph glyph-name="uni04CF" unicode="&#x4cf;" horiz-adv-x="242" 
d="M86 0v750h70v-750h-70z" />
    <glyph glyph-name="uni04D8" unicode="&#x4d8;" horiz-adv-x="829" 
d="M414 -12q-154 0 -260.5 106t-106.5 261v43h655q-18 114 -99 183t-189 69q-88 0 -161 -42.5t-104 -107.5h-83q32 91 127.5 156.5t220.5 65.5q154 0 260.5 -106t106.5 -261t-106.5 -261t-260.5 -106zM414 60q114 0 195.5 73.5t93.5 195.5h-579q10 -120 93.5 -194.5
t196.5 -74.5z" />
    <glyph glyph-name="uni04D9" unicode="&#x4d9;" horiz-adv-x="575" 
d="M282 510q108 0 178 -74t70 -186t-68 -186t-183 -74t-179 83.5t-54 196.5h412q-2 76 -53.5 125.5t-122.5 49.5q-108 0 -156 -94h-72q19 69 78 114t150 45zM282 55q62 0 110.5 37t61.5 117h-336q12 -74 56 -114t108 -40z" />
    <glyph glyph-name="uni04E2" unicode="&#x4e2;" horiz-adv-x="794" 
d="M166 0h-67v710h76v-581l453 581h67v-710h-76v581zM248 809v61h316v-61h-316z" />
    <glyph glyph-name="uni04E3" unicode="&#x4e3;" horiz-adv-x="604" 
d="M148 0h-62v500h70v-389l300 389h62v-500h-70v389zM151 649v61h316v-61h-316z" />
    <glyph glyph-name="uni04E8" unicode="&#x4e8;" horiz-adv-x="830" 
d="M415 60q123 0 206.5 85t83.5 210q0 124 -83.5 209.5t-206.5 85.5t-206.5 -85.5t-83.5 -209.5q0 -125 83.5 -210t206.5 -85zM415 -12q-154 0 -260.5 106t-106.5 261t106.5 261t260.5 106t260.5 -106t106.5 -261t-106.5 -261t-260.5 -106zM88 392v-72h654v72h-654z" />
    <glyph glyph-name="uni04E9" unicode="&#x4e9;" horiz-adv-x="610" 
d="M305 -10q-113 0 -187 75.5t-74 184.5t74 184.5t187 75.5t187 -75.5t74 -184.5t-74 -184.5t-187 -75.5zM305 55q84 0 136.5 56.5t52.5 138.5t-52.5 138.5t-136.5 56.5t-136.5 -56.5t-52.5 -138.5t52.5 -138.5t136.5 -56.5zM101 281v-62h409v62h-409z" />
    <glyph glyph-name="uni04EE" unicode="&#x4ee;" horiz-adv-x="690" 
d="M135 -6v69q23 -4 59 -4q67 0 107 77l17 32l-278 542h86l235 -461l248 461h81l-307 -575q-45 -82 -84.5 -114.5t-97.5 -32.5q-32 0 -66 6zM209 809v61h316v-61h-316z" />
    <glyph glyph-name="uni04EF" unicode="&#x4ef;" horiz-adv-x="541" 
d="M533 500l-277 -597q-30 -66 -65.5 -94t-89.5 -28q-34 0 -53 5v63q16 -3 49 -3q56 0 92 78l45 98l-224 478h78l183 -396l183 396h79zM113 649v61h316v-61h-316z" />
    <glyph glyph-name="Wgrave" unicode="&#x1e80;" horiz-adv-x="942" 
d="M650 0l-179 516l-179 -516h-66l-202 710h79l162 -580l206 592l206 -592l162 580h79l-202 -710h-66zM501 770h-62l-112 157h94z" />
    <glyph glyph-name="wgrave" unicode="&#x1e81;" horiz-adv-x="751" 
d="M508 0l-133 381l-132 -381h-58l-171 500h72l129 -380l133 380h54l132 -380l130 380h73l-171 -500h-58zM341 560l-125 190h95l90 -190h-60z" />
    <glyph glyph-name="Wacute" unicode="&#x1e82;" horiz-adv-x="942" 
d="M650 0l-179 516l-179 -516h-66l-202 710h79l162 -580l206 592l206 -592l162 580h79l-202 -710h-66zM448 770l80 157h94l-112 -157h-62z" />
    <glyph glyph-name="wacute" unicode="&#x1e83;" horiz-adv-x="751" 
d="M508 0l-133 381l-132 -381h-58l-171 500h72l129 -380l133 380h54l132 -380l130 380h73l-171 -500h-58zM349 560l90 190h95l-125 -190h-60z" />
    <glyph glyph-name="Wdieresis" unicode="&#x1e84;" horiz-adv-x="942" 
d="M650 0l-179 516l-179 -516h-66l-202 710h79l162 -580l206 592l206 -592l162 580h79l-202 -710h-66zM361 789q-23 0 -38.5 15.5t-15.5 37.5t15.5 37.5t38.5 15.5q22 0 37 -15.5t15 -37.5t-15 -37.5t-37 -15.5zM583 789q-23 0 -38.5 15.5t-15.5 37.5t15.5 37.5t38.5 15.5
q22 0 37 -15.5t15 -37.5t-15 -37.5t-37 -15.5z" />
    <glyph glyph-name="wdieresis" unicode="&#x1e85;" horiz-adv-x="751" 
d="M508 0l-133 381l-132 -381h-58l-171 500h72l129 -380l133 380h54l132 -380l130 380h73l-171 -500h-58zM265 602q-23 0 -38.5 15.5t-15.5 37.5t15.5 37.5t38.5 15.5q22 0 37 -15.5t15 -37.5t-15 -37.5t-37 -15.5zM487 602q-23 0 -38.5 15.5t-15.5 37.5t15.5 37.5
t38.5 15.5q22 0 37 -15.5t15 -37.5t-15 -37.5t-37 -15.5z" />
    <glyph glyph-name="uni1E9E" unicode="&#x1e9e;" horiz-adv-x="629" 
d="M99 0v710h427v-50l-144 -220q200 -25 200 -217q0 -108 -69.5 -165.5t-184.5 -57.5h-34v72h44q77 0 123 39t46 112t-46 112t-123 39h-44v60l136 207h-255v-641h-76z" />
    <glyph glyph-name="uni1ECA" unicode="&#x1eca;" horiz-adv-x="274" 
d="M99 0v710h76v-710h-76zM137 -181q-23 0 -38.5 15.5t-15.5 37.5t15.5 37.5t38.5 15.5q22 0 37 -15.5t15 -37.5t-15 -37.5t-37 -15.5z" />
    <glyph glyph-name="uni1ECB" unicode="&#x1ecb;" horiz-adv-x="242" 
d="M122 650q-23 0 -38.5 15.5t-15.5 37.5t15.5 37.5t38.5 15.5q22 0 37 -15.5t15 -37.5t-15 -37.5t-37 -15.5zM86 0v500h70v-500h-70zM122 -181q-23 0 -38.5 15.5t-15.5 37.5t15.5 37.5t38.5 15.5q22 0 37 -15.5t15 -37.5t-15 -37.5t-37 -15.5z" />
    <glyph glyph-name="uni1ECC" unicode="&#x1ecc;" horiz-adv-x="830" 
d="M415 60q123 0 206.5 85t83.5 210q0 124 -83.5 209.5t-206.5 85.5t-206.5 -85.5t-83.5 -209.5q0 -125 83.5 -210t206.5 -85zM415 -12q-154 0 -260.5 106t-106.5 261t106.5 261t260.5 106t260.5 -106t106.5 -261t-106.5 -261t-260.5 -106zM415 -181q-23 0 -38.5 15.5
t-15.5 37.5t15.5 37.5t38.5 15.5q22 0 37 -15.5t15 -37.5t-15 -37.5t-37 -15.5z" />
    <glyph glyph-name="uni1ECD" unicode="&#x1ecd;" horiz-adv-x="610" 
d="M305 -10q-113 0 -187 75.5t-74 184.5t74 184.5t187 75.5t187 -75.5t74 -184.5t-74 -184.5t-187 -75.5zM305 55q84 0 136.5 56.5t52.5 138.5t-52.5 138.5t-136.5 56.5t-136.5 -56.5t-52.5 -138.5t52.5 -138.5t136.5 -56.5zM305 -181q-23 0 -38.5 15.5t-15.5 37.5
t15.5 37.5t38.5 15.5q22 0 37 -15.5t15 -37.5t-15 -37.5t-37 -15.5z" />
    <glyph glyph-name="uni1EE4" unicode="&#x1ee4;" horiz-adv-x="728" 
d="M364 -12q-123 0 -198.5 77.5t-75.5 209.5v435h76v-437q0 -101 53.5 -157t144.5 -56t144.5 56t53.5 157v437h76v-435q0 -132 -75.5 -209.5t-198.5 -77.5zM364 -181q-23 0 -38.5 15.5t-15.5 37.5t15.5 37.5t38.5 15.5q22 0 37 -15.5t15 -37.5t-15 -37.5t-37 -15.5z" />
    <glyph glyph-name="uni1EE5" unicode="&#x1ee5;" horiz-adv-x="576" 
d="M261 -10q-81 0 -132 54t-51 143v313h70v-303q0 -65 34 -103.5t88 -38.5q65 0 107.5 53.5t42.5 142.5v249h70v-500h-70v84q-51 -94 -159 -94zM283 -181q-23 0 -38.5 15.5t-15.5 37.5t15.5 37.5t38.5 15.5q22 0 37 -15.5t15 -37.5t-15 -37.5t-37 -15.5z" />
    <glyph glyph-name="Ygrave" unicode="&#x1ef2;" horiz-adv-x="669" 
d="M297 0v301l-280 409h92l226 -331l226 331h92l-281 -410v-300h-75zM364 770h-62l-112 157h94z" />
    <glyph glyph-name="ygrave" unicode="&#x1ef3;" horiz-adv-x="540" 
d="M201 -209h-79l110 234l-222 475h78l183 -397l183 397h79zM237 560l-125 190h95l90 -190h-60z" />
    <glyph glyph-name="uni2007" unicode="&#x2007;" horiz-adv-x="590" 
 />
    <glyph glyph-name="uni2008" unicode="&#x2008;" horiz-adv-x="244" 
 />
    <glyph glyph-name="uni2009" unicode="&#x2009;" horiz-adv-x="125" 
 />
    <glyph glyph-name="uni200B" unicode="&#x200b;" 
 />
    <glyph glyph-name="endash" unicode="&#x2013;" horiz-adv-x="558" 
d="M68 244v72h422v-72h-422z" />
    <glyph glyph-name="emdash" unicode="&#x2014;" horiz-adv-x="558" 
d="M68 244v72h422v-72h-422z" />
    <glyph glyph-name="quoteleft" unicode="&#x2018;" horiz-adv-x="243" 
d="M56 550l100 160h50l-65 -140q35 -20 35 -59q0 -27 -19.5 -47t-46.5 -20t-46.5 20t-19.5 47q0 20 12 39z" />
    <glyph glyph-name="quoteright" unicode="&#x2019;" horiz-adv-x="246" 
d="M200 616l-100 -160h-50l65 140q-35 20 -35 59q0 27 19.5 47t46.5 20t46.5 -20t19.5 -47q0 -20 -12 -39z" />
    <glyph glyph-name="quotesinglbase" unicode="&#x201a;" horiz-adv-x="248" 
d="M178 20l-100 -160h-50l65 140q-35 20 -35 59q0 27 19.5 47t46.5 20t46.5 -20t19.5 -47q0 -20 -12 -39z" />
    <glyph glyph-name="quotedblleft" unicode="&#x201c;" horiz-adv-x="415" 
d="M56 550l100 160h50l-65 -140q35 -20 35 -59q0 -27 -19.5 -47t-46.5 -20t-46.5 20t-19.5 47q0 20 12 39zM228 550l100 160h50l-65 -140q35 -20 35 -59q0 -27 -19.5 -47t-46.5 -20t-46.5 20t-19.5 47q0 20 12 39z" />
    <glyph glyph-name="quotedblright" unicode="&#x201d;" horiz-adv-x="418" 
d="M200 616l-100 -160h-50l65 140q-35 20 -35 59q0 27 19.5 47t46.5 20t46.5 -20t19.5 -47q0 -20 -12 -39zM372 616l-100 -160h-50l65 140q-35 20 -35 59q0 27 19.5 47t46.5 20t46.5 -20t19.5 -47q0 -20 -12 -39z" />
    <glyph glyph-name="quotedblbase" unicode="&#x201e;" horiz-adv-x="420" 
d="M178 20l-100 -160h-50l65 140q-35 20 -35 59q0 27 19.5 47t46.5 20t46.5 -20t19.5 -47q0 -20 -12 -39zM350 20l-100 -160h-50l65 140q-35 20 -35 59q0 27 19.5 47t46.5 20t46.5 -20t19.5 -47q0 -20 -12 -39z" />
    <glyph glyph-name="dagger" unicode="&#x2020;" horiz-adv-x="503" 
d="M218 -98v533h-188v65h188v210h67v-210h188v-65h-188v-533h-67z" />
    <glyph glyph-name="daggerdbl" unicode="&#x2021;" horiz-adv-x="537" 
d="M490 112h-188v-210h-67v210h-188v65h188v258h-188v65h188v210h67v-210h188v-65h-188v-258h188v-65z" />
    <glyph glyph-name="bullet" unicode="&#x2022;" horiz-adv-x="425" 
d="M212 166q-56 0 -96 39.5t-40 96.5t40 96.5t96 39.5q57 0 97 -39.5t40 -96.5t-40 -96.5t-97 -39.5z" />
    <glyph glyph-name="ellipsis" unicode="&#x2026;" horiz-adv-x="696" 
d="M348 -8q-27 0 -46.5 20t-19.5 47t19.5 47t46.5 20t46.5 -20t19.5 -47t-19.5 -47t-46.5 -20zM580 -8q-27 0 -46.5 20t-19.5 47t19.5 47t46.5 20t46.5 -20t19.5 -47t-19.5 -47t-46.5 -20zM117 -8q-27 0 -46.5 20t-19.5 47t19.5 47t46.5 20t46.5 -20t19.5 -47t-19.5 -47
t-46.5 -20z" />
    <glyph glyph-name="perthousand" unicode="&#x2030;" horiz-adv-x="1418" 
d="M1188 -8q-82 0 -139.5 58t-57.5 139q0 82 57.5 139.5t139.5 57.5q81 0 139 -57.5t58 -139.5q0 -81 -58 -139t-139 -58zM1188 58q54 0 92 38.5t38 92.5t-38 92.5t-92 38.5t-92 -38.5t-38 -92.5t38 -92.5t92 -38.5zM311 0h-78l450 710h78zM764 -8q-82 0 -139.5 58
t-57.5 139q0 82 57.5 139.5t139.5 57.5q81 0 139 -57.5t58 -139.5q0 -81 -58 -139t-139 -58zM764 58q54 0 92 38.5t38 92.5t-38 92.5t-92 38.5t-92 -38.5t-38 -92.5t38 -92.5t92 -38.5zM230 324q-82 0 -139.5 58t-57.5 139q0 82 57.5 139.5t139.5 57.5q81 0 139 -57.5
t58 -139.5q0 -81 -58 -139t-139 -58zM230 390q54 0 92 38.5t38 92.5t-38 92.5t-92 38.5t-92 -38.5t-38 -92.5t38 -92.5t92 -38.5z" />
    <glyph glyph-name="guilsinglleft" unicode="&#x2039;" horiz-adv-x="298" 
d="M47 250l141 217h59l-116 -217l116 -217h-59z" />
    <glyph glyph-name="guilsinglright" unicode="&#x203a;" horiz-adv-x="298" 
d="M110 467l141 -217l-141 -217h-59l116 217l-116 217h59z" />
    <glyph glyph-name="fraction" unicode="&#x2044;" horiz-adv-x="180" 
d="M-125 0h-69l500 710h69z" />
    <glyph glyph-name="uni2060" unicode="&#x2060;" horiz-adv-x="258" 
 />
    <glyph glyph-name="uni2070" unicode="&#x2070;" horiz-adv-x="390" 
d="M196 404q-68 0 -112 46t-44 118v116q0 73 44 119t112 46t111.5 -46t43.5 -119v-116q0 -72 -43.5 -118t-111.5 -46zM196 463q42 0 68 28.5t26 76.5v116q0 49 -26 77t-68 28q-43 0 -69 -28t-26 -77v-116q0 -48 26 -76.5t69 -28.5z" />
    <glyph glyph-name="uni2074" unicode="&#x2074;" horiz-adv-x="389" 
d="M245 410v112h-225v49l232 271h54v-263h59v-57h-59v-112h-61zM97 579h148v171z" />
    <glyph glyph-name="uni2075" unicode="&#x2075;" horiz-adv-x="348" 
d="M173 404q-58 0 -102 37t-46 88h63q7 -29 30.5 -47.5t57.5 -18.5q35 0 59 25t24 61t-24 60.5t-60 24.5q-54 0 -78 -44l-56 17l45 235h205v-60h-156l-22 -111q29 20 71 20q59 0 97.5 -41t38.5 -101q0 -66 -40.5 -105.5t-106.5 -39.5z" />
    <glyph glyph-name="uni2076" unicode="&#x2076;" horiz-adv-x="344" 
d="M170 404q-64 0 -106 41.5t-42 102.5q0 50 49 111l149 183h77l-126 -155q3 1 11 1q54 0 94.5 -41t40.5 -98q0 -61 -42 -103t-105 -42zM170 463q36 0 60.5 24.5t24.5 60.5t-24.5 61t-60.5 25q-37 0 -61.5 -25t-24.5 -61t25 -60.5t61 -24.5z" />
    <glyph glyph-name="uni2077" unicode="&#x2077;" horiz-adv-x="330" 
d="M111 410h-68l200 372h-216v60h288v-52z" />
    <glyph glyph-name="uni2078" unicode="&#x2078;" horiz-adv-x="360" 
d="M180 404q-64 0 -105.5 38t-41.5 98q0 77 64 111q-42 30 -42 85q0 49 35.5 81t89.5 32q56 0 90.5 -31.5t34.5 -81.5q0 -55 -42 -85q64 -33 64 -111q0 -60 -40.5 -98t-106.5 -38zM180 461q40 0 62.5 23t22.5 57t-22.5 57t-61.5 23t-62.5 -23t-23.5 -57t23.5 -57t61.5 -23z
M180 673q30 0 48 17.5t18 42.5q0 26 -18 43t-48 17q-29 0 -47 -17t-18 -43q0 -25 18 -42.5t47 -17.5z" />
    <glyph glyph-name="uni2079" unicode="&#x2079;" horiz-adv-x="344" 
d="M46 410l126 155h-10q-54 0 -94.5 40.5t-40.5 98.5q0 61 42 103t105 42q64 0 106 -42t42 -102q0 -53 -49 -112l-150 -183h-77zM174 618q36 0 61 25t25 61t-24.5 61t-61.5 25q-36 0 -60.5 -25t-24.5 -61t24.5 -61t60.5 -25z" />
    <glyph glyph-name="uni2080" unicode="&#x2080;" horiz-adv-x="390" 
d="M196 -120q-68 0 -112 46t-44 118v116q0 73 44 119t112 46t111.5 -46t43.5 -119v-116q0 -72 -43.5 -118t-111.5 -46zM196 -61q42 0 68 28.5t26 76.5v116q0 49 -26 77t-68 28q-43 0 -69 -28t-26 -77v-116q0 -48 26 -76.5t69 -28.5z" />
    <glyph glyph-name="uni2081" unicode="&#x2081;" horiz-adv-x="224" 
d="M98 -114v372h-85l47 60h99v-432h-61z" />
    <glyph glyph-name="uni2082" unicode="&#x2082;" horiz-adv-x="352" 
d="M317 -55v-59h-283v23q0 19 3.5 36t14.5 33.5t17 26t26 26t25 20.5t30 21.5t27 18.5q41 30 57.5 51.5t16.5 53.5q0 31 -20 50t-53 19q-35 0 -58.5 -20.5t-23.5 -57.5h-62q0 61 41 99.5t103 38.5q57 0 96 -33.5t39 -94.5q0 -47 -22.5 -80.5t-74.5 -71.5q-6 -4 -22 -15
t-23 -15.5t-19 -14.5t-18.5 -17t-12.5 -17.5t-9 -20.5h205z" />
    <glyph glyph-name="uni2083" unicode="&#x2083;" horiz-adv-x="365" 
d="M187 -120q-65 0 -110.5 39t-45.5 101h61q3 -37 29.5 -59t65.5 -22q35 0 58 19t23 52q0 36 -24 54.5t-64 18.5h-33v54h34q33 0 53.5 17.5t21.5 46.5t-20 46.5t-52 17.5q-37 0 -60 -20.5t-24 -57.5h-61q0 62 42 100t103 38q58 0 96 -33.5t38 -87.5q-1 -64 -55 -93
q31 -13 49 -40t18 -63q0 -57 -40 -92.5t-103 -35.5z" />
    <glyph glyph-name="uni2084" unicode="&#x2084;" horiz-adv-x="389" 
d="M245 -114v112h-225v49l232 271h54v-263h59v-57h-59v-112h-61zM97 55h148v171z" />
    <glyph glyph-name="uni2085" unicode="&#x2085;" horiz-adv-x="348" 
d="M173 -120q-58 0 -102 37t-46 88h63q7 -29 30.5 -47.5t57.5 -18.5q35 0 59 25t24 61t-24 60.5t-60 24.5q-54 0 -78 -44l-56 17l45 235h205v-60h-156l-22 -111q29 20 71 20q59 0 97.5 -41t38.5 -101q0 -66 -40.5 -105.5t-106.5 -39.5z" />
    <glyph glyph-name="uni2086" unicode="&#x2086;" horiz-adv-x="344" 
d="M170 -120q-64 0 -106 41.5t-42 102.5q0 50 49 111l149 183h77l-126 -155q3 1 11 1q54 0 94.5 -41t40.5 -98q0 -61 -42 -103t-105 -42zM170 -61q36 0 60.5 24.5t24.5 60.5t-24.5 61t-60.5 25q-37 0 -61.5 -25t-24.5 -61t25 -60.5t61 -24.5z" />
    <glyph glyph-name="uni2087" unicode="&#x2087;" horiz-adv-x="330" 
d="M111 -114h-68l200 372h-216v60h288v-52z" />
    <glyph glyph-name="uni2088" unicode="&#x2088;" horiz-adv-x="360" 
d="M180 -120q-64 0 -105.5 38t-41.5 98q0 77 64 111q-42 30 -42 85q0 49 35.5 81t89.5 32q56 0 90.5 -31.5t34.5 -81.5q0 -55 -42 -85q64 -33 64 -111q0 -60 -40.5 -98t-106.5 -38zM180 -63q40 0 62.5 23t22.5 57t-22.5 57t-61.5 23t-62.5 -23t-23.5 -57t23.5 -57t61.5 -23z
M180 149q30 0 48 17.5t18 42.5q0 26 -18 43t-48 17q-29 0 -47 -17t-18 -43q0 -25 18 -42.5t47 -17.5z" />
    <glyph glyph-name="uni2089" unicode="&#x2089;" horiz-adv-x="344" 
d="M46 -114l126 155h-10q-54 0 -94.5 40.5t-40.5 98.5q0 61 42 103t105 42q64 0 106 -42t42 -102q0 -53 -49 -112l-150 -183h-77zM174 94q36 0 61 25t25 61t-24.5 61t-61.5 25q-36 0 -60.5 -25t-24.5 -61t24.5 -61t60.5 -25z" />
    <glyph glyph-name="Euro" unicode="&#x20ac;" horiz-adv-x="907" 
d="M159 408h-124l27 54h108q34 116 130.5 188t222.5 72q115 0 205.5 -60.5t133.5 -161.5h-76q-37 71 -106 112.5t-157 41.5q-99 0 -174.5 -52.5t-105.5 -139.5h441l-27 -54h-427q-4 -23 -4 -53q0 -26 3 -50h376l-25 -54h-338q30 -89 105.5 -142t175.5 -53q88 0 157 41.5
t106 112.5h76q-43 -101 -133.5 -161.5t-205.5 -60.5q-127 0 -224 73t-129 190h-135l27 54h97q-3 24 -3 50q0 27 3 53z" />
    <glyph glyph-name="uni20B4" unicode="&#x20b4;" horiz-adv-x="605" 
d="M50 265v54h497v-54h-364q-34 -33 -34 -86q0 -55 45.5 -91t109.5 -36q70 0 112.5 32t50.5 97h70q-6 -94 -72.5 -143.5t-159.5 -49.5q-98 0 -162 51t-64 136q0 56 25 90h-54zM50 393v54h363q37 34 37 92q0 54 -36 86.5t-98 32.5q-56 0 -97 -29t-54 -92h-70
q15 90 76.5 137.5t141.5 47.5q93 0 150 -49.5t57 -132.5q0 -55 -29 -93h56v-54h-497z" />
    <glyph glyph-name="uni20B8" unicode="&#x20b8;" horiz-adv-x="605" 
d="M268 0v513h-233v69h535v-69h-232v-513h-70zM35 656v54h535v-54h-535z" />
    <glyph glyph-name="uni20BD" unicode="&#x20bd;" horiz-adv-x="614" 
d="M52 287v69h87v354h202q111 0 175 -57.5t64 -152.5t-64.5 -154t-174.5 -59h-132v-84h221v-54h-221v-149h-70v149h-87v54h87v84h-87zM209 356h130q80 0 122 38.5t42 105.5q0 66 -42 103.5t-122 37.5h-130v-285z" />
    <glyph glyph-name="uni2116" unicode="&#x2116;" horiz-adv-x="1116" 
d="M695 0h-67l-453 581v-581h-76v710h67l453 -581v581h76v-710zM918 405q-63 0 -108.5 46t-45.5 109t45.5 109t108.5 46t109 -46t46 -109t-46 -109t-109 -46zM918 464q40 0 68 28t28 68t-28 68t-68 28q-39 0 -67 -28t-28 -68t28 -68t67 -28zM769 300v59h299v-59h-299z" />
    <glyph glyph-name="uni2117" unicode="&#x2117;" horiz-adv-x="829" 
d="M414 -12q-151 0 -259 108t-108 259t108 259t259 108q152 0 260 -107.5t108 -259.5t-108 -259.5t-260 -107.5zM414 55q123 0 212 88.5t89 211.5t-89 211.5t-212 88.5t-211.5 -88t-88.5 -212t88.5 -212t211.5 -88zM566 418q0 -52 -36.5 -87t-92.5 -35h-54v-127h-67v373h121
q56 0 92.5 -35.5t36.5 -88.5zM501 418q0 27 -17.5 44t-47.5 17h-53v-121h53q30 0 47.5 16.5t17.5 43.5z" />
    <glyph glyph-name="trademark" unicode="&#x2122;" horiz-adv-x="846" 
d="M397 318v392h59l124 -172l124 172h59v-392h-61v287l-122 -169l-122 169v-287h-61zM152 318v332h-117v60h295v-60h-117v-332h-61z" />
    <glyph glyph-name="uni2150" unicode="&#x2150;" horiz-adv-x="759" 
d="M98 278v372h-85l47 60h99v-432h-61zM108 0h-69l500 710h69zM541 1h-68l200 372h-216v60h288v-52z" />
    <glyph glyph-name="uni2151" unicode="&#x2151;" horiz-adv-x="757" 
d="M98 278v372h-85l47 60h99v-432h-61zM108 0h-69l500 710h69zM459 1l126 155h-10q-54 0 -94.5 40.5t-40.5 98.5q0 61 42 103t105 42q64 0 106 -42t42 -102q0 -53 -49 -112l-150 -183h-77zM587 209q36 0 61 25t25 61t-24.5 61t-61.5 25q-36 0 -60.5 -25t-24.5 -61t24.5 -61
t60.5 -25z" />
    <glyph glyph-name="uni2152" unicode="&#x2152;" horiz-adv-x="1027" 
d="M98 278v372h-85l47 60h99v-432h-61zM108 0h-69l500 710h69zM512 1v372h-85l47 60h99v-432h-61zM833 -5q-68 0 -112 46t-44 118v116q0 73 44 119t112 46t111.5 -46t43.5 -119v-116q0 -72 -43.5 -118t-111.5 -46zM833 54q42 0 68 28.5t26 76.5v116q0 49 -26 77t-68 28
q-43 0 -69 -28t-26 -77v-116q0 -48 26 -76.5t69 -28.5z" />
    <glyph glyph-name="onethird" unicode="&#x2153;" horiz-adv-x="778" 
d="M98 278v372h-85l47 60h99v-432h-61zM108 0h-69l500 710h69zM600 -5q-65 0 -110.5 39t-45.5 101h61q3 -37 29.5 -59t65.5 -22q35 0 58 19t23 52q0 36 -24 54.5t-64 18.5h-33v54h34q33 0 53.5 17.5t21.5 46.5t-20 46.5t-52 17.5q-37 0 -60 -20.5t-24 -57.5h-61q0 62 42 100
t103 38q58 0 96 -33.5t38 -87.5q-1 -64 -55 -93q31 -13 49 -40t18 -63q0 -57 -40 -92.5t-103 -35.5z" />
    <glyph glyph-name="twothirds" unicode="&#x2154;" horiz-adv-x="897" 
d="M317 337v-59h-283v23q0 19 3.5 36t14.5 33.5t17 26t26 26t25 20.5t30 21.5t27 18.5q41 30 57.5 51.5t16.5 53.5q0 31 -20 50t-53 19q-35 0 -58.5 -20.5t-23.5 -57.5h-62q0 61 41 99.5t103 38.5q57 0 96 -33.5t39 -94.5q0 -47 -22.5 -80.5t-74.5 -71.5q-6 -4 -22 -15
t-23 -15.5t-19 -14.5t-18.5 -17t-12.5 -17.5t-9 -20.5h205zM227 0h-69l500 710h69zM719 -5q-65 0 -110.5 39t-45.5 101h61q3 -37 29.5 -59t65.5 -22q35 0 58 19t23 52q0 36 -24 54.5t-64 18.5h-33v54h34q33 0 53.5 17.5t21.5 46.5t-20 46.5t-52 17.5q-37 0 -60 -20.5
t-24 -57.5h-61q0 62 42 100t103 38q58 0 96 -33.5t38 -87.5q-1 -64 -55 -93q31 -13 49 -40t18 -63q0 -57 -40 -92.5t-103 -35.5z" />
    <glyph glyph-name="uni2155" unicode="&#x2155;" horiz-adv-x="761" 
d="M98 278v372h-85l47 60h99v-432h-61zM108 0h-69l500 710h69zM586 -5q-58 0 -102 37t-46 88h63q7 -29 30.5 -47.5t57.5 -18.5q35 0 59 25t24 61t-24 60.5t-60 24.5q-54 0 -78 -44l-56 17l45 235h205v-60h-156l-22 -111q29 20 71 20q59 0 97.5 -41t38.5 -101
q0 -66 -40.5 -105.5t-106.5 -39.5z" />
    <glyph glyph-name="uni2156" unicode="&#x2156;" horiz-adv-x="880" 
d="M317 337v-59h-283v23q0 19 3.5 36t14.5 33.5t17 26t26 26t25 20.5t30 21.5t27 18.5q41 30 57.5 51.5t16.5 53.5q0 31 -20 50t-53 19q-35 0 -58.5 -20.5t-23.5 -57.5h-62q0 61 41 99.5t103 38.5q57 0 96 -33.5t39 -94.5q0 -47 -22.5 -80.5t-74.5 -71.5q-6 -4 -22 -15
t-23 -15.5t-19 -14.5t-18.5 -17t-12.5 -17.5t-9 -20.5h205zM227 0h-69l500 710h69zM705 -5q-58 0 -102 37t-46 88h63q7 -29 30.5 -47.5t57.5 -18.5q35 0 59 25t24 61t-24 60.5t-60 24.5q-54 0 -78 -44l-56 17l45 235h205v-60h-156l-22 -111q29 20 71 20q59 0 97.5 -41
t38.5 -101q0 -66 -40.5 -105.5t-106.5 -39.5z" />
    <glyph glyph-name="uni2157" unicode="&#x2157;" horiz-adv-x="893" 
d="M187 272q-65 0 -110.5 39t-45.5 101h61q3 -37 29.5 -59t65.5 -22q35 0 58 19t23 52q0 36 -24 54.5t-64 18.5h-33v54h34q33 0 53.5 17.5t21.5 46.5t-20 46.5t-52 17.5q-37 0 -60 -20.5t-24 -57.5h-61q0 62 42 100t103 38q58 0 96 -33.5t38 -87.5q-1 -64 -55 -93
q31 -13 49 -40t18 -63q0 -57 -40 -92.5t-103 -35.5zM240 0h-69l500 710h69zM718 -5q-58 0 -102 37t-46 88h63q7 -29 30.5 -47.5t57.5 -18.5q35 0 59 25t24 61t-24 60.5t-60 24.5q-54 0 -78 -44l-56 17l45 235h205v-60h-156l-22 -111q29 20 71 20q59 0 97.5 -41t38.5 -101
q0 -66 -40.5 -105.5t-106.5 -39.5z" />
    <glyph glyph-name="uni2158" unicode="&#x2158;" horiz-adv-x="917" 
d="M245 278v112h-225v49l232 271h54v-263h59v-57h-59v-112h-61zM97 447h148v171zM264 0h-69l500 710h69zM742 -5q-58 0 -102 37t-46 88h63q7 -29 30.5 -47.5t57.5 -18.5q35 0 59 25t24 61t-24 60.5t-60 24.5q-54 0 -78 -44l-56 17l45 235h205v-60h-156l-22 -111q29 20 71 20
q59 0 97.5 -41t38.5 -101q0 -66 -40.5 -105.5t-106.5 -39.5z" />
    <glyph glyph-name="uni2159" unicode="&#x2159;" horiz-adv-x="710" 
d="M98 278v372h-85l47 60h99v-432h-61zM108 0h-69l500 710h69zM536 -5q-64 0 -106 41.5t-42 102.5q0 50 49 111l149 183h77l-126 -155q3 1 11 1q54 0 94.5 -41t40.5 -98q0 -61 -42 -103t-105 -42zM536 54q36 0 60.5 24.5t24.5 60.5t-24.5 61t-60.5 25q-37 0 -61.5 -25
t-24.5 -61q0 -35 25 -60t61 -25z" />
    <glyph glyph-name="uni215A" unicode="&#x215a;" horiz-adv-x="825" 
d="M173 272q-58 0 -102 37t-46 88h63q7 -29 30.5 -47.5t57.5 -18.5q35 0 59 25t24 61t-24 60.5t-60 24.5q-54 0 -78 -44l-56 17l45 235h205v-60h-156l-22 -111q29 20 71 20q59 0 97.5 -41t38.5 -101q0 -66 -40.5 -105.5t-106.5 -39.5zM223 0h-69l500 710h69zM651 -5
q-64 0 -106 41.5t-42 102.5q0 50 49 111l149 183h77l-126 -155q3 1 11 1q54 0 94.5 -41t40.5 -98q0 -61 -42 -103t-105 -42zM651 54q36 0 60.5 24.5t24.5 60.5t-24.5 61t-60.5 25q-37 0 -61.5 -25t-24.5 -61q0 -35 24.5 -60t61.5 -25z" />
    <glyph glyph-name="oneeighth" unicode="&#x215b;" horiz-adv-x="773" 
d="M98 278v372h-85l47 60h99v-432h-61zM108 0h-69l500 710h69zM593 -5q-64 0 -105.5 38t-41.5 98q0 77 64 111q-42 30 -42 85q0 49 35.5 81t89.5 32q56 0 90.5 -31.5t34.5 -81.5q0 -55 -42 -85q64 -33 64 -111q0 -60 -40.5 -98t-106.5 -38zM593 52q40 0 62.5 23t22.5 57
t-22.5 57t-61.5 23t-62.5 -23t-23.5 -57t23.5 -57t61.5 -23zM593 264q30 0 48 17.5t18 42.5q0 26 -18 43t-48 17q-29 0 -47 -17t-18 -43q0 -25 18 -42.5t47 -17.5z" />
    <glyph glyph-name="threeeighths" unicode="&#x215c;" horiz-adv-x="905" 
d="M187 272q-65 0 -110.5 39t-45.5 101h61q3 -37 29.5 -59t65.5 -22q35 0 58 19t23 52q0 36 -24 54.5t-64 18.5h-33v54h34q33 0 53.5 17.5t21.5 46.5t-20 46.5t-52 17.5q-37 0 -60 -20.5t-24 -57.5h-61q0 62 42 100t103 38q58 0 96 -33.5t38 -87.5q-1 -64 -55 -93
q31 -13 49 -40t18 -63q0 -57 -40 -92.5t-103 -35.5zM240 0h-69l500 710h69zM725 -5q-64 0 -105.5 38t-41.5 98q0 77 64 111q-42 30 -42 85q0 49 35.5 81t89.5 32q56 0 90.5 -31.5t34.5 -81.5q0 -55 -42 -85q64 -33 64 -111q0 -60 -40.5 -98t-106.5 -38zM725 52q40 0 62.5 23
t22.5 57t-22.5 57t-61.5 23t-62.5 -23t-23.5 -57t23.5 -57t61.5 -23zM725 264q30 0 48 17.5t18 42.5q0 26 -18 43t-48 17q-29 0 -47 -17t-18 -43q0 -25 18 -42.5t47 -17.5z" />
    <glyph glyph-name="fiveeighths" unicode="&#x215d;" horiz-adv-x="888" 
d="M173 272q-58 0 -102 37t-46 88h63q7 -29 30.5 -47.5t57.5 -18.5q35 0 59 25t24 61t-24 60.5t-60 24.5q-54 0 -78 -44l-56 17l45 235h205v-60h-156l-22 -111q29 20 71 20q59 0 97.5 -41t38.5 -101q0 -66 -40.5 -105.5t-106.5 -39.5zM223 0h-69l500 710h69zM708 -5
q-64 0 -105.5 38t-41.5 98q0 77 64 111q-42 30 -42 85q0 49 35.5 81t89.5 32q56 0 90.5 -31.5t34.5 -81.5q0 -55 -42 -85q64 -33 64 -111q0 -60 -40.5 -98t-106.5 -38zM708 52q40 0 62.5 23t22.5 57t-22.5 57t-61.5 23t-62.5 -23t-23.5 -57t23.5 -57t61.5 -23zM708 264
q30 0 48 17.5t18 42.5q0 26 -18 43t-48 17q-29 0 -47 -17t-18 -43q0 -25 18 -42.5t47 -17.5z" />
    <glyph glyph-name="seveneighths" unicode="&#x215e;" horiz-adv-x="814" 
d="M111 278h-68l200 372h-216v60h288v-52zM149 0h-69l500 710h69zM634 -5q-64 0 -105.5 38t-41.5 98q0 77 64 111q-42 30 -42 85q0 49 35.5 81t89.5 32q56 0 90.5 -31.5t34.5 -81.5q0 -55 -42 -85q64 -33 64 -111q0 -60 -40.5 -98t-106.5 -38zM634 52q40 0 62.5 23t22.5 57
t-22.5 57t-61.5 23t-62.5 -23t-23.5 -57t23.5 -57t61.5 -23zM634 264q30 0 48 17.5t18 42.5q0 26 -18 43t-48 17q-29 0 -47 -17t-18 -43q0 -25 18 -42.5t47 -17.5z" />
    <glyph glyph-name="uni215F" unicode="&#x215f;" horiz-adv-x="413" 
d="M98 278v372h-85l47 60h99v-432h-61zM108 0h-69l500 710h69z" />
    <glyph glyph-name="arrowleft" unicode="&#x2190;" horiz-adv-x="822" 
d="M350 -56l-306 306l306 306l40 -42l-234 -234h608v-60h-608l234 -235z" />
    <glyph glyph-name="arrowup" unicode="&#x2191;" horiz-adv-x="707" 
d="M323 0v610l-235 -234l-41 40l306 306l306 -306l-42 -40l-234 234v-610h-60z" />
    <glyph glyph-name="arrowright" unicode="&#x2192;" horiz-adv-x="822" 
d="M472 -56l-40 42l234 234h-608v60h608l-234 235l40 41l306 -306z" />
    <glyph glyph-name="arrowdown" unicode="&#x2193;" horiz-adv-x="704" 
d="M658 294l-306 -306l-306 306l41 40l235 -234v610h60v-610l234 234z" />
    <glyph glyph-name="uni2196" unicode="&#x2196;" horiz-adv-x="735" 
d="M689 30l-42 -42l-485 484v-332h-57v432h433v-58h-334z" />
    <glyph glyph-name="uni2197" unicode="&#x2197;" horiz-adv-x="735" 
d="M88 -12l-42 42l485 484h-334v58h433v-432h-57v332z" />
    <glyph glyph-name="uni2198" unicode="&#x2198;" horiz-adv-x="729" 
d="M200 0v58h334l-485 484l42 42l485 -484v332h57v-432h-433z" />
    <glyph glyph-name="uni2199" unicode="&#x2199;" horiz-adv-x="729" 
d="M153 100l485 484l42 -42l-485 -484h334v-58h-433v432h57v-332z" />
    <glyph glyph-name="uni21B0" unicode="&#x21b0;" horiz-adv-x="848" 
d="M764 -209h-59v429h-549l234 -234l-40 -42l-306 306l306 306l40 -41l-234 -235h608v-489z" />
    <glyph glyph-name="uni21B1" unicode="&#x21b1;" horiz-adv-x="848" 
d="M84 -209v489h608l-234 235l40 41l306 -306l-306 -306l-40 42l234 234h-549v-429h-59z" />
    <glyph glyph-name="uni21B2" unicode="&#x21b2;" horiz-adv-x="861" 
d="M352 -58l-306 306l306 306l40 -42l-234 -234h549v432h59v-492h-608l234 -235z" />
    <glyph glyph-name="uni21B3" unicode="&#x21b3;" horiz-adv-x="861" 
d="M815 248l-306 -306l-40 41l234 235h-608v492h59v-432h549l-234 234l40 42z" />
    <glyph glyph-name="minus" unicode="&#x2212;" horiz-adv-x="564" 
d="M70 258v63h424v-63h-424z" />
    <glyph glyph-name="uniF6D1" unicode="&#xf6d1;" 
d="M0 762q-65 0 -109.5 42t-44.5 111h58q0 -47 26.5 -74t69.5 -27t69.5 27t26.5 74h58q0 -69 -44.5 -111t-109.5 -42z" />
    <glyph glyph-name="uniF6D4" unicode="&#xf6d4;" 
d="M0 585q-66 0 -110 42t-44 112v11h61v-11q0 -49 26 -76.5t67 -27.5t67 27.5t26 76.5v11h61v-11q0 -70 -44 -112t-110 -42z" />
    <glyph glyph-name="f_f" unicode="&#xfb00;" horiz-adv-x="695" 
d="M124 0v434h-107v66h107v112q0 71 38.5 107.5t102.5 36.5q42 0 75 -13v-63q-25 11 -64 11q-42 0 -62 -19.5t-20 -65.5v-106h127v-66h-127v-434h-70zM466 0v434h-87v66h87v112q0 71 38.5 107.5t102.5 36.5q42 0 75 -13v-63q-25 11 -64 11q-42 0 -62 -19.5t-20 -65.5v-106
h146v-66h-146v-434h-70z" />
    <glyph glyph-name="fi" unicode="&#xfb01;" horiz-adv-x="595" 
d="M124 0v434h-107v66h107v112q0 71 38.5 107.5t102.5 36.5q42 0 75 -13v-63q-25 11 -64 11q-42 0 -62 -19.5t-20 -65.5v-106h146v-66h-146v-434h-70zM475 650q-23 0 -38.5 15.5t-15.5 37.5t15.5 37.5t38.5 15.5q22 0 37 -15.5t15 -37.5t-15 -37.5t-37 -15.5zM439 0v500h70
v-500h-70z" />
    <glyph glyph-name="fl" unicode="&#xfb02;" horiz-adv-x="595" 
d="M124 0v434h-107v66h107v112q0 71 38.5 107.5t102.5 36.5q42 0 75 -13v-63q-25 11 -64 11q-42 0 -62 -19.5t-20 -65.5v-106h146v-66h-146v-434h-70zM439 0v750h70v-750h-70z" />
    <glyph glyph-name="f_f_i" unicode="&#xfb03;" horiz-adv-x="937" 
d="M817 650q-23 0 -38.5 15.5t-15.5 37.5t15.5 37.5t38.5 15.5q22 0 37 -15.5t15 -37.5t-15 -37.5t-37 -15.5zM781 0v500h70v-500h-70zM124 0v434h-107v66h107v112q0 71 38.5 107.5t102.5 36.5q42 0 75 -13v-63q-25 11 -64 11q-42 0 -62 -19.5t-20 -65.5v-106h127v-66h-127
v-434h-70zM466 0v434h-87v66h87v112q0 71 38.5 107.5t102.5 36.5q42 0 75 -13v-63q-25 11 -64 11q-42 0 -62 -19.5t-20 -65.5v-106h146v-66h-146v-434h-70z" />
    <glyph glyph-name="f_f_l" unicode="&#xfb04;" horiz-adv-x="937" 
d="M781 0v750h70v-750h-70zM124 0v434h-107v66h107v112q0 71 38.5 107.5t102.5 36.5q42 0 75 -13v-63q-25 11 -64 11q-42 0 -62 -19.5t-20 -65.5v-106h127v-66h-127v-434h-70zM466 0v434h-87v66h87v112q0 71 38.5 107.5t102.5 36.5q42 0 75 -13v-63q-25 11 -64 11
q-42 0 -62 -19.5t-20 -65.5v-106h146v-66h-146v-434h-70z" />
    <glyph glyph-name="uniFEFF" unicode="&#xfeff;" 
 />
    <glyph glyph-name="NULL" 
 />
    <glyph glyph-name="CR" horiz-adv-x="245" 
 />
    <glyph glyph-name="L_periodcentered" horiz-adv-x="551" 
d="M99 0v710h76v-638h355v-72h-431zM415 338q-23 0 -38.5 15.5t-15.5 37.5t15.5 37.5t38.5 15.5q22 0 37 -15.5t15 -37.5t-15 -37.5t-37 -15.5z" />
    <glyph glyph-name="l_periodcentered" horiz-adv-x="376" 
d="M86 0v750h70v-750h-70zM310 322q-23 0 -38.5 15.5t-15.5 37.5t15.5 37.5t38.5 15.5q22 0 37 -15.5t15 -37.5t-15 -37.5t-37 -15.5z" />
    <glyph glyph-name="_358" horiz-adv-x="535" 
d="M234 675l129 48l-131 -252l233 10l-415 -492l242 402l-205 -12zM455 465q5 0 5 -5q0 4 4 5q-4 0 -4 5t5 5t5 -5t-4 -5q3 -1 4 -4q0 4 5 4t5 -5t-4 -5q4 -1 4 -5q0 -5 -4 -5q3 -1 4 -4q0 4 5 4t5 -5t-4 -5q4 -1 4 -5q0 -5 -5 -5t-5 4q-1 -4 -4 -4q4 -1 4 -5q0 -5 -5 -5
t-5 4q-1 -4 -4 -4q4 -1 4 -5q0 -5 -5 -5t-5 4q-1 -4 -4 -4q4 -1 4 -5q0 -5 -5 -5t-5 4q-1 -4 -4 -4q4 -1 4 -5q0 -5 -5 -5t-5 4q-1 -4 -4 -4q4 -1 4 -5q0 -5 -5 -5t-5 4q-1 -4 -4 -4q4 -1 4 -5q0 -5 -5 -5t-5 4q-1 -4 -4 -4q4 -1 4 -5q0 -5 -4 -5q4 -1 4 -5q0 -5 -5 -5t-5 4
q-1 -4 -4 -4q4 -1 4 -5q0 -5 -5 -5t-5 4q-1 -4 -4 -4q4 -1 4 -5q0 -5 -5 -5t-5 4q-1 -4 -4 -4q4 -1 4 -5q0 -5 -5 -5t-5 4q-1 -4 -4 -4q4 -1 4 -5q0 -5 -5 -5t-5 4q-1 -4 -4 -4q4 -1 4 -5q0 -5 -5 -5t-5 4q-1 -4 -4 -4q4 -1 4 -5q0 -5 -5 -5t-5 4q-1 -4 -4 -4q4 -1 4 -5
q0 -5 -5 -5t-5 4q-1 -4 -4 -4q4 -1 4 -5q0 -5 -5 -5t-5 4q-1 -4 -4 -4q4 -1 4 -5q0 -5 -5 -5t-5 4q-1 -4 -4 -4q4 -1 4 -5q0 -5 -5 -5t-5 4q-1 -4 -4 -4q4 -1 4 -5q0 -5 -5 -5t-5 4q-1 -4 -4 -4q4 -1 4 -5q0 -5 -5 -5t-5 4q-1 -4 -4 -4q4 -1 4 -5q0 -5 -4 -5q4 -1 4 -5
q0 -5 -5 -5t-5 4q-1 -4 -4 -4q4 -1 4 -5q0 -5 -5 -5t-5 4q-1 -4 -4 -4q4 -1 4 -5q0 -5 -5 -5t-5 4q-1 -4 -4 -4q4 -1 4 -5q0 -5 -5 -5t-5 4q-1 -4 -4 -4q4 -1 4 -5q0 -5 -5 -5t-5 4q-1 -4 -4 -4q4 -1 4 -5q0 -5 -5 -5t-5 4q-1 -4 -4 -4q4 -1 4 -5q0 -5 -5 -5t-5 4
q-1 -4 -4 -4q4 -1 4 -5q0 -5 -5 -5t-5 4q-1 -4 -4 -4q4 -1 4 -5q0 -5 -5 -5t-5 4q-1 -4 -4 -4q4 -1 4 -5q0 -5 -5 -5t-5 4q-1 -4 -4 -4q4 -1 4 -5q0 -5 -5 -5t-5 4q-1 -4 -4 -4q4 -1 4 -5q0 -5 -4 -5q4 -1 4 -5q0 -5 -5 -5t-5 4q-1 -4 -4 -4q4 -1 4 -5q0 -5 -5 -5t-5 4
q-1 -4 -4 -4q4 -1 4 -5q0 -5 -5 -5t-5 4q-1 -4 -4 -4q4 -1 4 -5q0 -5 -5 -5t-5 4q-1 -4 -4 -4q4 -1 4 -5q0 -5 -5 -5t-5 4q-1 -4 -4 -4q4 -1 4 -5q0 -5 -5 -5t-5 4q-1 -4 -4 -4q4 -1 4 -5q0 -5 -5 -5t-5 4q-1 -4 -4 -4q4 -1 4 -5q0 -5 -5 -5t-5 4q-1 -4 -4 -4q4 -1 4 -5
q0 -5 -5 -5t-5 4q-1 -4 -4 -4q4 -1 4 -5q0 -5 -5 -5t-5 4q-1 -3 -4 -4q4 0 4 -5t-5 -5t-5 4q-1 -3 -4 -4q4 0 4 -5t-5 -5t-5 5t4 5q-4 1 -4 5q0 5 5 5t5 -5q0 5 4 5q-4 1 -4 5t4 5q-4 0 -4 5t5 5t5 -5q0 4 4 5q-4 0 -4 5t5 5q4 0 5 -4q0 3 4 4q-4 0 -4 5t5 5q4 0 5 -4
q0 3 4 4q-4 0 -4 5t5 5q4 0 5 -4q0 3 4 4q-4 0 -4 5t5 5t5 -5q0 4 4 5q-4 0 -4 5t5 5t5 -5q0 4 4 5q-4 0 -4 5q0 4 4 5q-4 0 -4 5t5 5t5 -5q0 4 4 5q-4 0 -4 5t5 5q4 0 5 -4q0 3 4 4q-4 0 -4 5t5 5q4 0 5 -4q0 3 4 4q-4 0 -4 5t5 5t5 -5q0 4 4 5q-4 0 -4 5t5 5t5 -5q0 4 4 5
q-4 0 -4 5q0 4 4 5q-4 0 -4 5t5 5q4 0 5 -4q0 3 4 4q-4 0 -4 5t5 5t5 -5q0 4 4 5q-4 0 -4 5t5 5t5 -5q0 4 4 5q-4 0 -4 5t5 5t5 -5q0 4 4 5q-4 0 -4 5t5 5t5 -5q0 4 4 5q-4 0 -4 5q0 4 4 5q-4 0 -4 5t5 5t5 -5q0 4 4 5q-4 0 -4 5t5 5q4 0 5 -4q0 3 4 4q-4 0 -4 5t5 5t5 -5
q0 4 4 5q-4 0 -4 5t5 5t5 -5q0 4 4 5q-4 0 -4 5t5 5t5 -5q0 4 4 5q-4 0 -4 5t5 5t5 -5q0 4 4 5q-4 0 -4 5q0 4 4 5q-4 0 -4 5t5 5t5 -5q0 4 4 5q-4 0 -4 5t5 5q4 0 5 -4q0 3 4 4q-4 0 -4 5t5 5t5 -5q0 4 4 5q-4 0 -4 5t5 5q4 0 5 -4q0 3 4 4q-4 0 -4 5t5 5q4 0 5 -4q0 3 4 4
q-4 0 -4 5q0 4 4 5q-4 0 -4 5t5 5t5 -5q0 4 4 5q-4 0 -4 5t5 5t5 -5q0 4 4 5q-4 0 -4 5t5 5t5 -5q0 4 4 5q-4 0 -4 5t5 5t5 -5q0 4 4 5q-4 0 -4 5t5 5t5 -5q0 4 4 5q-4 0 -4 5q0 4 4 5q-4 0 -4 5t5 5t5 -5q0 4 4 5q-4 0 -4 5t5 5q4 0 5 -4q0 3 4 4q-4 0 -4 5t5 5q4 0 5 -4
q0 3 4 4q-4 0 -4 5t5 5q4 0 5 -4q0 3 4 4q-4 0 -4 5t5 5t5 -5q0 4 4 5q-4 0 -4 5t5 5q4 0 5 -4q0 3 4 4q-4 0 -4 5q0 4 4 5q-4 0 -4 5t5 5zM355 695q4 0 5 -4q0 3 4 4q-4 0 -4 5q0 4 4 5q-4 0 -4 5t5 5t5 -5t-4 -5q3 -1 4 -4q0 4 5 4t5 -5t-4 -5q3 -1 4 -4q0 4 5 4t5 -5
t-4 -5q4 -1 4 -5q0 -5 -5 -5t-5 4q-1 -4 -4 -4q4 -1 4 -5q0 -5 -4 -5q4 -1 4 -5q0 -5 -5 -5t-5 4q-1 -4 -4 -4q4 -1 4 -5q0 -5 -5 -5t-5 4q-1 -4 -4 -4q4 -1 4 -5q0 -5 -4 -5q4 -1 4 -5q0 -5 -5 -5t-5 4q-1 -4 -4 -4q4 -1 4 -5q0 -5 -4 -5q4 -1 4 -5q0 -5 -5 -5t-5 4
q-1 -4 -4 -4q4 -1 4 -5q0 -5 -4 -5q4 -1 4 -5q0 -5 -5 -5t-5 4q-1 -4 -4 -4q4 -1 4 -5q0 -5 -5 -5t-5 4q-1 -4 -4 -4q4 -1 4 -5q0 -5 -4 -5q4 -1 4 -5q0 -5 -5 -5t-5 4q-1 -4 -4 -4q4 -1 4 -5q0 -5 -4 -5q4 -1 4 -5q0 -5 -5 -5t-5 4q-1 -4 -4 -4q4 -1 4 -5q0 -5 -4 -5
q4 -1 4 -5q0 -5 -5 -5t-5 4q-1 -4 -4 -4q4 -1 4 -5q0 -5 -4 -5q4 -1 4 -5q0 -5 -5 -5t-5 4q-1 -4 -4 -4q4 -1 4 -5q0 -5 -4 -5q4 -1 4 -5q0 -5 -5 -5t-5 4q-1 -4 -5 -4q-5 0 -5 4q-1 -4 -5 -4q-5 0 -5 4q-1 -4 -5 -4q-5 0 -5 5t5 5q4 0 5 -4q0 3 4 4q-4 0 -4 5q0 4 4 5
q-4 0 -4 5t5 5q4 0 5 -4q0 3 4 4q-4 0 -4 5q0 4 4 5q-4 0 -4 5t5 5t5 -5q0 4 4 5q-4 0 -4 5q0 4 4 5q-4 0 -4 5t5 5q4 0 5 -4q0 3 4 4q-4 0 -4 5q0 4 4 5q-4 0 -4 5t5 5t5 -5q0 4 4 5q-4 0 -4 5q0 4 4 5q-4 0 -4 5t5 5q4 0 5 -4q0 3 4 4q-4 0 -4 5q0 4 4 5q-4 0 -4 5t5 5
t5 -5q0 4 4 5q-4 0 -4 5t5 5q4 0 5 -4q0 3 4 4q-4 0 -4 5q0 4 4 5q-4 0 -4 5t5 5q4 0 5 -4q0 3 4 4q-4 0 -4 5q0 4 4 5q-4 0 -4 5t5 5q4 0 5 -4q0 3 4 4q-4 0 -4 5q0 4 4 5q-4 0 -4 5t5 5t5 -5q0 4 4 5q-4 0 -4 5q0 4 4 5q-4 0 -4 5t5 5zM275 385q5 0 5 -5t-5 -5t-5 4
q-1 -4 -4 -4q4 -1 4 -5q0 -5 -4 -5q4 -1 4 -5q0 -5 -5 -5t-5 4q-1 -4 -5 -4q-5 0 -5 4q-1 -4 -5 -4q-5 0 -5 4q-1 -4 -5 -4q-5 0 -5 4q-1 -4 -5 -4q-5 0 -5 4q-1 -4 -5 -4q-5 0 -5 4q-1 -4 -5 -4q-5 0 -5 4q-1 -4 -5 -4q-5 0 -5 4q-1 -4 -4 -4q4 -1 4 -5q0 -5 -5 -5t-5 4
q-1 -4 -5 -4q-5 0 -5 4q-1 -4 -5 -4q-5 0 -5 4q-1 -4 -5 -4q-5 0 -5 4q-1 -4 -5 -4q-5 0 -5 4q-1 -4 -5 -4q-5 0 -5 4q-1 -4 -5 -4q-5 0 -5 4q-1 -4 -5 -4q-5 0 -5 4q-1 -4 -5 -4q-5 0 -5 5q0 4 4 5q-4 0 -4 4q-1 -4 -5 -4q-5 0 -5 5q0 4 4 5q-4 0 -4 5t5 5t5 -5q0 5 5 5
t5 -5q0 5 5 5q4 0 5 -4q0 4 5 4t5 -5q0 5 5 5q4 0 5 -4q0 4 5 4t5 -5q0 5 5 5t5 -5q0 5 5 5t5 -5q0 5 5 5t5 -5q0 5 5 5t5 -5q0 4 4 5q-4 0 -4 5t5 5q4 0 5 -4q0 4 5 4t5 -5q0 5 5 5q4 0 5 -4q0 4 5 4t5 -5q0 5 5 5t5 -5q0 5 5 5q4 0 5 -4q0 4 5 4q4 0 5 -4q0 4 5 4
q4 0 5 -4q0 4 5 4zM110 39q-1 -4 -4 -4q4 -1 4 -5q0 4 4 5q-4 0 -4 4zM120 49q-1 -4 -4 -4q4 -1 4 -5q0 4 4 5q-4 0 -4 4zM130 59q-1 -4 -4 -4q4 -1 4 -5q0 4 4 5q-4 0 -4 4zM140 69q-1 -4 -4 -4q3 -1 4 -4q0 3 4 4q-4 0 -4 4zM140 79q-1 -4 -4 -4q3 -1 4 -4q0 3 4 4
q-4 0 -4 4zM154 75q-4 0 -4 4q-1 -4 -4 -4q3 -1 4 -4q0 3 4 4zM160 89q-1 -4 -4 -4q3 -1 4 -4q0 3 4 4q-4 0 -4 4zM154 85q-4 0 -4 4q-1 -4 -4 -4q3 -1 4 -4q0 3 4 4zM170 99q-1 -4 -4 -4q4 -1 4 -5q0 4 4 5q-4 0 -4 4zM160 99q-1 -4 -4 -4q3 -1 4 -4q0 3 4 4q-4 0 -4 4z
M170 109q-1 -4 -4 -4q4 -1 4 -5q0 4 4 5q-4 0 -4 4zM180 119q-1 -4 -4 -4q4 -1 4 -5q0 4 4 5q-4 0 -4 4zM190 129q-1 -4 -4 -4q3 -1 4 -4q0 3 4 4q-4 0 -4 4zM260 369q-1 -4 -4 -4q3 -1 4 -4q0 3 4 4q-4 0 -4 4zM250 369q-1 -4 -4 -4q4 -1 4 -5q0 4 4 5q-4 0 -4 4zM240 369
q-1 -4 -4 -4q4 -1 4 -5q0 4 4 5q-4 0 -4 4zM230 369q-1 -4 -4 -4q4 -1 4 -5q0 4 4 5q-4 0 -4 4zM220 369q-1 -4 -4 -4q4 -1 4 -5q0 4 4 5q-4 0 -4 4zM260 379q-1 -4 -4 -4q3 -1 4 -4q0 3 4 4q-4 0 -4 4zM250 379q-1 -4 -4 -4q3 -1 4 -4q0 3 4 4q-4 0 -4 4zM240 379
q-1 -4 -4 -4q4 -1 4 -5q0 4 4 5q-4 0 -4 4zM230 379q-1 -4 -4 -4q3 -1 4 -4q0 3 4 4q-4 0 -4 4zM220 379q-1 -4 -4 -4q3 -1 4 -4q0 3 4 4q-4 0 -4 4zM180 359q-1 -4 -4 -4q3 -1 4 -4q0 3 4 4q-4 0 -4 4zM170 359q-1 -4 -4 -4q4 -1 4 -5q0 4 4 5q-4 0 -4 4zM160 359
q-1 -4 -4 -4q4 -1 4 -5q0 4 4 5q-4 0 -4 4zM210 369q-1 -4 -4 -4q4 -1 4 -5q0 4 4 5q-4 0 -4 4zM200 369q-1 -4 -4 -4q3 -1 4 -4q0 3 4 4q-4 0 -4 4zM190 369q-1 -4 -4 -4q4 -1 4 -5q0 4 4 5q-4 0 -4 4zM180 369q-1 -4 -4 -4q4 -1 4 -5q0 4 4 5q-4 0 -4 4zM170 369
q-1 -4 -4 -4q4 -1 4 -5q0 4 4 5q-4 0 -4 4zM160 369q-1 -4 -4 -4q4 -1 4 -5q0 4 4 5q-4 0 -4 4zM210 379q-1 -4 -4 -4q4 -1 4 -5q0 4 4 5q-4 0 -4 4zM200 379q-1 -4 -4 -4q3 -1 4 -4q0 3 4 4q-4 0 -4 4zM150 359q-1 -4 -4 -4q4 -1 4 -5q0 4 4 5q-4 0 -4 4zM140 359
q-1 -4 -4 -4q4 -1 4 -5q0 4 4 5q-4 0 -4 4zM130 359q-1 -4 -4 -4q4 -1 4 -5q0 4 4 5q-4 0 -4 4zM120 359q-1 -4 -4 -4q4 -1 4 -5q0 4 4 5q-4 0 -4 4zM110 359q-1 -4 -4 -4q4 -1 4 -5q0 4 4 5q-4 0 -4 4zM150 369q-1 -4 -4 -4q4 -1 4 -5q0 4 4 5q-4 0 -4 4zM140 369
q-1 -4 -4 -4q4 -1 4 -5q0 4 4 5q-4 0 -4 4zM130 369q-1 -4 -4 -4q4 -1 4 -5q0 4 4 5q-4 0 -4 4zM120 369q-1 -4 -4 -4q4 -1 4 -5q0 4 4 5q-4 0 -4 4zM110 369q-1 -4 -4 -4q4 -1 4 -5q0 4 4 5q-4 0 -4 4zM100 369q-1 -4 -4 -4q4 -1 4 -5q0 4 4 5q-4 0 -4 4zM410 369
q-1 -4 -4 -4q4 -1 4 -5q0 4 4 5q-4 0 -4 4zM200 139q-1 -4 -4 -4q4 -1 4 -5q0 4 4 5q-4 0 -4 4zM194 135q-4 0 -4 4q-1 -4 -4 -4q4 -1 4 -5q0 4 4 5zM210 149q-1 -4 -4 -4q4 -1 4 -5q0 4 4 5q-4 0 -4 4zM200 149q-1 -4 -4 -4q3 -1 4 -4q0 3 4 4q-4 0 -4 4zM220 159
q-1 -4 -4 -4q4 -1 4 -5q0 4 4 5q-4 0 -4 4zM210 159q-1 -4 -4 -4q4 -1 4 -5q0 4 4 5q-4 0 -4 4zM230 169q-1 -4 -4 -4q4 -1 4 -5q0 4 4 5q-4 0 -4 4zM220 169q-1 -4 -4 -4q4 -1 4 -5q0 4 4 5q-4 0 -4 4zM240 179q-1 -4 -4 -4q4 -1 4 -5q0 4 4 5q-4 0 -4 4zM230 179
q-1 -4 -4 -4q4 -1 4 -5q0 4 4 5q-4 0 -4 4zM240 189q-1 -4 -4 -4q4 -1 4 -5q0 4 4 5q-4 0 -4 4zM240 199q-1 -4 -4 -4q4 -1 4 -5q0 4 4 5q-4 0 -4 4zM254 185q-4 0 -4 4q-1 -4 -4 -4q3 -1 4 -4q0 3 4 4zM260 199q-1 -4 -4 -4q4 -1 4 -5q0 4 4 5q-4 0 -4 4zM254 195
q-4 0 -4 4q-1 -4 -4 -4q4 -1 4 -5q0 4 4 5zM270 209q-1 -4 -4 -4q4 -1 4 -5q0 4 4 5q-4 0 -4 4zM260 209q-1 -4 -4 -4q4 -1 4 -5q0 4 4 5q-4 0 -4 4zM254 205q-4 0 -4 4q-1 -4 -4 -4q4 -1 4 -5q0 4 4 5zM280 219q-1 -4 -4 -4q3 -1 4 -4q0 3 4 4q-4 0 -4 4zM270 219
q-1 -4 -4 -4q4 -1 4 -5q0 4 4 5q-4 0 -4 4zM260 219q-1 -4 -4 -4q3 -1 4 -4q0 3 4 4q-4 0 -4 4zM280 229q-1 -4 -4 -4q4 -1 4 -5q0 4 4 5q-4 0 -4 4zM270 229q-1 -4 -4 -4q3 -1 4 -4q0 3 4 4q-4 0 -4 4zM290 239q-1 -4 -4 -4q3 -1 4 -4q0 3 4 4q-4 0 -4 4zM280 239
q-1 -4 -4 -4q4 -1 4 -5q0 4 4 5q-4 0 -4 4zM300 249q-1 -4 -4 -4q4 -1 4 -5q0 4 4 5q-4 0 -4 4zM290 249q-1 -4 -4 -4q4 -1 4 -5q0 4 4 5q-4 0 -4 4zM300 259q-1 -4 -4 -4q4 -1 4 -5q0 4 4 5q-4 0 -4 4zM300 269q-1 -4 -4 -4q3 -1 4 -4q0 3 4 4q-4 0 -4 4zM314 255
q-4 0 -4 4q-1 -4 -4 -4q4 -1 4 -5q0 4 4 5zM320 269q-1 -4 -4 -4q4 -1 4 -5q0 4 4 5q-4 0 -4 4zM314 265q-4 0 -4 4q-1 -4 -4 -4q4 -1 4 -5q0 4 4 5zM330 279q-1 -4 -4 -4q3 -1 4 -4q0 3 4 4q-4 0 -4 4zM320 279q-1 -4 -4 -4q3 -1 4 -4q0 3 4 4q-4 0 -4 4zM314 275
q-4 0 -4 4q-1 -4 -4 -4q3 -1 4 -4q0 3 4 4zM340 289q-1 -4 -4 -4q4 -1 4 -5q0 4 4 5q-4 0 -4 4zM330 289q-1 -4 -4 -4q4 -1 4 -5q0 4 4 5q-4 0 -4 4zM320 289q-1 -4 -4 -4q4 -1 4 -5q0 4 4 5q-4 0 -4 4zM350 299q-1 -4 -4 -4q4 -1 4 -5q0 4 4 5q-4 0 -4 4zM340 299
q-1 -4 -4 -4q3 -1 4 -4q0 3 4 4q-4 0 -4 4zM330 299q-1 -4 -4 -4q4 -1 4 -5q0 4 4 5q-4 0 -4 4zM360 309q-1 -4 -4 -4q4 -1 4 -5q0 4 4 5q-4 0 -4 4zM350 309q-1 -4 -4 -4q3 -1 4 -4q0 3 4 4q-4 0 -4 4zM340 309q-1 -4 -4 -4q4 -1 4 -5q0 4 4 5q-4 0 -4 4zM270 489
q-1 -4 -4 -4q3 -1 4 -4q0 3 4 4q-4 0 -4 4zM260 489q-1 -4 -4 -4q3 -1 4 -4q0 3 4 4q-4 0 -4 4zM270 499q-1 -4 -4 -4q4 -1 4 -5q0 4 4 5q-4 0 -4 4zM260 499q-1 -4 -4 -4q3 -1 4 -4q0 3 4 4q-4 0 -4 4zM280 509q-1 -4 -4 -4q3 -1 4 -4q0 3 4 4q-4 0 -4 4zM270 509
q-1 -4 -4 -4q4 -1 4 -5q0 4 4 5q-4 0 -4 4zM280 519q-1 -4 -4 -4q4 -1 4 -5q0 4 4 5q-4 0 -4 4zM270 519q-1 -4 -4 -4q4 -1 4 -5q0 4 4 5q-4 0 -4 4zM280 529q-1 -4 -4 -4q4 -1 4 -5q0 4 4 5q-4 0 -4 4zM280 539q-1 -4 -4 -4q4 -1 4 -5q0 4 4 5q-4 0 -4 4zM360 319
q-1 -4 -4 -4q4 -1 4 -5q0 4 4 5q-4 0 -4 4zM350 319q-1 -4 -4 -4q3 -1 4 -4q0 3 4 4q-4 0 -4 4zM360 329q-1 -4 -4 -4q4 -1 4 -5q0 4 4 5q-4 0 -4 4zM350 329q-1 -4 -4 -4q4 -1 4 -5q0 4 4 5q-4 0 -4 4zM360 339q-1 -4 -4 -4q3 -1 4 -4q0 3 4 4q-4 0 -4 4zM374 315
q-4 0 -4 4q-1 -4 -4 -4q3 -1 4 -4q0 3 4 4zM380 329q-1 -4 -4 -4q3 -1 4 -4q0 3 4 4q-4 0 -4 4zM374 325q-4 0 -4 4q-1 -4 -4 -4q4 -1 4 -5q0 4 4 5zM390 339q-1 -4 -4 -4q4 -1 4 -5q0 4 4 5q-4 0 -4 4zM380 339q-1 -4 -4 -4q4 -1 4 -5q0 4 4 5q-4 0 -4 4zM374 335
q-4 0 -4 4q-1 -4 -4 -4q3 -1 4 -4q0 3 4 4zM400 349q-1 -4 -4 -4q4 -1 4 -5q0 4 4 5q-4 0 -4 4zM390 349q-1 -4 -4 -4q3 -1 4 -4q0 3 4 4q-4 0 -4 4zM380 349q-1 -4 -4 -4q4 -1 4 -5q0 4 4 5q-4 0 -4 4zM374 345q-4 0 -4 4q-1 -4 -4 -4q4 -1 4 -5q0 4 4 5zM410 359
q-1 -4 -4 -4q4 -1 4 -5q0 4 4 5q-4 0 -4 4zM400 359q-1 -4 -4 -4q3 -1 4 -4q0 3 4 4q-4 0 -4 4zM390 359q-1 -4 -4 -4q3 -1 4 -4q0 3 4 4q-4 0 -4 4zM380 359q-1 -4 -4 -4q3 -1 4 -4q0 3 4 4q-4 0 -4 4zM300 549q-1 -4 -4 -4q3 -1 4 -4q0 3 4 4q-4 0 -4 4zM400 369
q-1 -4 -4 -4q4 -1 4 -5q0 4 4 5q-4 0 -4 4zM390 369q-1 -4 -4 -4q3 -1 4 -4q0 3 4 4q-4 0 -4 4zM420 379q-1 -4 -4 -4q3 -1 4 -4q0 3 4 4q-4 0 -4 4zM410 379q-1 -4 -4 -4q3 -1 4 -4q0 3 4 4q-4 0 -4 4zM400 379q-1 -4 -4 -4q4 -1 4 -5q0 4 4 5q-4 0 -4 4zM420 389
q-1 -4 -4 -4q4 -1 4 -5q0 4 4 5q-4 0 -4 4zM410 389q-1 -4 -4 -4q4 -1 4 -5q0 4 4 5q-4 0 -4 4zM400 389q-1 -4 -4 -4q3 -1 4 -4q0 3 4 4q-4 0 -4 4zM420 399q-1 -4 -4 -4q4 -1 4 -5q0 4 4 5q-4 0 -4 4zM410 399q-1 -4 -4 -4q4 -1 4 -5q0 4 4 5q-4 0 -4 4zM420 409
q-1 -4 -4 -4q4 -1 4 -5q0 4 4 5q-4 0 -4 4zM434 385q-4 0 -4 4q-1 -4 -4 -4q4 -1 4 -5q0 4 4 5zM440 399q-1 -4 -4 -4q4 -1 4 -5q0 4 4 5q-4 0 -4 4zM434 395q-4 0 -4 4q-1 -4 -4 -4q3 -1 4 -4q0 3 4 4zM450 409q-1 -4 -4 -4q4 -1 4 -5q0 4 4 5q-4 0 -4 4zM440 409
q-1 -4 -4 -4q3 -1 4 -4q0 3 4 4q-4 0 -4 4zM434 405q-4 0 -4 4q-1 -4 -4 -4q4 -1 4 -5q0 4 4 5zM460 419q-1 -4 -4 -4q4 -1 4 -5q0 4 4 5q-4 0 -4 4zM450 419q-1 -4 -4 -4q3 -1 4 -4q0 3 4 4q-4 0 -4 4zM440 419q-1 -4 -4 -4q4 -1 4 -5q0 4 4 5q-4 0 -4 4zM434 415
q-4 0 -4 4q-1 -4 -4 -4q3 -1 4 -4q0 3 4 4zM470 429q-1 -4 -4 -4q3 -1 4 -4q0 3 4 4q-4 0 -4 4zM460 429q-1 -4 -4 -4q4 -1 4 -5q0 4 4 5q-4 0 -4 4zM450 429q-1 -4 -4 -4q3 -1 4 -4q0 3 4 4q-4 0 -4 4zM440 429q-1 -4 -4 -4q3 -1 4 -4q0 3 4 4q-4 0 -4 4zM480 439
q-1 -4 -4 -4q3 -1 4 -4q0 3 4 4q-4 0 -4 4zM470 439q-1 -4 -4 -4q3 -1 4 -4q0 3 4 4q-4 0 -4 4zM460 439q-1 -4 -4 -4q4 -1 4 -5q0 4 4 5q-4 0 -4 4zM450 439q-1 -4 -4 -4q3 -1 4 -4q0 3 4 4q-4 0 -4 4zM470 449q-1 -4 -4 -4q3 -1 4 -4q0 3 4 4q-4 0 -4 4zM460 449
q-1 -4 -4 -4q3 -1 4 -4q0 3 4 4q-4 0 -4 4zM470 459q-1 -4 -4 -4q4 -1 4 -5q0 4 4 5q-4 0 -4 4zM460 459q-1 -4 -4 -4q4 -1 4 -5q0 4 4 5q-4 0 -4 4zM340 629q-1 -4 -4 -4q3 -1 4 -4q0 3 4 4q-4 0 -4 4zM294 525q-4 0 -4 4q-1 -4 -4 -4q4 -1 4 -5q0 4 4 5zM294 535
q-4 0 -4 4q-1 -4 -4 -4q4 -1 4 -5q0 4 4 5zM330 629q-1 -4 -4 -4q3 -1 4 -4q0 3 4 4q-4 0 -4 4zM294 545q-4 0 -4 4q-1 -4 -4 -4q4 -1 4 -5q0 4 4 5zM300 559q-1 -4 -4 -4q3 -1 4 -4q0 3 4 4q-4 0 -4 4zM294 555q-4 0 -4 4q-1 -4 -4 -4q4 -1 4 -5q0 4 4 5zM310 569
q-1 -4 -4 -4q4 -1 4 -5q0 4 4 5q-4 0 -4 4zM300 569q-1 -4 -4 -4q4 -1 4 -5q0 4 4 5q-4 0 -4 4zM310 579q-1 -4 -4 -4q4 -1 4 -5q0 4 4 5q-4 0 -4 4zM300 579q-1 -4 -4 -4q3 -1 4 -4q0 3 4 4q-4 0 -4 4zM320 589q-1 -4 -4 -4q4 -1 4 -5q0 4 4 5q-4 0 -4 4zM310 589
q-1 -4 -4 -4q4 -1 4 -5q0 4 4 5q-4 0 -4 4zM330 599q-1 -4 -4 -4q3 -1 4 -4q0 3 4 4q-4 0 -4 4zM320 599q-1 -4 -4 -4q4 -1 4 -5q0 4 4 5q-4 0 -4 4zM310 599q-1 -4 -4 -4q4 -1 4 -5q0 4 4 5q-4 0 -4 4zM330 609q-1 -4 -4 -4q3 -1 4 -4q0 3 4 4q-4 0 -4 4zM320 609
q-1 -4 -4 -4q4 -1 4 -5q0 4 4 5q-4 0 -4 4zM340 619q-1 -4 -4 -4q4 -1 4 -5q0 4 4 5q-4 0 -4 4zM330 619q-1 -4 -4 -4q4 -1 4 -5q0 4 4 5q-4 0 -4 4zM354 665q-4 0 -4 4q-1 -4 -4 -4q4 -1 4 -5q0 4 4 5zM360 689q-1 -4 -4 -4q4 -1 4 -5q0 4 4 5q-4 0 -4 4zM340 639
q-1 -4 -4 -4q3 -1 4 -4q0 3 4 4q-4 0 -4 4zM340 649q-1 -4 -4 -4q4 -1 4 -5q0 4 4 5q-4 0 -4 4zM354 635q-4 0 -4 4q-1 -4 -4 -4q3 -1 4 -4q0 3 4 4zM354 645q-4 0 -4 4q-1 -4 -4 -4q4 -1 4 -5q0 4 4 5zM360 659q-1 -4 -4 -4q3 -1 4 -4q0 3 4 4q-4 0 -4 4zM354 655
q-4 0 -4 4q-1 -4 -4 -4q4 -1 4 -5q0 4 4 5zM370 669q-1 -4 -4 -4q3 -1 4 -4q0 3 4 4q-4 0 -4 4zM360 669q-1 -4 -4 -4q4 -1 4 -5q0 4 4 5q-4 0 -4 4zM80 9q-1 -4 -4 -4q4 -1 4 -5q0 4 4 5q-4 0 -4 4zM370 679q-1 -4 -4 -4q4 -1 4 -5q0 4 4 5q-4 0 -4 4zM360 679q-1 -4 -4 -4
q4 -1 4 -5q0 4 4 5q-4 0 -4 4zM380 689q-1 -4 -4 -4q4 -1 4 -5q0 4 4 5q-4 0 -4 4zM370 689q-1 -4 -4 -4q3 -1 4 -4q0 3 4 4q-4 0 -4 4zM94 15q-4 0 -4 4q-1 -4 -4 -4q4 -1 4 -5q0 4 4 5zM370 699q-1 -4 -4 -4q4 -1 4 -5q0 4 4 5q-4 0 -4 4zM100 29q-1 -4 -4 -4q4 -1 4 -5
q0 4 4 5q-4 0 -4 4z" />
    <glyph glyph-name="_379" 
d="M0 650q-23 0 -38.5 15.5t-15.5 37.5t15.5 37.5t38.5 15.5q22 0 37 -15.5t15 -37.5t-15 -37.5t-37 -15.5z" />
    <glyph glyph-name="_384" 
d="M0 -53q-23 0 -38.5 15.5t-15.5 37.5t15.5 37.5t38.5 15.5q22 0 37 -15.5t15 -37.5t-15 -37.5t-37 -15.5z" />
    <glyph glyph-name="_385" 
d="M0 -181q-23 0 -38.5 15.5t-15.5 37.5t15.5 37.5t38.5 15.5q22 0 37 -15.5t15 -37.5t-15 -37.5t-37 -15.5z" />
    <glyph glyph-name="_387" 
d="M-59 -258l34 83q-27 19 -27 46q0 22 15 38t37 16t37 -16t15 -38q0 -17 -9 -30l-62 -99h-40z" />
    <glyph glyph-name="_391" 
d="M-48 544l25 166h70l-45 -166h-50z" />
    <glyph glyph-name="_392" 
d="M0 602q-22 0 -37 16t-15 38q0 16 9 30l62 99h40l-34 -83q27 -19 27 -46q0 -22 -15 -38t-37 -16z" />
    <glyph glyph-name="_393" 
d="M-99 602q-23 0 -39.5 16.5t-16.5 39.5t16.5 39t39.5 16t39.5 -16t16.5 -39t-16.5 -39.5t-39.5 -16.5zM99 602q-23 0 -39.5 16.5t-16.5 39.5t16.5 39t39.5 16t39.5 -16t16.5 -39t-16.5 -39.5t-39.5 -16.5z" />
    <glyph glyph-name="_394" 
d="M254 473l-469 -483l-39 38l470 482z" />
    <glyph glyph-name="_395" 
d="M159 580h-318v61h318v-61z" />
    <glyph glyph-name="_396" 
d="M159 580h-318v61h318v-61z" />
    <glyph glyph-name="_397" 
d="M115 413l-230 -153v68l230 153v-68z" />
    <glyph glyph-name="_398" 
d="M-161 281v61h323v-61h-323z" />
    <glyph glyph-name="zero.zero" horiz-adv-x="620" 
d="M310 -10q-108 0 -177.5 73.5t-69.5 189.5v206q0 116 69.5 189.5t177.5 73.5t177.5 -73.5t69.5 -189.5v-206q0 -116 -69.5 -189.5t-177.5 -73.5zM310 58q79 0 128 52.5t49 142.5v184l-350 -233q13 -68 59.5 -107t113.5 -39zM133 459v-184l349 233q-13 68 -59 107t-113 39
q-79 0 -128 -52.5t-49 -142.5z" />
    <glyph glyph-name="one.onum" horiz-adv-x="288" 
d="M129 0v495h-114l58 65h126v-560h-70z" />
    <glyph glyph-name="two.onum" horiz-adv-x="487" 
d="M436 64v-64h-383v26q0 20 3 37.5t12.5 34.5t15.5 29.5t23 28.5t24 23.5t30 23.5t28.5 20t32.5 21t30 19q58 38 82 67.5t24 77.5q0 44 -30.5 70.5t-79.5 26.5q-53 0 -88 -28.5t-37 -83.5h-71q0 79 55.5 128t139.5 49q78 0 130 -43t52 -121q0 -60 -31 -104t-106 -92
q-14 -10 -41 -27t-42 -27.5t-33.5 -25.5t-28.5 -31.5t-14 -34.5h303z" />
    <glyph glyph-name="three.onum" horiz-adv-x="513" 
d="M262 -77q-93 0 -154.5 57t-61.5 141h70q2 -58 45 -95.5t102 -37.5q54 0 90.5 31.5t36.5 88.5q0 61 -37.5 90.5t-101.5 29.5h-43v64h48q49 0 82.5 30t34.5 77q0 47 -33 76.5t-82 29.5q-56 0 -94 -34t-38 -97h-70q0 88 58 142t144 54q79 0 132 -46.5t53 -124.5
q0 -44 -23.5 -80.5t-59.5 -55.5q48 -20 74 -61t26 -95q0 -81 -55.5 -132.5t-142.5 -51.5z" />
    <glyph glyph-name="four.onum" horiz-adv-x="533" 
d="M344 -68v175h-327v55l336 398h61v-388h84v-65h-84v-175h-70zM109 172h235v278z" />
    <glyph glyph-name="five.onum" horiz-adv-x="480" 
d="M236 -77q-87 0 -144.5 52.5t-59.5 124.5h73q10 -51 43 -81.5t88 -30.5q64 0 100.5 41.5t36.5 101.5t-36 101t-95 41q-79 0 -119 -65l-67 20l61 332h285v-65h-227l-35 -190q42 33 109 33q87 0 140.5 -59.5t53.5 -147.5q0 -90 -56.5 -149t-150.5 -59z" />
    <glyph glyph-name="six.onum" horiz-adv-x="502" 
d="M250 -10q-89 0 -147.5 60.5t-58.5 145.5q0 77 68 158l226 273h90l-190 -229q16 2 28 2q77 0 133.5 -60.5t56.5 -141.5q0 -88 -58 -148t-148 -60zM116 197q0 -59 38 -100t96 -41q59 0 97 41t38 100t-38 99.5t-97 40.5q-58 0 -96 -40.5t-38 -99.5z" />
    <glyph glyph-name="seven.onum" horiz-adv-x="439" 
d="M130 -68h-78l285 560h-314v68h398v-57z" />
    <glyph glyph-name="eight.onum" horiz-adv-x="506" 
d="M253 -10q-90 0 -147 55.5t-57 141.5q0 117 100 165q-66 45 -66 125q0 69 48.5 114.5t121.5 45.5q74 0 121.5 -45t47.5 -115q0 -79 -65 -125q100 -48 100 -165q0 -86 -57 -141.5t-147 -55.5zM253 55q60 0 96.5 38t36.5 94q0 58 -35.5 94.5t-97.5 36.5q-60 0 -97 -37
t-37 -94q0 -55 37.5 -93.5t96.5 -38.5zM253 380q46 0 73.5 28.5t27.5 68.5q0 41 -27.5 69t-73.5 28q-45 0 -73 -28t-28 -69q0 -40 28.5 -68.5t72.5 -28.5z" />
    <glyph glyph-name="nine.onum" horiz-adv-x="498" 
d="M252 569q89 0 147.5 -60.5t58.5 -145.5q0 -77 -68 -158l-226 -273h-90l189 229q-5 -2 -27 -2q-77 0 -133.5 60.5t-56.5 141.5q0 88 58 148t148 60zM386 362q0 59 -38 100t-96 41q-59 0 -97 -41t-38 -100t38 -99.5t97 -40.5q58 0 96 40.5t38 99.5z" />
    <glyph glyph-name="zero.onum" horiz-adv-x="543" 
d="M271 -10q-92 0 -150.5 58.5t-58.5 152.5v158q0 94 58.5 152.5t150.5 58.5q93 0 151.5 -59t58.5 -152v-158q0 -93 -58.5 -152t-151.5 -59zM271 55q63 0 101.5 39t38.5 107v158q0 68 -38.5 107t-101.5 39q-62 0 -100.5 -39t-38.5 -107v-158q0 -68 38.5 -107t100.5 -39z" />
    <glyph glyph-name="zero.onum_zero" horiz-adv-x="543" 
d="M271 -10q-92 0 -150.5 58.5t-58.5 152.5v158q0 94 58.5 152.5t150.5 58.5q93 0 151.5 -59t58.5 -152v-158q0 -93 -58.5 -152t-151.5 -59zM271 55q63 0 101.5 39t38.5 107v135l-274 -182q13 -48 48 -73.5t86 -25.5zM132 359v-135l273 182q-13 48 -48 73.5t-86 25.5
q-62 0 -100.5 -39t-38.5 -107z" />
    <glyph glyph-name="one.tnum" horiz-adv-x="590" 
d="M90 0v67h178v574h-138l61 69h147v-643h178v-67h-426z" />
    <glyph glyph-name="two.tnum" horiz-adv-x="590" 
d="M522 67v-67h-452v30q0 37 11.5 70t27 56.5t43.5 50.5t48.5 42t56.5 41t53 39q41 31 59 46.5t38.5 39t27 48t6.5 59.5q0 59 -39.5 95.5t-101.5 36.5q-67 0 -112.5 -39.5t-47.5 -113.5h-72q0 99 65.5 160t163.5 61q92 0 154 -53.5t62 -150.5q0 -73 -36.5 -125.5
t-131.5 -122.5q-19 -14 -54 -38t-52.5 -37.5t-39.5 -34.5t-33.5 -43.5t-16.5 -49.5h373z" />
    <glyph glyph-name="three.tnum" horiz-adv-x="590" 
d="M303 -10q-108 0 -179 64t-71 158h72q2 -67 54.5 -110.5t123.5 -43.5q66 0 110.5 37t44.5 103q0 71 -45 105t-123 34h-50v69h57q58 0 99.5 35t41.5 89t-40.5 89t-99.5 35q-68 0 -113.5 -39t-47.5 -114h-72q0 99 66.5 160t166.5 61q89 0 150.5 -52t61.5 -140
q-1 -51 -28.5 -92.5t-72.5 -62.5q58 -23 89.5 -69.5t31.5 -107.5q0 -93 -63.5 -150.5t-163.5 -57.5z" />
    <glyph glyph-name="four.tnum" horiz-adv-x="590" 
d="M401 0v202h-385v57l395 451h60v-441h100v-67h-100v-202h-70zM110 269h291v332z" />
    <glyph glyph-name="five.tnum" horiz-adv-x="590" 
d="M291 -10q-94 0 -163 59.5t-71 138.5h72q12 -56 57.5 -93t104.5 -37q70 0 118 48.5t48 117.5q0 70 -45.5 118t-115.5 48q-91 0 -142 -72l-69 20l70 372h328v-69h-270l-42 -225q51 42 131 42q99 0 163 -70t64 -175q0 -91 -69.5 -157t-168.5 -66z" />
    <glyph glyph-name="six.tnum" horiz-adv-x="590" 
d="M292 -10q-99 0 -168.5 68.5t-69.5 162.5q0 90 78 178l274 311h91l-231 -262q19 5 42 5q91 0 156.5 -69.5t65.5 -159.5q0 -97 -69.5 -165.5t-168.5 -68.5zM292 58q70 0 118 48.5t48 117.5t-48 117.5t-118 48.5t-118 -48.5t-48 -117.5t48 -117.5t118 -48.5z" />
    <glyph glyph-name="seven.tnum" horiz-adv-x="590" 
d="M186 0h-78l335 641h-373v69h457v-57z" />
    <glyph glyph-name="eight.tnum" horiz-adv-x="590" 
d="M295 -10q-102 0 -168 63t-66 159q0 66 32 115t89 74q-79 50 -79 141q0 78 55 129t137 51q83 0 137.5 -51t54.5 -129q0 -91 -77 -141q57 -25 88 -74t31 -115q0 -97 -64.5 -159.5t-169.5 -62.5zM295 58q76 0 120 43.5t44 109.5q0 67 -44 110t-119 43q-74 0 -119.5 -43
t-45.5 -110q0 -65 45.5 -109t118.5 -44zM295 431q57 0 90 33t33 79q0 49 -32.5 80t-90.5 31q-55 0 -89 -31.5t-34 -79.5q0 -46 34 -79t89 -33z" />
    <glyph glyph-name="nine.tnum" horiz-adv-x="590" 
d="M92 0l232 263q-17 -4 -41 -4q-91 0 -156.5 69.5t-65.5 159.5q0 97 69.5 165.5t168.5 68.5t168.5 -68.5t69.5 -162.5q0 -90 -78 -178l-276 -313h-91zM299 322q70 0 118 48.5t48 117.5t-48 117.5t-118 48.5t-118 -48.5t-48 -117.5t48 -117.5t118 -48.5z" />
    <glyph glyph-name="zero.tnum" horiz-adv-x="590" 
d="M296 -10q-108 0 -177.5 73.5t-69.5 189.5v206q0 116 69.5 189.5t177.5 73.5t177.5 -73.5t69.5 -189.5v-206q0 -116 -69.5 -189.5t-177.5 -73.5zM296 58q79 0 128 52.5t49 142.5v206q0 90 -49 142.5t-128 52.5t-128 -52.5t-49 -142.5v-206q0 -90 49 -142.5t128 -52.5z" />
    <glyph glyph-name="zero.tnum_zero" horiz-adv-x="590" 
d="M295 -10q-108 0 -177.5 73.5t-69.5 189.5v206q0 116 69.5 189.5t177.5 73.5t177.5 -73.5t69.5 -189.5v-206q0 -116 -69.5 -189.5t-177.5 -73.5zM295 58q79 0 128 52.5t49 142.5v184l-350 -233q13 -68 59.5 -107t113.5 -39zM118 459v-184l349 233q-13 68 -59 107t-113 39
q-79 0 -128 -52.5t-49 -142.5z" />
    <glyph glyph-name="uni2070.zero" horiz-adv-x="390" 
d="M196 404q-68 0 -112 46t-44 118v116q0 73 44 119t112 46t111.5 -46t43.5 -119v-116q0 -72 -43.5 -118t-111.5 -46zM196 463q42 0 68 28.5t26 76.5v91l-187 -118q18 -78 93 -78zM101 684v-88l186 117q-8 36 -32.5 56t-58.5 20q-43 0 -69 -28t-26 -77z" />
    <glyph glyph-name="uni2080.zero" horiz-adv-x="389" 
d="M195 -121q-68 0 -112 46t-44 118v116q0 73 44 119t112 46t111.5 -46t43.5 -119v-116q0 -72 -43.5 -118t-111.5 -46zM195 -62q42 0 68 28.5t26 76.5v91l-187 -118q8 -36 32.5 -57t60.5 -21zM100 159v-88l186 117q-8 36 -32.5 56t-58.5 20q-43 0 -69 -28t-26 -77z" />
    <glyph glyph-name="one.numr" horiz-adv-x="224" 
d="M98 278v372h-85l47 60h99v-432h-61z" />
    <glyph glyph-name="two.numr" horiz-adv-x="352" 
d="M317 337v-59h-283v23q0 19 3.5 36t14.5 33.5t17 26t26 26t25 20.5t30 21.5t27 18.5q41 30 57.5 51.5t16.5 53.5q0 31 -20 50t-53 19q-35 0 -58.5 -20.5t-23.5 -57.5h-62q0 61 41 99.5t103 38.5q57 0 96 -33.5t39 -94.5q0 -47 -22.5 -80.5t-74.5 -71.5q-6 -4 -22 -15
t-23 -15.5t-19 -14.5t-18.5 -17t-12.5 -17.5t-9 -20.5h205z" />
    <glyph glyph-name="three.numr" horiz-adv-x="365" 
d="M187 272q-65 0 -110.5 39t-45.5 101h61q3 -37 29.5 -59t65.5 -22q35 0 58 19t23 52q0 36 -24 54.5t-64 18.5h-33v54h34q33 0 53.5 17.5t21.5 46.5t-20 46.5t-52 17.5q-37 0 -60 -20.5t-24 -57.5h-61q0 62 42 100t103 38q58 0 96 -33.5t38 -87.5q-1 -64 -55 -93
q31 -13 49 -40t18 -63q0 -57 -40 -92.5t-103 -35.5z" />
    <glyph glyph-name="four.numr" horiz-adv-x="389" 
d="M245 278v112h-225v49l232 271h54v-263h59v-57h-59v-112h-61zM97 447h148v171z" />
    <glyph glyph-name="five.numr" horiz-adv-x="348" 
d="M173 272q-58 0 -102 37t-46 88h63q7 -29 30.5 -47.5t57.5 -18.5q35 0 59 25t24 61t-24 60.5t-60 24.5q-54 0 -78 -44l-56 17l45 235h205v-60h-156l-22 -111q29 20 71 20q59 0 97.5 -41t38.5 -101q0 -66 -40.5 -105.5t-106.5 -39.5z" />
    <glyph glyph-name="six.numr" horiz-adv-x="344" 
d="M170 272q-64 0 -106 41.5t-42 102.5q0 50 49 111l149 183h77l-126 -155q3 1 11 1q54 0 94.5 -41t40.5 -98q0 -61 -42 -103t-105 -42zM170 331q36 0 60.5 24.5t24.5 60.5t-24.5 61t-60.5 25q-37 0 -61.5 -25t-24.5 -61t25 -60.5t61 -24.5z" />
    <glyph glyph-name="seven.numr" horiz-adv-x="330" 
d="M111 278h-68l200 372h-216v60h288v-52z" />
    <glyph glyph-name="eight.numr" horiz-adv-x="360" 
d="M180 272q-64 0 -105.5 38t-41.5 98q0 77 64 111q-42 30 -42 85q0 49 35.5 81t89.5 32q56 0 90.5 -31.5t34.5 -81.5q0 -55 -42 -85q64 -33 64 -111q0 -60 -40.5 -98t-106.5 -38zM180 329q40 0 62.5 23t22.5 57t-22.5 57t-61.5 23t-62.5 -23t-23.5 -57t23.5 -57t61.5 -23z
M180 541q30 0 48 17.5t18 42.5q0 26 -18 43t-48 17q-29 0 -47 -17t-18 -43q0 -25 18 -42.5t47 -17.5z" />
    <glyph glyph-name="nine.numr" horiz-adv-x="344" 
d="M46 278l126 155h-10q-54 0 -94.5 40.5t-40.5 98.5q0 61 42 103t105 42q64 0 106 -42t42 -102q0 -53 -49 -112l-150 -183h-77zM174 486q36 0 61 25t25 61t-24.5 61t-61.5 25q-36 0 -60.5 -25t-24.5 -61t24.5 -61t60.5 -25z" />
    <glyph glyph-name="zero.numr" horiz-adv-x="390" 
d="M196 272q-68 0 -112 46t-44 118v116q0 73 44 119t112 46t111.5 -46t43.5 -119v-116q0 -72 -43.5 -118t-111.5 -46zM196 331q42 0 68 28.5t26 76.5v116q0 49 -26 77t-68 28q-43 0 -69 -28t-26 -77v-116q0 -48 26 -76.5t69 -28.5z" />
    <glyph glyph-name="zero.numr_zero" horiz-adv-x="390" 
d="M196 272q-68 0 -112 46t-44 118v116q0 73 44 119t112 46t111.5 -46t43.5 -119v-116q0 -72 -43.5 -118t-111.5 -46zM196 331q42 0 68 28.5t26 76.5v91l-187 -118q18 -78 93 -78zM101 552v-88l186 117q-8 36 -32.5 56t-58.5 20q-43 0 -69 -28t-26 -77z" />
    <glyph glyph-name="one.dnom" horiz-adv-x="224" 
d="M99 1v372h-85l47 60h99v-432h-61z" />
    <glyph glyph-name="two.dnom" horiz-adv-x="352" 
d="M317 60v-59h-283v23q0 19 3.5 36t14.5 33.5t17 26t26 26t25 20.5t30 21.5t27 18.5q41 30 57.5 51.5t16.5 53.5q0 31 -20 50t-53 19q-35 0 -58.5 -20.5t-23.5 -57.5h-62q0 61 41 99.5t103 38.5q57 0 96 -33.5t39 -94.5q0 -47 -22.5 -80.5t-74.5 -71.5q-6 -4 -22 -15
t-23 -15.5t-19 -14.5t-18.5 -17t-12.5 -17.5t-9 -20.5h205z" />
    <glyph glyph-name="three.dnom" horiz-adv-x="365" 
d="M187 -5q-65 0 -110.5 39t-45.5 101h61q3 -37 29.5 -59t65.5 -22q35 0 58 19t23 52q0 36 -24 54.5t-64 18.5h-33v54h34q33 0 53.5 17.5t21.5 46.5t-20 46.5t-52 17.5q-37 0 -60 -20.5t-24 -57.5h-61q0 62 42 100t103 38q58 0 96 -33.5t38 -87.5q-1 -64 -55 -93
q31 -13 49 -40t18 -63q0 -57 -40 -92.5t-103 -35.5z" />
    <glyph glyph-name="four.dnom" horiz-adv-x="389" 
d="M245 1v112h-225v49l232 271h54v-263h59v-57h-59v-112h-61zM97 170h148v171z" />
    <glyph glyph-name="five.dnom" horiz-adv-x="348" 
d="M173 -5q-58 0 -102 37t-46 88h63q7 -29 30.5 -47.5t57.5 -18.5q35 0 59 25t24 61t-24 60.5t-60 24.5q-54 0 -78 -44l-56 17l45 235h205v-60h-156l-22 -111q29 20 71 20q59 0 97.5 -41t38.5 -101q0 -66 -40.5 -105.5t-106.5 -39.5z" />
    <glyph glyph-name="six.dnom" horiz-adv-x="344" 
d="M170 -5q-64 0 -106 41.5t-42 102.5q0 50 49 111l149 183h77l-126 -155q3 1 11 1q54 0 94.5 -41t40.5 -98q0 -61 -42 -103t-105 -42zM170 54q36 0 60.5 24.5t24.5 60.5t-24.5 61t-60.5 25q-37 0 -61.5 -25t-24.5 -61q0 -35 25 -60t61 -25z" />
    <glyph glyph-name="seven.dnom" horiz-adv-x="330" 
d="M112 1h-68l200 372h-216v60h288v-52z" />
    <glyph glyph-name="eight.dnom" horiz-adv-x="360" 
d="M180 -5q-64 0 -105.5 38t-41.5 98q0 77 64 111q-42 30 -42 85q0 49 35.5 81t89.5 32q56 0 90.5 -31.5t34.5 -81.5q0 -55 -42 -85q64 -33 64 -111q0 -60 -40.5 -98t-106.5 -38zM180 52q40 0 62.5 23t22.5 57t-22.5 57t-61.5 23t-62.5 -23t-23.5 -57t23.5 -57t61.5 -23z
M180 264q30 0 48 17.5t18 42.5q0 26 -18 43t-48 17q-29 0 -47 -17t-18 -43q0 -25 18 -42.5t47 -17.5z" />
    <glyph glyph-name="nine.dnom" horiz-adv-x="344" 
d="M46 1l126 155h-10q-54 0 -94.5 40.5t-40.5 98.5q0 61 42 103t105 42q64 0 106 -42t42 -102q0 -53 -49 -112l-150 -183h-77zM174 209q36 0 61 25t25 61t-24.5 61t-61.5 25q-36 0 -60.5 -25t-24.5 -61t24.5 -61t60.5 -25z" />
    <glyph glyph-name="zero.dnom" horiz-adv-x="390" 
d="M196 -5q-68 0 -112 46t-44 118v116q0 73 44 119t112 46t111.5 -46t43.5 -119v-116q0 -72 -43.5 -118t-111.5 -46zM196 54q42 0 68 28.5t26 76.5v116q0 49 -26 77t-68 28q-43 0 -69 -28t-26 -77v-116q0 -48 26 -76.5t69 -28.5z" />
    <glyph glyph-name="zero.dnom_zero" horiz-adv-x="391" 
d="M196 -6q-68 0 -112 46t-44 118v116q0 73 44 119t112 46t111.5 -46t43.5 -119v-116q0 -72 -43.5 -118t-111.5 -46zM196 53q42 0 68 28.5t26 76.5v91l-187 -118q18 -78 93 -78zM101 274v-88l186 117q-8 36 -32.5 56t-58.5 20q-43 0 -69 -28t-26 -77z" />
    <glyph glyph-name="hyphen.case" horiz-adv-x="387" 
d="M71 319v72h245v-72h-245z" />
    <glyph glyph-name="uni00AD.case" horiz-adv-x="387" 
d="M71 319v72h245v-72h-245z" />
    <glyph glyph-name="endash.case" horiz-adv-x="564" 
d="M71 319v72h422v-72h-422z" />
    <glyph glyph-name="emdash.case" horiz-adv-x="564" 
d="M71 319v72h422v-72h-422z" />
    <glyph glyph-name="questiondown.case" horiz-adv-x="502" 
d="M305 481v-20q0 -57 -93 -129q-35 -27 -51.5 -43t-29.5 -41t-13 -56q0 -58 36.5 -97t94.5 -39q65 0 107 41.5t42 104.5h70q0 -89 -62.5 -151.5t-156.5 -62.5q-89 0 -145 60t-56 144q0 44 20 83t40 58t49 41q53 41 67 62q11 18 11 35v10h70zM270 588q-27 0 -46.5 20
t-19.5 47t19.5 47t46.5 20t46.5 -20t19.5 -47t-19.5 -47t-46.5 -20z" />
    <glyph glyph-name="exclamdown.case" horiz-adv-x="272" 
d="M158 481l13 -190v-291h-70v291l13 190h44zM136 588q-27 0 -46.5 20t-19.5 47t19.5 47t46.5 20t46.5 -20t19.5 -47t-19.5 -47t-46.5 -20z" />
    <glyph glyph-name="guilsinglleft.case" horiz-adv-x="328" 
d="M56 355l141 217h59l-116 -217l116 -217h-59z" />
    <glyph glyph-name="guilsinglright.case" horiz-adv-x="328" 
d="M131 572l141 -217l-141 -217h-59l116 217l-116 217h59z" />
    <glyph glyph-name="guillemotleft.case" horiz-adv-x="492" 
d="M220 355l141 217h59l-116 -217l116 -217h-59zM56 355l141 217h59l-116 -217l116 -217h-59z" />
    <glyph glyph-name="guillemotright.case" horiz-adv-x="492" 
d="M-33 572l141 -217l-141 -217h-59l116 217l-116 217h59zM131 572l141 -217l-141 -217h-59l116 217l-116 217h59z" />
    <glyph glyph-name="parenleft.case" horiz-adv-x="270" 
d="M239 -126h-59q-128 233 -128 480t128 480h59q-121 -235 -121 -480t121 -480z" />
    <glyph glyph-name="parenright.case" horiz-adv-x="270" 
d="M90 -126h-59q121 235 121 480t-121 480h59q128 -233 128 -480t-128 -480z" />
    <glyph glyph-name="bracketleft.case" horiz-adv-x="308" 
d="M100 -125v960h176v-63h-110v-834h110v-63h-176z" />
    <glyph glyph-name="bracketright.case" horiz-adv-x="306" 
d="M206 835v-960h-176v63h110v834h-110v63h176z" />
    <glyph glyph-name="braceleft.case" horiz-adv-x="315" 
d="M285 -125h-53q-70 0 -96.5 34.5t-26.5 108.5v230q0 41 -11.5 58t-47.5 17h-17v63h17q36 0 47.5 17t11.5 58v231q0 75 26.5 109t95.5 34h54v-63h-48q-38 0 -50 -17t-12 -60v-227q0 -50 -10.5 -74.5t-41.5 -38.5q30 -17 41 -41.5t11 -72.5v-226q0 -44 12 -60.5t50 -16.5h48
v-63z" />
    <glyph glyph-name="braceright.case" horiz-adv-x="315" 
d="M83 -125h-53v63h48q38 0 50 16.5t12 60.5v226q0 48 11 72.5t41 41.5q-31 14 -41.5 38.5t-10.5 74.5v227q0 43 -12 60t-50 17h-48v63h54q69 0 95.5 -34t26.5 -109v-231q0 -41 11.5 -58t47.5 -17h17v-63h-17q-36 0 -47.5 -17t-11.5 -58v-230q0 -74 -26.5 -108.5
t-96.5 -34.5z" />
    <glyph glyph-name="bar.case" horiz-adv-x="265" 
d="M99 -55v820h67v-820h-67z" />
    <glyph glyph-name="brokenbar.case" horiz-adv-x="265" 
d="M99 -55v367h67v-367h-67zM99 398v367h67v-367h-67z" />
    <glyph glyph-name="periodcentered.case" horiz-adv-x="274" 
d="M137 288q-27 0 -46.5 20t-19.5 47t19.5 47t46.5 20t46.5 -20t19.5 -47t-19.5 -47t-46.5 -20z" />
    <glyph glyph-name="plus.case" horiz-adv-x="500" 
d="M39 323v63h179v179h66v-179h179v-63h-179v-179h-66v179h-179z" />
    <glyph glyph-name="minus.case" horiz-adv-x="566" 
d="M71 323v63h424v-63h-424z" />
    <glyph glyph-name="multiply.case" horiz-adv-x="498" 
d="M103 164l-47 46l147 145l-147 145l47 46l147 -144l147 144l47 -46l-147 -145l147 -145l-47 -46l-147 144z" />
    <glyph glyph-name="equal.case" horiz-adv-x="566" 
d="M71 214v63h424v-63h-424zM71 433v63h424v-63h-424z" />
    <glyph glyph-name="less.case" horiz-adv-x="431" 
d="M382 608l-253 -253l253 -253h-89l-253 253l253 253h89z" />
    <glyph glyph-name="greater.case" horiz-adv-x="431" 
d="M302 355l-253 253h89l253 -253l-253 -253h-89z" />
    <glyph glyph-name="acute.case" 
d="M-87 770l80 157h94l-112 -157h-62z" />
    <glyph glyph-name="breve.case" 
d="M0 762q-65 0 -109.5 42t-44.5 111h51q0 -49 29 -76t74 -27t74 27t29 76h51q0 -69 -44.5 -111t-109.5 -42z" />
    <glyph glyph-name="caron.case" 
d="M0 769l-164 92v67l164 -92l164 92v-67z" />
    <glyph glyph-name="cedilla.case" 
d="M-103 -204v52q30 -17 76 -17q31 0 50.5 11.5t19.5 32.5q0 31 -47 31q-25 0 -46 -10l-32 21l52 86h52l-35 -57q13 7 38 7q35 0 57 -20.5t22 -55.5q0 -43 -36.5 -69.5t-90.5 -26.5q-49 0 -80 15z" />
    <glyph glyph-name="circumflex.case" 
d="M-164 769v67l164 92l164 -92v-67l-164 92z" />
    <glyph glyph-name="dieresis.case" 
d="M-110 789q-23 0 -38.5 15.5t-15.5 37.5t15.5 37.5t38.5 15.5q22 0 37 -15.5t15 -37.5t-15 -37.5t-37 -15.5zM112 789q-23 0 -38.5 15.5t-15.5 37.5t15.5 37.5t38.5 15.5q22 0 37 -15.5t15 -37.5t-15 -37.5t-37 -15.5z" />
    <glyph glyph-name="dotaccent.case" 
d="M0 789q-23 0 -38.5 15.5t-15.5 37.5t15.5 37.5t38.5 15.5q22 0 37 -15.5t15 -37.5t-15 -37.5t-37 -15.5z" />
    <glyph glyph-name="_524" 
d="M0 -53q-23 0 -38.5 15.5t-15.5 37.5t15.5 37.5t38.5 15.5q22 0 37 -15.5t15 -37.5t-15 -37.5t-37 -15.5z" />
    <glyph glyph-name="_525" 
d="M0 -181q-23 0 -38.5 15.5t-15.5 37.5t15.5 37.5t38.5 15.5q22 0 37 -15.5t15 -37.5t-15 -37.5t-37 -15.5z" />
    <glyph glyph-name="_526" 
d="M-59 -258l34 83q-27 19 -27 46q0 22 15 38t37 16t37 -16t15 -38q0 -17 -9 -30l-62 -99h-40z" />
    <glyph glyph-name="grave.case" 
d="M87 770h-62l-112 157h94z" />
    <glyph glyph-name="hungarumlaut.case" 
d="M3 770l70 157h85l-105 -157h-50zM-159 770l70 157h85l-105 -157h-50z" />
    <glyph glyph-name="macron.case" 
d="M-158 809v61h316v-61h-316z" />
    <glyph glyph-name="ogonek.case" 
d="M8 -219q-38 0 -64 24t-26 62q0 29 16 57t31.5 42.5t40.5 33.5h76q-93 -62 -93 -119q0 -36 36 -36q27 0 57 24v-63q-28 -25 -74 -25z" />
    <glyph glyph-name="ring.case" 
d="M0 753q-50 0 -85.5 35t-35.5 85t35.5 85t85.5 35t86 -35.5t36 -84.5t-36 -84.5t-86 -35.5zM0 800q31 0 52.5 21t21.5 52q0 30 -21.5 52t-52.5 22q-30 0 -51.5 -22t-21.5 -52q0 -31 21.5 -52t51.5 -21z" />
    <glyph glyph-name="tilde.case" 
d="M-168 788l3 16q8 40 35.5 64.5t66.5 24.5q27 0 70.5 -21.5t57.5 -21.5q33 0 43 43h61l-3 -16q-8 -40 -35.5 -64.5t-66.5 -24.5q-27 0 -70.5 21.5t-57.5 21.5q-33 0 -43 -43h-61z" />
    <glyph glyph-name="_533" 
d="M-160 326v68h320v-68h-320z" />
    <glyph glyph-name="_534" 
d="M331 689l-614 -709l-47 42l614 708z" />
    <glyph glyph-name="_535" 
d="M158 424l-317 -211v74l317 211v-74z" />
    <glyph glyph-name="_536" 
d="M-199 351v68h399v-68h-399z" />
    <glyph glyph-name="_537" 
d="M-358 538v63h715v-63h-715z" />
    <glyph glyph-name="uni0437.locl" horiz-adv-x="497" 
d="M15 -59h76q33 -94 147 -94q67 0 105 41.5t38 103.5q0 59 -35 101t-103 42h-82v66h80q57 0 87.5 36t30.5 92q0 52 -33.5 83.5t-90.5 31.5q-104 0 -133 -92h-73q15 73 70 115.5t136 42.5q91 0 143.5 -50t52.5 -125q0 -113 -84 -163q106 -52 106 -182q0 -91 -58 -150
t-157 -59q-84 0 -146.5 41t-76.5 119z" />
    <glyph glyph-name="uni0449.locl" horiz-adv-x="909" 
d="M726 251v249h70v-396q0 -38 36 -38h39v-193h-68v127h-4q-68 0 -68 65v29q-20 -48 -62.5 -76t-98.5 -28t-96.5 29.5t-58.5 82.5q-19 -52 -63 -82t-103 -30q-78 0 -124.5 54.5t-46.5 142.5v313h70v-303q0 -64 27.5 -103t78.5 -39q66 0 107 53.5t41 142.5v249h70v-303
q0 -64 27.5 -103t77.5 -39q66 0 107.5 53.5t41.5 142.5z" />
    <glyph glyph-name="uni044A.locl" horiz-adv-x="568" 
d="M351 -10h-5q-94 0 -139.5 44t-45.5 116v284h-144v66h214v-190h120q93 0 139 -45.5t46 -114.5t-46 -114.5t-139 -45.5zM464 150q0 94 -114 94h-119v-93q0 -96 116 -96q117 0 117 95z" />
    <glyph glyph-name="_549" 
d="M144 235h-288v64h288v-64z" />
    <glyph glyph-name="uni0431.locl" horiz-adv-x="604" 
d="M75 597q0 71 50.5 112t156.5 41h203v-64h-200q-141 0 -141 -94t141 -94h19q115 0 185 -72.5t70 -175.5q0 -109 -73 -184.5t-184 -75.5t-184 75.5t-73 184.5q0 66 31.5 122t87.5 88q-40 15 -64.5 51t-24.5 86zM302 55q81 0 133 56t52 139q0 80 -51.5 132t-133.5 52
t-133.5 -52t-51.5 -132q0 -83 52 -139t133 -56z" />
    <glyph glyph-name="_558" 
d="M37 710h-74v148h74v-148z" />
    <glyph glyph-name="uni0442.locl" horiz-adv-x="882" 
d="M734 0v303q0 64 -27.5 103t-78.5 39q-67 0 -107.5 -53.5t-40.5 -142.5v-249h-70v303q0 64 -27.5 103t-77.5 39q-66 0 -107.5 -53.5t-41.5 -142.5v-249h-70v500h70v-84q22 44 63 69t93 25q56 0 96.5 -30t58.5 -83q19 52 62.5 82.5t103.5 30.5q78 0 124.5 -54.5
t46.5 -142.5v-313h-70z" />
    <glyph glyph-name="uni041B.locl" horiz-adv-x="710" 
d="M8 0l316 710h61l317 -710h-80l-269 602l-267 -602h-78z" />
    <glyph glyph-name="uni0432.locl" horiz-adv-x="546" 
d="M296 -10h-15q-95 0 -149 54.5t-54 155.5v364q0 91 47 143t142 52q100 0 147 -54t47 -133q0 -121 -80 -164q57 -26 88.5 -77.5t31.5 -120.5q0 -101 -56 -160.5t-149 -59.5zM275 55h26q62 0 95 42.5t33 115.5q0 66 -39.5 111.5t-108.5 45.5h-133v-167q0 -148 127 -148z
M148 575v-139h113q64 0 96 34t32 96q0 127 -122 127q-119 0 -119 -118z" />
    <glyph glyph-name="_599" 
d="M134 360q92 0 163 50v-71q-71 -50 -163 -50q-49 0 -136.5 25t-130.5 25q-92 0 -163 -50v71q71 50 163 50q55 0 137.5 -25t129.5 -25z" />
    <glyph glyph-name="uni043F.locl" horiz-adv-x="586" 
d="M86 0v500h70v-84q51 94 164 94q83 0 135.5 -53t52.5 -144v-313h-70v303q0 65 -34.5 103.5t-91.5 38.5q-68 0 -112 -52.5t-44 -143.5v-249h-70z" />
    <glyph glyph-name="uni0433.locl" horiz-adv-x="453" 
d="M218 -10q-79 0 -127.5 35.5t-48.5 107.5q0 56 32.5 93.5t92.5 52.5l77 20q44 12 63 31t19 49q0 31 -27 50t-67 19q-39 0 -67 -20.5t-39 -56.5h-69q6 59 52.5 99t122.5 40q72 0 118 -35.5t46 -95.5q0 -110 -129 -145l-65 -17q-47 -13 -68.5 -34.5t-21.5 -54.5
q0 -36 30 -55.5t76 -19.5q105 0 126 88h70q-6 -73 -61 -112t-135 -39z" />
    <glyph glyph-name="_608" 
d="M196 302v-72h-392v72h392z" />
    <glyph glyph-name="uni0448.locl" horiz-adv-x="882" 
d="M148 500v-303q0 -64 27.5 -103t78.5 -39q65 0 105.5 50.5t42.5 136.5v258h70v-303q0 -64 27.5 -103t77.5 -39q66 0 107.5 53.5t41.5 142.5v249h70v-500h-70v84q-22 -44 -63 -69t-93 -25q-56 0 -96.5 29.5t-58.5 82.5q-19 -52 -63 -82t-103 -30q-78 0 -124.5 54.5
t-46.5 142.5v313h70z" />
    <glyph glyph-name="_621" 
d="M5 -127v127h-30v66h98v-193h-68z" />
    <glyph glyph-name="uni0434.locl" horiz-adv-x="631" 
d="M302 -219q-98 0 -164 46.5t-78 121.5h69q35 -104 174 -104q77 0 124.5 50t47.5 140v59q-28 -42 -77 -68t-106 -26q-106 0 -176.5 73.5t-70.5 181.5t70.5 181.5t176.5 73.5q57 0 106 -26t77 -68v84h70v-469q0 -119 -67.5 -184.5t-175.5 -65.5zM299 65q81 0 131.5 54
t50.5 136t-50.5 136t-131.5 54t-131.5 -54t-50.5 -136t50.5 -136t131.5 -54z" />
    <glyph glyph-name="uni044E.locl" horiz-adv-x="799" 
d="M505 -10q-102 0 -171 66t-77 168h-101v-224h-70v750h70v-462h102q12 96 81 159t166 63q108 0 178.5 -74.5t70.5 -185.5t-70.5 -185.5t-178.5 -74.5zM505 56q78 0 127.5 55.5t49.5 138.5t-49.5 138.5t-127.5 55.5t-127.5 -55.5t-49.5 -138.5t49.5 -138.5t127.5 -55.5z" />
    <glyph glyph-name="uni043A.locl" horiz-adv-x="515" 
d="M424 0l-268 230v-230h-70v750h70v-478l238 228h92l-258 -246l296 -254h-100z" />
    <glyph glyph-name="uni0438.locl" horiz-adv-x="576" 
d="M261 -10q-81 0 -132 54t-51 143v313h70v-303q0 -65 34 -103.5t88 -38.5q65 0 107.5 53.5t42.5 142.5v249h70v-500h-70v84q-51 -94 -159 -94z" />
    <glyph glyph-name="_633" 
d="M-327 306v72h654v-72h-654z" />
    <glyph glyph-name="uni0446.locl" horiz-adv-x="613" 
d="M430 500h70v-396q0 -38 36 -38h39v-193h-68v127h-4q-68 0 -68 65v27q-51 -102 -169 -102q-83 0 -135.5 53t-52.5 144v313h70v-303q0 -65 34.5 -103.5t91.5 -38.5q67 0 109.5 49.5t46.5 137.5v258z" />
    <glyph glyph-name="uni044C.locl" horiz-adv-x="487" 
d="M269 -10h-5q-94 0 -139.5 44t-45.5 116v350h70v-190h120q93 0 139 -45.5t46 -114.5t-46 -114.5t-139 -45.5zM265 55q117 0 117 95q0 94 -114 94h-119v-93q0 -96 116 -96z" />
    <glyph glyph-name="uni0439.locl" horiz-adv-x="576" 
d="M261 -10q-81 0 -132 54t-51 143v313h70v-303q0 -65 34 -103.5t88 -38.5q65 0 107.5 53.5t42.5 142.5v249h70v-500h-70v84q-51 -94 -159 -94zM284 585q-66 0 -110 42t-44 112v11h61v-11q0 -49 26 -76.5t67 -27.5t67 27.5t26 76.5v11h61v-11q0 -70 -44 -112t-110 -42z" />
    <glyph glyph-name="uni0414.locl" horiz-adv-x="717" 
d="M18 -148v220h63l246 638h61l248 -638h63v-220h-74v148h-533v-148h-74zM356 589l-198 -517h398z" />
    <glyph glyph-name="_653" 
d="M34 500h-68v127h68v-127z" />
    <glyph glyph-name="_657" 
d="M-26 -148v148h-28v72h102v-220h-74z" />
    <glyph glyph-name="uni043B.locl" horiz-adv-x="539" 
d="M8 0l234 500h55l234 -500h-79l-183 397l-183 -397h-78z" />
    <glyph glyph-name="uni0436.locl" horiz-adv-x="764" 
d="M669 0l-252 229v-229h-70v229l-252 -229h-97l280 255l-244 245h90l223 -227v477h70v-477l223 227h90l-244 -245l280 -255h-97z" />
    <glyph glyph-name="_683" 
d="M-174 -64v64h349v-64h-349z" />
    <glyph glyph-name="_684" 
d="M-176 323v72h353v-72h-353z" />
    <glyph glyph-name="_693" 
d="M-204 221v62h409v-62h-409z" />
    </font>
</defs>
</svg>
