<?xml version="1.0" standalone="no"?>
<!DOCTYPE svg PUBLIC "-//W3C//DTD SVG 1.1//EN" "http://www.w3.org/Graphics/SVG/1.1/DTD/svg11.dtd" >
<svg xmlns="http://www.w3.org/2000/svg" xmlns:xlink="http://www.w3.org/1999/xlink" version="1.1">
<metadata>
Created by FontForge 20190801 at Mon Aug 27 12:42:19 2018
 By www-data
Copyright (c) 2018 by Swiss Typefaces. All rights reserved. |DCNT
</metadata>
<defs>
<font id="EuclidCircularAMedium" horiz-adv-x="0" >
  <font-face 
    font-family="EuclidCircularAMedium"
    font-weight="500"
    font-stretch="normal"
    units-per-em="1000"
    panose-1="2 11 6 4 0 0 0 0 0 0"
    ascent="732"
    descent="-268"
    x-height="500"
    cap-height="710"
    bbox="-366 -287 1377 1000"
    underline-thickness="90"
    underline-position="-358"
    unicode-range="U+0020-FEFF"
  />
<missing-glyph horiz-adv-x="664" 
d="M82 0v710h500v-710h-500zM321 355l-220 327v-654zM342 355l221 -327v654zM548 691h-432l216 -321zM332 339l-216 -320h432z" />
    <glyph glyph-name="uni0407_uni0407" unicode="&#x407;&#x407;" horiz-adv-x="583" 
d="M87 0v710h117v-710h-117zM378 0v710h117v-710h-117zM26 779q-28 0 -47.5 19.5t-19.5 46.5q0 28 19.5 47.5t47.5 19.5q27 0 46.5 -19.5t19.5 -47.5q0 -27 -19.5 -46.5t-46.5 -19.5zM288 779q-28 0 -47.5 19.5t-19.5 46.5q0 28 19.5 47.5t47.5 19.5q27 0 46.5 -19.5
t19.5 -47.5q0 -27 -19.5 -46.5t-46.5 -19.5zM550 779q-28 0 -47.5 19.5t-19.5 46.5q0 28 19.5 47.5t47.5 19.5q27 0 46.5 -19.5t19.5 -47.5q0 -27 -19.5 -46.5t-46.5 -19.5z" />
    <glyph glyph-name="uni0457_uni0457" unicode="&#x457;&#x457;" horiz-adv-x="517" 
d="M184 0h-110v500h110v-500zM442 0h-110v500h110v-500zM42 587q-28 0 -47.5 20t-19.5 48t19.5 47.5t47.5 19.5t48 -19.5t20 -47.5t-20 -48t-48 -20zM257 587q-28 0 -47.5 20t-19.5 48t19.5 47.5t47.5 19.5q29 0 48.5 -19.5t19.5 -47.5t-19.5 -48t-48.5 -20zM474 587
q-29 0 -48.5 20t-19.5 48t19.5 47.5t48.5 19.5q28 0 47.5 -19.5t19.5 -47.5t-19.5 -48t-47.5 -20z" />
    <glyph glyph-name="uni0457_uni0458" unicode="&#x457;&#x458;" horiz-adv-x="517" 
d="M184 0h-110v500h110v-500zM42 587q-28 0 -47.5 20t-19.5 48t19.5 47.5t47.5 19.5t48 -19.5t20 -47.5t-20 -48t-48 -20zM257 587q-28 0 -47.5 20t-19.5 48t19.5 47.5t47.5 19.5q29 0 48.5 -19.5t19.5 -47.5t-19.5 -48t-48.5 -20zM474 587q-29 0 -48.5 20t-19.5 48
t19.5 47.5t48.5 19.5q28 0 47.5 -19.5t19.5 -47.5t-19.5 -48t-47.5 -20zM442 500v-553q0 -80 -47 -123t-120 -43q-29 0 -48 3v96q14 -2 27 -2q78 0 78 85v537h110z" />
    <glyph glyph-name="_515" unicode="ff" horiz-adv-x="750" 
d="M121 0v402h-104v98h104v90q0 81 47.5 123.5t123.5 42.5q46 0 82 -12v-98q-16 10 -59 10q-44 0 -64 -19.5t-20 -65.5v-71h117v-98h-117v-402h-110zM483 0v402h-83v98h83v90q0 81 47.5 123.5t123.5 42.5q43 0 82 -12v-98q-23 10 -59 10q-44 0 -64 -19.5t-20 -65.5v-71h143
v-98h-143v-402h-110z" />
    <glyph glyph-name="f_i" unicode="fi" horiz-adv-x="646" 
d="M121 0v402h-104v98h104v84q0 81 48 126.5t123 45.5q46 0 82 -12v-98q-23 10 -59 10q-44 0 -64 -19.5t-20 -65.5v-71h143v-98h-143v-402h-110zM517 609q-30 0 -52 21.5t-22 52.5q0 30 22 51.5t52 21.5q31 0 52 -21.5t21 -51.5q0 -31 -21 -52.5t-52 -21.5zM462 0v500h110
v-500h-110z" />
    <glyph glyph-name="_519" unicode="ffi" horiz-adv-x="1009" 
d="M879 609q-30 0 -52 21.5t-22 52.5q0 30 22 51.5t52 21.5q31 0 52 -21.5t21 -51.5q0 -31 -21 -52.5t-52 -21.5zM824 0v500h110v-500h-110zM121 0v402h-104v98h104v90q0 81 47.5 123.5t123.5 42.5q46 0 82 -12v-98q-16 10 -59 10q-44 0 -64 -19.5t-20 -65.5v-71h117v-98
h-117v-402h-110zM483 0v402h-83v98h83v90q0 81 47.5 123.5t123.5 42.5q43 0 82 -12v-98q-23 10 -59 10q-44 0 -64 -19.5t-20 -65.5v-71h143v-98h-143v-402h-110z" />
    <glyph glyph-name="f_l" unicode="fl" horiz-adv-x="646" 
d="M121 0v402h-104v98h104v84q0 81 48 126.5t123 45.5q46 0 82 -12v-98q-23 10 -59 10q-44 0 -64 -19.5t-20 -65.5v-71h143v-98h-143v-402h-110zM462 0v750h110v-750h-110z" />
    <glyph glyph-name="_523" unicode="ffl" horiz-adv-x="1008" 
d="M824 0v750h110v-750h-110zM121 0v402h-104v98h104v90q0 81 47.5 123.5t123.5 42.5q46 0 82 -12v-98q-16 10 -59 10q-44 0 -64 -19.5t-20 -65.5v-71h117v-98h-117v-402h-110zM483 0v402h-83v98h83v90q0 81 47.5 123.5t123.5 42.5q43 0 82 -12v-98q-23 10 -59 10
q-44 0 -64 -19.5t-20 -65.5v-71h143v-98h-143v-402h-110z" />
    <glyph glyph-name="f_t" unicode="ft" horiz-adv-x="777" 
d="M121 0v402h-104v98h104v90q0 81 47.5 123.5t123.5 42.5q46 0 82 -12v-98q-23 10 -59 10q-44 0 -64 -19.5t-20 -65.5v-71h125v-98h-125v-402h-110zM664 -5q-75 0 -123 42.5t-48 123.5v241h-85v98h85v139h110v-139h143v-98h-143v-223q0 -46 20.5 -65t63.5 -19q35 0 59 9
v-98q-36 -11 -82 -11z" />
    <glyph glyph-name="t_t" unicode="tt" horiz-adv-x="775" 
d="M663 -5q-76 0 -123.5 42.5t-47.5 123.5v241h-88v98h88v139h110v-139h143v-98h-143v-223q0 -46 20 -65t64 -19q38 0 59 9v-98q-36 -11 -82 -11zM291 -5q-76 0 -123.5 42.5t-47.5 123.5v241h-104v98h104v139h110v-139h121v-98h-121v-223q0 -46 20 -65t64 -19q38 0 59 9v-98
q-36 -11 -82 -11z" />
    <glyph glyph-name=".notdef" horiz-adv-x="664" 
d="M82 0v710h500v-710h-500zM321 355l-220 327v-654zM342 355l221 -327v654zM548 691h-432l216 -321zM332 339l-216 -320h432z" />
    <glyph glyph-name=".null" 
 />
    <glyph glyph-name="nonmarkingreturn" horiz-adv-x="333" 
 />
    <glyph glyph-name="space" unicode=" " horiz-adv-x="235" 
 />
    <glyph glyph-name="exclam" unicode="!" horiz-adv-x="279" 
d="M105 238l-21 196v276h111v-276l-22 -196h-68zM139 -8q-35 0 -60.5 25.5t-25.5 61.5q0 35 25.5 61t60.5 26q36 0 61.5 -26t25.5 -61q0 -36 -25.5 -61.5t-61.5 -25.5z" />
    <glyph glyph-name="quotedbl" unicode="&#x22;" horiz-adv-x="423" 
d="M63 444v266h95v-266h-95zM265 444v266h95v-266h-95z" />
    <glyph glyph-name="numbersign" unicode="#" horiz-adv-x="732" 
d="M336 0l60 193h-163l-60 -193h-97l60 193h-103v88h131l47 152h-105v88h133l59 189h97l-59 -189h162l59 189h97l-59 -189h104v-88h-131l-48 -152h107v-88h-135l-60 -193h-96zM309 433l-48 -152h163l47 152h-162z" />
    <glyph glyph-name="dollar" unicode="$" horiz-adv-x="528" 
d="M239 -88v80q-84 9 -139 64.5t-57 146.5h110q10 -85 86 -103v212l-34 13q-160 61 -160 205q0 84 53.5 134.5t140.5 56.5v77h54v-79q76 -10 127 -61.5t51 -125.5h-110q-11 62 -68 79v-198l30 -12q82 -32 124 -83.5t42 -130.5q0 -90 -53 -140.5t-143 -55.5v-79h-54zM379 184
q0 68 -86 106v-193q38 5 62 28.5t24 58.5zM155 531q0 -62 84 -97v181q-38 -5 -61 -28t-23 -56z" />
    <glyph glyph-name="percent" unicode="%" horiz-adv-x="986" 
d="M326 0h-116l450 710h116zM759 -8q-82 0 -139.5 58t-57.5 139q0 82 57.5 139.5t139.5 57.5q81 0 139 -57.5t58 -139.5q0 -81 -58 -139t-139 -58zM759 88q42 0 70.5 29.5t28.5 71.5t-28.5 71.5t-70.5 29.5t-71.5 -30t-29.5 -71t29.5 -71t71.5 -30zM227 324q-82 0 -139.5 58
t-57.5 139q0 82 57.5 139.5t139.5 57.5q81 0 139 -57.5t58 -139.5q0 -81 -58 -139t-139 -58zM227 420q41 0 70.5 30t29.5 71t-29.5 71t-70.5 30q-42 0 -71 -29.5t-29 -71.5t29 -71.5t71 -29.5z" />
    <glyph glyph-name="ampersand" unicode="&#x26;" horiz-adv-x="757" 
d="M291 -10q-103 0 -164.5 59t-61.5 148q0 68 37.5 114t103.5 86q-81 81 -81 156q0 71 54.5 120t135.5 49q82 0 134 -50t52 -120q0 -60 -35 -100.5t-95 -72.5l135 -132l76 95h130l-134 -164l184 -178h-145l-104 101q-55 -58 -106.5 -84.5t-115.5 -26.5zM292 88q75 0 150 81
l-164 159q-104 -56 -104 -133q0 -51 35 -79t83 -28zM231 552q0 -9 1.5 -17t6 -16.5t7.5 -14t11.5 -14.5t13 -13.5l16 -16l16.5 -16.5l3 2q44 23 65 44.5t21 55.5q0 36 -22 59t-57 23q-34 0 -58 -21t-24 -55z" />
    <glyph glyph-name="quotesingle" unicode="'" horiz-adv-x="221" 
d="M63 444v266h95v-266h-95z" />
    <glyph glyph-name="parenleft" unicode="(" horiz-adv-x="286" 
d="M260 -160h-89q-128 233 -128 480t128 480h89q-121 -235 -121 -480t121 -480z" />
    <glyph glyph-name="parenright" unicode=")" horiz-adv-x="286" 
d="M115 -160h-89q121 235 121 480t-121 480h89q128 -233 128 -480t-128 -480z" />
    <glyph glyph-name="asterisk" unicode="*" horiz-adv-x="465" 
d="M150 340l-64 46l81 111l-131 44l23 77l133 -43v135h80v-135l133 43l24 -77l-132 -43l82 -112l-64 -46l-82 111z" />
    <glyph glyph-name="plus" unicode="+" horiz-adv-x="496" 
d="M37 241v97h162v162h98v-162h162v-97h-162v-162h-98v162h-162z" />
    <glyph glyph-name="comma" unicode="," horiz-adv-x="268" 
d="M203 25l-107 -172h-68l69 147q-21 9 -35 30.5t-14 48.5q0 36 25 61.5t61 25.5t61 -25.5t25 -61.5q0 -29 -17 -54z" />
    <glyph glyph-name="hyphen" unicode="-" horiz-adv-x="392" 
d="M62 226v108h269v-108h-269z" />
    <glyph glyph-name="period" unicode="." horiz-adv-x="265" 
d="M132 -8q-35 0 -60.5 25.5t-25.5 61.5q0 35 25.5 61t60.5 26q36 0 61.5 -26t25.5 -61q0 -36 -25.5 -61.5t-61.5 -25.5z" />
    <glyph glyph-name="slash" unicode="/" horiz-adv-x="526" 
d="M20 -110l386 820h101l-386 -820h-101z" />
    <glyph glyph-name="zero" unicode="0" horiz-adv-x="626" 
d="M313 -10q-113 0 -185 76.5t-72 196.5v186q0 120 72 196.5t185 76.5t185.5 -76.5t72.5 -196.5v-186q0 -120 -72.5 -196.5t-185.5 -76.5zM313 98q67 0 107.5 44t40.5 121v186q0 77 -40.5 121t-107.5 44q-66 0 -106.5 -44t-40.5 -121v-186q0 -77 40.5 -121t106.5 -44z" />
    <glyph glyph-name="one" unicode="1" horiz-adv-x="346" 
d="M148 0v601h-143l84 109h169v-710h-110z" />
    <glyph glyph-name="two" unicode="2" horiz-adv-x="565" 
d="M516 108v-108h-470v40q0 38 11.5 72.5t24.5 57.5t43 51.5t46 41t56.5 41.5t51.5 37q63 46 91 81t28 84t-30 78.5t-83 29.5q-55 0 -91 -32.5t-37 -88.5h-111q0 101 68.5 165t171.5 64q95 0 159 -56t64 -157q0 -80 -36.5 -134.5t-120.5 -114.5q-13 -10 -48 -34t-51.5 -37
t-35.5 -35.5t-26 -45.5h325z" />
    <glyph glyph-name="three" unicode="3" horiz-adv-x="584" 
d="M298 -10q-107 0 -181.5 64t-76.5 169h110q4 -57 45.5 -91t102.5 -34q55 0 90.5 29t36.5 80q0 56 -36.5 84.5t-100.5 28.5h-56v94h56q53 0 84.5 28t32.5 73q0 44 -32 71.5t-79 27.5q-56 0 -93 -32.5t-37 -88.5h-111q0 104 70.5 166.5t170.5 62.5q99 0 160.5 -56t61.5 -144
q0 -49 -25 -90.5t-62 -63.5q49 -21 78 -65t29 -103q0 -93 -66.5 -151.5t-171.5 -58.5z" />
    <glyph glyph-name="four" unicode="4" horiz-adv-x="626" 
d="M384 0v178h-367v89l379 443h98v-430h95v-102h-95v-178h-110zM155 280h229v266z" />
    <glyph glyph-name="five" unicode="5" horiz-adv-x="563" 
d="M279 -10q-97 0 -170 61t-75 148h113q11 -45 47.5 -73t84.5 -28q59 0 96 38.5t37 93.5q0 57 -36.5 94.5t-93.5 37.5q-86 0 -124 -73l-99 31l76 390h338v-107h-252l-33 -170q44 31 111 31q100 0 162 -69t62 -176q0 -100 -68.5 -164.5t-175.5 -64.5z" />
    <glyph glyph-name="six" unicode="6" horiz-adv-x="564" 
d="M279 -10q-107 0 -175 68.5t-68 170.5q0 49 19.5 90t60.5 94l237 297h138l-200 -252h11q87 0 154 -65.5t67 -162.5q0 -103 -68.5 -171.5t-175.5 -68.5zM279 96q57 0 95 38.5t38 94.5q0 55 -38.5 94t-94.5 39t-94 -39t-38 -94q0 -56 37.5 -94.5t94.5 -38.5z" />
    <glyph glyph-name="seven" unicode="7" horiz-adv-x="525" 
d="M178 0h-124l326 603h-349v107h480v-94z" />
    <glyph glyph-name="eight" unicode="8" horiz-adv-x="579" 
d="M289 -10q-106 0 -175 63.5t-69 161.5q0 124 101 179q-66 51 -66 141q0 81 58.5 134t150.5 53q93 0 151.5 -52.5t58.5 -134.5q0 -90 -66 -141q101 -55 101 -179q0 -99 -68.5 -162t-176.5 -63zM289 93q61 0 97 36t36 88q0 53 -36 88.5t-96 35.5q-61 0 -97 -35.5t-36 -88.5
q0 -52 36.5 -88t95.5 -36zM289 434q46 0 74.5 27.5t28.5 66.5q0 41 -28 67.5t-75 26.5q-45 0 -73.5 -27t-28.5 -67q0 -39 29 -66.5t73 -27.5z" />
    <glyph glyph-name="nine" unicode="9" horiz-adv-x="564" 
d="M72 0l202 254h-11q-87 0 -154.5 65.5t-67.5 162.5q0 102 68.5 171t175.5 69t175.5 -69t68.5 -170q0 -51 -19.5 -91t-61.5 -94l-238 -298h-138zM285 349q57 0 94.5 38.5t37.5 95.5q0 55 -38 94t-94 39t-94 -39t-38 -94q0 -57 37.5 -95.5t94.5 -38.5z" />
    <glyph glyph-name="colon" unicode=":" horiz-adv-x="286" 
d="M143 338q-35 0 -60.5 25.5t-25.5 61.5q0 35 25.5 61t60.5 26q36 0 61.5 -26t25.5 -61q0 -36 -25.5 -61.5t-61.5 -25.5zM143 -8q-35 0 -60.5 25.5t-25.5 61.5q0 35 25.5 61t60.5 26q36 0 61.5 -26t25.5 -61q0 -36 -25.5 -61.5t-61.5 -25.5z" />
    <glyph glyph-name="semicolon" unicode=";" horiz-adv-x="293" 
d="M217 25l-107 -172h-68l69 147q-21 9 -35 30.5t-14 48.5q0 36 25 61.5t61 25.5t61 -25.5t25 -61.5q0 -29 -17 -54zM147 338q-35 0 -60.5 25.5t-25.5 61.5q0 35 25.5 61t60.5 26q36 0 61.5 -26t25.5 -61q0 -36 -25.5 -61.5t-61.5 -25.5z" />
    <glyph glyph-name="less" unicode="&#x3c;" horiz-adv-x="451" 
d="M420 543l-253 -253l253 -253h-138l-253 253l253 253h138z" />
    <glyph glyph-name="equal" unicode="=" horiz-adv-x="551" 
d="M65 135v96h422v-96h-422zM65 348v97h422v-97h-422z" />
    <glyph glyph-name="greater" unicode="&#x3e;" horiz-adv-x="451" 
d="M284 290l-253 253h138l253 -253l-253 -253h-138z" />
    <glyph glyph-name="question" unicode="?" horiz-adv-x="512" 
d="M179 246v19q0 69 89 132q3 2 17.5 13t18 13.5t15 11.5t14.5 13.5t10 13.5t9 16t4.5 16.5t2.5 19.5q0 44 -29 72t-74 28q-49 0 -82 -31t-33 -81h-110q0 91 65 155.5t160 64.5q93 0 153 -60t60 -144q0 -102 -98 -177q-59 -44 -71 -61q-11 -15 -11 -29v-5h-110zM233 -8
q-35 0 -60.5 25.5t-25.5 61.5q0 35 25.5 61t60.5 26q36 0 61.5 -26t25.5 -61q0 -36 -25.5 -61.5t-61.5 -25.5z" />
    <glyph glyph-name="at" unicode="@" horiz-adv-x="808" 
d="M393 -10q-158 0 -253.5 99t-95.5 248q0 111 54.5 200t143 137t190.5 48q149 0 245.5 -87t96.5 -229q0 -122 -52 -185t-129 -63q-75 0 -106 56q-44 -54 -126 -54q-68 0 -111.5 48t-43.5 124q0 92 58.5 155.5t142.5 63.5q41 0 69.5 -19t41.5 -47l10 56h87l-48 -230
q-8 -33 -0.5 -56t37.5 -23q94 0 94 176q0 112 -76 177.5t-191 65.5q-128 0 -219 -86t-91 -228q0 -124 73.5 -200.5t198.5 -76.5q104 0 181 38v-77q-87 -31 -181 -31zM377 239q44 0 75.5 28.5t39.5 74.5q11 55 -12 92t-68 37q-44 0 -75.5 -28.5t-39.5 -74.5q-11 -55 12 -92
t68 -37z" />
    <glyph glyph-name="A" unicode="A" horiz-adv-x="730" 
d="M4 0l310 710h102l310 -710h-122l-81 186h-318l-80 -186h-121zM364 552l-114 -262h228z" />
    <glyph glyph-name="B" unicode="B" horiz-adv-x="631" 
d="M87 0v710h245q93 0 152.5 -57t59.5 -139q0 -88 -66 -137q114 -47 114 -169q0 -89 -64.5 -148.5t-164.5 -59.5h-276zM204 107h156q56 0 87 28t31 74q0 45 -31 73.5t-87 28.5h-156v-204zM204 411h122q47 0 75 27t28 69q0 40 -28 68t-75 28h-122v-192z" />
    <glyph glyph-name="C" unicode="C" horiz-adv-x="785" 
d="M412 -12q-159 0 -264.5 105.5t-105.5 261.5t105.5 261.5t264.5 105.5q126 0 220.5 -71.5t121.5 -178.5h-126q-23 61 -82 99t-134 38q-110 0 -181 -73t-71 -181t71 -181t181 -73q75 0 134 38t82 99h126q-27 -107 -121.5 -178.5t-220.5 -71.5z" />
    <glyph glyph-name="D" unicode="D" horiz-adv-x="719" 
d="M87 0v710h218q158 0 265 -102t107 -253t-107 -253t-265 -102h-218zM204 109h101q112 0 182.5 70t70.5 176t-70.5 176t-182.5 70h-101v-492z" />
    <glyph glyph-name="E" unicode="E" horiz-adv-x="562" 
d="M87 0v710h427v-112h-310v-182h250v-112h-250v-192h310v-112h-427z" />
    <glyph glyph-name="F" unicode="F" horiz-adv-x="536" 
d="M87 0v710h422v-112h-305v-183h240v-111h-240v-304h-117z" />
    <glyph glyph-name="G" unicode="G" horiz-adv-x="811" 
d="M413 -12q-159 0 -265 105.5t-106 261.5t105.5 261.5t264.5 105.5q117 0 209 -63t127 -159h-133q-28 49 -82.5 79t-120.5 30q-110 0 -181 -73t-71 -181t71 -181t182 -73q97 0 159 56t74 148h-243v110h363q19 -198 -84.5 -312.5t-268.5 -114.5z" />
    <glyph glyph-name="H" unicode="H" horiz-adv-x="760" 
d="M87 0v710h117v-294h351v294h117v-710h-117v305h-351v-305h-117z" />
    <glyph glyph-name="I" unicode="I" horiz-adv-x="291" 
d="M87 0v710h117v-710h-117z" />
    <glyph glyph-name="J" unicode="J" horiz-adv-x="537" 
d="M239 -12q-93 0 -155.5 54.5t-62.5 154.5h116q0 -47 30 -73.5t72 -26.5q43 0 71.5 27t28.5 81v505h117v-515q0 -104 -61.5 -155.5t-155.5 -51.5z" />
    <glyph glyph-name="K" unicode="K" horiz-adv-x="682" 
d="M548 0l-345 332v-332h-116v710h116v-306l285 306h148l-316 -340l386 -370h-158z" />
    <glyph glyph-name="L" unicode="L" horiz-adv-x="549" 
d="M87 0v710h117v-598h325v-112h-442z" />
    <glyph glyph-name="M" unicode="M" horiz-adv-x="885" 
d="M87 710h107l248 -336l249 336h107v-710h-118v509l-237 -322l-239 323v-510h-117v710z" />
    <glyph glyph-name="N" unicode="N" horiz-adv-x="793" 
d="M706 0h-102l-400 511v-511h-117v710h102l399 -510v510h118v-710z" />
    <glyph glyph-name="O" unicode="O" horiz-adv-x="817" 
d="M409 101q104 0 176 74t72 180t-72 180t-176 74q-105 0 -177 -74t-72 -180t72 -180t177 -74zM409 -12q-153 0 -260 106.5t-107 260.5t107 260.5t260 106.5t260 -107t107 -260t-107 -260t-260 -107z" />
    <glyph glyph-name="P" unicode="P" horiz-adv-x="588" 
d="M559 478q0 -99 -69 -165.5t-177 -66.5h-109v-246h-117v710h226q108 0 177 -66.5t69 -165.5zM444 478q0 53 -35.5 87.5t-96.5 34.5h-108v-244h108q61 0 96.5 34.5t35.5 87.5z" />
    <glyph glyph-name="Q" unicode="Q" horiz-adv-x="839" 
d="M409 -12q-153 0 -260 106.5t-107 260.5t107 260.5t260 106.5t260 -107t107 -260q0 -120 -70 -217l158 -138h-163l-71 61q-95 -73 -221 -73zM409 101q71 0 133 38l-110 97l70 81l115 -101q40 64 40 139q0 106 -72 180t-176 74q-105 0 -177 -74t-72 -180t72 -180t177 -74z
" />
    <glyph glyph-name="R" unicode="R" horiz-adv-x="645" 
d="M87 0v710h256q98 0 156.5 -56.5t58.5 -145.5q0 -75 -41.5 -123.5t-119.5 -65.5l264 -319h-144l-260 312h-53v-312h-117zM204 414h125q52 0 82 24.5t30 69.5t-30 69.5t-82 24.5h-125v-188z" />
    <glyph glyph-name="S" unicode="S" horiz-adv-x="577" 
d="M298 -12q-114 0 -184.5 63.5t-74.5 152.5h117q6 -51 47.5 -79t93.5 -28t85.5 24.5t33.5 65.5q0 72 -98 104l-87 29q-174 55 -174 205q0 91 62.5 144t163.5 53q105 0 167 -60.5t69 -142.5h-117q-11 47 -45 70.5t-76 23.5q-46 0 -76 -22.5t-31 -59.5q0 -38 23 -61.5
t73 -39.5l88 -28q176 -57 176 -211q0 -90 -65.5 -146.5t-170.5 -56.5z" />
    <glyph glyph-name="T" unicode="T" horiz-adv-x="567" 
d="M225 0v598h-206v112h530v-112h-207v-598h-117z" />
    <glyph glyph-name="U" unicode="U" horiz-adv-x="723" 
d="M362 -12q-127 0 -205 79t-78 211v432h117v-434q0 -83 45 -129t121 -46t120.5 46t44.5 129v434h117v-432q0 -131 -79 -210.5t-203 -79.5z" />
    <glyph glyph-name="V" unicode="V" horiz-adv-x="710" 
d="M304 0l-298 710h128l221 -531l220 531h129l-298 -710h-102z" />
    <glyph glyph-name="W" unicode="W" horiz-adv-x="953" 
d="M642 0l-165 434l-165 -434h-108l-183 710h123l129 -516l204 528l203 -528l130 516h124l-184 -710h-108z" />
    <glyph glyph-name="X" unicode="X" horiz-adv-x="683" 
d="M140 0h-141l271 360l-258 350h138l191 -259l192 259h138l-258 -351l271 -359h-140l-202 266z" />
    <glyph glyph-name="Y" unicode="Y" horiz-adv-x="681" 
d="M282 0v300l-269 410h137l190 -294l191 294h138l-270 -411v-299h-117z" />
    <glyph glyph-name="Z" unicode="Z" horiz-adv-x="602" 
d="M36 0v79l362 519h-353v112h512v-79l-364 -519h372v-112h-529z" />
    <glyph glyph-name="bracketleft" unicode="[" horiz-adv-x="314" 
d="M85 -160v960h202v-85h-107v-790h107v-85h-202z" />
    <glyph glyph-name="backslash" unicode="\" horiz-adv-x="526" 
d="M120 710l386 -820h-101l-386 820h101z" />
    <glyph glyph-name="bracketright" unicode="]" horiz-adv-x="314" 
d="M229 800v-960h-202v85h107v790h-107v85h202z" />
    <glyph glyph-name="asciicircum" unicode="^" horiz-adv-x="379" 
d="M123 500h-76l117 210h52l116 -210h-75l-68 119z" />
    <glyph glyph-name="underscore" unicode="_" horiz-adv-x="524" 
d="M48 -88v88h428v-88h-428z" />
    <glyph glyph-name="grave" unicode="`" 
d="M32 560l-148 190h133l100 -190h-85z" />
    <glyph glyph-name="a" unicode="a" horiz-adv-x="624" 
d="M279 -10q-102 0 -171.5 76t-69.5 184t69.5 184t171.5 76q51 0 94 -22.5t66 -54.5v67h110v-500h-110v67q-23 -32 -66 -54.5t-94 -22.5zM299 90q65 0 107 46t42 114t-42 114t-107 46t-107 -46t-42 -114t42 -114t107 -46z" />
    <glyph glyph-name="b" unicode="b" horiz-adv-x="624" 
d="M345 -10q-51 0 -94.5 22.5t-66.5 54.5v-67h-110v750h110v-317q23 32 66.5 54.5t94.5 22.5q102 0 171.5 -76t69.5 -184t-69.5 -184t-171.5 -76zM325 90q65 0 107 46t42 114t-42 114t-107 46q-66 0 -108 -46t-42 -114t42 -114t108 -46z" />
    <glyph glyph-name="c" unicode="c" horiz-adv-x="584" 
d="M300 -10q-113 0 -187.5 75.5t-74.5 184.5t74.5 184.5t187.5 75.5q97 0 165.5 -54t88.5 -139h-116q-15 42 -51.5 67.5t-86.5 25.5q-66 0 -108 -45t-42 -115t42 -115t108 -45q50 0 86.5 25.5t51.5 67.5h116q-20 -85 -88.5 -139t-165.5 -54z" />
    <glyph glyph-name="d" unicode="d" horiz-adv-x="624" 
d="M279 -10q-102 0 -171.5 76t-69.5 184t69.5 184t171.5 76q51 0 94 -22.5t66 -54.5v317h110v-750h-110v67q-23 -32 -66 -54.5t-94 -22.5zM299 90q65 0 107 46t42 114t-42 114t-107 46t-107 -46t-42 -114t42 -114t107 -46z" />
    <glyph glyph-name="e" unicode="e" horiz-adv-x="585" 
d="M295 -10q-112 0 -184 73.5t-72 186.5t71 186.5t186 73.5q116 0 187 -80.5t63 -206.5h-398q2 -58 44 -97t107 -39q92 0 126 70h115q-23 -73 -88 -120t-157 -47zM293 418q-54 0 -92.5 -30.5t-49.5 -86.5h277q-12 58 -49 87.5t-86 29.5z" />
    <glyph glyph-name="f" unicode="f" horiz-adv-x="388" 
d="M121 0v402h-104v98h104v84q0 81 48 126.5t123 45.5q46 0 82 -12v-98q-23 10 -59 10q-44 0 -64 -19.5t-20 -65.5v-71h143v-98h-143v-402h-110z" />
    <glyph glyph-name="g" unicode="g" horiz-adv-x="623" 
d="M300 -219q-102 0 -167.5 50t-75.5 130h108q29 -86 138 -86q59 0 97.5 38.5t38.5 108.5v59q-24 -34 -67 -56t-93 -22q-101 0 -170.5 73.5t-69.5 180.5q0 106 69.5 179.5t170.5 73.5q50 0 93 -21.5t67 -55.5v67h110v-469q0 -124 -70.5 -187t-178.5 -63zM299 104
q63 0 106 43.5t43 109.5t-43 109.5t-106 43.5t-106 -43.5t-43 -109.5t43 -109.5t106 -43.5z" />
    <glyph glyph-name="h" unicode="h" horiz-adv-x="594" 
d="M184 0h-110v750h110v-318q47 78 152 78q87 0 139 -57t52 -152v-301h-110v283q0 60 -28 93.5t-76 33.5q-57 0 -93 -43t-36 -121v-246z" />
    <glyph glyph-name="i" unicode="i" horiz-adv-x="258" 
d="M129 609q-30 0 -52 21.5t-22 52.5q0 30 22 51.5t52 21.5q31 0 52 -21.5t21 -51.5q0 -31 -21 -52.5t-52 -21.5zM74 0v500h110v-500h-110z" />
    <glyph glyph-name="j" unicode="j" horiz-adv-x="266" 
d="M192 500v-553q0 -80 -47.5 -123t-120.5 -43q-28 0 -47 3v96q14 -2 27 -2q78 0 78 85v537h110zM137 609q-30 0 -52 21.5t-22 52.5q0 30 22 51.5t52 21.5q31 0 52 -21.5t21 -51.5q0 -31 -21 -52.5t-52 -21.5z" />
    <glyph glyph-name="k" unicode="k" horiz-adv-x="547" 
d="M423 0l-239 241v-241h-110v750h110v-440l191 190h139l-223 -223l273 -277h-141z" />
    <glyph glyph-name="l" unicode="l" horiz-adv-x="258" 
d="M74 0v750h110v-750h-110z" />
    <glyph glyph-name="m" unicode="m" horiz-adv-x="888" 
d="M711 0v281q0 61 -22.5 95t-66.5 34q-53 0 -85 -41t-34 -115v-254h-110v281q0 61 -22.5 95t-66.5 34q-55 0 -87.5 -43t-32.5 -121v-246h-110v500h110v-68q46 78 142 78q113 0 155 -99q21 47 64.5 73t95.5 26q84 0 132 -57t48 -154v-299h-110z" />
    <glyph glyph-name="n" unicode="n" horiz-adv-x="594" 
d="M74 0v500h110v-68q47 78 152 78q87 0 139 -57t52 -152v-301h-110v283q0 60 -28 93.5t-76 33.5q-57 0 -93 -43t-36 -121v-246h-110z" />
    <glyph glyph-name="o" unicode="o" horiz-adv-x="599" 
d="M300 -10q-111 0 -186.5 75.5t-75.5 184.5t75.5 184.5t186.5 75.5t186.5 -75.5t75.5 -184.5t-75.5 -184.5t-186.5 -75.5zM300 92q65 0 107.5 45.5t42.5 112.5t-42.5 112.5t-107.5 45.5q-66 0 -108.5 -45.5t-42.5 -112.5t42.5 -112.5t108.5 -45.5z" />
    <glyph glyph-name="p" unicode="p" horiz-adv-x="624" 
d="M184 -209h-110v709h110v-67q23 32 66.5 54.5t94.5 22.5q102 0 171.5 -76t69.5 -184t-69.5 -184t-171.5 -76q-51 0 -94.5 22.5t-66.5 54.5v-276zM325 90q65 0 107 46t42 114t-42 114t-107 46q-66 0 -108 -46t-42 -114t42 -114t108 -46z" />
    <glyph glyph-name="q" unicode="q" horiz-adv-x="624" 
d="M549 -209h-110v276q-23 -32 -66 -54.5t-94 -22.5q-102 0 -171.5 76t-69.5 184t69.5 184t171.5 76q51 0 94 -22.5t66 -54.5v67h110v-709zM299 90q65 0 107 46t42 114t-42 114t-107 46t-107 -46t-42 -114t42 -114t107 -46z" />
    <glyph glyph-name="r" unicode="r" horiz-adv-x="380" 
d="M74 0v500h110v-89q14 42 51.5 68t80.5 26q26 0 43 -4v-113q-24 9 -55 9q-50 0 -85 -40.5t-35 -112.5v-244h-110z" />
    <glyph glyph-name="s" unicode="s" horiz-adv-x="483" 
d="M250 -10q-89 0 -149.5 44t-64.5 118h114q12 -74 103 -74q37 0 59 13.5t22 39.5t-17 41t-57 25l-82 22q-128 34 -128 151q0 63 51 101.5t135 38.5q81 0 133 -41t58 -109h-110q-16 62 -82 62q-33 0 -53 -13.5t-20 -37.5q0 -43 67 -60l84 -22q133 -34 133 -151
q0 -71 -54.5 -109.5t-141.5 -38.5z" />
    <glyph glyph-name="t" unicode="t" horiz-adv-x="403" 
d="M291 -5q-76 0 -123.5 42.5t-47.5 123.5v241h-104v98h104v139h110v-139h143v-98h-143v-223q0 -46 20 -65.5t64 -19.5q36 0 59 10v-98q-36 -11 -82 -11z" />
    <glyph glyph-name="u" unicode="u" horiz-adv-x="583" 
d="M253 -10q-86 0 -136 57.5t-50 153.5v299h110v-281q0 -60 26 -94.5t74 -34.5q56 0 89 42.5t33 121.5v246h110v-500h-110v68q-44 -78 -146 -78z" />
    <glyph glyph-name="v" unicode="v" horiz-adv-x="557" 
d="M230 0l-226 500h122l152 -351l153 351h123l-227 -500h-97z" />
    <glyph glyph-name="w" unicode="w" horiz-adv-x="780" 
d="M500 0l-110 323l-109 -323h-104l-168 500h116l108 -345l115 345h84l113 -345l110 345h117l-168 -500h-104z" />
    <glyph glyph-name="x" unicode="x" horiz-adv-x="547" 
d="M409 0l-135 169l-135 -169h-134l199 249l-188 251h131l126 -168l126 168h132l-188 -251l199 -249h-133z" />
    <glyph glyph-name="y" unicode="y" horiz-adv-x="558" 
d="M234 -209h-121l107 236l-215 473h121l153 -354l154 354h122z" />
    <glyph glyph-name="z" unicode="z" horiz-adv-x="490" 
d="M40 0v87l262 313h-258v100h400v-88l-262 -312h270v-100h-412z" />
    <glyph glyph-name="braceleft" unicode="{" horiz-adv-x="327" 
d="M301 -160h-71q-132 0 -132 143v229q0 33 -12 49t-44 16h-13v85h13q32 0 44 16t12 48v231q0 143 132 143h71v-85h-48q-34 0 -46.5 -15t-12.5 -52v-222q0 -84 -58 -106q58 -24 58 -108v-220q0 -37 12.5 -52t46.5 -15h48v-85z" />
    <glyph glyph-name="bar" unicode="|" horiz-adv-x="264" 
d="M84 -110v820h96v-820h-96z" />
    <glyph glyph-name="braceright" unicode="}" horiz-adv-x="327" 
d="M97 -160h-71v85h48q34 0 46.5 15t12.5 52v220q0 84 58 108q-58 22 -58 106v222q0 37 -12.5 52t-46.5 15h-48v85h71q132 0 132 -143v-231q0 -32 12 -48t44 -16h13v-85h-13q-32 0 -44 -16t-12 -49v-229q0 -143 -132 -143z" />
    <glyph glyph-name="asciitilde" unicode="~" horiz-adv-x="381" 
d="M64 230l55 119h46l60 -55l25 55h70l-55 -119h-46l-62 54l-24 -54h-69z" />
    <glyph glyph-name="uni00A0" unicode="&#xa0;" horiz-adv-x="235" 
 />
    <glyph glyph-name="exclamdown" unicode="&#xa1;" horiz-adv-x="267" 
d="M167 264l22 -196v-277h-111v277l21 196h68zM133 338q-35 0 -60.5 25.5t-25.5 61.5q0 35 25.5 61t60.5 26q36 0 61.5 -26t25.5 -61q0 -36 -25.5 -61.5t-61.5 -25.5z" />
    <glyph glyph-name="cent" unicode="&#xa2;" horiz-adv-x="591" 
d="M276 -88v80q-103 8 -169 82t-66 176t66 175t169 83v80h54v-80q88 -8 148 -60t79 -131h-116q-32 78 -111 91v-316q79 13 111 91h116q-18 -79 -79 -131t-148 -60v-80h-54zM153 250q0 -63 33.5 -106t89.5 -52v316q-56 -9 -89.5 -52t-33.5 -106z" />
    <glyph glyph-name="sterling" unicode="&#xa3;" horiz-adv-x="575" 
d="M49 333v56h66q-23 73 -23 124q0 84 61 146.5t156 62.5t157.5 -65.5t64.5 -156.5h-110q0 47 -31.5 80.5t-80.5 33.5q-47 0 -77 -29.5t-30 -77.5q0 -49 26 -118h182v-56h-163q21 -65 21 -114q0 -58 -32 -111h295v-108h-482v108h76q34 47 34 106q0 44 -26 119h-84z" />
    <glyph glyph-name="yen" unicode="&#xa5;" horiz-adv-x="696" 
d="M82 299v55h176l-230 356h133l187 -300l186 300h134l-230 -356h176v-55h-211v-75h211v-55h-211v-169h-110v169h-211v55h211v75h-211z" />
    <glyph glyph-name="brokenbar" unicode="&#xa6;" horiz-adv-x="264" 
d="M84 -110v355h96v-355h-96zM84 355v355h96v-355h-96z" />
    <glyph glyph-name="section" unicode="&#xa7;" horiz-adv-x="456" 
d="M238 -219q-69 0 -119 37t-58 115h97q12 -68 80 -68q30 0 50.5 18.5t19.5 52.5q-1 68 -89 116l-60 32q-108 58 -108 164q0 108 95 163q-93 63 -93 160q0 68 44.5 109.5t114.5 41.5q68 0 115 -36.5t55 -115.5h-96q-14 68 -72 68q-30 0 -47 -17.5t-17 -49.5q0 -34 20.5 -57
t66.5 -49l60 -32q110 -57 110 -164t-97 -164q92 -65 94 -169q0 -70 -47 -112.5t-119 -42.5zM147 256q0 -62 72 -99l5 -3q86 42 86 107q0 61 -72 99l-4 2q-43 -21 -65 -45t-22 -61z" />
    <glyph glyph-name="dieresis" unicode="&#xa8;" 
d="M-114 587q-28 0 -47.5 19.5t-19.5 46.5q0 28 19.5 47.5t47.5 19.5q27 0 46 -19.5t19 -47.5q0 -27 -19 -46.5t-46 -19.5zM115 587q-27 0 -46.5 19.5t-19.5 46.5q0 28 19.5 47.5t46.5 19.5q28 0 47 -19.5t19 -47.5q0 -27 -19 -46.5t-47 -19.5z" />
    <glyph glyph-name="copyright" unicode="&#xa9;" horiz-adv-x="816" 
d="M412 163q-84 0 -139.5 55t-55.5 137t55.5 137.5t139.5 55.5q63 0 114 -37.5t67 -96.5h-84q-12 27 -38 43t-59 16q-53 0 -85.5 -33.5t-32.5 -84.5t32.5 -84.5t85.5 -33.5q33 0 59 16t38 43h84q-16 -59 -66.5 -96t-114.5 -37zM408 65q119 0 204.5 85t85.5 205t-85.5 205
t-204.5 85t-204.5 -85t-85.5 -205t85.5 -205t204.5 -85zM408 -12q-151 0 -259 108t-108 259t108 259t259 108q152 0 259.5 -108t107.5 -259t-107.5 -259t-259.5 -108z" />
    <glyph glyph-name="ordfeminine" unicode="&#xaa;" horiz-adv-x="413" 
d="M180 404q-59 0 -100 46t-41 110t41 110t100 46q55 0 86 -39v33h83v-300h-83v33q-31 -39 -86 -39zM198 479q33 0 54 23t21 58t-21 58t-54 23q-35 0 -55.5 -22.5t-20.5 -58.5t20.5 -58.5t55.5 -22.5z" />
    <glyph glyph-name="guillemotleft" unicode="&#xab;" horiz-adv-x="500" 
d="M223 250l141 217h95l-116 -217l116 -217h-95zM36 250l141 217h95l-116 -217l116 -217h-95z" />
    <glyph glyph-name="uni00AD" unicode="&#xad;" horiz-adv-x="392" 
d="M62 226v108h269v-108h-269z" />
    <glyph glyph-name="registered" unicode="&#xae;" horiz-adv-x="816" 
d="M408 -12q-151 0 -259 108t-108 259t108 259t259 108q152 0 259.5 -108t107.5 -259t-107.5 -259t-259.5 -108zM408 65q119 0 204.5 85t85.5 205t-85.5 205t-204.5 85t-204.5 -85t-85.5 -205t85.5 -205t204.5 -85zM286 169v372h143q53 0 84 -31t31 -79q0 -73 -77 -97
l134 -165h-92l-127 156h-18v-156h-78zM364 391h57q21 0 34 11t13 29t-13 28.5t-34 10.5h-57v-79z" />
    <glyph glyph-name="macron" unicode="&#xaf;" 
d="M-166 628v82h332v-82h-332z" />
    <glyph glyph-name="degree" unicode="&#xb0;" horiz-adv-x="360" 
d="M180 508q27 0 46 19t19 46q0 26 -19 45.5t-46 19.5t-46 -19t-19 -46t18.5 -46t46.5 -19zM180 432q-58 0 -99.5 41t-41.5 100t41.5 100t99.5 41t99.5 -41t41.5 -100t-41.5 -100t-99.5 -41z" />
    <glyph glyph-name="twosuperior" unicode="&#xb2;" horiz-adv-x="354" 
d="M322 491v-81h-293v28q0 18 4 34.5t8 28.5t15.5 26.5t17 21.5t23 21t22.5 17.5t25.5 18t23.5 16.5q34 23 51 44t17 48q0 24 -15.5 38.5t-42.5 14.5q-29 0 -47 -17t-18 -44h-83q0 63 43 103t107 40q58 0 98.5 -35t40.5 -98q0 -52 -22.5 -85.5t-68.5 -66.5q-6 -4 -23 -15.5
t-26.5 -18.5t-20.5 -18t-15 -21h179z" />
    <glyph glyph-name="threesuperior" unicode="&#xb3;" horiz-adv-x="365" 
d="M186 404q-65 0 -112 39t-49 107h82q8 -65 79 -65q30 0 48 14.5t18 40.5q0 27 -19.5 42.5t-52.5 15.5h-36v67h34q29 0 45 14t16 38q1 23 -15 36.5t-41 13.5q-29 0 -48 -17t-19 -44h-82q0 65 44.5 104t105.5 39q64 0 101.5 -36t37.5 -89q-1 -60 -48 -93q26 -12 43 -37.5
t17 -60.5q0 -57 -41.5 -93t-107.5 -36z" />
    <glyph glyph-name="acute" unicode="&#xb4;" 
d="M-117 560l100 190h133l-148 -190h-85z" />
    <glyph glyph-name="paragraph" unicode="&#xb6;" horiz-adv-x="643" 
d="M253 -184v444q-93 0 -159 66t-66 159t66 159t159 66h292v-894h-96v796h-99v-796h-97z" />
    <glyph glyph-name="periodcentered" unicode="&#xb7;" horiz-adv-x="279" 
d="M139 189q-35 0 -60.5 25.5t-25.5 61.5q0 35 25.5 61t60.5 26q36 0 61.5 -26t25.5 -61q0 -36 -25.5 -61.5t-61.5 -25.5z" />
    <glyph glyph-name="cedilla" unicode="&#xb8;" 
d="M-112 -204v58q30 -17 76 -17q65 0 65 38q0 29 -45 29q-24 0 -43 -10l-34 20l54 89h58l-33 -54q21 7 43 7q36 0 59.5 -20.5t23.5 -56.5q0 -43 -39.5 -70.5t-93.5 -27.5q-55 0 -91 15z" />
    <glyph glyph-name="onesuperior" unicode="&#xb9;" horiz-adv-x="235" 
d="M99 410v350h-91l60 82h114v-432h-83z" />
    <glyph glyph-name="ordmasculine" unicode="&#xba;" horiz-adv-x="390" 
d="M195 404q-66 0 -111.5 45t-45.5 111t45.5 111t111.5 45t112 -45t46 -111t-46 -111t-112 -45zM195 481q32 0 53 22t21 57t-21 57t-53 22t-53 -22t-21 -57t21 -57t53 -22z" />
    <glyph glyph-name="guillemotright" unicode="&#xbb;" horiz-adv-x="500" 
d="M322 467l141 -217l-141 -217h-95l116 217l-116 217h95zM135 467l141 -217l-141 -217h-95l116 217l-116 217h95z" />
    <glyph glyph-name="onequarter" unicode="&#xbc;" horiz-adv-x="806" 
d="M99 278v350h-91l60 82h114v-432h-83zM151 0h-98l500 710h98zM645 1v99h-215v67l224 266h74v-257h56v-76h-56v-99h-83zM532 176h113v134z" />
    <glyph glyph-name="onehalf" unicode="&#xbd;" horiz-adv-x="795" 
d="M99 278v350h-91l60 82h114v-432h-83zM151 0h-98l500 710h98zM763 82v-81h-293v28q0 18 4 34.5t8 28.5t15.5 26.5t17 21.5t23 21t22.5 17.5t25.5 18t23.5 16.5q34 23 51 44t17 48q0 24 -15.5 38.5t-42.5 14.5q-29 0 -47 -17t-18 -44h-83q0 63 43 103t107 40q58 0 98.5 -35
t40.5 -98q0 -52 -22.5 -85.5t-68.5 -66.5q-6 -4 -23 -15.5t-26.5 -18.5t-20.5 -18t-15 -21h179z" />
    <glyph glyph-name="threequarters" unicode="&#xbe;" horiz-adv-x="909" 
d="M186 272q-65 0 -112 39t-49 107h82q8 -65 79 -65q30 0 48 14.5t18 40.5q0 27 -19.5 42.5t-52.5 15.5h-36v67h34q29 0 45 14t16 38q1 23 -15 36.5t-41 13.5q-29 0 -48 -17t-19 -44h-82q0 65 44.5 104t105.5 39q64 0 101.5 -36t37.5 -89q-1 -60 -48 -93q26 -12 43 -37.5
t17 -60.5q0 -57 -41.5 -93t-107.5 -36zM255 0h-98l500 710h98zM749 1v99h-215v67l224 266h74v-257h56v-76h-56v-99h-83zM636 176h113v134z" />
    <glyph glyph-name="questiondown" unicode="&#xbf;" horiz-adv-x="502" 
d="M326 256v-19q0 -69 -89 -132q-3 -2 -17.5 -13t-18 -13.5t-15 -11.5t-14.5 -13.5t-10 -13.5t-9 -16t-4.5 -16.5t-2.5 -19.5q0 -44 29 -72t74 -28q49 0 82 31t33 81h110q0 -91 -65 -155.5t-160 -64.5q-93 0 -153 60t-60 144q0 102 98 177q59 44 71 61q11 15 11 29v5h110z
M272 510q35 0 60.5 -25.5t25.5 -61.5q0 -35 -25.5 -61t-60.5 -26q-36 0 -61.5 26t-25.5 61q0 36 25.5 61.5t61.5 25.5z" />
    <glyph glyph-name="Agrave" unicode="&#xc0;" horiz-adv-x="730" 
d="M4 0l310 710h102l310 -710h-122l-81 186h-318l-80 -186h-121zM364 552l-114 -262h228zM403 770h-86l-118 157h129z" />
    <glyph glyph-name="Aacute" unicode="&#xc1;" horiz-adv-x="730" 
d="M4 0l310 710h102l310 -710h-122l-81 186h-318l-80 -186h-121zM364 552l-114 -262h228zM330 770l75 157h129l-118 -157h-86z" />
    <glyph glyph-name="Acircumflex" unicode="&#xc2;" horiz-adv-x="730" 
d="M4 0l310 710h102l310 -710h-122l-81 186h-318l-80 -186h-121zM364 552l-114 -262h228zM195 766v92l170 80l170 -80v-92l-170 80z" />
    <glyph glyph-name="Atilde" unicode="&#xc3;" horiz-adv-x="730" 
d="M4 0l310 710h102l310 -710h-122l-81 186h-318l-80 -186h-121zM364 552l-114 -262h228zM185 782l3 22q8 47 39 75t73 28q30 0 73.5 -22.5t56.5 -22.5q33 0 43 45h72l-3 -22q-8 -47 -39 -74.5t-73 -27.5q-31 0 -74.5 22.5t-55.5 22.5q-32 0 -44 -46h-71z" />
    <glyph glyph-name="Adieresis" unicode="&#xc4;" horiz-adv-x="730" 
d="M4 0l310 710h102l310 -710h-122l-81 186h-318l-80 -186h-121zM364 552l-114 -262h228zM251 779q-28 0 -47.5 19.5t-19.5 46.5q0 28 19.5 47.5t47.5 19.5q27 0 46 -19.5t19 -47.5q0 -27 -19 -46.5t-46 -19.5zM480 779q-27 0 -46.5 19.5t-19.5 46.5q0 28 19.5 47.5
t46.5 19.5q28 0 47 -19.5t19 -47.5q0 -27 -19 -46.5t-47 -19.5z" />
    <glyph glyph-name="Aring" unicode="&#xc5;" horiz-adv-x="730" 
d="M4 0l310 710h102l310 -710h-122l-81 186h-318l-80 -186h-121zM364 552l-114 -262h228zM365 753q-50 0 -85.5 35t-35.5 85t35.5 85t85.5 35t86 -35.5t36 -84.5t-36 -84.5t-86 -35.5zM365 809q28 0 47 18.5t19 45.5t-19.5 46t-46.5 19q-26 0 -45 -19.5t-19 -45.5
q0 -27 19 -45.5t45 -18.5z" />
    <glyph glyph-name="AE" unicode="&#xc6;" horiz-adv-x="927" 
d="M451 0v186h-240l-107 -186h-129l414 710h489v-112h-310v-182h250v-112h-250v-192h310v-112h-427zM450 598l-179 -308h180v308h-1z" />
    <glyph glyph-name="Ccedilla" unicode="&#xc7;" horiz-adv-x="785" 
d="M412 -12q-159 0 -264.5 105.5t-105.5 261.5t105.5 261.5t264.5 105.5q126 0 220.5 -71.5t121.5 -178.5h-126q-23 61 -82 99t-134 38q-110 0 -181 -73t-71 -181t71 -181t181 -73q75 0 134 38t82 99h126q-27 -107 -121.5 -178.5t-220.5 -71.5zM297 -204v58q30 -17 76 -17
q65 0 65 38q0 29 -45 29q-22 0 -43 -10l-34 20l54 89h58l-32 -54q21 7 43 7q36 0 59 -20.5t23 -56.5q0 -44 -39 -71t-93 -27q-56 0 -92 15z" />
    <glyph glyph-name="Egrave" unicode="&#xc8;" horiz-adv-x="562" 
d="M87 0v710h427v-112h-310v-182h250v-112h-250v-192h310v-112h-427zM339 770h-86l-118 157h129z" />
    <glyph glyph-name="Eacute" unicode="&#xc9;" horiz-adv-x="562" 
d="M87 0v710h427v-112h-310v-182h250v-112h-250v-192h310v-112h-427zM265 770l75 157h129l-118 -157h-86z" />
    <glyph glyph-name="Ecircumflex" unicode="&#xca;" horiz-adv-x="562" 
d="M87 0v710h427v-112h-310v-182h250v-112h-250v-192h310v-112h-427zM130 766v92l170 80l170 -80v-92l-170 80z" />
    <glyph glyph-name="Edieresis" unicode="&#xcb;" horiz-adv-x="562" 
d="M87 0v710h427v-112h-310v-182h250v-112h-250v-192h310v-112h-427zM186 779q-28 0 -47.5 19.5t-19.5 46.5q0 28 19.5 47.5t47.5 19.5q27 0 46 -19.5t19 -47.5q0 -27 -19 -46.5t-46 -19.5zM415 779q-27 0 -46.5 19.5t-19.5 46.5q0 28 19.5 47.5t46.5 19.5q28 0 47 -19.5
t19 -47.5q0 -27 -19 -46.5t-47 -19.5z" />
    <glyph glyph-name="Igrave" unicode="&#xcc;" horiz-adv-x="291" 
d="M87 0v710h117v-710h-117zM184 770h-86l-118 157h129z" />
    <glyph glyph-name="Iacute" unicode="&#xcd;" horiz-adv-x="291" 
d="M87 0v710h117v-710h-117zM111 770l75 157h129l-118 -157h-86z" />
    <glyph glyph-name="Icircumflex" unicode="&#xce;" horiz-adv-x="291" 
d="M87 0v710h117v-710h-117zM-24 766v92l170 80l170 -80v-92l-170 80z" />
    <glyph glyph-name="Idieresis" unicode="&#xcf;" horiz-adv-x="291" 
d="M87 0v710h117v-710h-117zM32 779q-28 0 -47.5 19.5t-19.5 46.5q0 28 19.5 47.5t47.5 19.5q27 0 46 -19.5t19 -47.5q0 -27 -19 -46.5t-46 -19.5zM261 779q-27 0 -46.5 19.5t-19.5 46.5q0 28 19.5 47.5t46.5 19.5q28 0 47 -19.5t19 -47.5q0 -27 -19 -46.5t-47 -19.5z" />
    <glyph glyph-name="Eth" unicode="&#xd0;" horiz-adv-x="730" 
d="M98 0v710h218q158 0 265 -102t107 -253t-107 -253t-265 -102h-218zM215 109h101q112 0 182.5 70t70.5 176t-70.5 176t-182.5 70h-101v-492zM25 308v102h335v-102h-335z" />
    <glyph glyph-name="Ntilde" unicode="&#xd1;" horiz-adv-x="793" 
d="M706 0h-102l-400 511v-511h-117v710h102l399 -510v510h118v-710zM214 782l3 22q8 47 39 75t73 28q30 0 73.5 -22.5t56.5 -22.5q33 0 43 45h72l-3 -22q-8 -47 -39 -74.5t-73 -27.5q-31 0 -74.5 22.5t-55.5 22.5q-32 0 -44 -46h-71z" />
    <glyph glyph-name="Ograve" unicode="&#xd2;" horiz-adv-x="817" 
d="M409 101q104 0 176 74t72 180t-72 180t-176 74q-105 0 -177 -74t-72 -180t72 -180t177 -74zM409 -12q-153 0 -260 106.5t-107 260.5t107 260.5t260 106.5t260 -107t107 -260t-107 -260t-260 -107zM447 770h-86l-118 157h129z" />
    <glyph glyph-name="Oacute" unicode="&#xd3;" horiz-adv-x="817" 
d="M409 101q104 0 176 74t72 180t-72 180t-176 74q-105 0 -177 -74t-72 -180t72 -180t177 -74zM409 -12q-153 0 -260 106.5t-107 260.5t107 260.5t260 106.5t260 -107t107 -260t-107 -260t-260 -107zM374 770l75 157h129l-118 -157h-86z" />
    <glyph glyph-name="Ocircumflex" unicode="&#xd4;" horiz-adv-x="817" 
d="M409 101q104 0 176 74t72 180t-72 180t-176 74q-105 0 -177 -74t-72 -180t72 -180t177 -74zM409 -12q-153 0 -260 106.5t-107 260.5t107 260.5t260 106.5t260 -107t107 -260t-107 -260t-260 -107zM239 766v92l170 80l170 -80v-92l-170 80z" />
    <glyph glyph-name="Otilde" unicode="&#xd5;" horiz-adv-x="817" 
d="M409 101q104 0 176 74t72 180t-72 180t-176 74q-105 0 -177 -74t-72 -180t72 -180t177 -74zM409 -12q-153 0 -260 106.5t-107 260.5t107 260.5t260 106.5t260 -107t107 -260t-107 -260t-260 -107zM229 782l3 22q8 47 39 75t73 28q30 0 73.5 -22.5t56.5 -22.5q33 0 43 45
h72l-3 -22q-8 -47 -39 -74.5t-73 -27.5q-31 0 -74.5 22.5t-55.5 22.5q-32 0 -44 -46h-71z" />
    <glyph glyph-name="Odieresis" unicode="&#xd6;" horiz-adv-x="817" 
d="M409 101q104 0 176 74t72 180t-72 180t-176 74q-105 0 -177 -74t-72 -180t72 -180t177 -74zM409 -12q-153 0 -260 106.5t-107 260.5t107 260.5t260 106.5t260 -107t107 -260t-107 -260t-260 -107zM295 779q-28 0 -47.5 19.5t-19.5 46.5q0 28 19.5 47.5t47.5 19.5
q27 0 46 -19.5t19 -47.5q0 -27 -19 -46.5t-46 -19.5zM524 779q-27 0 -46.5 19.5t-19.5 46.5q0 28 19.5 47.5t46.5 19.5q28 0 47 -19.5t19 -47.5q0 -27 -19 -46.5t-47 -19.5z" />
    <glyph glyph-name="multiply" unicode="&#xd7;" horiz-adv-x="504" 
d="M117 87l-69 68l135 135l-135 134l69 68l135 -133l136 133l68 -68l-134 -134l134 -135l-68 -68l-136 133z" />
    <glyph glyph-name="Oslash" unicode="&#xd8;" horiz-adv-x="821" 
d="M411 101q104 0 176 74t72 180t-72 180t-176 74q-105 0 -177 -74t-72 -180t72 -180t177 -74zM411 -12q-153 0 -260 106.5t-107 260.5t107 260.5t260 106.5t260 -107t107 -260t-107 -260t-260 -107zM762 664l-635 -683l-68 66l636 682z" />
    <glyph glyph-name="Ugrave" unicode="&#xd9;" horiz-adv-x="723" 
d="M362 -12q-127 0 -205 79t-78 211v432h117v-434q0 -83 45 -129t121 -46t120.5 46t44.5 129v434h117v-432q0 -131 -79 -210.5t-203 -79.5zM400 770h-86l-118 157h129z" />
    <glyph glyph-name="Uacute" unicode="&#xda;" horiz-adv-x="723" 
d="M362 -12q-127 0 -205 79t-78 211v432h117v-434q0 -83 45 -129t121 -46t120.5 46t44.5 129v434h117v-432q0 -131 -79 -210.5t-203 -79.5zM326 770l75 157h129l-118 -157h-86z" />
    <glyph glyph-name="Ucircumflex" unicode="&#xdb;" horiz-adv-x="723" 
d="M362 -12q-127 0 -205 79t-78 211v432h117v-434q0 -83 45 -129t121 -46t120.5 46t44.5 129v434h117v-432q0 -131 -79 -210.5t-203 -79.5zM192 766v92l170 80l170 -80v-92l-170 80z" />
    <glyph glyph-name="Udieresis" unicode="&#xdc;" horiz-adv-x="723" 
d="M362 -12q-127 0 -205 79t-78 211v432h117v-434q0 -83 45 -129t121 -46t120.5 46t44.5 129v434h117v-432q0 -131 -79 -210.5t-203 -79.5zM248 779q-28 0 -47.5 19.5t-19.5 46.5q0 28 19.5 47.5t47.5 19.5q27 0 46 -19.5t19 -47.5q0 -27 -19 -46.5t-46 -19.5zM477 779
q-27 0 -46.5 19.5t-19.5 46.5q0 28 19.5 47.5t46.5 19.5q28 0 47 -19.5t19 -47.5q0 -27 -19 -46.5t-47 -19.5z" />
    <glyph glyph-name="Yacute" unicode="&#xdd;" horiz-adv-x="681" 
d="M282 0v300l-269 410h137l190 -294l191 294h138l-270 -411v-299h-117zM305 770l75 157h129l-118 -157h-86z" />
    <glyph glyph-name="Thorn" unicode="&#xde;" horiz-adv-x="596" 
d="M559 355q0 -99 -69 -165.5t-177 -66.5h-109v-123h-117v710h117v-123h109q108 0 177 -66.5t69 -165.5zM444 355q0 53 -35.5 87.5t-96.5 34.5h-108v-244h108q61 0 96.5 34.5t35.5 87.5z" />
    <glyph glyph-name="germandbls" unicode="&#xdf;" horiz-adv-x="579" 
d="M74 0v539q0 97 63 157t154 60q89 0 152 -57.5t63 -141.5q0 -95 -81 -157q56 -27 86.5 -76t30.5 -104q0 -93 -66.5 -156.5t-168.5 -63.5h-44v101h39q57 0 93 34t36 87q0 52 -36.5 86t-92.5 34h-38v101h21q49 0 79.5 30.5t30.5 75.5q0 44 -29.5 75t-74.5 31
q-46 0 -76.5 -32.5t-30.5 -83.5v-539h-110z" />
    <glyph glyph-name="agrave" unicode="&#xe0;" horiz-adv-x="624" 
d="M279 -10q-102 0 -171.5 76t-69.5 184t69.5 184t171.5 76q51 0 94 -22.5t66 -54.5v67h110v-500h-110v67q-23 -32 -66 -54.5t-94 -22.5zM299 90q65 0 107 46t42 114t-42 114t-107 46t-107 -46t-42 -114t42 -114t107 -46zM276 560l-148 190h133l100 -190h-85z" />
    <glyph glyph-name="aacute" unicode="&#xe1;" horiz-adv-x="624" 
d="M279 -10q-102 0 -171.5 76t-69.5 184t69.5 184t171.5 76q51 0 94 -22.5t66 -54.5v67h110v-500h-110v67q-23 -32 -66 -54.5t-94 -22.5zM299 90q65 0 107 46t42 114t-42 114t-107 46t-107 -46t-42 -114t42 -114t107 -46zM282 560l100 190h133l-148 -190h-85z" />
    <glyph glyph-name="acircumflex" unicode="&#xe2;" horiz-adv-x="624" 
d="M279 -10q-102 0 -171.5 76t-69.5 184t69.5 184t171.5 76q51 0 94 -22.5t66 -54.5v67h110v-500h-110v67q-23 -32 -66 -54.5t-94 -22.5zM299 90q65 0 107 46t42 114t-42 114t-107 46t-107 -46t-42 -114t42 -114t107 -46zM320 756l166 -100v-93l-166 99l-166 -99v93z" />
    <glyph glyph-name="atilde" unicode="&#xe3;" horiz-adv-x="624" 
d="M279 -10q-102 0 -171.5 76t-69.5 184t69.5 184t171.5 76q51 0 94 -22.5t66 -54.5v67h110v-500h-110v67q-23 -32 -66 -54.5t-94 -22.5zM299 90q65 0 107 46t42 114t-42 114t-107 46t-107 -46t-42 -114t42 -114t107 -46zM139 583l4 22q8 47 38.5 74.5t72.5 27.5
q31 0 74.5 -22.5t55.5 -22.5q32 0 44 46h72l-4 -22q-8 -47 -38.5 -75t-72.5 -28q-31 0 -74.5 22.5t-55.5 22.5q-18 0 -28 -10.5t-16 -34.5h-72z" />
    <glyph glyph-name="adieresis" unicode="&#xe4;" horiz-adv-x="624" 
d="M279 -10q-102 0 -171.5 76t-69.5 184t69.5 184t171.5 76q51 0 94 -22.5t66 -54.5v67h110v-500h-110v67q-23 -32 -66 -54.5t-94 -22.5zM299 90q65 0 107 46t42 114t-42 114t-107 46t-107 -46t-42 -114t42 -114t107 -46zM206 587q-28 0 -47.5 19.5t-19.5 46.5
q0 28 19.5 47.5t47.5 19.5q27 0 46 -19.5t19 -47.5q0 -27 -19 -46.5t-46 -19.5zM435 587q-27 0 -46.5 19.5t-19.5 46.5q0 28 19.5 47.5t46.5 19.5q28 0 47 -19.5t19 -47.5q0 -27 -19 -46.5t-47 -19.5z" />
    <glyph glyph-name="aring" unicode="&#xe5;" horiz-adv-x="624" 
d="M279 -10q-102 0 -171.5 76t-69.5 184t69.5 184t171.5 76q51 0 94 -22.5t66 -54.5v67h110v-500h-110v67q-23 -32 -66 -54.5t-94 -22.5zM299 90q65 0 107 46t42 114t-42 114t-107 46t-107 -46t-42 -114t42 -114t107 -46zM320 543q-50 0 -85.5 35t-35.5 85t35.5 85t85.5 35
t86 -35.5t36 -84.5t-36 -84.5t-86 -35.5zM320 599q28 0 47 18.5t19 45.5t-19 46t-47 19q-26 0 -45 -19.5t-19 -45.5q0 -27 19 -45.5t45 -18.5z" />
    <glyph glyph-name="ae" unicode="&#xe6;" horiz-adv-x="904" 
d="M619 -10q-127 0 -204 89q-57 -89 -190 -89q-87 0 -137 43t-50 104q0 69 54.5 105t167.5 57q62 11 82 20t20 35q0 30 -23.5 47t-67.5 17q-48 0 -79 -22t-32 -63h-110q0 74 63 125.5t157 51.5q121 0 166 -78q69 78 183 78q111 0 181.5 -80.5t64.5 -206.5h-398q2 -58 44 -97
t106 -39q93 0 127 70h114q-21 -73 -86 -120t-153 -47zM365 188v65q-11 -6 -127 -42q-47 -13 -65.5 -28t-18.5 -42q0 -29 23.5 -46t63.5 -17q54 0 89 28t35 82zM612 418q-54 0 -92.5 -30.5t-49.5 -86.5h276q-11 58 -48.5 87.5t-85.5 29.5z" />
    <glyph glyph-name="ccedilla" unicode="&#xe7;" horiz-adv-x="584" 
d="M300 -10q-113 0 -187.5 75.5t-74.5 184.5t74.5 184.5t187.5 75.5q97 0 165.5 -54t88.5 -139h-116q-15 42 -51.5 67.5t-86.5 25.5q-66 0 -108 -45t-42 -115t42 -115t108 -45q50 0 86.5 25.5t51.5 67.5h116q-20 -85 -88.5 -139t-165.5 -54zM191 -204v58q30 -17 76 -17
q65 0 65 38q0 29 -45 29q-24 0 -43 -10l-34 20l54 89h58l-33 -54q21 7 43 7q36 0 59.5 -20.5t23.5 -56.5q0 -43 -39.5 -70.5t-93.5 -27.5q-55 0 -91 15z" />
    <glyph glyph-name="egrave" unicode="&#xe8;" horiz-adv-x="585" 
d="M295 -10q-112 0 -184 73.5t-72 186.5t71 186.5t186 73.5q116 0 187 -80.5t63 -206.5h-398q2 -58 44 -97t107 -39q92 0 126 70h115q-23 -73 -88 -120t-157 -47zM293 418q-54 0 -92.5 -30.5t-49.5 -86.5h277q-12 58 -49 87.5t-86 29.5zM254 560l-148 190h133l100 -190h-85z
" />
    <glyph glyph-name="eacute" unicode="&#xe9;" horiz-adv-x="585" 
d="M295 -10q-112 0 -184 73.5t-72 186.5t71 186.5t186 73.5q116 0 187 -80.5t63 -206.5h-398q2 -58 44 -97t107 -39q92 0 126 70h115q-23 -73 -88 -120t-157 -47zM293 418q-54 0 -92.5 -30.5t-49.5 -86.5h277q-12 58 -49 87.5t-86 29.5zM260 560l100 190h133l-148 -190h-85z
" />
    <glyph glyph-name="ecircumflex" unicode="&#xea;" horiz-adv-x="585" 
d="M295 -10q-112 0 -184 73.5t-72 186.5t71 186.5t186 73.5q116 0 187 -80.5t63 -206.5h-398q2 -58 44 -97t107 -39q92 0 126 70h115q-23 -73 -88 -120t-157 -47zM293 418q-54 0 -92.5 -30.5t-49.5 -86.5h277q-12 58 -49 87.5t-86 29.5zM298 756l166 -100v-93l-166 99
l-166 -99v93z" />
    <glyph glyph-name="edieresis" unicode="&#xeb;" horiz-adv-x="585" 
d="M295 -10q-112 0 -184 73.5t-72 186.5t71 186.5t186 73.5q116 0 187 -80.5t63 -206.5h-398q2 -58 44 -97t107 -39q92 0 126 70h115q-23 -73 -88 -120t-157 -47zM293 418q-54 0 -92.5 -30.5t-49.5 -86.5h277q-12 58 -49 87.5t-86 29.5zM184 587q-28 0 -47.5 19.5
t-19.5 46.5q0 28 19.5 47.5t47.5 19.5q27 0 46 -19.5t19 -47.5q0 -27 -19 -46.5t-46 -19.5zM413 587q-27 0 -46.5 19.5t-19.5 46.5q0 28 19.5 47.5t46.5 19.5q28 0 47 -19.5t19 -47.5q0 -27 -19 -46.5t-47 -19.5z" />
    <glyph glyph-name="igrave" unicode="&#xec;" horiz-adv-x="258" 
d="M74 0v500h110v-500h-110zM86 560l-148 190h133l100 -190h-85z" />
    <glyph glyph-name="iacute" unicode="&#xed;" horiz-adv-x="258" 
d="M74 0v500h110v-500h-110zM91 560l100 190h133l-148 -190h-85z" />
    <glyph glyph-name="icircumflex" unicode="&#xee;" horiz-adv-x="258" 
d="M74 0v500h110v-500h-110zM129 756l166 -100v-93l-166 99l-166 -99v93z" />
    <glyph glyph-name="idieresis" unicode="&#xef;" horiz-adv-x="258" 
d="M74 0v500h110v-500h-110zM32 587q-28 0 -47.5 20t-19.5 48t19.5 47.5t47.5 19.5t48 -19.5t20 -47.5t-20 -48t-48 -20zM225 587q-28 0 -47.5 20t-19.5 48t19.5 47.5t47.5 19.5t48 -19.5t20 -47.5t-20 -48t-48 -20z" />
    <glyph glyph-name="eth" unicode="&#xf0;" horiz-adv-x="601" 
d="M470 569h-67l108 -162q52 -79 52 -157q0 -108 -76 -184t-187 -76q-110 0 -186 76t-76 184q0 112 77.5 185t177.5 73q7 0 29 -2l-42 63h-139v78h88l-68 103h121l69 -103h119v-78zM300 92q66 0 108.5 45.5t42.5 112.5t-42.5 112.5t-108.5 45.5t-108 -45t-42 -113t42 -113
t108 -45z" />
    <glyph glyph-name="ntilde" unicode="&#xf1;" horiz-adv-x="594" 
d="M74 0v500h110v-68q47 78 152 78q87 0 139 -57t52 -152v-301h-110v283q0 60 -28 93.5t-76 33.5q-57 0 -93 -43t-36 -121v-246h-110zM119 583l4 22q8 47 38.5 74.5t72.5 27.5q31 0 74.5 -22.5t55.5 -22.5q32 0 44 46h72l-4 -22q-8 -47 -38.5 -75t-72.5 -28
q-31 0 -74.5 22.5t-55.5 22.5q-18 0 -28 -10.5t-16 -34.5h-72z" />
    <glyph glyph-name="ograve" unicode="&#xf2;" horiz-adv-x="599" 
d="M300 -10q-111 0 -186.5 75.5t-75.5 184.5t75.5 184.5t186.5 75.5t186.5 -75.5t75.5 -184.5t-75.5 -184.5t-186.5 -75.5zM300 92q65 0 107.5 45.5t42.5 112.5t-42.5 112.5t-107.5 45.5q-66 0 -108.5 -45.5t-42.5 -112.5t42.5 -112.5t108.5 -45.5zM256 560l-148 190h133
l100 -190h-85z" />
    <glyph glyph-name="oacute" unicode="&#xf3;" horiz-adv-x="599" 
d="M300 -10q-111 0 -186.5 75.5t-75.5 184.5t75.5 184.5t186.5 75.5t186.5 -75.5t75.5 -184.5t-75.5 -184.5t-186.5 -75.5zM300 92q65 0 107.5 45.5t42.5 112.5t-42.5 112.5t-107.5 45.5q-66 0 -108.5 -45.5t-42.5 -112.5t42.5 -112.5t108.5 -45.5zM261 560l100 190h133
l-148 -190h-85z" />
    <glyph glyph-name="ocircumflex" unicode="&#xf4;" horiz-adv-x="599" 
d="M300 -10q-111 0 -186.5 75.5t-75.5 184.5t75.5 184.5t186.5 75.5t186.5 -75.5t75.5 -184.5t-75.5 -184.5t-186.5 -75.5zM300 92q65 0 107.5 45.5t42.5 112.5t-42.5 112.5t-107.5 45.5q-66 0 -108.5 -45.5t-42.5 -112.5t42.5 -112.5t108.5 -45.5zM300 756l166 -100v-93
l-166 99l-166 -99v93z" />
    <glyph glyph-name="otilde" unicode="&#xf5;" horiz-adv-x="599" 
d="M300 -10q-111 0 -186.5 75.5t-75.5 184.5t75.5 184.5t186.5 75.5t186.5 -75.5t75.5 -184.5t-75.5 -184.5t-186.5 -75.5zM300 92q65 0 107.5 45.5t42.5 112.5t-42.5 112.5t-107.5 45.5q-66 0 -108.5 -45.5t-42.5 -112.5t42.5 -112.5t108.5 -45.5zM119 583l4 22
q8 47 38.5 74.5t72.5 27.5q31 0 74.5 -22.5t55.5 -22.5q32 0 44 46h72l-4 -22q-8 -47 -38.5 -75t-72.5 -28q-31 0 -74.5 22.5t-55.5 22.5q-18 0 -28 -10.5t-16 -34.5h-72z" />
    <glyph glyph-name="odieresis" unicode="&#xf6;" horiz-adv-x="599" 
d="M300 -10q-111 0 -186.5 75.5t-75.5 184.5t75.5 184.5t186.5 75.5t186.5 -75.5t75.5 -184.5t-75.5 -184.5t-186.5 -75.5zM300 92q65 0 107.5 45.5t42.5 112.5t-42.5 112.5t-107.5 45.5q-66 0 -108.5 -45.5t-42.5 -112.5t42.5 -112.5t108.5 -45.5zM186 587
q-28 0 -47.5 19.5t-19.5 46.5q0 28 19.5 47.5t47.5 19.5q27 0 46 -19.5t19 -47.5q0 -27 -19 -46.5t-46 -19.5zM415 587q-27 0 -46.5 19.5t-19.5 46.5q0 28 19.5 47.5t46.5 19.5q28 0 47 -19.5t19 -47.5q0 -27 -19 -46.5t-47 -19.5z" />
    <glyph glyph-name="oslash" unicode="&#xf8;" horiz-adv-x="608" 
d="M305 -10q-111 0 -186.5 75.5t-75.5 184.5t75.5 184.5t186.5 75.5t186.5 -75.5t75.5 -184.5t-75.5 -184.5t-186.5 -75.5zM305 92q65 0 107.5 45.5t42.5 112.5t-42.5 112.5t-107.5 45.5q-66 0 -108.5 -45.5t-42.5 -112.5t42.5 -112.5t108.5 -45.5zM561 468l-472 -478
l-42 43l472 477z" />
    <glyph glyph-name="ugrave" unicode="&#xf9;" horiz-adv-x="583" 
d="M253 -10q-86 0 -136 57.5t-50 153.5v299h110v-281q0 -60 26 -94.5t74 -34.5q56 0 89 42.5t33 121.5v246h110v-500h-110v68q-44 -78 -146 -78zM244 560l-148 190h133l100 -190h-85z" />
    <glyph glyph-name="uacute" unicode="&#xfa;" horiz-adv-x="583" 
d="M253 -10q-86 0 -136 57.5t-50 153.5v299h110v-281q0 -60 26 -94.5t74 -34.5q56 0 89 42.5t33 121.5v246h110v-500h-110v68q-44 -78 -146 -78zM250 560l100 190h133l-148 -190h-85z" />
    <glyph glyph-name="ucircumflex" unicode="&#xfb;" horiz-adv-x="583" 
d="M253 -10q-86 0 -136 57.5t-50 153.5v299h110v-281q0 -60 26 -94.5t74 -34.5q56 0 89 42.5t33 121.5v246h110v-500h-110v68q-44 -78 -146 -78zM288 756l166 -100v-93l-166 99l-166 -99v93z" />
    <glyph glyph-name="udieresis" unicode="&#xfc;" horiz-adv-x="583" 
d="M253 -10q-86 0 -136 57.5t-50 153.5v299h110v-281q0 -60 26 -94.5t74 -34.5q56 0 89 42.5t33 121.5v246h110v-500h-110v68q-44 -78 -146 -78zM174 587q-28 0 -47.5 19.5t-19.5 46.5q0 28 19.5 47.5t47.5 19.5q27 0 46 -19.5t19 -47.5q0 -27 -19 -46.5t-46 -19.5zM403 587
q-27 0 -46.5 19.5t-19.5 46.5q0 28 19.5 47.5t46.5 19.5q28 0 47 -19.5t19 -47.5q0 -27 -19 -46.5t-47 -19.5z" />
    <glyph glyph-name="yacute" unicode="&#xfd;" horiz-adv-x="558" 
d="M234 -209h-121l107 236l-215 473h121l153 -354l154 354h122zM243 560l100 190h133l-148 -190h-85z" />
    <glyph glyph-name="thorn" unicode="&#xfe;" horiz-adv-x="624" 
d="M184 -209h-110v959h110v-317q23 32 66.5 54.5t94.5 22.5q102 0 171.5 -76t69.5 -184t-69.5 -184t-171.5 -76q-51 0 -94.5 22.5t-66.5 54.5v-276zM325 90q65 0 107 46t42 114t-42 114t-107 46q-66 0 -108 -46t-42 -114t42 -114t108 -46z" />
    <glyph glyph-name="ydieresis" unicode="&#xff;" horiz-adv-x="558" 
d="M234 -209h-121l107 236l-215 473h121l153 -354l154 354h122zM167 587q-28 0 -47.5 19.5t-19.5 46.5q0 28 19.5 47.5t47.5 19.5q27 0 46 -19.5t19 -47.5q0 -27 -19 -46.5t-46 -19.5zM396 587q-27 0 -46.5 19.5t-19.5 46.5q0 28 19.5 47.5t46.5 19.5q28 0 47 -19.5
t19 -47.5q0 -27 -19 -46.5t-47 -19.5z" />
    <glyph glyph-name="Amacron" unicode="&#x100;" horiz-adv-x="730" 
d="M4 0l310 710h102l310 -710h-122l-81 186h-318l-80 -186h-121zM364 552l-114 -262h228zM199 798v82h332v-82h-332z" />
    <glyph glyph-name="amacron" unicode="&#x101;" horiz-adv-x="624" 
d="M279 -10q-102 0 -171.5 76t-69.5 184t69.5 184t171.5 76q51 0 94 -22.5t66 -54.5v67h110v-500h-110v67q-23 -32 -66 -54.5t-94 -22.5zM299 90q65 0 107 46t42 114t-42 114t-107 46t-107 -46t-42 -114t42 -114t107 -46zM154 628v82h332v-82h-332z" />
    <glyph glyph-name="Abreve" unicode="&#x102;" horiz-adv-x="730" 
d="M4 0l310 710h102l310 -710h-122l-81 186h-318l-80 -186h-121zM364 552l-114 -262h228zM365 755q-71 0 -118.5 45.5t-47.5 120.5h68q0 -46 27.5 -72t70.5 -26t70.5 26t27.5 72h68q0 -75 -47.5 -120.5t-118.5 -45.5z" />
    <glyph glyph-name="abreve" unicode="&#x103;" horiz-adv-x="624" 
d="M279 -10q-102 0 -171.5 76t-69.5 184t69.5 184t171.5 76q51 0 94 -22.5t66 -54.5v67h110v-500h-110v67q-23 -32 -66 -54.5t-94 -22.5zM299 90q65 0 107 46t42 114t-42 114t-107 46t-107 -46t-42 -114t42 -114t107 -46zM320 569q-71 0 -118.5 45.5t-47.5 120.5v15h68v-15
q0 -47 27.5 -73t70.5 -26t70.5 26t27.5 73v15h68v-15q0 -75 -47.5 -120.5t-118.5 -45.5z" />
    <glyph glyph-name="Aogonek" unicode="&#x104;" horiz-adv-x="730" 
d="M4 0l310 710h102l310 -710q-89 -49 -89 -101q0 -29 36 -29q32 0 53 19v-81q-33 -27 -91 -27q-45 0 -73.5 26t-28.5 68q0 69 71 125l-81 186h-318l-80 -186h-121zM364 552l-114 -262h228z" />
    <glyph glyph-name="aogonek" unicode="&#x105;" horiz-adv-x="624" 
d="M279 -10q-102 0 -171.5 76t-69.5 184t69.5 184t171.5 76q51 0 94 -22.5t66 -54.5v67h110v-500h-110v67q-23 -32 -66 -54.5t-94 -22.5zM299 90q65 0 107 46t42 114t-42 114t-107 46t-107 -46t-42 -114t42 -114t107 -46zM462 -219q-45 0 -72.5 26t-27.5 67q0 64 77 126h110
q-90 -50 -90 -104q0 -34 37 -34q28 0 53 19v-73q-33 -27 -87 -27z" />
    <glyph glyph-name="Cacute" unicode="&#x106;" horiz-adv-x="785" 
d="M412 -12q-159 0 -264.5 105.5t-105.5 261.5t105.5 261.5t264.5 105.5q126 0 220.5 -71.5t121.5 -178.5h-126q-23 61 -82 99t-134 38q-110 0 -181 -73t-71 -181t71 -181t181 -73q75 0 134 38t82 99h126q-27 -107 -121.5 -178.5t-220.5 -71.5zM372 770l75 157h129
l-118 -157h-86z" />
    <glyph glyph-name="cacute" unicode="&#x107;" horiz-adv-x="584" 
d="M300 -10q-113 0 -187.5 75.5t-74.5 184.5t74.5 184.5t187.5 75.5q97 0 165.5 -54t88.5 -139h-116q-15 42 -51.5 67.5t-86.5 25.5q-66 0 -108 -45t-42 -115t42 -115t108 -45q50 0 86.5 25.5t51.5 67.5h116q-20 -85 -88.5 -139t-165.5 -54zM263 560l100 190h133l-148 -190
h-85z" />
    <glyph glyph-name="Ccircumflex" unicode="&#x108;" horiz-adv-x="785" 
d="M412 -12q-159 0 -264.5 105.5t-105.5 261.5t105.5 261.5t264.5 105.5q126 0 220.5 -71.5t121.5 -178.5h-126q-23 61 -82 99t-134 38q-110 0 -181 -73t-71 -181t71 -181t181 -73q75 0 134 38t82 99h126q-27 -107 -121.5 -178.5t-220.5 -71.5zM237 766v92l170 80l170 -80
v-92l-170 80z" />
    <glyph glyph-name="ccircumflex" unicode="&#x109;" horiz-adv-x="584" 
d="M300 -10q-113 0 -187.5 75.5t-74.5 184.5t74.5 184.5t187.5 75.5q97 0 165.5 -54t88.5 -139h-116q-15 42 -51.5 67.5t-86.5 25.5q-66 0 -108 -45t-42 -115t42 -115t108 -45q50 0 86.5 25.5t51.5 67.5h116q-20 -85 -88.5 -139t-165.5 -54zM302 756l166 -100v-93l-166 99
l-166 -99v93z" />
    <glyph glyph-name="Cdotaccent" unicode="&#x10a;" horiz-adv-x="785" 
d="M412 -12q-159 0 -264.5 105.5t-105.5 261.5t105.5 261.5t264.5 105.5q126 0 220.5 -71.5t121.5 -178.5h-126q-23 61 -82 99t-134 38q-110 0 -181 -73t-71 -181t71 -181t181 -73q75 0 134 38t82 99h126q-27 -107 -121.5 -178.5t-220.5 -71.5zM407 779q-28 0 -47.5 19.5
t-19.5 46.5q0 28 19.5 47.5t47.5 19.5q27 0 46.5 -19.5t19.5 -47.5q0 -27 -19.5 -46.5t-46.5 -19.5z" />
    <glyph glyph-name="cdotaccent" unicode="&#x10b;" horiz-adv-x="584" 
d="M300 -10q-113 0 -187.5 75.5t-74.5 184.5t74.5 184.5t187.5 75.5q97 0 165.5 -54t88.5 -139h-116q-15 42 -51.5 67.5t-86.5 25.5q-66 0 -108 -45t-42 -115t42 -115t108 -45q50 0 86.5 25.5t51.5 67.5h116q-20 -85 -88.5 -139t-165.5 -54zM302 587q-28 0 -47.5 19.5
t-19.5 46.5q0 28 19.5 47.5t47.5 19.5q27 0 46.5 -19.5t19.5 -47.5q0 -27 -19.5 -46.5t-46.5 -19.5z" />
    <glyph glyph-name="Ccaron" unicode="&#x10c;" horiz-adv-x="785" 
d="M412 -12q-159 0 -264.5 105.5t-105.5 261.5t105.5 261.5t264.5 105.5q126 0 220.5 -71.5t121.5 -178.5h-126q-23 61 -82 99t-134 38q-110 0 -181 -73t-71 -181t71 -181t181 -73q75 0 134 38t82 99h126q-27 -107 -121.5 -178.5t-220.5 -71.5zM407 766l-170 80v92l170 -80
l170 80v-92z" />
    <glyph glyph-name="ccaron" unicode="&#x10d;" horiz-adv-x="584" 
d="M300 -10q-113 0 -187.5 75.5t-74.5 184.5t74.5 184.5t187.5 75.5q97 0 165.5 -54t88.5 -139h-116q-15 42 -51.5 67.5t-86.5 25.5q-66 0 -108 -45t-42 -115t42 -115t108 -45q50 0 86.5 25.5t51.5 67.5h116q-20 -85 -88.5 -139t-165.5 -54zM302 563l-166 99v94l166 -100
l166 100v-94z" />
    <glyph glyph-name="Dcaron" unicode="&#x10e;" horiz-adv-x="719" 
d="M87 0v710h218q158 0 265 -102t107 -253t-107 -253t-265 -102h-218zM204 109h101q112 0 182.5 70t70.5 176t-70.5 176t-182.5 70h-101v-492zM340 766l-170 80v92l170 -80l170 80v-92z" />
    <glyph glyph-name="dcaron" unicode="&#x10f;" horiz-adv-x="624" 
d="M279 -10q-102 0 -171.5 76t-69.5 184t69.5 184t171.5 76q51 0 94 -22.5t66 -54.5v317h110v-750h-110v67q-23 -32 -66 -54.5t-94 -22.5zM299 90q65 0 107 46t42 114t-42 114t-107 46t-107 -46t-42 -114t42 -114t107 -46zM578 587l22 163h110l-57 -163h-75z" />
    <glyph glyph-name="Dcroat" unicode="&#x110;" horiz-adv-x="730" 
d="M98 0v710h218q158 0 265 -102t107 -253t-107 -253t-265 -102h-218zM215 109h101q112 0 182.5 70t70.5 176t-70.5 176t-182.5 70h-101v-492zM25 308v102h335v-102h-335z" />
    <glyph glyph-name="dcroat" unicode="&#x111;" horiz-adv-x="624" 
d="M279 -10q-102 0 -171.5 76t-69.5 184t69.5 184t171.5 76q51 0 94 -22.5t66 -54.5v317h110v-750h-110v67q-23 -32 -66 -54.5t-94 -22.5zM299 90q65 0 107 46t42 114t-42 114t-107 46t-107 -46t-42 -114t42 -114t107 -46zM616 572h-330v78h330v-78z" />
    <glyph glyph-name="Emacron" unicode="&#x112;" horiz-adv-x="562" 
d="M87 0v710h427v-112h-310v-182h250v-112h-250v-192h310v-112h-427zM134 798v82h332v-82h-332z" />
    <glyph glyph-name="emacron" unicode="&#x113;" horiz-adv-x="585" 
d="M295 -10q-112 0 -184 73.5t-72 186.5t71 186.5t186 73.5q116 0 187 -80.5t63 -206.5h-398q2 -58 44 -97t107 -39q92 0 126 70h115q-23 -73 -88 -120t-157 -47zM293 418q-54 0 -92.5 -30.5t-49.5 -86.5h277q-12 58 -49 87.5t-86 29.5zM132 628v82h332v-82h-332z" />
    <glyph glyph-name="Ebreve" unicode="&#x114;" horiz-adv-x="562" 
d="M87 0v710h427v-112h-310v-182h250v-112h-250v-192h310v-112h-427zM300 755q-71 0 -118.5 45.5t-47.5 120.5h68q0 -46 27.5 -72t70.5 -26t70.5 26t27.5 72h68q0 -75 -47.5 -120.5t-118.5 -45.5z" />
    <glyph glyph-name="ebreve" unicode="&#x115;" horiz-adv-x="585" 
d="M295 -10q-112 0 -184 73.5t-72 186.5t71 186.5t186 73.5q116 0 187 -80.5t63 -206.5h-398q2 -58 44 -97t107 -39q92 0 126 70h115q-23 -73 -88 -120t-157 -47zM293 418q-54 0 -92.5 -30.5t-49.5 -86.5h277q-12 58 -49 87.5t-86 29.5zM298 569q-71 0 -118.5 45.5
t-47.5 120.5v15h68v-15q0 -47 27.5 -73t70.5 -26t70.5 26t27.5 73v15h68v-15q0 -75 -47.5 -120.5t-118.5 -45.5z" />
    <glyph glyph-name="Edotaccent" unicode="&#x116;" horiz-adv-x="562" 
d="M87 0v710h427v-112h-310v-182h250v-112h-250v-192h310v-112h-427zM300 779q-28 0 -47.5 19.5t-19.5 46.5q0 28 19.5 47.5t47.5 19.5q27 0 46.5 -19.5t19.5 -47.5q0 -27 -19.5 -46.5t-46.5 -19.5z" />
    <glyph glyph-name="edotaccent" unicode="&#x117;" horiz-adv-x="585" 
d="M295 -10q-112 0 -184 73.5t-72 186.5t71 186.5t186 73.5q116 0 187 -80.5t63 -206.5h-398q2 -58 44 -97t107 -39q92 0 126 70h115q-23 -73 -88 -120t-157 -47zM293 418q-54 0 -92.5 -30.5t-49.5 -86.5h277q-12 58 -49 87.5t-86 29.5zM298 587q-28 0 -47.5 19.5
t-19.5 46.5q0 28 19.5 47.5t47.5 19.5q27 0 46.5 -19.5t19.5 -47.5q0 -27 -19.5 -46.5t-46.5 -19.5z" />
    <glyph glyph-name="Eogonek" unicode="&#x118;" horiz-adv-x="562" 
d="M87 0v710h427v-112h-310v-182h250v-112h-250v-192h310v-112h-427zM424 -219q-45 0 -74 26t-29 68q0 65 76 125h117q-89 -49 -89 -101q0 -29 36 -29q32 0 53 19v-81q-33 -27 -90 -27z" />
    <glyph glyph-name="eogonek" unicode="&#x119;" horiz-adv-x="586" 
d="M425 157h115q-10 -30 -35 -69q-74 -120 -74 -180q0 -21 13 -33.5t35 -12.5q29 0 51 19v-73q-35 -27 -88 -27q-48 0 -78 28t-30 72q0 56 49 122q-43 -13 -88 -13q-112 0 -184 73.5t-72 186.5t71 186.5t186 73.5q116 0 187 -80.5t63 -206.5h-398q2 -58 44 -97t107 -39
q92 0 126 70zM293 418q-54 0 -92.5 -30.5t-49.5 -86.5h277q-12 58 -49 87.5t-86 29.5z" />
    <glyph glyph-name="Ecaron" unicode="&#x11a;" horiz-adv-x="562" 
d="M87 0v710h427v-112h-310v-182h250v-112h-250v-192h310v-112h-427zM300 766l-170 80v92l170 -80l170 80v-92z" />
    <glyph glyph-name="ecaron" unicode="&#x11b;" horiz-adv-x="585" 
d="M295 -10q-112 0 -184 73.5t-72 186.5t71 186.5t186 73.5q116 0 187 -80.5t63 -206.5h-398q2 -58 44 -97t107 -39q92 0 126 70h115q-23 -73 -88 -120t-157 -47zM293 418q-54 0 -92.5 -30.5t-49.5 -86.5h277q-12 58 -49 87.5t-86 29.5zM298 563l-166 99v94l166 -100
l166 100v-94z" />
    <glyph glyph-name="Gcircumflex" unicode="&#x11c;" horiz-adv-x="811" 
d="M413 -12q-159 0 -265 105.5t-106 261.5t105.5 261.5t264.5 105.5q117 0 209 -63t127 -159h-133q-28 49 -82.5 79t-120.5 30q-110 0 -181 -73t-71 -181t71 -181t182 -73q97 0 159 56t74 148h-243v110h363q19 -198 -84.5 -312.5t-268.5 -114.5zM242 766v92l170 80l170 -80
v-92l-170 80z" />
    <glyph glyph-name="gcircumflex" unicode="&#x11d;" horiz-adv-x="623" 
d="M300 -219q-102 0 -167.5 50t-75.5 130h108q29 -86 138 -86q59 0 97.5 38.5t38.5 108.5v59q-24 -34 -67 -56t-93 -22q-101 0 -170.5 73.5t-69.5 180.5q0 106 69.5 179.5t170.5 73.5q50 0 93 -21.5t67 -55.5v67h110v-469q0 -124 -70.5 -187t-178.5 -63zM299 104
q63 0 106 43.5t43 109.5t-43 109.5t-106 43.5t-106 -43.5t-43 -109.5t43 -109.5t106 -43.5zM313 756l166 -100v-93l-166 99l-166 -99v93z" />
    <glyph glyph-name="Gbreve" unicode="&#x11e;" horiz-adv-x="811" 
d="M413 -12q-159 0 -265 105.5t-106 261.5t105.5 261.5t264.5 105.5q117 0 209 -63t127 -159h-133q-28 49 -82.5 79t-120.5 30q-110 0 -181 -73t-71 -181t71 -181t182 -73q97 0 159 56t74 148h-243v110h363q19 -198 -84.5 -312.5t-268.5 -114.5zM412 755q-71 0 -118.5 45.5
t-47.5 120.5h68q0 -46 27.5 -72t70.5 -26t70.5 26t27.5 72h68q0 -75 -47.5 -120.5t-118.5 -45.5z" />
    <glyph glyph-name="gbreve" unicode="&#x11f;" horiz-adv-x="623" 
d="M300 -219q-102 0 -167.5 50t-75.5 130h108q29 -86 138 -86q59 0 97.5 38.5t38.5 108.5v59q-24 -34 -67 -56t-93 -22q-101 0 -170.5 73.5t-69.5 180.5q0 106 69.5 179.5t170.5 73.5q50 0 93 -21.5t67 -55.5v67h110v-469q0 -124 -70.5 -187t-178.5 -63zM299 104
q63 0 106 43.5t43 109.5t-43 109.5t-106 43.5t-106 -43.5t-43 -109.5t43 -109.5t106 -43.5zM313 569q-71 0 -118.5 45.5t-47.5 120.5v15h68v-15q0 -47 27.5 -73t70.5 -26t70.5 26t27.5 73v15h68v-15q0 -75 -47.5 -120.5t-118.5 -45.5z" />
    <glyph glyph-name="Gdotaccent" unicode="&#x120;" horiz-adv-x="811" 
d="M413 -12q-159 0 -265 105.5t-106 261.5t105.5 261.5t264.5 105.5q117 0 209 -63t127 -159h-133q-28 49 -82.5 79t-120.5 30q-110 0 -181 -73t-71 -181t71 -181t182 -73q97 0 159 56t74 148h-243v110h363q19 -198 -84.5 -312.5t-268.5 -114.5zM412 779q-28 0 -47.5 19.5
t-19.5 46.5q0 28 19.5 47.5t47.5 19.5q27 0 46.5 -19.5t19.5 -47.5q0 -27 -19.5 -46.5t-46.5 -19.5z" />
    <glyph glyph-name="gdotaccent" unicode="&#x121;" horiz-adv-x="623" 
d="M300 -219q-102 0 -167.5 50t-75.5 130h108q29 -86 138 -86q59 0 97.5 38.5t38.5 108.5v59q-24 -34 -67 -56t-93 -22q-101 0 -170.5 73.5t-69.5 180.5q0 106 69.5 179.5t170.5 73.5q50 0 93 -21.5t67 -55.5v67h110v-469q0 -124 -70.5 -187t-178.5 -63zM299 104
q63 0 106 43.5t43 109.5t-43 109.5t-106 43.5t-106 -43.5t-43 -109.5t43 -109.5t106 -43.5zM313 587q-28 0 -47.5 19.5t-19.5 46.5q0 28 19.5 47.5t47.5 19.5q27 0 46.5 -19.5t19.5 -47.5q0 -27 -19.5 -46.5t-46.5 -19.5z" />
    <glyph glyph-name="uni0122" unicode="&#x122;" horiz-adv-x="811" 
d="M413 -12q-159 0 -265 105.5t-106 261.5t105.5 261.5t264.5 105.5q117 0 209 -63t127 -159h-133q-28 49 -82.5 79t-120.5 30q-110 0 -181 -73t-71 -181t71 -181t182 -73q97 0 159 56t74 148h-243v110h363q19 -198 -84.5 -312.5t-268.5 -114.5zM345 -287l39 90
q-38 20 -38 60q0 27 19 46.5t47 19.5q27 0 46.5 -19.5t19.5 -46.5q0 -22 -13 -41l-68 -109h-52z" />
    <glyph glyph-name="uni0123" unicode="&#x123;" horiz-adv-x="623" 
d="M300 -219q-102 0 -167.5 50t-75.5 130h108q29 -86 138 -86q59 0 97.5 38.5t38.5 108.5v59q-24 -34 -67 -56t-93 -22q-101 0 -170.5 73.5t-69.5 180.5q0 106 69.5 179.5t170.5 73.5q50 0 93 -21.5t67 -55.5v67h110v-469q0 -124 -70.5 -187t-178.5 -63zM299 104
q63 0 106 43.5t43 109.5t-43 109.5t-106 43.5t-106 -43.5t-43 -109.5t43 -109.5t106 -43.5zM313 587q-27 0 -46.5 20t-19.5 47q0 21 13 40l68 109h52l-39 -90q38 -20 38 -59q0 -27 -19.5 -47t-46.5 -20z" />
    <glyph glyph-name="Hcircumflex" unicode="&#x124;" horiz-adv-x="760" 
d="M87 0v710h117v-294h351v294h117v-710h-117v305h-351v-305h-117zM210 766v92l170 80l170 -80v-92l-170 80z" />
    <glyph glyph-name="hcircumflex" unicode="&#x125;" horiz-adv-x="594" 
d="M184 0h-110v750h110v-318q47 78 152 78q87 0 139 -57t52 -152v-301h-110v283q0 60 -28 93.5t-76 33.5q-57 0 -93 -43t-36 -121v-246zM143 766v92l170 80l170 -80v-92l-170 80z" />
    <glyph glyph-name="Hbar" unicode="&#x126;" horiz-adv-x="781" 
d="M98 0v710h117v-294h351v294h117v-710h-117v305h-351v-305h-117zM25 522v85h731v-85h-731z" />
    <glyph glyph-name="hbar" unicode="&#x127;" horiz-adv-x="594" 
d="M184 0h-110v750h110v-318q47 78 152 78q87 0 139 -57t52 -152v-301h-110v283q0 60 -28 93.5t-76 33.5q-57 0 -93 -43t-36 -121v-246zM337 572h-330v78h330v-78z" />
    <glyph glyph-name="Itilde" unicode="&#x128;" horiz-adv-x="291" 
d="M87 0v710h117v-710h-117zM-34 782l3 22q8 47 39 75t73 28q30 0 73.5 -22.5t56.5 -22.5q33 0 43 45h72l-3 -22q-8 -47 -39 -74.5t-73 -27.5q-31 0 -74.5 22.5t-55.5 22.5q-32 0 -44 -46h-71z" />
    <glyph glyph-name="itilde" unicode="&#x129;" horiz-adv-x="258" 
d="M74 0v500h110v-500h-110zM-52 583l4 22q8 47 38.5 74.5t72.5 27.5q31 0 74.5 -22.5t55.5 -22.5q32 0 44 46h72l-4 -22q-8 -47 -38.5 -75t-72.5 -28q-31 0 -74.5 22.5t-55.5 22.5q-18 0 -28 -10.5t-16 -34.5h-72z" />
    <glyph glyph-name="Imacron" unicode="&#x12a;" horiz-adv-x="291" 
d="M87 0v710h117v-710h-117zM-20 798v82h332v-82h-332z" />
    <glyph glyph-name="imacron" unicode="&#x12b;" horiz-adv-x="258" 
d="M74 0v500h110v-500h-110zM-37 628v82h332v-82h-332z" />
    <glyph glyph-name="Ibreve" unicode="&#x12c;" horiz-adv-x="291" 
d="M87 0v710h117v-710h-117zM146 755q-71 0 -118.5 45.5t-47.5 120.5h68q0 -46 27.5 -72t70.5 -26t70.5 26t27.5 72h68q0 -75 -47.5 -120.5t-118.5 -45.5z" />
    <glyph glyph-name="ibreve" unicode="&#x12d;" horiz-adv-x="258" 
d="M74 0v500h110v-500h-110zM129 569q-71 0 -118.5 45.5t-47.5 120.5v15h68v-15q0 -47 27.5 -73t70.5 -26t70.5 26t27.5 73v15h68v-15q0 -75 -47.5 -120.5t-118.5 -45.5z" />
    <glyph glyph-name="Iogonek" unicode="&#x12e;" horiz-adv-x="291" 
d="M87 0v710h117v-710h-117zM114 -219q-45 0 -74 26t-29 68q0 65 76 125h117q-89 -49 -89 -101q0 -29 36 -29q32 0 53 19v-81q-33 -27 -90 -27z" />
    <glyph glyph-name="iogonek" unicode="&#x12f;" horiz-adv-x="258" 
d="M129 609q-30 0 -52 21.5t-22 52.5q0 30 22 51.5t52 21.5q31 0 52 -21.5t21 -51.5q0 -31 -21 -52.5t-52 -21.5zM74 0v500h110v-500h-110zM97 -219q-45 0 -72.5 26t-27.5 67q0 64 77 126h110q-90 -50 -90 -104q0 -34 37 -34q28 0 53 19v-73q-33 -27 -87 -27z" />
    <glyph glyph-name="Idotaccent" unicode="&#x130;" horiz-adv-x="291" 
d="M87 0v710h117v-710h-117zM146 779q-28 0 -47.5 19.5t-19.5 46.5q0 28 19.5 47.5t47.5 19.5q27 0 46.5 -19.5t19.5 -47.5q0 -27 -19.5 -46.5t-46.5 -19.5z" />
    <glyph glyph-name="dotlessi" unicode="&#x131;" horiz-adv-x="258" 
d="M74 0v500h110v-500h-110z" />
    <glyph glyph-name="Jcircumflex" unicode="&#x134;" horiz-adv-x="537" 
d="M239 -12q-93 0 -155.5 54.5t-62.5 154.5h116q0 -47 30 -73.5t72 -26.5q43 0 71.5 27t28.5 81v505h117v-515q0 -104 -61.5 -155.5t-155.5 -51.5zM227 766v92l170 80l170 -80v-92l-170 80z" />
    <glyph glyph-name="jcircumflex" unicode="&#x135;" horiz-adv-x="266" 
d="M192 500v-553q0 -80 -47.5 -123t-120.5 -43q-28 0 -47 3v96q14 -2 27 -2q78 0 78 85v537h110zM137 756l166 -100v-93l-166 99l-166 -99v93z" />
    <glyph glyph-name="uni0136" unicode="&#x136;" horiz-adv-x="682" 
d="M548 0l-345 332v-332h-116v710h116v-306l285 306h148l-316 -340l386 -370h-158zM308 -287l39 90q-38 20 -38 60q0 27 19 46.5t47 19.5q27 0 46.5 -19.5t19.5 -46.5q0 -22 -13 -41l-68 -109h-52z" />
    <glyph glyph-name="uni0137" unicode="&#x137;" horiz-adv-x="547" 
d="M423 0l-239 241v-241h-110v750h110v-440l191 190h139l-223 -223l273 -277h-141zM236 -287l39 90q-38 20 -38 60q0 27 19 46.5t47 19.5q27 0 46.5 -19.5t19.5 -46.5q0 -22 -13 -41l-68 -109h-52z" />
    <glyph glyph-name="Lacute" unicode="&#x139;" horiz-adv-x="549" 
d="M87 0v710h117v-598h325v-112h-442zM112 770l75 157h129l-118 -157h-86z" />
    <glyph glyph-name="lacute" unicode="&#x13a;" horiz-adv-x="258" 
d="M74 0v750h110v-750h-110zM91 810l100 190h133l-148 -190h-85z" />
    <glyph glyph-name="uni013B" unicode="&#x13b;" horiz-adv-x="549" 
d="M87 0v710h117v-598h325v-112h-442zM238 -287l39 90q-38 20 -38 60q0 27 19 46.5t47 19.5q27 0 46.5 -19.5t19.5 -46.5q0 -22 -13 -41l-68 -109h-52z" />
    <glyph glyph-name="uni013C" unicode="&#x13c;" horiz-adv-x="258" 
d="M74 0v750h110v-750h-110zM62 -287l39 90q-38 20 -38 60q0 27 19 46.5t47 19.5q27 0 46.5 -19.5t19.5 -46.5q0 -22 -13 -41l-68 -109h-52z" />
    <glyph glyph-name="Lcaron" unicode="&#x13d;" horiz-adv-x="550" 
d="M87 0v710h117v-598h325v-112h-442zM291 587l22 163h110l-57 -163h-75z" />
    <glyph glyph-name="lcaron" unicode="&#x13e;" horiz-adv-x="258" 
d="M74 0v750h110v-750h-110zM213 587l22 163h110l-57 -163h-75z" />
    <glyph glyph-name="Ldot" unicode="&#x13f;" horiz-adv-x="555" 
d="M87 0v710h117v-598h325v-112h-442zM420 345q-28 0 -47.5 19.5t-19.5 46.5q0 28 19.5 47.5t47.5 19.5q27 0 46.5 -19.5t19.5 -47.5q0 -27 -19.5 -46.5t-46.5 -19.5z" />
    <glyph glyph-name="ldot" unicode="&#x140;" horiz-adv-x="393" 
d="M74 0v750h110v-750h-110zM326 308q-28 0 -47.5 19.5t-19.5 46.5q0 28 19.5 47.5t47.5 19.5q27 0 46.5 -19.5t19.5 -47.5q0 -27 -19.5 -46.5t-46.5 -19.5z" />
    <glyph glyph-name="Lslash" unicode="&#x141;" horiz-adv-x="573" 
d="M110 0v710h117v-598h325v-112h-442zM376 421l-338 -208v99l338 208v-99z" />
    <glyph glyph-name="lslash" unicode="&#x142;" horiz-adv-x="334" 
d="M113 0v750h110v-750h-110zM300 409l-263 -161v91l263 162v-92z" />
    <glyph glyph-name="Nacute" unicode="&#x143;" horiz-adv-x="793" 
d="M706 0h-102l-400 511v-511h-117v710h102l399 -510v510h118v-710zM359 770l75 157h129l-118 -157h-86z" />
    <glyph glyph-name="nacute" unicode="&#x144;" horiz-adv-x="594" 
d="M74 0v500h110v-68q47 78 152 78q87 0 139 -57t52 -152v-301h-110v283q0 60 -28 93.5t-76 33.5q-57 0 -93 -43t-36 -121v-246h-110zM262 560l100 190h133l-148 -190h-85z" />
    <glyph glyph-name="uni0145" unicode="&#x145;" horiz-adv-x="793" 
d="M706 0h-102l-400 511v-511h-117v710h102l399 -510v510h118v-710zM331 -287l39 90q-38 20 -38 60q0 27 19 46.5t47 19.5q27 0 46.5 -19.5t19.5 -46.5q0 -22 -13 -41l-68 -109h-52z" />
    <glyph glyph-name="uni0146" unicode="&#x146;" horiz-adv-x="594" 
d="M74 0v500h110v-68q47 78 152 78q87 0 139 -57t52 -152v-301h-110v283q0 60 -28 93.5t-76 33.5q-57 0 -93 -43t-36 -121v-246h-110zM233 -287l39 90q-38 20 -38 60q0 27 19 46.5t47 19.5q27 0 46.5 -19.5t19.5 -46.5q0 -22 -13 -41l-68 -109h-52z" />
    <glyph glyph-name="Ncaron" unicode="&#x147;" horiz-adv-x="793" 
d="M706 0h-102l-400 511v-511h-117v710h102l399 -510v510h118v-710zM394 766l-170 80v92l170 -80l170 80v-92z" />
    <glyph glyph-name="ncaron" unicode="&#x148;" horiz-adv-x="594" 
d="M74 0v500h110v-68q47 78 152 78q87 0 139 -57t52 -152v-301h-110v283q0 60 -28 93.5t-76 33.5q-57 0 -93 -43t-36 -121v-246h-110zM300 563l-166 99v94l166 -100l166 100v-94z" />
    <glyph glyph-name="Eng" unicode="&#x14a;" horiz-adv-x="793" 
d="M706 710v-763q0 -81 -48 -123.5t-124 -42.5q-45 0 -81 12v105q29 -9 60 -9q39 0 57 19t18 65v47l-384 491v-511h-117v710h102l399 -510v510h118z" />
    <glyph glyph-name="eng" unicode="&#x14b;" horiz-adv-x="594" 
d="M74 0v500h110v-68q47 78 152 78q87 0 139 -57t52 -152v-349q0 -81 -48 -123.5t-123 -42.5q-32 0 -59 5v98q17 -3 35 -3q44 0 64.5 19t20.5 65v313q0 60 -28 93.5t-76 33.5q-57 0 -93 -43t-36 -121v-246h-110z" />
    <glyph glyph-name="Omacron" unicode="&#x14c;" horiz-adv-x="817" 
d="M409 101q104 0 176 74t72 180t-72 180t-176 74q-105 0 -177 -74t-72 -180t72 -180t177 -74zM409 -12q-153 0 -260 106.5t-107 260.5t107 260.5t260 106.5t260 -107t107 -260t-107 -260t-260 -107zM243 798v82h332v-82h-332z" />
    <glyph glyph-name="omacron" unicode="&#x14d;" horiz-adv-x="599" 
d="M300 -10q-111 0 -186.5 75.5t-75.5 184.5t75.5 184.5t186.5 75.5t186.5 -75.5t75.5 -184.5t-75.5 -184.5t-186.5 -75.5zM300 92q65 0 107.5 45.5t42.5 112.5t-42.5 112.5t-107.5 45.5q-66 0 -108.5 -45.5t-42.5 -112.5t42.5 -112.5t108.5 -45.5zM134 628v82h332v-82h-332
z" />
    <glyph glyph-name="Obreve" unicode="&#x14e;" horiz-adv-x="817" 
d="M409 101q104 0 176 74t72 180t-72 180t-176 74q-105 0 -177 -74t-72 -180t72 -180t177 -74zM409 -12q-153 0 -260 106.5t-107 260.5t107 260.5t260 106.5t260 -107t107 -260t-107 -260t-260 -107zM409 755q-71 0 -118.5 45.5t-47.5 120.5h68q0 -46 27.5 -72t70.5 -26
t70.5 26t27.5 72h68q0 -75 -47.5 -120.5t-118.5 -45.5z" />
    <glyph glyph-name="obreve" unicode="&#x14f;" horiz-adv-x="599" 
d="M300 -10q-111 0 -186.5 75.5t-75.5 184.5t75.5 184.5t186.5 75.5t186.5 -75.5t75.5 -184.5t-75.5 -184.5t-186.5 -75.5zM300 92q65 0 107.5 45.5t42.5 112.5t-42.5 112.5t-107.5 45.5q-66 0 -108.5 -45.5t-42.5 -112.5t42.5 -112.5t108.5 -45.5zM300 569
q-71 0 -118.5 45.5t-47.5 120.5v15h68v-15q0 -47 27.5 -73t70.5 -26t70.5 26t27.5 73v15h68v-15q0 -75 -47.5 -120.5t-118.5 -45.5z" />
    <glyph glyph-name="Ohungarumlaut" unicode="&#x150;" horiz-adv-x="817" 
d="M409 101q104 0 176 74t72 180t-72 180t-176 74q-105 0 -177 -74t-72 -180t72 -180t177 -74zM409 -12q-153 0 -260 106.5t-107 260.5t107 260.5t260 106.5t260 -107t107 -260t-107 -260t-260 -107zM462 770l68 157h120l-116 -157h-72zM288 770l67 157h121l-116 -157h-72z
" />
    <glyph glyph-name="ohungarumlaut" unicode="&#x151;" horiz-adv-x="599" 
d="M300 -10q-111 0 -186.5 75.5t-75.5 184.5t75.5 184.5t186.5 75.5t186.5 -75.5t75.5 -184.5t-75.5 -184.5t-186.5 -75.5zM300 92q65 0 107.5 45.5t42.5 112.5t-42.5 112.5t-107.5 45.5q-66 0 -108.5 -45.5t-42.5 -112.5t42.5 -112.5t108.5 -45.5zM346 560l68 190h120
l-116 -190h-72zM172 560l67 190h121l-116 -190h-72z" />
    <glyph glyph-name="OE" unicode="&#x152;" horiz-adv-x="1132" 
d="M409 101q104 0 176 74t72 180t-72 180t-176 74q-105 0 -177 -74t-72 -180t72 -180t177 -74zM657 0v95q-91 -107 -248 -107q-153 0 -260 106.5t-107 260.5t107 260.5t260 106.5q157 0 248 -107v95h427v-112h-309v-182h249v-112h-249v-192h309v-112h-427z" />
    <glyph glyph-name="oe" unicode="&#x153;" horiz-adv-x="997" 
d="M300 -10q-111 0 -186.5 75.5t-75.5 184.5t75.5 184.5t186.5 75.5q128 0 203 -96q72 96 205 96q115 0 185.5 -80t64.5 -207h-398q2 -58 44 -97t106 -39q93 0 127 70h114q-23 -73 -88 -120t-157 -47q-129 0 -203 95q-74 -95 -203 -95zM300 92q65 0 107.5 45.5t42.5 112.5
t-42.5 112.5t-107.5 45.5q-66 0 -108.5 -45.5t-42.5 -112.5t42.5 -112.5t108.5 -45.5zM704 418q-53 0 -91.5 -30.5t-49.5 -86.5h276q-11 58 -48.5 87.5t-86.5 29.5z" />
    <glyph glyph-name="Racute" unicode="&#x154;" horiz-adv-x="645" 
d="M87 0v710h256q98 0 156.5 -56.5t58.5 -145.5q0 -75 -41.5 -123.5t-119.5 -65.5l264 -319h-144l-260 312h-53v-312h-117zM204 414h125q52 0 82 24.5t30 69.5t-30 69.5t-82 24.5h-125v-188zM265 770l75 157h129l-118 -157h-86z" />
    <glyph glyph-name="racute" unicode="&#x155;" horiz-adv-x="380" 
d="M74 0v500h110v-89q14 42 51.5 68t80.5 26q26 0 43 -4v-113q-24 9 -55 9q-50 0 -85 -40.5t-35 -112.5v-244h-110zM178 560l100 190h133l-148 -190h-85z" />
    <glyph glyph-name="uni0156" unicode="&#x156;" horiz-adv-x="645" 
d="M87 0v710h256q98 0 156.5 -56.5t58.5 -145.5q0 -75 -41.5 -123.5t-119.5 -65.5l264 -319h-144l-260 312h-53v-312h-117zM204 414h125q52 0 82 24.5t30 69.5t-30 69.5t-82 24.5h-125v-188zM293 -287l39 90q-38 20 -38 60q0 27 19 46.5t47 19.5q27 0 46.5 -19.5t19.5 -46.5
q0 -22 -13 -41l-68 -109h-52z" />
    <glyph glyph-name="uni0157" unicode="&#x157;" horiz-adv-x="380" 
d="M74 0v500h110v-89q14 42 51.5 68t80.5 26q26 0 43 -4v-113q-24 9 -55 9q-50 0 -85 -40.5t-35 -112.5v-244h-110zM62 -287l39 90q-38 20 -38 60q0 27 19 46.5t47 19.5q27 0 46.5 -19.5t19.5 -46.5q0 -22 -13 -41l-68 -109h-52z" />
    <glyph glyph-name="Rcaron" unicode="&#x158;" horiz-adv-x="645" 
d="M87 0v710h256q98 0 156.5 -56.5t58.5 -145.5q0 -75 -41.5 -123.5t-119.5 -65.5l264 -319h-144l-260 312h-53v-312h-117zM204 414h125q52 0 82 24.5t30 69.5t-30 69.5t-82 24.5h-125v-188zM300 766l-170 80v92l170 -80l170 80v-92z" />
    <glyph glyph-name="rcaron" unicode="&#x159;" horiz-adv-x="380" 
d="M74 0v500h110v-89q14 42 51.5 68t80.5 26q26 0 43 -4v-113q-24 9 -55 9q-50 0 -85 -40.5t-35 -112.5v-244h-110zM216 563l-166 99v94l166 -100l166 100v-94z" />
    <glyph glyph-name="Sacute" unicode="&#x15a;" horiz-adv-x="577" 
d="M298 -12q-114 0 -184.5 63.5t-74.5 152.5h117q6 -51 47.5 -79t93.5 -28t85.5 24.5t33.5 65.5q0 72 -98 104l-87 29q-174 55 -174 205q0 91 62.5 144t163.5 53q105 0 167 -60.5t69 -142.5h-117q-11 47 -45 70.5t-76 23.5q-46 0 -76 -22.5t-31 -59.5q0 -38 23 -61.5
t73 -39.5l88 -28q176 -57 176 -211q0 -90 -65.5 -146.5t-170.5 -56.5zM253 770l75 157h129l-118 -157h-86z" />
    <glyph glyph-name="sacute" unicode="&#x15b;" horiz-adv-x="483" 
d="M250 -10q-89 0 -149.5 44t-64.5 118h114q12 -74 103 -74q37 0 59 13.5t22 39.5t-17 41t-57 25l-82 22q-128 34 -128 151q0 63 51 101.5t135 38.5q81 0 133 -41t58 -109h-110q-16 62 -82 62q-33 0 -53 -13.5t-20 -37.5q0 -43 67 -60l84 -22q133 -34 133 -151
q0 -71 -54.5 -109.5t-141.5 -38.5zM207 560l100 190h133l-148 -190h-85z" />
    <glyph glyph-name="Scircumflex" unicode="&#x15c;" horiz-adv-x="577" 
d="M298 -12q-114 0 -184.5 63.5t-74.5 152.5h117q6 -51 47.5 -79t93.5 -28t85.5 24.5t33.5 65.5q0 72 -98 104l-87 29q-174 55 -174 205q0 91 62.5 144t163.5 53q105 0 167 -60.5t69 -142.5h-117q-11 47 -45 70.5t-76 23.5q-46 0 -76 -22.5t-31 -59.5q0 -38 23 -61.5
t73 -39.5l88 -28q176 -57 176 -211q0 -90 -65.5 -146.5t-170.5 -56.5zM118 766v92l170 80l170 -80v-92l-170 80z" />
    <glyph glyph-name="scircumflex" unicode="&#x15d;" horiz-adv-x="483" 
d="M250 -10q-89 0 -149.5 44t-64.5 118h114q12 -74 103 -74q37 0 59 13.5t22 39.5t-17 41t-57 25l-82 22q-128 34 -128 151q0 63 51 101.5t135 38.5q81 0 133 -41t58 -109h-110q-16 62 -82 62q-33 0 -53 -13.5t-20 -37.5q0 -43 67 -60l84 -22q133 -34 133 -151
q0 -71 -54.5 -109.5t-141.5 -38.5zM245 756l166 -100v-93l-166 99l-166 -99v93z" />
    <glyph glyph-name="Scedilla" unicode="&#x15e;" horiz-adv-x="577" 
d="M298 -12q-114 0 -184.5 63.5t-74.5 152.5h117q6 -51 47.5 -79t93.5 -28t85.5 24.5t33.5 65.5q0 72 -98 104l-87 29q-174 55 -174 205q0 91 62.5 144t163.5 53q105 0 167 -60.5t69 -142.5h-117q-11 47 -45 70.5t-76 23.5q-46 0 -76 -22.5t-31 -59.5q0 -38 23 -61.5
t73 -39.5l88 -28q176 -57 176 -211q0 -90 -65.5 -146.5t-170.5 -56.5zM184 -204v58q30 -17 76 -17q65 0 65 38q0 29 -45 29q-22 0 -43 -10l-34 20l54 89h58l-32 -54q21 7 43 7q36 0 59 -20.5t23 -56.5q0 -44 -39 -71t-93 -27q-56 0 -92 15z" />
    <glyph glyph-name="scedilla" unicode="&#x15f;" horiz-adv-x="483" 
d="M250 -10q-89 0 -149.5 44t-64.5 118h114q12 -74 103 -74q37 0 59 13.5t22 39.5t-17 41t-57 25l-82 22q-128 34 -128 151q0 63 51 101.5t135 38.5q81 0 133 -41t58 -109h-110q-16 62 -82 62q-33 0 -53 -13.5t-20 -37.5q0 -43 67 -60l84 -22q133 -34 133 -151
q0 -71 -54.5 -109.5t-141.5 -38.5zM130 -204v58q30 -17 76 -17q65 0 65 38q0 29 -45 29q-24 0 -43 -10l-34 20l54 89h58l-33 -54q21 7 43 7q36 0 59.5 -20.5t23.5 -56.5q0 -43 -39.5 -70.5t-93.5 -27.5q-55 0 -91 15z" />
    <glyph glyph-name="Scaron" unicode="&#x160;" horiz-adv-x="577" 
d="M298 -12q-114 0 -184.5 63.5t-74.5 152.5h117q6 -51 47.5 -79t93.5 -28t85.5 24.5t33.5 65.5q0 72 -98 104l-87 29q-174 55 -174 205q0 91 62.5 144t163.5 53q105 0 167 -60.5t69 -142.5h-117q-11 47 -45 70.5t-76 23.5q-46 0 -76 -22.5t-31 -59.5q0 -38 23 -61.5
t73 -39.5l88 -28q176 -57 176 -211q0 -90 -65.5 -146.5t-170.5 -56.5zM288 766l-170 80v92l170 -80l170 80v-92z" />
    <glyph glyph-name="scaron" unicode="&#x161;" horiz-adv-x="483" 
d="M250 -10q-89 0 -149.5 44t-64.5 118h114q12 -74 103 -74q37 0 59 13.5t22 39.5t-17 41t-57 25l-82 22q-128 34 -128 151q0 63 51 101.5t135 38.5q81 0 133 -41t58 -109h-110q-16 62 -82 62q-33 0 -53 -13.5t-20 -37.5q0 -43 67 -60l84 -22q133 -34 133 -151
q0 -71 -54.5 -109.5t-141.5 -38.5zM245 563l-166 99v94l166 -100l166 100v-94z" />
    <glyph glyph-name="uni0162" unicode="&#x162;" horiz-adv-x="567" 
d="M225 0v598h-206v112h530v-112h-207v-598h-117zM216 -287l39 90q-38 20 -38 60q0 27 19 46.5t47 19.5q27 0 46.5 -19.5t19.5 -46.5q0 -22 -13 -41l-68 -109h-52z" />
    <glyph glyph-name="uni0163" unicode="&#x163;" horiz-adv-x="403" 
d="M291 -5q-76 0 -123.5 42.5t-47.5 123.5v241h-104v98h104v139h110v-139h143v-98h-143v-223q0 -46 20 -65.5t64 -19.5q36 0 59 10v-98q-36 -11 -82 -11zM186 -287l39 90q-38 20 -38 60q0 27 19 46.5t47 19.5q27 0 46.5 -19.5t19.5 -46.5q0 -22 -13 -41l-68 -109h-52z" />
    <glyph glyph-name="Tcaron" unicode="&#x164;" horiz-adv-x="567" 
d="M225 0v598h-206v112h530v-112h-207v-598h-117zM283 766l-170 80v92l170 -80l170 80v-92z" />
    <glyph glyph-name="tcaron" unicode="&#x165;" horiz-adv-x="403" 
d="M291 -5q-76 0 -123.5 42.5t-47.5 123.5v241h-104v98h104v139h110v-139h143v-98h-143v-223q0 -46 20 -65.5t64 -19.5q36 0 59 10v-98q-36 -11 -82 -11zM258 547l22 163h110l-57 -163h-75z" />
    <glyph glyph-name="Tbar" unicode="&#x166;" horiz-adv-x="593" 
d="M238 0v598h-206v112h530v-112h-207v-598h-117zM89 310v103h415v-103h-415z" />
    <glyph glyph-name="tbar" unicode="&#x167;" horiz-adv-x="415" 
d="M299 -5q-76 0 -123.5 42.5t-47.5 123.5v241h-104v98h104v139h110v-139h143v-98h-143v-223q0 -46 20 -65.5t64 -19.5q36 0 59 10v-98q-36 -11 -82 -11zM24 244v79h357v-79h-357z" />
    <glyph glyph-name="Utilde" unicode="&#x168;" horiz-adv-x="723" 
d="M362 -12q-127 0 -205 79t-78 211v432h117v-434q0 -83 45 -129t121 -46t120.5 46t44.5 129v434h117v-432q0 -131 -79 -210.5t-203 -79.5zM182 782l3 22q8 47 39 75t73 28q30 0 73.5 -22.5t56.5 -22.5q33 0 43 45h72l-3 -22q-8 -47 -39 -74.5t-73 -27.5q-31 0 -74.5 22.5
t-55.5 22.5q-32 0 -44 -46h-71z" />
    <glyph glyph-name="utilde" unicode="&#x169;" horiz-adv-x="583" 
d="M253 -10q-86 0 -136 57.5t-50 153.5v299h110v-281q0 -60 26 -94.5t74 -34.5q56 0 89 42.5t33 121.5v246h110v-500h-110v68q-44 -78 -146 -78zM107 583l4 22q8 47 38.5 74.5t72.5 27.5q31 0 74.5 -22.5t55.5 -22.5q32 0 44 46h72l-4 -22q-8 -47 -38.5 -75t-72.5 -28
q-31 0 -74.5 22.5t-55.5 22.5q-18 0 -28 -10.5t-16 -34.5h-72z" />
    <glyph glyph-name="Umacron" unicode="&#x16a;" horiz-adv-x="723" 
d="M362 -12q-127 0 -205 79t-78 211v432h117v-434q0 -83 45 -129t121 -46t120.5 46t44.5 129v434h117v-432q0 -131 -79 -210.5t-203 -79.5zM196 798v82h332v-82h-332z" />
    <glyph glyph-name="umacron" unicode="&#x16b;" horiz-adv-x="583" 
d="M253 -10q-86 0 -136 57.5t-50 153.5v299h110v-281q0 -60 26 -94.5t74 -34.5q56 0 89 42.5t33 121.5v246h110v-500h-110v68q-44 -78 -146 -78zM122 628v82h332v-82h-332z" />
    <glyph glyph-name="Ubreve" unicode="&#x16c;" horiz-adv-x="723" 
d="M362 -12q-127 0 -205 79t-78 211v432h117v-434q0 -83 45 -129t121 -46t120.5 46t44.5 129v434h117v-432q0 -131 -79 -210.5t-203 -79.5zM362 755q-71 0 -118.5 45.5t-47.5 120.5h68q0 -46 27.5 -72t70.5 -26t70.5 26t27.5 72h68q0 -75 -47.5 -120.5t-118.5 -45.5z" />
    <glyph glyph-name="ubreve" unicode="&#x16d;" horiz-adv-x="583" 
d="M253 -10q-86 0 -136 57.5t-50 153.5v299h110v-281q0 -60 26 -94.5t74 -34.5q56 0 89 42.5t33 121.5v246h110v-500h-110v68q-44 -78 -146 -78zM288 569q-71 0 -118.5 45.5t-47.5 120.5v15h68v-15q0 -47 27.5 -73t70.5 -26t70.5 26t27.5 73v15h68v-15q0 -75 -47.5 -120.5
t-118.5 -45.5z" />
    <glyph glyph-name="Uring" unicode="&#x16e;" horiz-adv-x="723" 
d="M362 -12q-127 0 -205 79t-78 211v432h117v-434q0 -83 45 -129t121 -46t120.5 46t44.5 129v434h117v-432q0 -131 -79 -210.5t-203 -79.5zM362 753q-50 0 -85.5 35t-35.5 85t35.5 85t85.5 35t86 -35.5t36 -84.5t-36 -84.5t-86 -35.5zM362 809q28 0 47 18.5t19 45.5t-19 46
t-47 19q-26 0 -45 -19.5t-19 -45.5q0 -27 19 -45.5t45 -18.5z" />
    <glyph glyph-name="uring" unicode="&#x16f;" horiz-adv-x="583" 
d="M253 -10q-86 0 -136 57.5t-50 153.5v299h110v-281q0 -60 26 -94.5t74 -34.5q56 0 89 42.5t33 121.5v246h110v-500h-110v68q-44 -78 -146 -78zM288 543q-50 0 -85.5 35t-35.5 85t35.5 85t85.5 35t86 -35.5t36 -84.5t-36 -84.5t-86 -35.5zM288 599q28 0 47 18.5t19 45.5
t-19 46t-47 19q-26 0 -45 -19.5t-19 -45.5q0 -27 19 -45.5t45 -18.5z" />
    <glyph glyph-name="Uhungarumlaut" unicode="&#x170;" horiz-adv-x="723" 
d="M362 -12q-127 0 -205 79t-78 211v432h117v-434q0 -83 45 -129t121 -46t120.5 46t44.5 129v434h117v-432q0 -131 -79 -210.5t-203 -79.5zM415 770l68 157h120l-116 -157h-72zM241 770l67 157h121l-116 -157h-72z" />
    <glyph glyph-name="uhungarumlaut" unicode="&#x171;" horiz-adv-x="583" 
d="M253 -10q-86 0 -136 57.5t-50 153.5v299h110v-281q0 -60 26 -94.5t74 -34.5q56 0 89 42.5t33 121.5v246h110v-500h-110v68q-44 -78 -146 -78zM334 560l68 190h120l-116 -190h-72zM160 560l67 190h121l-116 -190h-72z" />
    <glyph glyph-name="Uogonek" unicode="&#x172;" horiz-adv-x="723" 
d="M416 -219q-45 0 -74 26t-29 68q0 61 59 113h-9q-128 0 -206 79t-78 211v432h117v-434q0 -83 45 -129t121 -46t120.5 46t44.5 129v434h117v-432q0 -147 -97 -228q-8 -7 -23 -19.5t-22.5 -19t-20 -17t-18.5 -17t-15 -15.5t-13.5 -15.5t-9 -14.5t-6.5 -15.5t-2 -14.5
q0 -32 36 -32q32 0 53 19v-81q-33 -27 -90 -27z" />
    <glyph glyph-name="uogonek" unicode="&#x173;" horiz-adv-x="583" 
d="M253 -10q-86 0 -136 57.5t-50 153.5v299h110v-281q0 -60 26 -94.5t74 -34.5q56 0 89 42.5t33 121.5v246h110v-500h-110v68q-44 -78 -146 -78zM422 -219q-45 0 -72.5 26t-27.5 67q0 64 77 126h110q-90 -50 -90 -104q0 -34 37 -34q28 0 53 19v-73q-33 -27 -87 -27z" />
    <glyph glyph-name="Wcircumflex" unicode="&#x174;" horiz-adv-x="953" 
d="M642 0l-165 434l-165 -434h-108l-183 710h123l129 -516l204 528l203 -528l130 516h124l-184 -710h-108zM307 766v92l170 80l170 -80v-92l-170 80z" />
    <glyph glyph-name="wcircumflex" unicode="&#x175;" horiz-adv-x="780" 
d="M500 0l-110 323l-109 -323h-104l-168 500h116l108 -345l115 345h84l113 -345l110 345h117l-168 -500h-104zM391 756l166 -100v-93l-166 99l-166 -99v93z" />
    <glyph glyph-name="Ycircumflex" unicode="&#x176;" horiz-adv-x="681" 
d="M282 0v300l-269 410h137l190 -294l191 294h138l-270 -411v-299h-117zM170 766v92l170 80l170 -80v-92l-170 80z" />
    <glyph glyph-name="ycircumflex" unicode="&#x177;" horiz-adv-x="558" 
d="M234 -209h-121l107 236l-215 473h121l153 -354l154 354h122zM281 756l166 -100v-93l-166 99l-166 -99v93z" />
    <glyph glyph-name="Ydieresis" unicode="&#x178;" horiz-adv-x="681" 
d="M282 0v300l-269 410h137l190 -294l191 294h138l-270 -411v-299h-117zM226 779q-28 0 -47.5 19.5t-19.5 46.5q0 28 19.5 47.5t47.5 19.5q27 0 46 -19.5t19 -47.5q0 -27 -19 -46.5t-46 -19.5zM455 779q-27 0 -46.5 19.5t-19.5 46.5q0 28 19.5 47.5t46.5 19.5q28 0 47 -19.5
t19 -47.5q0 -27 -19 -46.5t-47 -19.5z" />
    <glyph glyph-name="Zacute" unicode="&#x179;" horiz-adv-x="602" 
d="M36 0v79l362 519h-353v112h512v-79l-364 -519h372v-112h-529zM270 770l75 157h129l-118 -157h-86z" />
    <glyph glyph-name="zacute" unicode="&#x17a;" horiz-adv-x="490" 
d="M40 0v87l262 313h-258v100h400v-88l-262 -312h270v-100h-412zM206 560l100 190h133l-148 -190h-85z" />
    <glyph glyph-name="Zdotaccent" unicode="&#x17b;" horiz-adv-x="602" 
d="M36 0v79l362 519h-353v112h512v-79l-364 -519h372v-112h-529zM305 779q-28 0 -47.5 19.5t-19.5 46.5q0 28 19.5 47.5t47.5 19.5q27 0 46.5 -19.5t19.5 -47.5q0 -27 -19.5 -46.5t-46.5 -19.5z" />
    <glyph glyph-name="zdotaccent" unicode="&#x17c;" horiz-adv-x="490" 
d="M40 0v87l262 313h-258v100h400v-88l-262 -312h270v-100h-412zM244 587q-28 0 -47.5 19.5t-19.5 46.5q0 28 19.5 47.5t47.5 19.5q27 0 46.5 -19.5t19.5 -47.5q0 -27 -19.5 -46.5t-46.5 -19.5z" />
    <glyph glyph-name="Zcaron" unicode="&#x17d;" horiz-adv-x="602" 
d="M36 0v79l362 519h-353v112h512v-79l-364 -519h372v-112h-529zM305 766l-170 80v92l170 -80l170 80v-92z" />
    <glyph glyph-name="zcaron" unicode="&#x17e;" horiz-adv-x="490" 
d="M40 0v87l262 313h-258v100h400v-88l-262 -312h270v-100h-412zM244 563l-166 99v94l166 -100l166 100v-94z" />
    <glyph glyph-name="uni018F" unicode="&#x18f;" horiz-adv-x="818" 
d="M409 -12q-156 0 -261.5 106.5t-105.5 260.5v47h612q-20 96 -88 151.5t-158 55.5q-69 0 -126 -30t-86 -79h-133q33 95 131 158.5t215 63.5q153 0 260 -106t107 -261q0 -154 -105.5 -260.5t-261.5 -106.5zM410 101q89 0 156.5 53t85.5 144h-486q19 -92 86 -144.5t158 -52.5
z" />
    <glyph glyph-name="uni0218" unicode="&#x218;" horiz-adv-x="577" 
d="M298 -12q-114 0 -184.5 63.5t-74.5 152.5h117q6 -51 47.5 -79t93.5 -28t85.5 24.5t33.5 65.5q0 72 -98 104l-87 29q-174 55 -174 205q0 91 62.5 144t163.5 53q105 0 167 -60.5t69 -142.5h-117q-11 47 -45 70.5t-76 23.5q-46 0 -76 -22.5t-31 -59.5q0 -38 23 -61.5
t73 -39.5l88 -28q176 -57 176 -211q0 -90 -65.5 -146.5t-170.5 -56.5zM229 -287l39 90q-38 20 -38 60q0 27 19 46.5t47 19.5q27 0 46.5 -19.5t19.5 -46.5q0 -22 -13 -41l-68 -109h-52z" />
    <glyph glyph-name="uni0219" unicode="&#x219;" horiz-adv-x="483" 
d="M250 -10q-89 0 -149.5 44t-64.5 118h114q12 -74 103 -74q37 0 59 13.5t22 39.5t-17 41t-57 25l-82 22q-128 34 -128 151q0 63 51 101.5t135 38.5q81 0 133 -41t58 -109h-110q-16 62 -82 62q-33 0 -53 -13.5t-20 -37.5q0 -43 67 -60l84 -22q133 -34 133 -151
q0 -71 -54.5 -109.5t-141.5 -38.5zM172 -287l39 90q-38 20 -38 60q0 27 19 46.5t47 19.5q27 0 46.5 -19.5t19.5 -46.5q0 -22 -13 -41l-68 -109h-52z" />
    <glyph glyph-name="uni021A" unicode="&#x21a;" horiz-adv-x="567" 
d="M225 0v598h-206v112h530v-112h-207v-598h-117zM216 -287l39 90q-38 20 -38 60q0 27 19 46.5t47 19.5q27 0 46.5 -19.5t19.5 -46.5q0 -22 -13 -41l-68 -109h-52z" />
    <glyph glyph-name="uni021B" unicode="&#x21b;" horiz-adv-x="403" 
d="M291 -5q-76 0 -123.5 42.5t-47.5 123.5v241h-104v98h104v139h110v-139h143v-98h-143v-223q0 -46 20 -65.5t64 -19.5q36 0 59 10v-98q-36 -11 -82 -11zM186 -287l39 90q-38 20 -38 60q0 27 19 46.5t47 19.5q27 0 46.5 -19.5t19.5 -46.5q0 -22 -13 -41l-68 -109h-52z" />
    <glyph glyph-name="uni0232" unicode="&#x232;" horiz-adv-x="681" 
d="M282 0v300l-269 410h137l190 -294l191 294h138l-270 -411v-299h-117zM174 798v82h332v-82h-332z" />
    <glyph glyph-name="uni0233" unicode="&#x233;" horiz-adv-x="558" 
d="M234 -209h-121l107 236l-215 473h121l153 -354l154 354h122zM115 628v82h332v-82h-332z" />
    <glyph glyph-name="uni0237" unicode="&#x237;" horiz-adv-x="266" 
d="M192 500v-553q0 -80 -47.5 -123t-120.5 -43q-28 0 -47 3v96q14 -2 27 -2q78 0 78 85v537h110z" />
    <glyph glyph-name="uni0259" unicode="&#x259;" horiz-adv-x="586" 
d="M294 510q109 0 181 -73.5t72 -186.5q0 -117 -68.5 -188.5t-186.5 -71.5q-116 0 -187.5 80t-65.5 207h398q-4 58 -43.5 97t-100.5 39q-96 0 -133 -70h-114q21 73 87.5 120t160.5 47zM296 82q53 0 90 30t48 87h-276q11 -59 49 -88t89 -29z" />
    <glyph glyph-name="uni02BB" unicode="&#x2bb;" horiz-adv-x="262" 
d="M52 538l108 172h68l-70 -147q22 -10 36 -31.5t14 -47.5q0 -35 -25 -60.5t-61 -25.5t-61 25.5t-25 60.5q0 29 16 54z" />
    <glyph glyph-name="uni02BC" unicode="&#x2bc;" horiz-adv-x="266" 
d="M222 581l-108 -171h-68l70 146q-21 10 -35.5 31.5t-14.5 47.5q0 36 25.5 61.5t60.5 25.5q36 0 61.5 -25.5t25.5 -61.5q0 -28 -17 -54z" />
    <glyph glyph-name="circumflex" unicode="&#x2c6;" 
d="M0 756l166 -100v-93l-166 99l-166 -99v93z" />
    <glyph glyph-name="caron" unicode="&#x2c7;" 
d="M0 563l-166 99v94l166 -100l166 100v-94z" />
    <glyph glyph-name="breve" unicode="&#x2d8;" 
d="M0 569q-71 0 -118.5 45.5t-47.5 120.5v15h68v-15q0 -47 27.5 -73t70.5 -26t70.5 26t27.5 73v15h68v-15q0 -75 -47.5 -120.5t-118.5 -45.5z" />
    <glyph glyph-name="dotaccent" unicode="&#x2d9;" 
d="M0 587q-28 0 -47.5 19.5t-19.5 46.5q0 28 19.5 47.5t47.5 19.5q27 0 46.5 -19.5t19.5 -47.5q0 -27 -19.5 -46.5t-46.5 -19.5z" />
    <glyph glyph-name="ring" unicode="&#x2da;" 
d="M0 543q-50 0 -85.5 35t-35.5 85t35.5 85t85.5 35t86 -35.5t36 -84.5t-36 -84.5t-86 -35.5zM0 599q28 0 47 18.5t19 45.5t-19 46t-47 19q-26 0 -45 -19.5t-19 -45.5q0 -27 19 -45.5t45 -18.5z" />
    <glyph glyph-name="ogonek" unicode="&#x2db;" 
d="M6 -219q-45 0 -72.5 26t-27.5 67q0 64 77 126h110q-90 -50 -90 -104q0 -34 37 -34q28 0 53 19v-73q-33 -27 -87 -27z" />
    <glyph glyph-name="tilde" unicode="&#x2dc;" 
d="M-181 583l4 22q8 47 38.5 74.5t72.5 27.5q31 0 74.5 -22.5t55.5 -22.5q32 0 44 46h72l-4 -22q-8 -47 -38.5 -75t-72.5 -28q-31 0 -74.5 22.5t-55.5 22.5q-18 0 -28 -10.5t-16 -34.5h-72z" />
    <glyph glyph-name="hungarumlaut" unicode="&#x2dd;" 
d="M-7 560l68 190h120l-116 -190h-72zM-181 560l67 190h121l-116 -190h-72z" />
    <glyph glyph-name="uni0401" unicode="&#x401;" horiz-adv-x="562" 
d="M87 0v710h427v-112h-310v-182h250v-112h-250v-192h310v-112h-427zM186 779q-28 0 -47.5 19.5t-19.5 46.5q0 28 19.5 47.5t47.5 19.5q27 0 46 -19.5t19 -47.5q0 -27 -19 -46.5t-46 -19.5zM415 779q-27 0 -46.5 19.5t-19.5 46.5q0 28 19.5 47.5t46.5 19.5q28 0 47 -19.5
t19 -47.5q0 -27 -19 -46.5t-47 -19.5z" />
    <glyph glyph-name="uni0402" unicode="&#x402;" horiz-adv-x="759" 
d="M500 444q106 0 166.5 -65.5t60.5 -164.5q0 -107 -66.5 -166.5t-162.5 -59.5q-35 0 -81 6v107q42 -5 74 -5q52 0 86 31t34 87q0 54 -35.5 86.5t-97.5 32.5q-72 0 -119.5 -47t-47.5 -130v-156h-117v598h-175v112h512v-112h-220v-240q29 41 79 63.5t110 22.5z" />
    <glyph glyph-name="uni0403" unicode="&#x403;" horiz-adv-x="517" 
d="M497 710v-112h-292v-598h-118v710h410zM258 770l75 157h129l-118 -157h-86z" />
    <glyph glyph-name="uni0404" unicode="&#x404;" horiz-adv-x="784" 
d="M412 -11q-159 0 -264.5 105.5t-105.5 261.5q0 155 106 261t264 106q126 0 220.5 -71.5t121.5 -178.5h-126q-22 60 -82 98.5t-134 38.5q-95 0 -162 -56t-85 -144h337v-106h-337q16 -89 83.5 -146t163.5 -57q74 0 134 38.5t82 98.5h126q-27 -107 -121.5 -178t-220.5 -71z
" />
    <glyph glyph-name="uni0405" unicode="&#x405;" horiz-adv-x="578" 
d="M298 -12q-113 0 -184.5 64t-73.5 152h117q6 -51 47.5 -79t93.5 -28q51 0 85 24.5t34 65.5q0 71 -98 104l-88 29q-173 55 -174 205q0 91 62.5 144t163.5 53q105 0 167 -60.5t69 -142.5h-116q-14 48 -46.5 71t-74.5 23q-46 0 -76.5 -22.5t-30.5 -59.5q-1 -38 22.5 -61.5
t73.5 -39.5l87 -28q177 -57 177 -211q0 -90 -66 -146.5t-171 -56.5z" />
    <glyph glyph-name="uni0406" unicode="&#x406;" horiz-adv-x="291" 
d="M87 0v710h117v-710h-117z" />
    <glyph glyph-name="uni0407" unicode="&#x407;" horiz-adv-x="291" 
d="M87 0v710h117v-710h-117zM48 797q-28 0 -47.5 20t-19.5 48t19.5 47.5t47.5 19.5t48 -19.5t20 -47.5t-20 -48t-48 -20zM241 797q-28 0 -47.5 20t-19.5 48t19.5 47.5t47.5 19.5t48 -19.5t20 -47.5t-20 -48t-48 -20z" />
    <glyph glyph-name="uni0408" unicode="&#x408;" horiz-adv-x="537" 
d="M239 -12q-93 0 -155.5 54.5t-62.5 154.5h116q0 -47 30 -73.5t72 -26.5q43 0 71.5 27t28.5 81v505h117v-515q0 -104 -61.5 -155.5t-155.5 -51.5z" />
    <glyph glyph-name="uni0409" unicode="&#x409;" horiz-adv-x="1037" 
d="M891 211q0 45 -33 70t-95 25h-119v-196h119q128 0 128 101zM141 710h503v-294h120q111 0 176.5 -57t65.5 -146q0 -93 -67 -153t-175 -60h-238v598h-267v-388q0 -112 -47 -167t-130 -55q-36 0 -61 4v109q21 -3 46 -3q38 0 56 27t18 100v485z" />
    <glyph glyph-name="uni040A" unicode="&#x40a;" horiz-adv-x="1044" 
d="M87 0v710h118v-294h334v294h117v-294h116q111 0 176.5 -57t65.5 -146q0 -93 -67 -153t-175 -60h-233v305h-334v-305h-118zM770 306h-114v-196h114q128 0 128 101q0 45 -33 70t-95 25z" />
    <glyph glyph-name="uni040B" unicode="&#x40b;" horiz-adv-x="769" 
d="M194 598h-175v112h512v-112h-220v-240q63 86 190 86q99 0 161.5 -65.5t62.5 -172.5v-206h-117v181q0 76 -36 114t-99 38q-66 0 -114 -46.5t-48 -135.5v-151h-117v598z" />
    <glyph glyph-name="uni040C" unicode="&#x40c;" horiz-adv-x="682" 
d="M548 0l-345 332v-332h-116v710h116v-306l285 306h148l-316 -340l386 -370h-158zM311 770l75 157h129l-118 -157h-86z" />
    <glyph glyph-name="uni040E" unicode="&#x40e;" horiz-adv-x="710" 
d="M133 -6v109q25 -4 62 -4q36 0 62 15.5t48 57.5l-277 538h134l210 -409l211 409h131l-286 -552q-46 -92 -96 -131t-122 -39q-31 0 -77 6zM373 755q-71 0 -118.5 45.5t-47.5 120.5h77q0 -45 24 -71t65 -26t65 26t24 71h77q0 -75 -47.5 -120.5t-118.5 -45.5z" />
    <glyph glyph-name="uni040F" unicode="&#x40f;" horiz-adv-x="735" 
d="M422 0v-148h-108v148h-227v710h118v-598h325v598h117v-710h-225z" />
    <glyph glyph-name="uni0410" unicode="&#x410;" horiz-adv-x="730" 
d="M4 0l310 710h102l310 -710h-122l-81 186h-318l-80 -186h-121zM364 552l-114 -262h228z" />
    <glyph glyph-name="uni0411" unicode="&#x411;" horiz-adv-x="630" 
d="M205 429h153q106 0 173.5 -58.5t67.5 -156.5q0 -97 -68 -155.5t-173 -58.5h-271v710h448v-112h-330v-169zM483 214q0 52 -33 79.5t-93 27.5h-152v-212h152q60 0 93 27t33 78z" />
    <glyph glyph-name="uni0412" unicode="&#x412;" horiz-adv-x="631" 
d="M87 0v710h245q93 0 152.5 -57t59.5 -139q0 -88 -66 -137q114 -47 114 -169q0 -89 -64.5 -148.5t-164.5 -59.5h-276zM204 107h156q56 0 87 28t31 74q0 45 -31 73.5t-87 28.5h-156v-204zM204 411h122q47 0 75 27t28 69q0 40 -28 68t-75 28h-122v-192z" />
    <glyph glyph-name="uni0413" unicode="&#x413;" horiz-adv-x="517" 
d="M497 710v-112h-292v-598h-118v710h410z" />
    <glyph glyph-name="uni0414" unicode="&#x414;" horiz-adv-x="766" 
d="M625 -148v148h-487v-148h-107v260h13q91 0 91 225v373h507v-598h90v-260h-107zM253 598v-275q0 -143 -42 -211h314v486h-272z" />
    <glyph glyph-name="uni0415" unicode="&#x415;" horiz-adv-x="562" 
d="M87 0v710h427v-112h-310v-182h250v-112h-250v-192h310v-112h-427z" />
    <glyph glyph-name="uni0416" unicode="&#x416;" horiz-adv-x="992" 
d="M855 0l-301 315v-315h-117v314l-300 -314h-150l337 356l-307 354h141l279 -322v322h117v-322l280 322h141l-308 -354l338 -356h-150z" />
    <glyph glyph-name="uni0417" unicode="&#x417;" horiz-adv-x="586" 
d="M171 527h-117q19 99 86.5 147t153.5 48q99 0 159.5 -52t60.5 -138q0 -102 -79 -156q105 -53 105 -173q0 -100 -71 -157.5t-174 -57.5t-177.5 54.5t-88.5 156.5h118q12 -51 52 -76t95 -25q62 0 96.5 30.5t34.5 82.5q0 47 -32.5 76t-90.5 29h-83v100h80q49 0 75 27.5
t26 71.5t-28.5 71.5t-80.5 27.5q-43 0 -75.5 -23t-44.5 -64z" />
    <glyph glyph-name="uni0418" unicode="&#x418;" horiz-adv-x="793" 
d="M189 0h-102v710h118v-510l399 510h102v-710h-117v511z" />
    <glyph glyph-name="uni0419" unicode="&#x419;" horiz-adv-x="793" 
d="M189 0h-102v710h118v-510l399 510h102v-710h-117v511zM406 755q-71 0 -118.5 45.5t-47.5 120.5h77q0 -45 24 -71t65 -26t65 26t24 71h77q0 -75 -47.5 -120.5t-118.5 -45.5z" />
    <glyph glyph-name="uni041A" unicode="&#x41a;" horiz-adv-x="682" 
d="M548 0l-345 332v-332h-116v710h116v-306l285 306h148l-316 -340l386 -370h-158z" />
    <glyph glyph-name="uni041B" unicode="&#x41b;" horiz-adv-x="736" 
d="M141 225v485h508v-710h-118v598h-272v-389q0 -111 -47 -166t-130 -55q-41 0 -61 4v109q19 -3 46 -3q38 0 56 27t18 100z" />
    <glyph glyph-name="uni041C" unicode="&#x41c;" horiz-adv-x="885" 
d="M87 710h107l248 -336l249 336h107v-710h-118v509l-237 -322l-239 323v-510h-117v710z" />
    <glyph glyph-name="uni041D" unicode="&#x41d;" horiz-adv-x="760" 
d="M87 0v710h117v-294h351v294h117v-710h-117v305h-351v-305h-117z" />
    <glyph glyph-name="uni041E" unicode="&#x41e;" horiz-adv-x="817" 
d="M409 101q104 0 176 74t72 180t-72 180t-176 74q-105 0 -177 -74t-72 -180t72 -180t177 -74zM409 -12q-153 0 -260 106.5t-107 260.5t107 260.5t260 106.5t260 -107t107 -260t-107 -260t-260 -107z" />
    <glyph glyph-name="uni041F" unicode="&#x41f;" horiz-adv-x="747" 
d="M544 0v598h-341v-598h-116v710h573v-710h-116z" />
    <glyph glyph-name="uni0420" unicode="&#x420;" horiz-adv-x="588" 
d="M559 478q0 -99 -69 -165.5t-177 -66.5h-109v-246h-117v710h226q108 0 177 -66.5t69 -165.5zM444 478q0 53 -35.5 87.5t-96.5 34.5h-108v-244h108q61 0 96.5 34.5t35.5 87.5z" />
    <glyph glyph-name="uni0421" unicode="&#x421;" horiz-adv-x="785" 
d="M412 -12q-159 0 -264.5 105.5t-105.5 261.5t105.5 261.5t264.5 105.5q126 0 220.5 -71.5t121.5 -178.5h-126q-23 61 -82 99t-134 38q-110 0 -181 -73t-71 -181t71 -181t181 -73q75 0 134 38t82 99h126q-27 -107 -121.5 -178.5t-220.5 -71.5z" />
    <glyph glyph-name="uni0422" unicode="&#x422;" horiz-adv-x="567" 
d="M225 0v598h-206v112h530v-112h-207v-598h-117z" />
    <glyph glyph-name="uni0423" unicode="&#x423;" horiz-adv-x="710" 
d="M133 -6v109q25 -4 62 -4q36 0 62 15.5t48 57.5l-277 538h134l210 -409l211 409h131l-286 -552q-46 -92 -96 -131t-122 -39q-31 0 -77 6z" />
    <glyph glyph-name="uni0424" unicode="&#x424;" horiz-adv-x="882" 
d="M383 168v381h-4q-111 1 -166 -50t-55 -140q0 -90 55 -140.5t166 -50.5h4zM500 -30h-117v91h-4q-157 0 -248.5 78.5t-91.5 219.5q0 139 91.5 217.5t248.5 78.5h4v85h117v-85h3q158 0 249 -78.5t91 -217.5q0 -141 -91.5 -219.5t-248.5 -78.5h-3v-91zM500 168h4
q111 0 166 51t55 140t-55.5 140t-165.5 50h-4v-381z" />
    <glyph glyph-name="uni0425" unicode="&#x425;" horiz-adv-x="683" 
d="M140 0h-141l271 360l-258 350h138l191 -259l192 259h138l-258 -351l271 -359h-140l-202 266z" />
    <glyph glyph-name="uni0426" unicode="&#x426;" horiz-adv-x="765" 
d="M641 112h90v-260h-108v148h-536v710h118v-598h318v598h118v-598z" />
    <glyph glyph-name="uni0427" unicode="&#x427;" horiz-adv-x="686" 
d="M599 0h-118v341q-63 -87 -197 -87q-106 0 -173 66t-67 175v215h118v-190q0 -77 38 -115.5t108 -38.5q73 0 123 47t50 138v159h118v-710z" />
    <glyph glyph-name="uni0428" unicode="&#x428;" horiz-adv-x="983" 
d="M87 0v710h118v-598h228v598h117v-598h228v598h118v-710h-809z" />
    <glyph glyph-name="uni0429" unicode="&#x429;" horiz-adv-x="1020" 
d="M878 -148v148h-791v710h118v-598h228v598h117v-598h228v598h118v-598h90v-260h-108z" />
    <glyph glyph-name="uni042A" unicode="&#x42a;" horiz-adv-x="720" 
d="M321 439h125q109 0 176 -61t67 -159q0 -97 -67.5 -158t-175.5 -61h-243v598h-184v112h302v-271zM321 109h123q61 0 95 28.5t34 81.5q0 54 -34 82.5t-95 28.5h-123v-221z" />
    <glyph glyph-name="uni042B" unicode="&#x42b;" horiz-adv-x="873" 
d="M205 439h125q109 0 176 -61t67 -159q0 -97 -67.5 -158t-175.5 -61h-243v710h118v-271zM205 109h123q61 0 95 28.5t34 81.5q0 54 -34 82.5t-95 28.5h-123v-221zM668 0v710h117v-710h-117z" />
    <glyph glyph-name="uni042C" unicode="&#x42c;" horiz-adv-x="604" 
d="M205 439h125q109 0 176 -61t67 -159q0 -97 -67.5 -158t-175.5 -61h-243v710h118v-271zM205 109h123q61 0 95 28.5t34 81.5q0 54 -34 82.5t-95 28.5h-123v-221z" />
    <glyph glyph-name="uni042D" unicode="&#x42d;" horiz-adv-x="784" 
d="M372 -11q-126 0 -220.5 71t-121.5 178h126q22 -60 82 -98.5t134 -38.5q96 0 163.5 57t83.5 146h-337v106h337q-18 88 -85 144t-162 56q-74 0 -134 -38.5t-82 -98.5h-126q27 107 121.5 178.5t220.5 71.5q158 0 264 -106t106 -261q0 -156 -105.5 -261.5t-264.5 -105.5z" />
    <glyph glyph-name="uni042E" unicode="&#x42e;" horiz-adv-x="1072" 
d="M87 0v710h118v-296h117q20 135 118 221.5t234 86.5q150 0 253 -105.5t103 -261.5t-103 -261.5t-253 -105.5q-138 0 -237.5 90t-115.5 227h-116v-305h-118zM911 355q0 110 -67.5 182t-169.5 72q-103 0 -170.5 -72t-67.5 -182t67.5 -182t170.5 -72q102 0 169.5 72t67.5 182
z" />
    <glyph glyph-name="uni042F" unicode="&#x42f;" horiz-adv-x="638" 
d="M434 0v269h-71l-234 -269h-143l248 287q-69 22 -110 76.5t-41 126.5q0 97 65.5 158.5t175.5 61.5h227v-710h-117zM199 490q0 -52 34 -83t93 -31h108v226h-108q-59 0 -93 -30.5t-34 -81.5z" />
    <glyph glyph-name="uni0430" unicode="&#x430;" horiz-adv-x="624" 
d="M279 -10q-102 0 -171.5 76t-69.5 184t69.5 184t171.5 76q51 0 94 -22.5t66 -54.5v67h110v-500h-110v67q-23 -32 -66 -54.5t-94 -22.5zM299 90q65 0 107 46t42 114t-42 114t-107 46t-107 -46t-42 -114t42 -114t107 -46z" />
    <glyph glyph-name="uni0431" unicode="&#x431;" horiz-adv-x="616" 
d="M316 -10q-122 0 -191 80t-69 214v40q0 186 70.5 277t220.5 120l181 33v-105l-157 -28q-98 -18 -144.5 -64t-57.5 -134q62 72 165 72q110 0 177 -70.5t67 -172.5q0 -110 -75.5 -186t-186.5 -76zM315 92q66 0 108.5 43.5t42.5 114.5q0 63 -42.5 105t-107.5 42
q-66 0 -108 -43t-42 -104q0 -71 41.5 -114.5t107.5 -43.5z" />
    <glyph glyph-name="uni0432" unicode="&#x432;" horiz-adv-x="550" 
d="M74 0v500h228q86 0 132 -41t46 -102q0 -53 -41 -91q73 -39 73 -118q0 -63 -45 -105.5t-136 -42.5h-257zM184 93h146q33 0 52.5 16.5t19.5 45.5q0 30 -19.5 46.5t-52.5 16.5h-146v-125zM184 298h122q27 0 45.5 13.5t18.5 43.5q0 56 -64 56h-122v-113z" />
    <glyph glyph-name="uni0433" unicode="&#x433;" horiz-adv-x="419" 
d="M74 0v500h328v-98h-218v-402h-110z" />
    <glyph glyph-name="uni0434" unicode="&#x434;" horiz-adv-x="638" 
d="M31 98h13q71 0 71 147v255h412v-402h78v-223h-100v125h-373v-125h-101v223zM225 402v-168q0 -91 -29 -136h221v304h-192z" />
    <glyph glyph-name="uni0435" unicode="&#x435;" horiz-adv-x="585" 
d="M295 -10q-112 0 -184 73.5t-72 186.5t71 186.5t186 73.5q116 0 187 -80.5t63 -206.5h-398q2 -58 44 -97t107 -39q92 0 126 70h115q-23 -73 -88 -120t-157 -47zM293 418q-54 0 -92.5 -30.5t-49.5 -86.5h277q-12 58 -49 87.5t-86 29.5z" />
    <glyph glyph-name="uni0436" unicode="&#x436;" horiz-adv-x="800" 
d="M667 0l-212 213v-213h-110v214l-212 -214h-140l251 254l-217 246h131l187 -214v214h110v-213l186 213h131l-217 -246l252 -254h-140z" />
    <glyph glyph-name="uni0437" unicode="&#x437;" horiz-adv-x="493" 
d="M247 -10q-81 0 -142 39.5t-76 115.5h113q22 -64 105 -64q46 1 70.5 20t24.5 50q0 32 -23 49.5t-65 17.5h-59v81h57q35 0 55 15.5t20 45.5q0 29 -22 45.5t-60 16.5q-75 0 -94 -61h-110q15 75 72.5 112t133.5 37q89 0 137 -41.5t48 -100.5q0 -70 -54 -105q75 -38 75 -120
q0 -62 -54.5 -107.5t-151.5 -45.5z" />
    <glyph glyph-name="uni0438" unicode="&#x438;" horiz-adv-x="611" 
d="M172 0h-98v500h110v-333l255 333h98v-500h-110v333z" />
    <glyph glyph-name="uni0439" unicode="&#x439;" horiz-adv-x="611" 
d="M172 0h-98v500h110v-333l255 333h98v-500h-110v333zM313 569q-71 0 -118.5 45.5t-47.5 120.5v15h78v-15q0 -46 25 -72.5t63 -26.5t63 26.5t25 72.5v15h78v-15q0 -75 -47.5 -120.5t-118.5 -45.5z" />
    <glyph glyph-name="uni043A" unicode="&#x43a;" horiz-adv-x="537" 
d="M406 0l-222 213v-213h-110v500h110v-214l197 214h134l-227 -246l263 -254h-145z" />
    <glyph glyph-name="uni043B" unicode="&#x43b;" horiz-adv-x="595" 
d="M74 -8q-37 0 -54 4v95q22 -2 33 -2q31 0 46 20.5t15 72.5v318h407v-500h-110v402h-187v-237q0 -85 -42.5 -129t-107.5 -44z" />
    <glyph glyph-name="uni043C" unicode="&#x43c;" horiz-adv-x="692" 
d="M74 500h96l175 -228l177 228h96v-500h-110v327l-162 -210l-162 210v-327h-110v500z" />
    <glyph glyph-name="uni043D" unicode="&#x43d;" horiz-adv-x="609" 
d="M74 0v500h110v-198h241v198h110v-500h-110v204h-241v-204h-110z" />
    <glyph glyph-name="uni043E" unicode="&#x43e;" horiz-adv-x="599" 
d="M300 -10q-111 0 -186.5 75.5t-75.5 184.5t75.5 184.5t186.5 75.5t186.5 -75.5t75.5 -184.5t-75.5 -184.5t-186.5 -75.5zM300 92q65 0 107.5 45.5t42.5 112.5t-42.5 112.5t-107.5 45.5q-66 0 -108.5 -45.5t-42.5 -112.5t42.5 -112.5t108.5 -45.5z" />
    <glyph glyph-name="uni043F" unicode="&#x43f;" horiz-adv-x="599" 
d="M74 0v500h451v-500h-110v402h-231v-402h-110z" />
    <glyph glyph-name="uni0440" unicode="&#x440;" horiz-adv-x="624" 
d="M184 -209h-110v709h110v-67q23 32 66.5 54.5t94.5 22.5q102 0 171.5 -76t69.5 -184t-69.5 -184t-171.5 -76q-51 0 -94.5 22.5t-66.5 54.5v-276zM325 90q65 0 107 46t42 114t-42 114t-107 46q-66 0 -108 -46t-42 -114t42 -114t108 -46z" />
    <glyph glyph-name="uni0441" unicode="&#x441;" horiz-adv-x="584" 
d="M300 -10q-113 0 -187.5 75.5t-74.5 184.5t74.5 184.5t187.5 75.5q97 0 165.5 -54t88.5 -139h-116q-15 42 -51.5 67.5t-86.5 25.5q-66 0 -108 -45t-42 -115t42 -115t108 -45q50 0 86.5 25.5t51.5 67.5h116q-20 -85 -88.5 -139t-165.5 -54z" />
    <glyph glyph-name="uni0442" unicode="&#x442;" horiz-adv-x="452" 
d="M167 0v402h-150v98h417v-98h-157v-402h-110z" />
    <glyph glyph-name="uni0443" unicode="&#x443;" horiz-adv-x="558" 
d="M555 500l-260 -577q-33 -75 -76.5 -108.5t-108.5 -33.5q-40 0 -61 5v95q30 -2 49 -2q55 0 90 73l33 73l-216 475h121l157 -347l150 347h122z" />
    <glyph glyph-name="uni0444" unicode="&#x444;" horiz-adv-x="747" 
d="M429 -209h-110v199h-8q-126 0 -199.5 75.5t-73.5 184.5t73.5 184.5t199.5 75.5h8v241h110v-241h8q126 0 199 -75.5t73 -184.5t-73 -184.5t-199 -75.5h-8v-199zM437 409h-8v-318h8q74 0 117.5 45.5t43.5 113.5t-44 113.5t-117 45.5zM319 91v318h-8q-74 0 -117.5 -45.5
t-43.5 -113.5q0 -69 43 -114t118 -45h8z" />
    <glyph glyph-name="uni0445" unicode="&#x445;" horiz-adv-x="547" 
d="M409 0l-135 169l-135 -169h-134l199 249l-188 251h131l126 -168l126 168h132l-188 -251l199 -249h-133z" />
    <glyph glyph-name="uni0446" unicode="&#x446;" horiz-adv-x="633" 
d="M602 98v-223h-100v125h-428v500h110v-402h229v402h110v-402h79z" />
    <glyph glyph-name="uni0447" unicode="&#x447;" horiz-adv-x="553" 
d="M479 0h-110v218q-19 -27 -58 -43t-89 -16q-82 0 -133 49t-51 140v152h110v-140q0 -103 103 -103q46 0 82 31t36 92v120h110v-500z" />
    <glyph glyph-name="uni0448" unicode="&#x448;" horiz-adv-x="825" 
d="M74 0v500h110v-402h174v402h110v-402h173v402h110v-500h-677z" />
    <glyph glyph-name="uni0449" unicode="&#x449;" horiz-adv-x="863" 
d="M831 98v-223h-101v125h-656v500h110v-402h174v402h110v-402h173v402h110v-402h80z" />
    <glyph glyph-name="uni044A" unicode="&#x44a;" horiz-adv-x="578" 
d="M151 0v403h-133v97h243v-165h105q91 0 137.5 -50.5t46.5 -115.5q0 -66 -46.5 -117.5t-137.5 -51.5h-215zM261 238v-141h96q42 0 64.5 18.5t22.5 52.5q0 70 -87 70h-96z" />
    <glyph glyph-name="uni044B" unicode="&#x44b;" horiz-adv-x="730" 
d="M546 0v500h110v-500h-110zM74 0v500h110v-165h105q91 0 137.5 -50.5t46.5 -115.5q0 -66 -46.5 -117.5t-137.5 -51.5h-215zM184 238v-141h96q42 0 64.5 18.5t22.5 52.5q0 70 -87 70h-96z" />
    <glyph glyph-name="uni044C" unicode="&#x44c;" horiz-adv-x="501" 
d="M74 0v500h110v-165h105q91 0 137.5 -50.5t46.5 -115.5q0 -66 -46.5 -117.5t-137.5 -51.5h-215zM184 238v-141h96q42 0 64.5 18.5t22.5 52.5q0 70 -87 70h-96z" />
    <glyph glyph-name="uni044D" unicode="&#x44d;" horiz-adv-x="585" 
d="M285 -10q-97 0 -165.5 54t-88.5 139h116q15 -42 51.5 -67.5t86.5 -25.5q59 0 98 34t49 91h-201v80h199q-12 52 -50.5 83.5t-94.5 31.5q-50 0 -86.5 -25.5t-51.5 -67.5h-116q20 85 88.5 139t165.5 54q113 0 187.5 -75.5t74.5 -184.5t-74.5 -184.5t-187.5 -75.5z" />
    <glyph glyph-name="uni044E" unicode="&#x44e;" horiz-adv-x="812" 
d="M521 -10q-96 0 -166 61t-84 153h-87v-204h-110v500h110v-199h88q16 91 85 150t164 59q109 0 180.5 -75t71.5 -185t-71.5 -185t-180.5 -75zM521 93q62 0 101.5 44.5t39.5 112.5t-39.5 112.5t-101.5 44.5t-101.5 -44.5t-39.5 -112.5t39.5 -112.5t101.5 -44.5z" />
    <glyph glyph-name="uni044F" unicode="&#x44f;" horiz-adv-x="532" 
d="M-7 0l187 192q-51 18 -79 56t-28 89q0 72 48 117.5t135 45.5h202v-500h-110v171h-56l-169 -171h-130zM262 263h86v144h-86q-83 0 -83 -74q0 -33 22.5 -51.5t60.5 -18.5z" />
    <glyph glyph-name="uni0451" unicode="&#x451;" horiz-adv-x="585" 
d="M295 -10q-112 0 -184 73.5t-72 186.5t71 186.5t186 73.5q116 0 187 -80.5t63 -206.5h-398q2 -58 44 -97t107 -39q92 0 126 70h115q-23 -73 -88 -120t-157 -47zM293 418q-54 0 -92.5 -30.5t-49.5 -86.5h277q-12 58 -49 87.5t-86 29.5zM182 587q-28 0 -47.5 19.5
t-19.5 46.5q0 28 19.5 47.5t47.5 19.5q27 0 46 -19.5t19 -47.5q0 -27 -19 -46.5t-46 -19.5zM411 587q-27 0 -46.5 19.5t-19.5 46.5q0 28 19.5 47.5t46.5 19.5q28 0 47 -19.5t19 -47.5q0 -27 -19 -46.5t-47 -19.5z" />
    <glyph glyph-name="uni0452" unicode="&#x452;" horiz-adv-x="594" 
d="M359 -219q-29 0 -48 3v96q14 -2 27 -2q40 0 59.5 19.5t19.5 65.5v320q0 60 -28 93.5t-76 33.5q-57 0 -93 -43t-36 -121v-246h-110v582h-82v79h82v89h110v-89h170v-79h-170v-150q47 78 152 78q87 0 139 -57t52 -152v-354q0 -80 -47.5 -123t-120.5 -43z" />
    <glyph glyph-name="uni0453" unicode="&#x453;" horiz-adv-x="419" 
d="M74 0v500h328v-98h-218v-402h-110zM199 560l100 190h133l-148 -190h-85z" />
    <glyph glyph-name="uni0454" unicode="&#x454;" horiz-adv-x="585" 
d="M300 -10q-113 0 -187.5 75.5t-74.5 184.5t74.5 184.5t187.5 75.5q97 0 165.5 -54t88.5 -139h-116q-15 42 -51.5 67.5t-86.5 25.5q-56 0 -94.5 -31.5t-50.5 -83.5h199v-80h-201q10 -57 49 -91t98 -34q50 0 86.5 25.5t51.5 67.5h116q-20 -85 -88.5 -139t-165.5 -54z" />
    <glyph glyph-name="uni0455" unicode="&#x455;" horiz-adv-x="483" 
d="M250 -10q-89 0 -149.5 44t-64.5 118h114q12 -74 103 -74q37 0 59 13.5t22 39.5t-17 41t-57 25l-82 22q-128 34 -128 151q0 63 51 101.5t135 38.5q81 0 133 -41t58 -109h-110q-16 62 -82 62q-33 0 -53 -13.5t-20 -37.5q0 -43 67 -60l84 -22q133 -34 133 -151
q0 -71 -54.5 -109.5t-141.5 -38.5z" />
    <glyph glyph-name="uni0456" unicode="&#x456;" horiz-adv-x="258" 
d="M129 609q-30 0 -51.5 21.5t-21.5 52.5q0 30 21.5 51.5t51.5 21.5q31 0 52.5 -21.5t21.5 -51.5q0 -31 -21.5 -52.5t-52.5 -21.5zM74 0v500h110v-500h-110z" />
    <glyph glyph-name="uni0457" unicode="&#x457;" horiz-adv-x="258" 
d="M74 0v500h110v-500h-110zM33 587q-29 0 -48.5 20t-19.5 48t19.5 47.5t48.5 19.5q28 0 47.5 -19.5t19.5 -47.5t-19.5 -48t-47.5 -20zM225 587q-27 0 -47 20t-20 48t20 47.5t47 19.5q29 0 48.5 -19.5t19.5 -47.5t-19.5 -48t-48.5 -20z" />
    <glyph glyph-name="uni0458" unicode="&#x458;" horiz-adv-x="266" 
d="M192 500v-553q0 -80 -47.5 -123t-120.5 -43q-28 0 -47 3v96q14 -2 27 -2q78 0 78 85v537h110zM137 609q-30 0 -51.5 21.5t-21.5 52.5q0 30 21.5 51.5t51.5 21.5q31 0 52.5 -21.5t21.5 -51.5q0 -31 -21.5 -52.5t-52.5 -21.5z" />
    <glyph glyph-name="uni0459" unicode="&#x459;" horiz-adv-x="822" 
d="M516 207v-112h102q33 0 51.5 14.5t18.5 40.5q0 27 -18.5 42t-51.5 15h-102zM114 500h402v-198h110q82 0 125 -45t43 -104q0 -60 -43 -106.5t-125 -46.5h-220v402h-182v-237q0 -85 -42.5 -129t-107.5 -44q-37 0 -54 4v95q22 -2 33 -2q31 0 46 20.5t15 72.5v318z" />
    <glyph glyph-name="uni045A" unicode="&#x45a;" horiz-adv-x="831" 
d="M697 150q0 27 -18 42t-51 15h-103v-112h103q32 0 50.5 14.5t18.5 40.5zM804 153q0 -59 -44 -106t-125 -47h-220v204h-231v-204h-110v500h110v-198h231v198h110v-198h110q81 0 125 -45.5t44 -103.5z" />
    <glyph glyph-name="uni045B" unicode="&#x45b;" horiz-adv-x="594" 
d="M74 577h-82v79h82v84h110v-84h170v-79h-170v-145q47 78 152 78q87 0 139 -57t52 -152v-301h-110v283q0 60 -28 93.5t-76 33.5q-57 0 -93 -43t-36 -121v-246h-110v577z" />
    <glyph glyph-name="uni045C" unicode="&#x45c;" horiz-adv-x="537" 
d="M406 0l-222 213v-213h-110v500h110v-214l197 214h134l-227 -246l263 -254h-145zM251 560l100 190h133l-148 -190h-85z" />
    <glyph glyph-name="uni045E" unicode="&#x45e;" horiz-adv-x="558" 
d="M555 500l-260 -577q-33 -75 -76.5 -108.5t-108.5 -33.5q-40 0 -61 5v95q30 -2 49 -2q55 0 90 73l33 73l-216 475h121l157 -347l150 347h122zM280 569q-71 0 -118.5 45.5t-47.5 120.5v15h78v-15q0 -46 25 -72.5t63 -26.5t63 26.5t25 72.5v15h78v-15q0 -75 -47.5 -120.5
t-118.5 -45.5z" />
    <glyph glyph-name="uni045F" unicode="&#x45f;" horiz-adv-x="602" 
d="M528 0h-176v-125h-101v125h-177v500h110v-401h234v401h110v-500z" />
    <glyph glyph-name="uni0462" unicode="&#x462;" horiz-adv-x="731" 
d="M327 429h126q109 0 175.5 -59.5t66.5 -155.5q0 -95 -67 -154.5t-175 -59.5h-243v525h-182v101h182v84h117v-84h222v-101h-222v-96zM327 109h123q62 0 96 27t34 78t-34.5 78.5t-95.5 27.5h-123v-211z" />
    <glyph glyph-name="uni0463" unicode="&#x463;" horiz-adv-x="555" 
d="M18 421v79h106v250h110v-250h186v-79h-186v-86h105q91 0 137.5 -50.5t46.5 -115.5q0 -66 -46.5 -117.5t-137.5 -51.5h-215v421h-106zM330 238h-96v-141h96q42 0 64.5 18.5t22.5 52.5q0 70 -87 70z" />
    <glyph glyph-name="uni0472" unicode="&#x472;" horiz-adv-x="817" 
d="M409 101q104 0 176 74t72 180t-72 180t-176 74q-105 0 -177 -74t-72 -180t72 -180t177 -74zM409 -12q-153 0 -260 106.5t-107 260.5t107 260.5t260 106.5t260 -107t107 -260t-107 -260t-260 -107zM521 387q80 0 142 43v-104q-62 -43 -142 -43q-42 0 -115.5 21.5
t-109.5 21.5q-81 0 -143 -43v104q62 43 143 43q50 0 118.5 -21.5t106.5 -21.5z" />
    <glyph glyph-name="uni0473" unicode="&#x473;" horiz-adv-x="599" 
d="M300 -10q-111 0 -186.5 75.5t-75.5 184.5t75.5 184.5t186.5 75.5t186.5 -75.5t75.5 -184.5t-75.5 -184.5t-186.5 -75.5zM300 92q65 0 107.5 45.5t42.5 112.5t-42.5 112.5t-107.5 45.5q-66 0 -108.5 -45.5t-42.5 -112.5t42.5 -112.5t108.5 -45.5zM104 289v-77h392v77h-392
z" />
    <glyph glyph-name="uni0474" unicode="&#x474;" horiz-adv-x="781" 
d="M135 710l220 -531l162 387q35 88 76 122t104 34q36 0 66 -8v-110q-56 8 -83 -5t-52 -74l-221 -525h-102l-299 710h129z" />
    <glyph glyph-name="uni0475" unicode="&#x475;" horiz-adv-x="600" 
d="M4 500h122l152 -351l98 224q32 75 67.5 106t89.5 31q36 0 54 -6v-97q-40 6 -60.5 -5t-38.5 -50l-161 -352h-97z" />
    <glyph glyph-name="uni0490" unicode="&#x490;" horiz-adv-x="517" 
d="M497 710v-112h-292v-598h-118v710h410zM497 710h-108v148h108v-148z" />
    <glyph glyph-name="uni0491" unicode="&#x491;" horiz-adv-x="419" 
d="M74 0v500h328v-98h-218v-402h-110zM402 500h-101v125h101v-125z" />
    <glyph glyph-name="uni0492" unicode="&#x492;" horiz-adv-x="542" 
d="M520 710v-112h-292v-598h-118v710h410zM20 304v106h379v-106h-379z" />
    <glyph glyph-name="uni0493" unicode="&#x493;" horiz-adv-x="444" 
d="M99 0v500h328v-98h-218v-402h-110zM327 212h-308v80h308v-80z" />
    <glyph glyph-name="uni0496" unicode="&#x496;" horiz-adv-x="1017" 
d="M855 0l-301 315v-315h-117v314l-300 -314h-150l337 356l-307 354h141l279 -322v322h117v-322l280 322h141l-308 -354l338 -356h-150zM904 -148v148h-26v112h134v-260h-108z" />
    <glyph glyph-name="uni0497" unicode="&#x497;" horiz-adv-x="821" 
d="M667 0l-212 213v-213h-110v214l-212 -214h-140l251 254l-217 246h131l187 -214v214h110v-213l186 213h131l-217 -246l252 -254h-140zM712 -125v125h-26v98h126v-223h-100z" />
    <glyph glyph-name="uni049A" unicode="&#x49a;" horiz-adv-x="707" 
d="M548 0l-345 332v-332h-116v710h116v-306l285 306h148l-316 -340l386 -370h-158zM601 -148v148h-26v112h134v-260h-108z" />
    <glyph glyph-name="uni049B" unicode="&#x49b;" horiz-adv-x="558" 
d="M406 0l-222 213v-213h-110v500h110v-214l197 214h134l-227 -246l263 -254h-145zM455 -125v125h-26v98h126v-223h-100z" />
    <glyph glyph-name="uni04A2" unicode="&#x4a2;" horiz-adv-x="797" 
d="M87 0v710h117v-294h351v294h117v-710h-117v305h-351v-305h-117zM656 -148v148h-26v112h134v-260h-108z" />
    <glyph glyph-name="uni04A3" unicode="&#x4a3;" horiz-adv-x="647" 
d="M74 0v500h110v-198h241v198h110v-500h-110v204h-241v-204h-110zM515 -125v125h-26v98h126v-223h-100z" />
    <glyph glyph-name="uni04AE" unicode="&#x4ae;" horiz-adv-x="681" 
d="M282 0v300l-269 410h137l190 -294l191 294h138l-270 -411v-299h-117z" />
    <glyph glyph-name="uni04AF" unicode="&#x4af;" horiz-adv-x="560" 
d="M225 -209v208l-221 501h123l152 -364l154 364h123l-221 -501v-208h-110z" />
    <glyph glyph-name="uni04B0" unicode="&#x4b0;" horiz-adv-x="676" 
d="M280 0v300l-269 410h137l190 -294l191 294h138l-270 -411v-299h-117zM547 300v-106h-420v106h420z" />
    <glyph glyph-name="uni04B1" unicode="&#x4b1;" horiz-adv-x="560" 
d="M225 -209v208l-221 501h123l152 -364l154 364h123l-221 -501v-208h-110zM93 -80v80h375v-80h-375z" />
    <glyph glyph-name="uni04B2" unicode="&#x4b2;" horiz-adv-x="721" 
d="M140 0h-141l271 360l-258 350h138l191 -259l192 259h138l-258 -351l271 -359h-140l-202 266zM607 -148v148h-26v112h134v-260h-108z" />
    <glyph glyph-name="uni04B3" unicode="&#x4b3;" horiz-adv-x="571" 
d="M409 0l-135 169l-135 -169h-134l199 249l-188 251h131l126 -168l126 168h132l-188 -251l199 -249h-133zM457 -125v125h-26v98h126v-223h-100z" />
    <glyph glyph-name="uni04B6" unicode="&#x4b6;" horiz-adv-x="723" 
d="M599 0h-118v341q-63 -87 -197 -87q-106 0 -173 66t-67 175v215h118v-190q0 -77 38 -115.5t108 -38.5q73 0 123 47t50 138v159h118v-710zM582 -148v148h-26v112h134v-260h-108z" />
    <glyph glyph-name="uni04B7" unicode="&#x4b7;" horiz-adv-x="590" 
d="M479 0h-110v218q-19 -27 -58 -43t-89 -16q-82 0 -133 49t-51 140v152h110v-140q0 -103 103 -103q46 0 82 31t36 92v120h110v-500zM458 -125v125h-26v98h126v-223h-100z" />
    <glyph glyph-name="uni04BA" unicode="&#x4ba;" horiz-adv-x="686" 
d="M87 710h118v-341q63 87 197 87q106 0 173 -66t67 -175v-215h-118v190q0 77 -38 115.5t-108 38.5q-73 0 -123 -47t-50 -138v-159h-118v710z" />
    <glyph glyph-name="uni04BB" unicode="&#x4bb;" horiz-adv-x="594" 
d="M184 0h-110v750h110v-318q47 78 152 78q87 0 139 -57t52 -152v-301h-110v283q0 60 -28 93.5t-76 33.5q-57 0 -93 -43t-36 -121v-246z" />
    <glyph glyph-name="uni04C0" unicode="&#x4c0;" horiz-adv-x="291" 
d="M87 0v710h117v-710h-117z" />
    <glyph glyph-name="uni04CF" unicode="&#x4cf;" horiz-adv-x="258" 
d="M74 0v750h110v-750h-110z" />
    <glyph glyph-name="uni04D8" unicode="&#x4d8;" horiz-adv-x="817" 
d="M408 -12q-156 0 -261.5 106.5t-105.5 260.5v47h612q-20 96 -87.5 151.5t-157.5 55.5q-69 0 -126 -30t-87 -79h-132q33 95 130.5 158.5t214.5 63.5q153 0 260 -106t107 -261q0 -154 -105.5 -260.5t-261.5 -106.5zM409 101q89 0 156.5 53t85.5 144h-486q19 -91 86.5 -144
t157.5 -53z" />
    <glyph glyph-name="uni04D9" unicode="&#x4d9;" horiz-adv-x="585" 
d="M290 510q112 0 184.5 -73.5t72.5 -186.5q0 -112 -71.5 -186t-186.5 -74t-185.5 80t-64.5 207h398q-4 58 -45 97t-106 39q-92 0 -126 -70h-114q21 73 86.5 120t157.5 47zM292 82q53 0 91.5 30.5t49.5 86.5h-275q11 -59 48 -88t86 -29z" />
    <glyph glyph-name="uni04E2" unicode="&#x4e2;" horiz-adv-x="793" 
d="M189 0h-102v710h118v-510l399 510h102v-710h-117v511zM240 798v82h332v-82h-332z" />
    <glyph glyph-name="uni04E3" unicode="&#x4e3;" horiz-adv-x="611" 
d="M172 0h-98v500h110v-333l255 333h98v-500h-110v333zM147 628v82h332v-82h-332z" />
    <glyph glyph-name="uni04E8" unicode="&#x4e8;" horiz-adv-x="817" 
d="M409 101q104 0 176 74t72 180t-72 180t-176 74q-105 0 -177 -74t-72 -180t72 -180t177 -74zM409 -12q-153 0 -260 106.5t-107 260.5t107 260.5t260 106.5t260 -107t107 -260t-107 -260t-260 -107zM98 408v-106h620v106h-620z" />
    <glyph glyph-name="uni04E9" unicode="&#x4e9;" horiz-adv-x="599" 
d="M300 -10q-111 0 -186.5 75.5t-75.5 184.5t75.5 184.5t186.5 75.5t186.5 -75.5t75.5 -184.5t-75.5 -184.5t-186.5 -75.5zM300 92q65 0 107.5 45.5t42.5 112.5t-42.5 112.5t-107.5 45.5q-66 0 -108.5 -45.5t-42.5 -112.5t42.5 -112.5t108.5 -45.5zM104 289v-77h392v77h-392
z" />
    <glyph glyph-name="uni04EE" unicode="&#x4ee;" horiz-adv-x="710" 
d="M133 -6v109q25 -4 62 -4q36 0 62 15.5t48 57.5l-277 538h134l210 -409l211 409h131l-286 -552q-46 -92 -96 -131t-122 -39q-31 0 -77 6zM207 798v82h332v-82h-332z" />
    <glyph glyph-name="uni04EF" unicode="&#x4ef;" horiz-adv-x="558" 
d="M555 500l-260 -577q-33 -75 -76.5 -108.5t-108.5 -33.5q-40 0 -61 5v95q30 -2 49 -2q55 0 90 73l33 73l-216 475h121l157 -347l150 347h122zM114 628v82h332v-82h-332z" />
    <glyph glyph-name="Wgrave" unicode="&#x1e80;" horiz-adv-x="953" 
d="M642 0l-165 434l-165 -434h-108l-183 710h123l129 -516l204 528l203 -528l130 516h124l-184 -710h-108zM516 770h-86l-118 157h129z" />
    <glyph glyph-name="wgrave" unicode="&#x1e81;" horiz-adv-x="780" 
d="M500 0l-110 323l-109 -323h-104l-168 500h116l108 -345l115 345h84l113 -345l110 345h117l-168 -500h-104zM347 560l-148 190h133l100 -190h-85z" />
    <glyph glyph-name="Wacute" unicode="&#x1e82;" horiz-adv-x="953" 
d="M642 0l-165 434l-165 -434h-108l-183 710h123l129 -516l204 528l203 -528l130 516h124l-184 -710h-108zM442 770l75 157h129l-118 -157h-86z" />
    <glyph glyph-name="wacute" unicode="&#x1e83;" horiz-adv-x="780" 
d="M500 0l-110 323l-109 -323h-104l-168 500h116l108 -345l115 345h84l113 -345l110 345h117l-168 -500h-104zM353 560l100 190h133l-148 -190h-85z" />
    <glyph glyph-name="Wdieresis" unicode="&#x1e84;" horiz-adv-x="953" 
d="M642 0l-165 434l-165 -434h-108l-183 710h123l129 -516l204 528l203 -528l130 516h124l-184 -710h-108zM363 779q-28 0 -47.5 19.5t-19.5 46.5q0 28 19.5 47.5t47.5 19.5q27 0 46 -19.5t19 -47.5q0 -27 -19 -46.5t-46 -19.5zM592 779q-27 0 -46.5 19.5t-19.5 46.5
q0 28 19.5 47.5t46.5 19.5q28 0 47 -19.5t19 -47.5q0 -27 -19 -46.5t-47 -19.5z" />
    <glyph glyph-name="wdieresis" unicode="&#x1e85;" horiz-adv-x="780" 
d="M500 0l-110 323l-109 -323h-104l-168 500h116l108 -345l115 345h84l113 -345l110 345h117l-168 -500h-104zM277 587q-28 0 -47.5 19.5t-19.5 46.5q0 28 19.5 47.5t47.5 19.5q27 0 46 -19.5t19 -47.5q0 -27 -19 -46.5t-46 -19.5zM506 587q-27 0 -46.5 19.5t-19.5 46.5
q0 28 19.5 47.5t46.5 19.5q28 0 47 -19.5t19 -47.5q0 -27 -19 -46.5t-47 -19.5z" />
    <glyph glyph-name="uni1E9E" unicode="&#x1e9e;" horiz-adv-x="640" 
d="M87 0v710h461v-79l-116 -179q166 -43 166 -217q0 -111 -71 -173t-187 -62h-41v112h44q60 0 98.5 32t38.5 91t-38.5 91.5t-98.5 32.5h-44v84l104 160h-199v-603h-117z" />
    <glyph glyph-name="uni1ECA" unicode="&#x1eca;" horiz-adv-x="291" 
d="M87 0v710h117v-710h-117zM146 -204q-28 0 -47.5 19.5t-19.5 47.5q0 27 19.5 46.5t47.5 19.5q27 0 46.5 -19.5t19.5 -46.5q0 -28 -19.5 -47.5t-46.5 -19.5z" />
    <glyph glyph-name="uni1ECB" unicode="&#x1ecb;" horiz-adv-x="258" 
d="M129 609q-30 0 -52 21.5t-22 52.5q0 30 22 51.5t52 21.5q31 0 52 -21.5t21 -51.5q0 -31 -21 -52.5t-52 -21.5zM74 0v500h110v-500h-110zM130 -204q-28 0 -47.5 19.5t-19.5 47.5q0 27 19.5 46.5t47.5 19.5q27 0 46.5 -19.5t19.5 -46.5q0 -28 -19.5 -47.5t-46.5 -19.5z" />
    <glyph glyph-name="uni1ECC" unicode="&#x1ecc;" horiz-adv-x="817" 
d="M409 101q104 0 176 74t72 180t-72 180t-176 74q-105 0 -177 -74t-72 -180t72 -180t177 -74zM409 -12q-153 0 -260 106.5t-107 260.5t107 260.5t260 106.5t260 -107t107 -260t-107 -260t-260 -107zM409 -204q-28 0 -47.5 19.5t-19.5 47.5q0 27 19.5 46.5t47.5 19.5
q27 0 46.5 -19.5t19.5 -46.5q0 -28 -19.5 -47.5t-46.5 -19.5z" />
    <glyph glyph-name="uni1ECD" unicode="&#x1ecd;" horiz-adv-x="599" 
d="M300 -10q-111 0 -186.5 75.5t-75.5 184.5t75.5 184.5t186.5 75.5t186.5 -75.5t75.5 -184.5t-75.5 -184.5t-186.5 -75.5zM300 92q65 0 107.5 45.5t42.5 112.5t-42.5 112.5t-107.5 45.5q-66 0 -108.5 -45.5t-42.5 -112.5t42.5 -112.5t108.5 -45.5zM300 -204
q-28 0 -47.5 19.5t-19.5 47.5q0 27 19.5 46.5t47.5 19.5q27 0 46.5 -19.5t19.5 -46.5q0 -28 -19.5 -47.5t-46.5 -19.5z" />
    <glyph glyph-name="uni1EE4" unicode="&#x1ee4;" horiz-adv-x="723" 
d="M362 -12q-127 0 -205 79t-78 211v432h117v-434q0 -83 45 -129t121 -46t120.5 46t44.5 129v434h117v-432q0 -131 -79 -210.5t-203 -79.5zM362 -204q-28 0 -47.5 19.5t-19.5 47.5q0 27 19.5 46.5t47.5 19.5q27 0 46.5 -19.5t19.5 -46.5q0 -28 -19.5 -47.5t-46.5 -19.5z" />
    <glyph glyph-name="uni1EE5" unicode="&#x1ee5;" horiz-adv-x="583" 
d="M253 -10q-86 0 -136 57.5t-50 153.5v299h110v-281q0 -60 26 -94.5t74 -34.5q56 0 89 42.5t33 121.5v246h110v-500h-110v68q-44 -78 -146 -78zM291 -204q-28 0 -47.5 19.5t-19.5 47.5q0 27 19.5 46.5t47.5 19.5q27 0 46.5 -19.5t19.5 -46.5q0 -28 -19.5 -47.5t-46.5 -19.5
z" />
    <glyph glyph-name="Ygrave" unicode="&#x1ef2;" horiz-adv-x="681" 
d="M282 0v300l-269 410h137l190 -294l191 294h138l-270 -411v-299h-117zM379 770h-86l-118 157h129z" />
    <glyph glyph-name="ygrave" unicode="&#x1ef3;" horiz-adv-x="558" 
d="M234 -209h-121l107 236l-215 473h121l153 -354l154 354h122zM237 560l-148 190h133l100 -190h-85z" />
    <glyph glyph-name="uni2007" unicode="&#x2007;" horiz-adv-x="590" 
 />
    <glyph glyph-name="uni2008" unicode="&#x2008;" horiz-adv-x="265" 
 />
    <glyph glyph-name="uni2009" unicode="&#x2009;" horiz-adv-x="125" 
 />
    <glyph glyph-name="uni200B" unicode="&#x200b;" 
 />
    <glyph glyph-name="endash" unicode="&#x2013;" horiz-adv-x="575" 
d="M62 226v108h452v-108h-452z" />
    <glyph glyph-name="emdash" unicode="&#x2014;" horiz-adv-x="751" 
d="M62 226v108h628v-108h-628z" />
    <glyph glyph-name="quoteleft" unicode="&#x2018;" horiz-adv-x="262" 
d="M52 538l108 172h68l-70 -147q22 -10 36 -31.5t14 -47.5q0 -35 -25 -60.5t-61 -25.5t-61 25.5t-25 60.5q0 29 16 54z" />
    <glyph glyph-name="quoteright" unicode="&#x2019;" horiz-adv-x="266" 
d="M222 581l-108 -171h-68l70 146q-21 10 -35.5 31.5t-14.5 47.5q0 36 25.5 61.5t60.5 25.5q36 0 61.5 -25.5t25.5 -61.5q0 -28 -17 -54z" />
    <glyph glyph-name="quotesinglbase" unicode="&#x201a;" horiz-adv-x="268" 
d="M203 25l-107 -172h-68l69 147q-21 9 -35 30.5t-14 48.5q0 36 25 61.5t61 25.5t61 -25.5t25 -61.5q0 -29 -17 -54z" />
    <glyph glyph-name="quotedblleft" unicode="&#x201c;" horiz-adv-x="469" 
d="M52 538l108 172h68l-70 -147q22 -10 36 -31.5t14 -47.5q0 -35 -25 -60.5t-61 -25.5t-61 25.5t-25 60.5q0 29 16 54zM259 538l108 172h68l-70 -147q22 -10 36 -31.5t14 -47.5q0 -35 -25 -60.5t-61 -25.5t-61 25.5t-25 60.5q0 29 16 54z" />
    <glyph glyph-name="quotedblright" unicode="&#x201d;" horiz-adv-x="473" 
d="M222 581l-108 -171h-68l70 146q-21 10 -35.5 31.5t-14.5 47.5q0 36 25.5 61.5t60.5 25.5q36 0 61.5 -25.5t25.5 -61.5q0 -28 -17 -54zM429 581l-108 -171h-68l70 146q-21 10 -35.5 31.5t-14.5 47.5q0 36 25.5 61.5t60.5 25.5q36 0 61.5 -25.5t25.5 -61.5q0 -28 -17 -54z
" />
    <glyph glyph-name="quotedblbase" unicode="&#x201e;" horiz-adv-x="475" 
d="M203 25l-107 -172h-68l69 147q-21 9 -35 30.5t-14 48.5q0 36 25 61.5t61 25.5t61 -25.5t25 -61.5q0 -29 -17 -54zM410 25l-107 -172h-68l69 147q-21 9 -35 30.5t-14 48.5q0 36 25 61.5t61 25.5t61 -25.5t25 -61.5q0 -29 -17 -54z" />
    <glyph glyph-name="dagger" unicode="&#x2020;" horiz-adv-x="511" 
d="M208 -98v507h-180v91h180v210h96v-210h179v-91h-179v-507h-96z" />
    <glyph glyph-name="daggerdbl" unicode="&#x2021;" horiz-adv-x="540" 
d="M498 112h-180v-210h-96v210h-179v91h179v206h-179v91h179v210h96v-210h180v-91h-180v-206h180v-91z" />
    <glyph glyph-name="bullet" unicode="&#x2022;" horiz-adv-x="410" 
d="M205 166q-56 0 -96 39.5t-40 96.5t40 96.5t96 39.5q57 0 97 -39.5t40 -96.5t-40 -96.5t-97 -39.5z" />
    <glyph glyph-name="ellipsis" unicode="&#x2026;" horiz-adv-x="758" 
d="M379 -8q-35 0 -60.5 25.5t-25.5 61.5q0 35 25.5 61t60.5 26q36 0 61.5 -26t25.5 -61q0 -36 -25.5 -61.5t-61.5 -25.5zM631 -8q-35 0 -60.5 25.5t-25.5 61.5q0 35 25.5 61t60.5 26q36 0 61.5 -26t25.5 -61q0 -36 -25.5 -61.5t-61.5 -25.5zM127 -8q-35 0 -60.5 25.5
t-25.5 61.5q0 35 25.5 61t60.5 26q36 0 61.5 -26t25.5 -61q0 -36 -25.5 -61.5t-61.5 -25.5z" />
    <glyph glyph-name="perthousand" unicode="&#x2030;" horiz-adv-x="1407" 
d="M1180 -8q-82 0 -139.5 58t-57.5 139q0 82 57.5 139.5t139.5 57.5q81 0 139 -57.5t58 -139.5q0 -81 -58 -139t-139 -58zM1180 88q42 0 70.5 29.5t28.5 71.5t-28.5 71.5t-70.5 29.5t-71.5 -30t-29.5 -71t29.5 -71t71.5 -30zM326 0h-116l450 710h116zM759 -8
q-82 0 -139.5 58t-57.5 139q0 82 57.5 139.5t139.5 57.5q81 0 139 -57.5t58 -139.5q0 -81 -58 -139t-139 -58zM759 88q42 0 70.5 29.5t28.5 71.5t-28.5 71.5t-70.5 29.5t-71.5 -30t-29.5 -71t29.5 -71t71.5 -30zM227 324q-82 0 -139.5 58t-57.5 139q0 82 57.5 139.5
t139.5 57.5q81 0 139 -57.5t58 -139.5q0 -81 -58 -139t-139 -58zM227 420q41 0 70.5 30t29.5 71t-29.5 71t-70.5 30q-42 0 -71 -29.5t-29 -71.5t29 -71.5t71 -29.5z" />
    <glyph glyph-name="guilsinglleft" unicode="&#x2039;" horiz-adv-x="312" 
d="M36 250l141 217h95l-116 -217l116 -217h-95z" />
    <glyph glyph-name="guilsinglright" unicode="&#x203a;" horiz-adv-x="312" 
d="M135 467l141 -217l-141 -217h-95l116 217l-116 217h95z" />
    <glyph glyph-name="fraction" unicode="&#x2044;" horiz-adv-x="180" 
d="M-110 0h-98l500 710h98z" />
    <glyph glyph-name="uni2060" unicode="&#x2060;" horiz-adv-x="237" 
 />
    <glyph glyph-name="uni2070" unicode="&#x2070;" horiz-adv-x="390" 
d="M196 404q-72 0 -117 47.5t-45 121.5v106q0 75 45 122.5t117 47.5q70 0 115 -47.5t45 -122.5v-106q0 -74 -45 -121.5t-115 -47.5zM196 485q34 0 55.5 23.5t21.5 64.5v106q0 41 -21.5 64.5t-55.5 23.5q-36 0 -57.5 -23.5t-21.5 -64.5v-106q0 -41 21.5 -64.5t57.5 -23.5z
" />
    <glyph glyph-name="uni2074" unicode="&#x2074;" horiz-adv-x="392" 
d="M232 410v99h-215v67l224 266h74v-257h56v-76h-56v-99h-83zM119 585h113v134z" />
    <glyph glyph-name="uni2075" unicode="&#x2075;" horiz-adv-x="349" 
d="M178 404q-63 0 -108.5 37t-47.5 94h85q5 -22 24 -36t46 -14q29 0 47.5 19t18.5 48t-19 48t-48 19q-48 0 -66 -44l-74 22l46 245h212v-81h-147l-16 -81q23 14 60 14q61 0 97.5 -41t36.5 -104q0 -65 -40.5 -105t-106.5 -40z" />
    <glyph glyph-name="uni2076" unicode="&#x2076;" horiz-adv-x="341" 
d="M169 404q-67 0 -109 42t-42 102q0 23 7 43.5t15 33.5t28 42l129 175h102l-112 -152q52 -2 92 -40t40 -98q0 -64 -41 -106t-109 -42zM169 483q29 0 47.5 19.5t18.5 48.5t-18.5 48.5t-47.5 19.5q-30 0 -49 -19.5t-19 -48.5t19 -48.5t49 -19.5z" />
    <glyph glyph-name="uni2077" unicode="&#x2077;" horiz-adv-x="339" 
d="M127 410h-93l195 351h-202v81h300v-72z" />
    <glyph glyph-name="uni2078" unicode="&#x2078;" horiz-adv-x="362" 
d="M181 404q-66 0 -109.5 38.5t-43.5 98.5q0 69 57 105q-37 34 -37 87q0 49 37 82.5t96 33.5t95.5 -33.5t36.5 -82.5q0 -53 -37 -87q58 -37 58 -105q0 -60 -43.5 -98.5t-109.5 -38.5zM181 480q31 0 49.5 19t18.5 45q0 27 -18.5 46t-49.5 19t-49.5 -19t-18.5 -46
q0 -26 18.5 -45t49.5 -19zM181 675q24 0 39.5 14.5t15.5 35.5q0 22 -16 36.5t-39 14.5t-38.5 -14.5t-15.5 -36.5q0 -21 15.5 -35.5t38.5 -14.5z" />
    <glyph glyph-name="uni2079" unicode="&#x2079;" horiz-adv-x="341" 
d="M42 410l111 152q-52 2 -91.5 40t-39.5 99q0 64 41.5 106t109.5 42q67 0 108.5 -42t41.5 -102q0 -33 -11 -57t-39 -63l-129 -175h-102zM173 633q29 0 48 20t19 48q0 29 -19 48.5t-48 19.5t-48 -19.5t-19 -48.5q0 -28 19 -48t48 -20z" />
    <glyph glyph-name="uni2080" unicode="&#x2080;" horiz-adv-x="390" 
d="M196 -120q-72 0 -117 47.5t-45 121.5v106q0 75 45 122.5t117 47.5q70 0 115 -47.5t45 -122.5v-106q0 -74 -45 -121.5t-115 -47.5zM196 -39q34 0 55.5 23.5t21.5 64.5v106q0 41 -21.5 64.5t-55.5 23.5q-36 0 -57.5 -23.5t-21.5 -64.5v-106q0 -41 21.5 -64.5t57.5 -23.5z
" />
    <glyph glyph-name="uni2081" unicode="&#x2081;" horiz-adv-x="235" 
d="M99 -114v350h-91l60 82h114v-432h-83z" />
    <glyph glyph-name="uni2082" unicode="&#x2082;" horiz-adv-x="354" 
d="M322 -33v-81h-293v28q0 18 4 34.5t8 28.5t15.5 26.5t17 21.5t23 21t22.5 17.5t25.5 18t23.5 16.5q34 23 51 44t17 48q0 24 -15.5 38.5t-42.5 14.5q-29 0 -47 -17t-18 -44h-83q0 63 43 103t107 40q58 0 98.5 -35t40.5 -98q0 -52 -22.5 -85.5t-68.5 -66.5q-6 -4 -23 -15.5
t-26.5 -18.5t-20.5 -18t-15 -21h179z" />
    <glyph glyph-name="uni2083" unicode="&#x2083;" horiz-adv-x="365" 
d="M186 -120q-65 0 -112 39t-49 107h82q8 -65 79 -65q30 0 48 14.5t18 40.5q0 27 -19.5 42.5t-52.5 15.5h-36v67h34q29 0 45 14t16 38q1 23 -15 36.5t-41 13.5q-29 0 -48 -17t-19 -44h-82q0 65 44.5 104t105.5 39q64 0 101.5 -36t37.5 -89q-1 -60 -48 -93q26 -12 43 -37.5
t17 -60.5q0 -57 -41.5 -93t-107.5 -36z" />
    <glyph glyph-name="uni2084" unicode="&#x2084;" horiz-adv-x="392" 
d="M232 -114v99h-215v67l224 266h74v-257h56v-76h-56v-99h-83zM119 61h113v134z" />
    <glyph glyph-name="uni2085" unicode="&#x2085;" horiz-adv-x="349" 
d="M178 -120q-63 0 -108.5 37t-47.5 94h85q5 -22 24 -36t46 -14q29 0 47.5 19t18.5 48t-19 48t-48 19q-48 0 -66 -44l-74 22l46 245h212v-81h-147l-16 -81q23 14 60 14q61 0 97.5 -41t36.5 -104q0 -65 -40.5 -105t-106.5 -40z" />
    <glyph glyph-name="uni2086" unicode="&#x2086;" horiz-adv-x="341" 
d="M169 -120q-67 0 -109 42t-42 102q0 23 7 43.5t15 33.5t28 42l129 175h102l-112 -152q52 -2 92 -40t40 -98q0 -64 -41 -106t-109 -42zM169 -41q29 0 47.5 19.5t18.5 48.5t-18.5 48.5t-47.5 19.5q-30 0 -49 -19.5t-19 -48.5t19 -48.5t49 -19.5z" />
    <glyph glyph-name="uni2087" unicode="&#x2087;" horiz-adv-x="339" 
d="M127 -114h-93l195 351h-202v81h300v-72z" />
    <glyph glyph-name="uni2088" unicode="&#x2088;" horiz-adv-x="362" 
d="M181 -120q-66 0 -109.5 38.5t-43.5 98.5q0 69 57 105q-37 34 -37 87q0 49 37 82.5t96 33.5t95.5 -33.5t36.5 -82.5q0 -53 -37 -87q58 -37 58 -105q0 -60 -43.5 -98.5t-109.5 -38.5zM181 -44q31 0 49.5 19t18.5 45q0 27 -18.5 46t-49.5 19t-49.5 -19t-18.5 -46
q0 -26 18.5 -45t49.5 -19zM181 151q24 0 39.5 14.5t15.5 35.5q0 22 -16 36.5t-39 14.5t-38.5 -14.5t-15.5 -36.5q0 -21 15.5 -35.5t38.5 -14.5z" />
    <glyph glyph-name="uni2089" unicode="&#x2089;" horiz-adv-x="341" 
d="M42 -114l111 152q-52 2 -91.5 40t-39.5 99q0 64 41.5 106t109.5 42q67 0 108.5 -42t41.5 -102q0 -33 -11 -57t-39 -63l-129 -175h-102zM173 109q29 0 48 20t19 48q0 29 -19 48.5t-48 19.5t-48 -19.5t-19 -48.5q0 -28 19 -48t48 -20z" />
    <glyph glyph-name="Euro" unicode="&#x20ac;" horiz-adv-x="874" 
d="M130 399h-99l23 55h87q33 120 130 194t226 74q114 0 204 -59.5t132 -162.5h-125q-68 114 -211 114q-86 0 -149.5 -43.5t-91.5 -116.5h391l-23 -55h-382q-3 -21 -3 -44t3 -42h346l-22 -55h-310q27 -74 91 -118t150 -44q143 0 211 114h125q-42 -103 -132 -162.5t-204 -59.5
q-130 0 -227 74.5t-130 195.5h-109l23 55h76q-2 9 -2 42q0 14 2 44z" />
    <glyph glyph-name="uni20B4" unicode="&#x20b4;" horiz-adv-x="619" 
d="M44 272v56h525v-56h-349q-37 -26 -37 -77q0 -47 35.5 -75.5t92.5 -28.5q59 0 96.5 28.5t45.5 84.5h109q-8 -101 -77 -158.5t-173 -57.5t-171.5 53t-67.5 137q0 60 28 94h-57zM44 391v56h348q36 27 36 77q0 44 -29 69.5t-78 25.5q-100 0 -128 -100h-109q15 96 82 149.5
t158 53.5q94 0 154 -51t60 -134q0 -56 -25 -90h56v-56h-525z" />
    <glyph glyph-name="uni20B8" unicode="&#x20b8;" horiz-adv-x="595" 
d="M242 0v483h-209v108h529v-108h-210v-483h-110zM33 654v56h529v-56h-529z" />
    <glyph glyph-name="uni20BD" unicode="&#x20bd;" horiz-adv-x="617" 
d="M50 268v106h86v336h209q108 0 174.5 -61t66.5 -160t-66.5 -160t-174.5 -61h-99v-75h186v-56h-186v-137h-110v137h-86v56h86v75h-86zM246 374h97q61 0 94.5 30.5t33.5 84.5t-33.5 84t-94.5 30h-97v-229z" />
    <glyph glyph-name="uni2116" unicode="&#x2116;" horiz-adv-x="1107" 
d="M706 0h-102l-400 511v-511h-117v710h102l399 -510v510h118v-710zM913 405q-63 0 -108.5 46t-45.5 109t45.5 109t108.5 46t109 -46t46 -109t-46 -109t-109 -46zM764 282v77h299v-77h-299zM914 482q32 0 54.5 22.5t22.5 55.5t-22.5 55.5t-54.5 22.5t-54.5 -23t-22.5 -55
t22.5 -55t54.5 -23z" />
    <glyph glyph-name="uni2117" unicode="&#x2117;" horiz-adv-x="816" 
d="M408 -12q-151 0 -259 108t-108 259t108 259t259 108q152 0 259.5 -108t107.5 -259t-107.5 -259t-259.5 -108zM408 65q119 0 204.5 85t85.5 205t-85.5 205t-204.5 85t-204.5 -85t-85.5 -205t85.5 -205t204.5 -85zM562 415q0 -53 -37 -89t-93 -36h-47v-121h-77v372h124
q57 0 93.5 -36t36.5 -90zM488 415q0 24 -15.5 39t-41.5 15h-46v-107h46q26 0 41.5 14.5t15.5 38.5z" />
    <glyph glyph-name="trademark" unicode="&#x2122;" horiz-adv-x="825" 
d="M392 336v374h83l96 -142l97 142h83v-374h-85v227l-94 -138l-95 139v-228h-85zM138 336v288h-105v86h298v-86h-105v-288h-88z" />
    <glyph glyph-name="uni2150" unicode="&#x2150;" horiz-adv-x="812" 
d="M99 278v350h-91l60 82h114v-432h-83zM151 0h-98l500 710h98zM600 1h-93l195 351h-202v81h300v-72z" />
    <glyph glyph-name="uni2151" unicode="&#x2151;" horiz-adv-x="782" 
d="M99 278v350h-91l60 82h114v-432h-83zM151 0h-98l500 710h98zM483 1l111 152q-52 2 -91.5 40t-39.5 99q0 64 41.5 106t109.5 42q67 0 108.5 -42t41.5 -102q0 -33 -11 -57t-39 -63l-129 -175h-102zM614 224q29 0 48 20t19 48q0 29 -19 48.5t-48 19.5t-48 -19.5t-19 -48.5
q0 -28 19 -48t48 -20z" />
    <glyph glyph-name="uni2152" unicode="&#x2152;" horiz-adv-x="1066" 
d="M99 278v350h-91l60 82h114v-432h-83zM151 0h-98l500 710h98zM541 1v350h-91l60 82h114v-432h-83zM873 -5q-72 0 -117 47.5t-45 121.5v106q0 75 45 122.5t117 47.5q70 0 115 -47.5t45 -122.5v-106q0 -74 -45 -121.5t-115 -47.5zM873 76q34 0 55.5 23.5t21.5 64.5v106
q0 41 -21.5 64.5t-55.5 23.5q-36 0 -57.5 -23.5t-21.5 -64.5v-106q0 -41 21.5 -64.5t57.5 -23.5z" />
    <glyph glyph-name="onethird" unicode="&#x2153;" horiz-adv-x="806" 
d="M99 278v350h-91l60 82h114v-432h-83zM151 0h-98l500 710h98zM627 -5q-65 0 -112 39t-49 107h82q8 -65 79 -65q30 0 48 14.5t18 40.5q0 27 -19.5 42.5t-52.5 15.5h-36v67h34q29 0 45 14t16 38q1 23 -15 36.5t-41 13.5q-29 0 -48 -17t-19 -44h-82q0 65 44.5 104t105.5 39
q64 0 101.5 -36t37.5 -89q-1 -60 -48 -93q26 -12 43 -37.5t17 -60.5q0 -57 -41.5 -93t-107.5 -36z" />
    <glyph glyph-name="twothirds" unicode="&#x2154;" horiz-adv-x="912" 
d="M322 359v-81h-293v28q0 18 4 34.5t8 28.5t15.5 26.5t17 21.5t23 21t22.5 17.5t25.5 18t23.5 16.5q34 23 51 44t17 48q0 24 -15.5 38.5t-42.5 14.5q-29 0 -47 -17t-18 -44h-83q0 63 43 103t107 40q58 0 98.5 -35t40.5 -98q0 -52 -22.5 -85.5t-68.5 -66.5q-6 -4 -23 -15.5
t-26.5 -18.5t-20.5 -18t-15 -21h179zM257 0h-98l500 710h98zM733 -5q-65 0 -112 39t-49 107h82q8 -65 79 -65q30 0 48 14.5t18 40.5q0 27 -19.5 42.5t-52.5 15.5h-36v67h34q29 0 45 14t16 38q1 23 -15 36.5t-41 13.5q-29 0 -48 -17t-19 -44h-82q0 65 44.5 104t105.5 39
q64 0 101.5 -36t37.5 -89q-1 -60 -48 -93q26 -12 43 -37.5t17 -60.5q0 -57 -41.5 -93t-107.5 -36z" />
    <glyph glyph-name="uni2155" unicode="&#x2155;" horiz-adv-x="790" 
d="M99 278v350h-91l60 82h114v-432h-83zM151 0h-98l500 710h98zM619 -5q-63 0 -108.5 37t-47.5 94h85q5 -22 24 -36t46 -14q29 0 47.5 19t18.5 48t-19 48t-48 19q-48 0 -66 -44l-74 22l46 245h212v-81h-147l-16 -81q23 14 60 14q61 0 97.5 -41t36.5 -104q0 -65 -40.5 -105
t-106.5 -40z" />
    <glyph glyph-name="uni2156" unicode="&#x2156;" horiz-adv-x="896" 
d="M322 359v-81h-293v28q0 18 4 34.5t8 28.5t15.5 26.5t17 21.5t23 21t22.5 17.5t25.5 18t23.5 16.5q34 23 51 44t17 48q0 24 -15.5 38.5t-42.5 14.5q-29 0 -47 -17t-18 -44h-83q0 63 43 103t107 40q58 0 98.5 -35t40.5 -98q0 -52 -22.5 -85.5t-68.5 -66.5q-6 -4 -23 -15.5
t-26.5 -18.5t-20.5 -18t-15 -21h179zM257 0h-98l500 710h98zM725 -5q-63 0 -108.5 37t-47.5 94h85q5 -22 24 -36t46 -14q29 0 47.5 19t18.5 48t-19 48t-48 19q-48 0 -66 -44l-74 22l46 245h212v-81h-147l-16 -81q23 14 60 14q61 0 97.5 -41t36.5 -104q0 -65 -40.5 -105
t-106.5 -40z" />
    <glyph glyph-name="uni2157" unicode="&#x2157;" horiz-adv-x="893" 
d="M186 272q-65 0 -112 39t-49 107h82q8 -65 79 -65q30 0 48 14.5t18 40.5q0 27 -19.5 42.5t-52.5 15.5h-36v67h34q29 0 45 14t16 38q1 23 -15 36.5t-41 13.5q-29 0 -48 -17t-19 -44h-82q0 65 44.5 104t105.5 39q64 0 101.5 -36t37.5 -89q-1 -60 -48 -93q26 -12 43 -37.5
t17 -60.5q0 -57 -41.5 -93t-107.5 -36zM255 0h-98l500 710h98zM723 -5q-63 0 -108.5 37t-47.5 94h85q5 -22 24 -36t46 -14q29 0 47.5 19t18.5 48t-19 48t-48 19q-48 0 -66 -44l-74 22l46 245h212v-81h-147l-16 -81q23 14 60 14q61 0 97.5 -41t36.5 -104q0 -65 -40.5 -105
t-106.5 -40z" />
    <glyph glyph-name="uni2158" unicode="&#x2158;" horiz-adv-x="921" 
d="M232 278v99h-215v67l224 266h74v-257h56v-76h-56v-99h-83zM119 453h113v134zM282 0h-98l500 710h98zM750 -5q-63 0 -108.5 37t-47.5 94h85q5 -22 24 -36t46 -14q29 0 47.5 19t18.5 48t-19 48t-48 19q-48 0 -66 -44l-74 22l46 245h212v-81h-147l-16 -81q23 14 60 14
q61 0 97.5 -41t36.5 -104q0 -65 -40.5 -105t-106.5 -40z" />
    <glyph glyph-name="uni2159" unicode="&#x2159;" horiz-adv-x="744" 
d="M99 278v350h-91l60 82h114v-432h-83zM151 0h-98l500 710h98zM572 -5q-67 0 -109 42t-42 102q0 23 7 43.5t15 33.5t28 42l129 175h102l-112 -152q52 -2 92 -40t40 -98q0 -64 -41 -106t-109 -42zM572 74q29 0 47.5 19.5t18.5 48.5t-18.5 48.5t-47.5 19.5q-30 0 -49 -19.5
t-19 -48.5t19 -48.5t49 -19.5z" />
    <glyph glyph-name="uni215A" unicode="&#x215a;" horiz-adv-x="832" 
d="M178 272q-63 0 -108.5 37t-47.5 94h85q5 -22 24 -36t46 -14q29 0 47.5 19t18.5 48t-19 48t-48 19q-48 0 -66 -44l-74 22l46 245h212v-81h-147l-16 -81q23 14 60 14q61 0 97.5 -41t36.5 -104q0 -65 -40.5 -105t-106.5 -40zM239 0h-98l500 710h98zM660 -5q-67 0 -109 42
t-42 102q0 23 7 43.5t15 33.5t28 42l129 175h102l-112 -152q52 -2 92 -40t40 -98q0 -64 -41 -106t-109 -42zM660 74q29 0 47.5 19.5t18.5 48.5t-18.5 48.5t-47.5 19.5q-30 0 -49 -19.5t-19 -48.5t19 -48.5t49 -19.5z" />
    <glyph glyph-name="oneeighth" unicode="&#x215b;" horiz-adv-x="803" 
d="M99 278v350h-91l60 82h114v-432h-83zM151 0h-98l500 710h98zM622 -5q-66 0 -109.5 38.5t-43.5 98.5q0 69 57 105q-37 34 -37 87q0 49 37 82.5t96 33.5t95.5 -33.5t36.5 -82.5q0 -53 -37 -87q58 -37 58 -105q0 -60 -43.5 -98.5t-109.5 -38.5zM622 71q31 0 49.5 19t18.5 45
q0 27 -18.5 46t-49.5 19t-49.5 -19t-18.5 -46q0 -26 18.5 -45t49.5 -19zM622 266q24 0 39.5 14.5t15.5 35.5q0 22 -16 36.5t-39 14.5t-38.5 -14.5t-15.5 -36.5q0 -21 15.5 -35.5t38.5 -14.5z" />
    <glyph glyph-name="threeeighths" unicode="&#x215c;" horiz-adv-x="906" 
d="M186 272q-65 0 -112 39t-49 107h82q8 -65 79 -65q30 0 48 14.5t18 40.5q0 27 -19.5 42.5t-52.5 15.5h-36v67h34q29 0 45 14t16 38q1 23 -15 36.5t-41 13.5q-29 0 -48 -17t-19 -44h-82q0 65 44.5 104t105.5 39q64 0 101.5 -36t37.5 -89q-1 -60 -48 -93q26 -12 43 -37.5
t17 -60.5q0 -57 -41.5 -93t-107.5 -36zM255 0h-98l500 710h98zM726 -5q-66 0 -109.5 38.5t-43.5 98.5q0 69 57 105q-37 34 -37 87q0 49 37 82.5t96 33.5t95.5 -33.5t36.5 -82.5q0 -53 -37 -87q58 -37 58 -105q0 -60 -43.5 -98.5t-109.5 -38.5zM726 71q31 0 49.5 19t18.5 45
q0 27 -18.5 46t-49.5 19t-49.5 -19t-18.5 -46q0 -26 18.5 -45t49.5 -19zM726 266q24 0 39.5 14.5t15.5 35.5q0 22 -16 36.5t-39 14.5t-38.5 -14.5t-15.5 -36.5q0 -21 15.5 -35.5t38.5 -14.5z" />
    <glyph glyph-name="fiveeighths" unicode="&#x215d;" horiz-adv-x="891" 
d="M178 272q-63 0 -108.5 37t-47.5 94h85q5 -22 24 -36t46 -14q29 0 47.5 19t18.5 48t-19 48t-48 19q-48 0 -66 -44l-74 22l46 245h212v-81h-147l-16 -81q23 14 60 14q61 0 97.5 -41t36.5 -104q0 -65 -40.5 -105t-106.5 -40zM239 0h-98l500 710h98zM710 -5
q-66 0 -109.5 38.5t-43.5 98.5q0 69 57 105q-37 34 -37 87q0 49 37 82.5t96 33.5t95.5 -33.5t36.5 -82.5q0 -53 -37 -87q58 -37 58 -105q0 -60 -43.5 -98.5t-109.5 -38.5zM710 71q31 0 49.5 19t18.5 45q0 27 -18.5 46t-49.5 19t-49.5 -19t-18.5 -46q0 -26 18.5 -45t49.5 -19
zM710 266q24 0 39.5 14.5t15.5 35.5q0 22 -16 36.5t-39 14.5t-38.5 -14.5t-15.5 -36.5q0 -21 15.5 -35.5t38.5 -14.5z" />
    <glyph glyph-name="seveneighths" unicode="&#x215e;" horiz-adv-x="823" 
d="M127 278h-93l195 351h-202v81h300v-72zM171 0h-98l500 710h98zM642 -5q-66 0 -109.5 38.5t-43.5 98.5q0 69 57 105q-37 34 -37 87q0 49 37 82.5t96 33.5t95.5 -33.5t36.5 -82.5q0 -53 -37 -87q58 -37 58 -105q0 -60 -43.5 -98.5t-109.5 -38.5zM642 71q31 0 49.5 19
t18.5 45q0 27 -18.5 46t-49.5 19t-49.5 -19t-18.5 -46q0 -26 18.5 -45t49.5 -19zM642 266q24 0 39.5 14.5t15.5 35.5q0 22 -16 36.5t-39 14.5t-38.5 -14.5t-15.5 -36.5q0 -21 15.5 -35.5t38.5 -14.5z" />
    <glyph glyph-name="uni215F" unicode="&#x215f;" horiz-adv-x="441" 
d="M99 278v350h-91l60 82h114v-432h-83zM151 0h-98l500 710h98z" />
    <glyph glyph-name="arrowleft" unicode="&#x2190;" horiz-adv-x="819" 
d="M348 -56l-306 306l306 306l61 -64l-198 -198h551v-89h-551l198 -198z" />
    <glyph glyph-name="arrowup" unicode="&#x2191;" horiz-adv-x="701" 
d="M305 0v552l-198 -198l-63 62l306 306l306 -306l-64 -62l-197 198v-552h-90z" />
    <glyph glyph-name="arrowright" unicode="&#x2192;" horiz-adv-x="819" 
d="M472 -56l-62 63l198 198h-550v89h550l-198 198l62 64l306 -306z" />
    <glyph glyph-name="arrowdown" unicode="&#x2193;" horiz-adv-x="697" 
d="M655 294l-306 -306l-306 306l63 62l198 -198v552h89v-552l198 198z" />
    <glyph glyph-name="uni2196" unicode="&#x2196;" horiz-adv-x="727" 
d="M683 51l-63 -63l-434 433v-281h-88v432h433v-89h-282z" />
    <glyph glyph-name="uni2197" unicode="&#x2197;" horiz-adv-x="727" 
d="M107 -12l-62 63l433 432h-282v89h433v-432h-88v281z" />
    <glyph glyph-name="uni2198" unicode="&#x2198;" horiz-adv-x="722" 
d="M198 0v89h282l-433 432l62 63l434 -433v281h88v-432h-433z" />
    <glyph glyph-name="uni2199" unicode="&#x2199;" horiz-adv-x="722" 
d="M179 151l433 433l63 -63l-433 -432h282v-89h-433v432h88v-281z" />
    <glyph glyph-name="uni21B0" unicode="&#x21b0;" horiz-adv-x="843" 
d="M762 -209h-90v414h-461l198 -198l-61 -63l-306 306l306 306l61 -64l-198 -198h551v-503z" />
    <glyph glyph-name="uni21B1" unicode="&#x21b1;" horiz-adv-x="843" 
d="M81 -209v503h550l-197 198l61 64l306 -306l-306 -306l-61 63l197 198h-460v-414h-90z" />
    <glyph glyph-name="uni21B2" unicode="&#x21b2;" horiz-adv-x="854" 
d="M349 -58l-306 306l306 306l61 -63l-198 -198h461v417h90v-506h-551l198 -198z" />
    <glyph glyph-name="uni21B3" unicode="&#x21b3;" horiz-adv-x="854" 
d="M812 248l-306 -306l-62 64l198 198h-550v506h89v-417h461l-198 198l62 63z" />
    <glyph glyph-name="minus" unicode="&#x2212;" horiz-adv-x="550" 
d="M64 241v97h422v-97h-422z" />
    <glyph glyph-name="uniF6D1" unicode="&#xf6d1;" 
d="M0 755q-71 0 -118.5 45.5t-47.5 120.5h77q0 -45 24 -71t65 -26t65 26t24 71h77q0 -75 -47.5 -120.5t-118.5 -45.5z" />
    <glyph glyph-name="uniF6D4" unicode="&#xf6d4;" 
d="M0 569q-71 0 -118.5 45.5t-47.5 120.5v15h78v-15q0 -46 25 -72.5t63 -26.5t63 26.5t25 72.5v15h78v-15q0 -75 -47.5 -120.5t-118.5 -45.5z" />
    <glyph glyph-name="f_f" unicode="&#xfb00;" horiz-adv-x="750" 
d="M121 0v402h-104v98h104v90q0 81 47.5 123.5t123.5 42.5q46 0 82 -12v-98q-16 10 -59 10q-44 0 -64 -19.5t-20 -65.5v-71h117v-98h-117v-402h-110zM483 0v402h-83v98h83v90q0 81 47.5 123.5t123.5 42.5q43 0 82 -12v-98q-23 10 -59 10q-44 0 -64 -19.5t-20 -65.5v-71h143
v-98h-143v-402h-110z" />
    <glyph glyph-name="fi" unicode="&#xfb01;" horiz-adv-x="646" 
d="M121 0v402h-104v98h104v84q0 81 48 126.5t123 45.5q46 0 82 -12v-98q-23 10 -59 10q-44 0 -64 -19.5t-20 -65.5v-71h143v-98h-143v-402h-110zM517 609q-30 0 -52 21.5t-22 52.5q0 30 22 51.5t52 21.5q31 0 52 -21.5t21 -51.5q0 -31 -21 -52.5t-52 -21.5zM462 0v500h110
v-500h-110z" />
    <glyph glyph-name="fl" unicode="&#xfb02;" horiz-adv-x="646" 
d="M121 0v402h-104v98h104v84q0 81 48 126.5t123 45.5q46 0 82 -12v-98q-23 10 -59 10q-44 0 -64 -19.5t-20 -65.5v-71h143v-98h-143v-402h-110zM462 0v750h110v-750h-110z" />
    <glyph glyph-name="f_f_i" unicode="&#xfb03;" horiz-adv-x="1009" 
d="M879 609q-30 0 -52 21.5t-22 52.5q0 30 22 51.5t52 21.5q31 0 52 -21.5t21 -51.5q0 -31 -21 -52.5t-52 -21.5zM824 0v500h110v-500h-110zM121 0v402h-104v98h104v90q0 81 47.5 123.5t123.5 42.5q46 0 82 -12v-98q-16 10 -59 10q-44 0 -64 -19.5t-20 -65.5v-71h117v-98
h-117v-402h-110zM483 0v402h-83v98h83v90q0 81 47.5 123.5t123.5 42.5q43 0 82 -12v-98q-23 10 -59 10q-44 0 -64 -19.5t-20 -65.5v-71h143v-98h-143v-402h-110z" />
    <glyph glyph-name="f_f_l" unicode="&#xfb04;" horiz-adv-x="1009" 
d="M824 0v750h110v-750h-110zM121 0v402h-104v98h104v90q0 81 47.5 123.5t123.5 42.5q46 0 82 -12v-98q-16 10 -59 10q-44 0 -64 -19.5t-20 -65.5v-71h117v-98h-117v-402h-110zM483 0v402h-83v98h83v90q0 81 47.5 123.5t123.5 42.5q43 0 82 -12v-98q-23 10 -59 10
q-44 0 -64 -19.5t-20 -65.5v-71h143v-98h-143v-402h-110z" />
    <glyph glyph-name="uniFEFF" unicode="&#xfeff;" 
 />
    <glyph glyph-name="NULL" 
 />
    <glyph glyph-name="CR" horiz-adv-x="235" 
 />
    <glyph glyph-name="L_periodcentered" horiz-adv-x="555" 
d="M87 0v710h117v-598h325v-112h-442zM420 345q-28 0 -47.5 19.5t-19.5 46.5q0 28 19.5 47.5t47.5 19.5q27 0 46.5 -19.5t19.5 -47.5q0 -27 -19.5 -46.5t-46.5 -19.5z" />
    <glyph glyph-name="l_periodcentered" horiz-adv-x="393" 
d="M74 0v750h110v-750h-110zM326 308q-28 0 -47.5 19.5t-19.5 46.5q0 28 19.5 47.5t47.5 19.5q27 0 46.5 -19.5t19.5 -47.5q0 -27 -19.5 -46.5t-46.5 -19.5z" />
    <glyph glyph-name="_470" 
d="M52 500h-101v125h101v-125z" />
    <glyph glyph-name="_471" 
d="M154 212h-308v80h308v-80z" />
    <glyph glyph-name="_472" 
d="M-196 213v77h392v-77h-392z" />
    <glyph glyph-name="_473" 
d="M-187 -80v80h375v-80h-375z" />
    <glyph glyph-name="_474" 
d="M-25 -125v125h-26v98h126v-223h-100z" />
    <glyph glyph-name="_476" 
d="M57 710h-108v148h108v-148z" />
    <glyph glyph-name="_477" 
d="M113 385q80 0 142 43v-104q-62 -43 -142 -43q-43 0 -116 21.5t-109 21.5q-81 0 -143 -43v104q62 43 143 43q50 0 118.5 -21.5t106.5 -21.5z" />
    <glyph glyph-name="_478" 
d="M-189 304v106h379v-106h-379z" />
    <glyph glyph-name="_479" 
d="M-310 295v106h620v-106h-620z" />
    <glyph glyph-name="_480" 
d="M210 300v-106h-420v106h420z" />
    <glyph glyph-name="_481" 
d="M-28 -148v148h-26v112h134v-260h-108z" />
    <glyph glyph-name="_505" horiz-adv-x="535" 
d="M234 675l129 48l-131 -252l233 10l-415 -492l242 402l-205 -12zM455 465q5 0 5 -5q0 4 4 5q-4 0 -4 5t5 5t5 -5t-4 -5q3 -1 4 -4q0 4 5 4t5 -5t-4 -5q4 -1 4 -5q0 -5 -4 -5q3 -1 4 -4q0 4 5 4t5 -5t-4 -5q4 -1 4 -5q0 -5 -5 -5t-5 4q-1 -4 -4 -4q4 -1 4 -5q0 -5 -5 -5
t-5 4q-1 -4 -4 -4q4 -1 4 -5q0 -5 -5 -5t-5 4q-1 -4 -4 -4q4 -1 4 -5q0 -5 -5 -5t-5 4q-1 -4 -4 -4q4 -1 4 -5q0 -5 -5 -5t-5 4q-1 -4 -4 -4q4 -1 4 -5q0 -5 -5 -5t-5 4q-1 -4 -4 -4q4 -1 4 -5q0 -5 -5 -5t-5 4q-1 -4 -4 -4q4 -1 4 -5q0 -5 -4 -5q4 -1 4 -5q0 -5 -5 -5t-5 4
q-1 -4 -4 -4q4 -1 4 -5q0 -5 -5 -5t-5 4q-1 -4 -4 -4q4 -1 4 -5q0 -5 -5 -5t-5 4q-1 -4 -4 -4q4 -1 4 -5q0 -5 -5 -5t-5 4q-1 -4 -4 -4q4 -1 4 -5q0 -5 -5 -5t-5 4q-1 -4 -4 -4q4 -1 4 -5q0 -5 -5 -5t-5 4q-1 -4 -4 -4q4 -1 4 -5q0 -5 -5 -5t-5 4q-1 -4 -4 -4q4 -1 4 -5
q0 -5 -5 -5t-5 4q-1 -4 -4 -4q4 -1 4 -5q0 -5 -5 -5t-5 4q-1 -4 -4 -4q4 -1 4 -5q0 -5 -5 -5t-5 4q-1 -4 -4 -4q4 -1 4 -5q0 -5 -5 -5t-5 4q-1 -4 -4 -4q4 -1 4 -5q0 -5 -5 -5t-5 4q-1 -4 -4 -4q4 -1 4 -5q0 -5 -5 -5t-5 4q-1 -4 -4 -4q4 -1 4 -5q0 -5 -4 -5q4 -1 4 -5
q0 -5 -5 -5t-5 4q-1 -4 -4 -4q4 -1 4 -5q0 -5 -5 -5t-5 4q-1 -4 -4 -4q4 -1 4 -5q0 -5 -5 -5t-5 4q-1 -4 -4 -4q4 -1 4 -5q0 -5 -5 -5t-5 4q-1 -4 -4 -4q4 -1 4 -5q0 -5 -5 -5t-5 4q-1 -4 -4 -4q4 -1 4 -5q0 -5 -5 -5t-5 4q-1 -4 -4 -4q4 -1 4 -5q0 -5 -5 -5t-5 4
q-1 -4 -4 -4q4 -1 4 -5q0 -5 -5 -5t-5 4q-1 -4 -4 -4q4 -1 4 -5q0 -5 -5 -5t-5 4q-1 -4 -4 -4q4 -1 4 -5q0 -5 -5 -5t-5 4q-1 -4 -4 -4q4 -1 4 -5q0 -5 -5 -5t-5 4q-1 -4 -4 -4q4 -1 4 -5q0 -5 -4 -5q4 -1 4 -5q0 -5 -5 -5t-5 4q-1 -4 -4 -4q4 -1 4 -5q0 -5 -5 -5t-5 4
q-1 -4 -4 -4q4 -1 4 -5q0 -5 -5 -5t-5 4q-1 -4 -4 -4q4 -1 4 -5q0 -5 -5 -5t-5 4q-1 -4 -4 -4q4 -1 4 -5q0 -5 -5 -5t-5 4q-1 -4 -4 -4q4 -1 4 -5q0 -5 -5 -5t-5 4q-1 -4 -4 -4q4 -1 4 -5q0 -5 -5 -5t-5 4q-1 -4 -4 -4q4 -1 4 -5q0 -5 -5 -5t-5 4q-1 -4 -4 -4q4 -1 4 -5
q0 -5 -5 -5t-5 4q-1 -4 -4 -4q4 -1 4 -5q0 -5 -5 -5t-5 4q-1 -3 -4 -4q4 0 4 -5t-5 -5t-5 4q-1 -3 -4 -4q4 0 4 -5t-5 -5t-5 5t4 5q-4 1 -4 5q0 5 5 5t5 -5q0 5 4 5q-4 1 -4 5t4 5q-4 0 -4 5t5 5t5 -5q0 4 4 5q-4 0 -4 5t5 5q4 0 5 -4q0 3 4 4q-4 0 -4 5t5 5q4 0 5 -4
q0 3 4 4q-4 0 -4 5t5 5q4 0 5 -4q0 3 4 4q-4 0 -4 5t5 5t5 -5q0 4 4 5q-4 0 -4 5t5 5t5 -5q0 4 4 5q-4 0 -4 5q0 4 4 5q-4 0 -4 5t5 5t5 -5q0 4 4 5q-4 0 -4 5t5 5q4 0 5 -4q0 3 4 4q-4 0 -4 5t5 5q4 0 5 -4q0 3 4 4q-4 0 -4 5t5 5t5 -5q0 4 4 5q-4 0 -4 5t5 5t5 -5q0 4 4 5
q-4 0 -4 5q0 4 4 5q-4 0 -4 5t5 5q4 0 5 -4q0 3 4 4q-4 0 -4 5t5 5t5 -5q0 4 4 5q-4 0 -4 5t5 5t5 -5q0 4 4 5q-4 0 -4 5t5 5t5 -5q0 4 4 5q-4 0 -4 5t5 5t5 -5q0 4 4 5q-4 0 -4 5q0 4 4 5q-4 0 -4 5t5 5t5 -5q0 4 4 5q-4 0 -4 5t5 5q4 0 5 -4q0 3 4 4q-4 0 -4 5t5 5t5 -5
q0 4 4 5q-4 0 -4 5t5 5t5 -5q0 4 4 5q-4 0 -4 5t5 5t5 -5q0 4 4 5q-4 0 -4 5t5 5t5 -5q0 4 4 5q-4 0 -4 5q0 4 4 5q-4 0 -4 5t5 5t5 -5q0 4 4 5q-4 0 -4 5t5 5q4 0 5 -4q0 3 4 4q-4 0 -4 5t5 5t5 -5q0 4 4 5q-4 0 -4 5t5 5q4 0 5 -4q0 3 4 4q-4 0 -4 5t5 5q4 0 5 -4q0 3 4 4
q-4 0 -4 5q0 4 4 5q-4 0 -4 5t5 5t5 -5q0 4 4 5q-4 0 -4 5t5 5t5 -5q0 4 4 5q-4 0 -4 5t5 5t5 -5q0 4 4 5q-4 0 -4 5t5 5t5 -5q0 4 4 5q-4 0 -4 5t5 5t5 -5q0 4 4 5q-4 0 -4 5q0 4 4 5q-4 0 -4 5t5 5t5 -5q0 4 4 5q-4 0 -4 5t5 5q4 0 5 -4q0 3 4 4q-4 0 -4 5t5 5q4 0 5 -4
q0 3 4 4q-4 0 -4 5t5 5q4 0 5 -4q0 3 4 4q-4 0 -4 5t5 5t5 -5q0 4 4 5q-4 0 -4 5t5 5q4 0 5 -4q0 3 4 4q-4 0 -4 5q0 4 4 5q-4 0 -4 5t5 5zM355 695q4 0 5 -4q0 3 4 4q-4 0 -4 5q0 4 4 5q-4 0 -4 5t5 5t5 -5t-4 -5q3 -1 4 -4q0 4 5 4t5 -5t-4 -5q3 -1 4 -4q0 4 5 4t5 -5
t-4 -5q4 -1 4 -5q0 -5 -5 -5t-5 4q-1 -4 -4 -4q4 -1 4 -5q0 -5 -4 -5q4 -1 4 -5q0 -5 -5 -5t-5 4q-1 -4 -4 -4q4 -1 4 -5q0 -5 -5 -5t-5 4q-1 -4 -4 -4q4 -1 4 -5q0 -5 -4 -5q4 -1 4 -5q0 -5 -5 -5t-5 4q-1 -4 -4 -4q4 -1 4 -5q0 -5 -4 -5q4 -1 4 -5q0 -5 -5 -5t-5 4
q-1 -4 -4 -4q4 -1 4 -5q0 -5 -4 -5q4 -1 4 -5q0 -5 -5 -5t-5 4q-1 -4 -4 -4q4 -1 4 -5q0 -5 -5 -5t-5 4q-1 -4 -4 -4q4 -1 4 -5q0 -5 -4 -5q4 -1 4 -5q0 -5 -5 -5t-5 4q-1 -4 -4 -4q4 -1 4 -5q0 -5 -4 -5q4 -1 4 -5q0 -5 -5 -5t-5 4q-1 -4 -4 -4q4 -1 4 -5q0 -5 -4 -5
q4 -1 4 -5q0 -5 -5 -5t-5 4q-1 -4 -4 -4q4 -1 4 -5q0 -5 -4 -5q4 -1 4 -5q0 -5 -5 -5t-5 4q-1 -4 -4 -4q4 -1 4 -5q0 -5 -4 -5q4 -1 4 -5q0 -5 -5 -5t-5 4q-1 -4 -5 -4q-5 0 -5 4q-1 -4 -5 -4q-5 0 -5 4q-1 -4 -5 -4q-5 0 -5 5t5 5q4 0 5 -4q0 3 4 4q-4 0 -4 5q0 4 4 5
q-4 0 -4 5t5 5q4 0 5 -4q0 3 4 4q-4 0 -4 5q0 4 4 5q-4 0 -4 5t5 5t5 -5q0 4 4 5q-4 0 -4 5q0 4 4 5q-4 0 -4 5t5 5q4 0 5 -4q0 3 4 4q-4 0 -4 5q0 4 4 5q-4 0 -4 5t5 5t5 -5q0 4 4 5q-4 0 -4 5q0 4 4 5q-4 0 -4 5t5 5q4 0 5 -4q0 3 4 4q-4 0 -4 5q0 4 4 5q-4 0 -4 5t5 5
t5 -5q0 4 4 5q-4 0 -4 5t5 5q4 0 5 -4q0 3 4 4q-4 0 -4 5q0 4 4 5q-4 0 -4 5t5 5q4 0 5 -4q0 3 4 4q-4 0 -4 5q0 4 4 5q-4 0 -4 5t5 5q4 0 5 -4q0 3 4 4q-4 0 -4 5q0 4 4 5q-4 0 -4 5t5 5t5 -5q0 4 4 5q-4 0 -4 5q0 4 4 5q-4 0 -4 5t5 5zM275 385q5 0 5 -5t-5 -5t-5 4
q-1 -4 -4 -4q4 -1 4 -5q0 -5 -4 -5q4 -1 4 -5q0 -5 -5 -5t-5 4q-1 -4 -5 -4q-5 0 -5 4q-1 -4 -5 -4q-5 0 -5 4q-1 -4 -5 -4q-5 0 -5 4q-1 -4 -5 -4q-5 0 -5 4q-1 -4 -5 -4q-5 0 -5 4q-1 -4 -5 -4q-5 0 -5 4q-1 -4 -5 -4q-5 0 -5 4q-1 -4 -4 -4q4 -1 4 -5q0 -5 -5 -5t-5 4
q-1 -4 -5 -4q-5 0 -5 4q-1 -4 -5 -4q-5 0 -5 4q-1 -4 -5 -4q-5 0 -5 4q-1 -4 -5 -4q-5 0 -5 4q-1 -4 -5 -4q-5 0 -5 4q-1 -4 -5 -4q-5 0 -5 4q-1 -4 -5 -4q-5 0 -5 4q-1 -4 -5 -4q-5 0 -5 5q0 4 4 5q-4 0 -4 4q-1 -4 -5 -4q-5 0 -5 5q0 4 4 5q-4 0 -4 5t5 5t5 -5q0 5 5 5
t5 -5q0 5 5 5q4 0 5 -4q0 4 5 4t5 -5q0 5 5 5q4 0 5 -4q0 4 5 4t5 -5q0 5 5 5t5 -5q0 5 5 5t5 -5q0 5 5 5t5 -5q0 5 5 5t5 -5q0 4 4 5q-4 0 -4 5t5 5q4 0 5 -4q0 4 5 4t5 -5q0 5 5 5q4 0 5 -4q0 4 5 4t5 -5q0 5 5 5t5 -5q0 5 5 5q4 0 5 -4q0 4 5 4q4 0 5 -4q0 4 5 4
q4 0 5 -4q0 4 5 4zM110 39q-1 -4 -4 -4q4 -1 4 -5q0 4 4 5q-4 0 -4 4zM120 49q-1 -4 -4 -4q4 -1 4 -5q0 4 4 5q-4 0 -4 4zM130 59q-1 -4 -4 -4q4 -1 4 -5q0 4 4 5q-4 0 -4 4zM140 69q-1 -4 -4 -4q3 -1 4 -4q0 3 4 4q-4 0 -4 4zM140 79q-1 -4 -4 -4q3 -1 4 -4q0 3 4 4
q-4 0 -4 4zM154 75q-4 0 -4 4q-1 -4 -4 -4q3 -1 4 -4q0 3 4 4zM160 89q-1 -4 -4 -4q3 -1 4 -4q0 3 4 4q-4 0 -4 4zM154 85q-4 0 -4 4q-1 -4 -4 -4q3 -1 4 -4q0 3 4 4zM170 99q-1 -4 -4 -4q4 -1 4 -5q0 4 4 5q-4 0 -4 4zM160 99q-1 -4 -4 -4q3 -1 4 -4q0 3 4 4q-4 0 -4 4z
M170 109q-1 -4 -4 -4q4 -1 4 -5q0 4 4 5q-4 0 -4 4zM180 119q-1 -4 -4 -4q4 -1 4 -5q0 4 4 5q-4 0 -4 4zM190 129q-1 -4 -4 -4q3 -1 4 -4q0 3 4 4q-4 0 -4 4zM260 369q-1 -4 -4 -4q3 -1 4 -4q0 3 4 4q-4 0 -4 4zM250 369q-1 -4 -4 -4q4 -1 4 -5q0 4 4 5q-4 0 -4 4zM240 369
q-1 -4 -4 -4q4 -1 4 -5q0 4 4 5q-4 0 -4 4zM230 369q-1 -4 -4 -4q4 -1 4 -5q0 4 4 5q-4 0 -4 4zM220 369q-1 -4 -4 -4q4 -1 4 -5q0 4 4 5q-4 0 -4 4zM260 379q-1 -4 -4 -4q3 -1 4 -4q0 3 4 4q-4 0 -4 4zM250 379q-1 -4 -4 -4q3 -1 4 -4q0 3 4 4q-4 0 -4 4zM240 379
q-1 -4 -4 -4q4 -1 4 -5q0 4 4 5q-4 0 -4 4zM230 379q-1 -4 -4 -4q3 -1 4 -4q0 3 4 4q-4 0 -4 4zM220 379q-1 -4 -4 -4q3 -1 4 -4q0 3 4 4q-4 0 -4 4zM180 359q-1 -4 -4 -4q3 -1 4 -4q0 3 4 4q-4 0 -4 4zM170 359q-1 -4 -4 -4q4 -1 4 -5q0 4 4 5q-4 0 -4 4zM160 359
q-1 -4 -4 -4q4 -1 4 -5q0 4 4 5q-4 0 -4 4zM210 369q-1 -4 -4 -4q4 -1 4 -5q0 4 4 5q-4 0 -4 4zM200 369q-1 -4 -4 -4q3 -1 4 -4q0 3 4 4q-4 0 -4 4zM190 369q-1 -4 -4 -4q4 -1 4 -5q0 4 4 5q-4 0 -4 4zM180 369q-1 -4 -4 -4q4 -1 4 -5q0 4 4 5q-4 0 -4 4zM170 369
q-1 -4 -4 -4q4 -1 4 -5q0 4 4 5q-4 0 -4 4zM160 369q-1 -4 -4 -4q4 -1 4 -5q0 4 4 5q-4 0 -4 4zM210 379q-1 -4 -4 -4q4 -1 4 -5q0 4 4 5q-4 0 -4 4zM200 379q-1 -4 -4 -4q3 -1 4 -4q0 3 4 4q-4 0 -4 4zM150 359q-1 -4 -4 -4q4 -1 4 -5q0 4 4 5q-4 0 -4 4zM140 359
q-1 -4 -4 -4q4 -1 4 -5q0 4 4 5q-4 0 -4 4zM130 359q-1 -4 -4 -4q4 -1 4 -5q0 4 4 5q-4 0 -4 4zM120 359q-1 -4 -4 -4q4 -1 4 -5q0 4 4 5q-4 0 -4 4zM110 359q-1 -4 -4 -4q4 -1 4 -5q0 4 4 5q-4 0 -4 4zM150 369q-1 -4 -4 -4q4 -1 4 -5q0 4 4 5q-4 0 -4 4zM140 369
q-1 -4 -4 -4q4 -1 4 -5q0 4 4 5q-4 0 -4 4zM130 369q-1 -4 -4 -4q4 -1 4 -5q0 4 4 5q-4 0 -4 4zM120 369q-1 -4 -4 -4q4 -1 4 -5q0 4 4 5q-4 0 -4 4zM110 369q-1 -4 -4 -4q4 -1 4 -5q0 4 4 5q-4 0 -4 4zM100 369q-1 -4 -4 -4q4 -1 4 -5q0 4 4 5q-4 0 -4 4zM410 369
q-1 -4 -4 -4q4 -1 4 -5q0 4 4 5q-4 0 -4 4zM200 139q-1 -4 -4 -4q4 -1 4 -5q0 4 4 5q-4 0 -4 4zM194 135q-4 0 -4 4q-1 -4 -4 -4q4 -1 4 -5q0 4 4 5zM210 149q-1 -4 -4 -4q4 -1 4 -5q0 4 4 5q-4 0 -4 4zM200 149q-1 -4 -4 -4q3 -1 4 -4q0 3 4 4q-4 0 -4 4zM220 159
q-1 -4 -4 -4q4 -1 4 -5q0 4 4 5q-4 0 -4 4zM210 159q-1 -4 -4 -4q4 -1 4 -5q0 4 4 5q-4 0 -4 4zM230 169q-1 -4 -4 -4q4 -1 4 -5q0 4 4 5q-4 0 -4 4zM220 169q-1 -4 -4 -4q4 -1 4 -5q0 4 4 5q-4 0 -4 4zM240 179q-1 -4 -4 -4q4 -1 4 -5q0 4 4 5q-4 0 -4 4zM230 179
q-1 -4 -4 -4q4 -1 4 -5q0 4 4 5q-4 0 -4 4zM240 189q-1 -4 -4 -4q4 -1 4 -5q0 4 4 5q-4 0 -4 4zM240 199q-1 -4 -4 -4q4 -1 4 -5q0 4 4 5q-4 0 -4 4zM254 185q-4 0 -4 4q-1 -4 -4 -4q3 -1 4 -4q0 3 4 4zM260 199q-1 -4 -4 -4q4 -1 4 -5q0 4 4 5q-4 0 -4 4zM254 195
q-4 0 -4 4q-1 -4 -4 -4q4 -1 4 -5q0 4 4 5zM270 209q-1 -4 -4 -4q4 -1 4 -5q0 4 4 5q-4 0 -4 4zM260 209q-1 -4 -4 -4q4 -1 4 -5q0 4 4 5q-4 0 -4 4zM254 205q-4 0 -4 4q-1 -4 -4 -4q4 -1 4 -5q0 4 4 5zM280 219q-1 -4 -4 -4q3 -1 4 -4q0 3 4 4q-4 0 -4 4zM270 219
q-1 -4 -4 -4q4 -1 4 -5q0 4 4 5q-4 0 -4 4zM260 219q-1 -4 -4 -4q3 -1 4 -4q0 3 4 4q-4 0 -4 4zM280 229q-1 -4 -4 -4q4 -1 4 -5q0 4 4 5q-4 0 -4 4zM270 229q-1 -4 -4 -4q3 -1 4 -4q0 3 4 4q-4 0 -4 4zM290 239q-1 -4 -4 -4q3 -1 4 -4q0 3 4 4q-4 0 -4 4zM280 239
q-1 -4 -4 -4q4 -1 4 -5q0 4 4 5q-4 0 -4 4zM300 249q-1 -4 -4 -4q4 -1 4 -5q0 4 4 5q-4 0 -4 4zM290 249q-1 -4 -4 -4q4 -1 4 -5q0 4 4 5q-4 0 -4 4zM300 259q-1 -4 -4 -4q4 -1 4 -5q0 4 4 5q-4 0 -4 4zM300 269q-1 -4 -4 -4q3 -1 4 -4q0 3 4 4q-4 0 -4 4zM314 255
q-4 0 -4 4q-1 -4 -4 -4q4 -1 4 -5q0 4 4 5zM320 269q-1 -4 -4 -4q4 -1 4 -5q0 4 4 5q-4 0 -4 4zM314 265q-4 0 -4 4q-1 -4 -4 -4q4 -1 4 -5q0 4 4 5zM330 279q-1 -4 -4 -4q3 -1 4 -4q0 3 4 4q-4 0 -4 4zM320 279q-1 -4 -4 -4q3 -1 4 -4q0 3 4 4q-4 0 -4 4zM314 275
q-4 0 -4 4q-1 -4 -4 -4q3 -1 4 -4q0 3 4 4zM340 289q-1 -4 -4 -4q4 -1 4 -5q0 4 4 5q-4 0 -4 4zM330 289q-1 -4 -4 -4q4 -1 4 -5q0 4 4 5q-4 0 -4 4zM320 289q-1 -4 -4 -4q4 -1 4 -5q0 4 4 5q-4 0 -4 4zM350 299q-1 -4 -4 -4q4 -1 4 -5q0 4 4 5q-4 0 -4 4zM340 299
q-1 -4 -4 -4q3 -1 4 -4q0 3 4 4q-4 0 -4 4zM330 299q-1 -4 -4 -4q4 -1 4 -5q0 4 4 5q-4 0 -4 4zM360 309q-1 -4 -4 -4q4 -1 4 -5q0 4 4 5q-4 0 -4 4zM350 309q-1 -4 -4 -4q3 -1 4 -4q0 3 4 4q-4 0 -4 4zM340 309q-1 -4 -4 -4q4 -1 4 -5q0 4 4 5q-4 0 -4 4zM270 489
q-1 -4 -4 -4q3 -1 4 -4q0 3 4 4q-4 0 -4 4zM260 489q-1 -4 -4 -4q3 -1 4 -4q0 3 4 4q-4 0 -4 4zM270 499q-1 -4 -4 -4q4 -1 4 -5q0 4 4 5q-4 0 -4 4zM260 499q-1 -4 -4 -4q3 -1 4 -4q0 3 4 4q-4 0 -4 4zM280 509q-1 -4 -4 -4q3 -1 4 -4q0 3 4 4q-4 0 -4 4zM270 509
q-1 -4 -4 -4q4 -1 4 -5q0 4 4 5q-4 0 -4 4zM280 519q-1 -4 -4 -4q4 -1 4 -5q0 4 4 5q-4 0 -4 4zM270 519q-1 -4 -4 -4q4 -1 4 -5q0 4 4 5q-4 0 -4 4zM280 529q-1 -4 -4 -4q4 -1 4 -5q0 4 4 5q-4 0 -4 4zM280 539q-1 -4 -4 -4q4 -1 4 -5q0 4 4 5q-4 0 -4 4zM360 319
q-1 -4 -4 -4q4 -1 4 -5q0 4 4 5q-4 0 -4 4zM350 319q-1 -4 -4 -4q3 -1 4 -4q0 3 4 4q-4 0 -4 4zM360 329q-1 -4 -4 -4q4 -1 4 -5q0 4 4 5q-4 0 -4 4zM350 329q-1 -4 -4 -4q4 -1 4 -5q0 4 4 5q-4 0 -4 4zM360 339q-1 -4 -4 -4q3 -1 4 -4q0 3 4 4q-4 0 -4 4zM374 315
q-4 0 -4 4q-1 -4 -4 -4q3 -1 4 -4q0 3 4 4zM380 329q-1 -4 -4 -4q3 -1 4 -4q0 3 4 4q-4 0 -4 4zM374 325q-4 0 -4 4q-1 -4 -4 -4q4 -1 4 -5q0 4 4 5zM390 339q-1 -4 -4 -4q4 -1 4 -5q0 4 4 5q-4 0 -4 4zM380 339q-1 -4 -4 -4q4 -1 4 -5q0 4 4 5q-4 0 -4 4zM374 335
q-4 0 -4 4q-1 -4 -4 -4q3 -1 4 -4q0 3 4 4zM400 349q-1 -4 -4 -4q4 -1 4 -5q0 4 4 5q-4 0 -4 4zM390 349q-1 -4 -4 -4q3 -1 4 -4q0 3 4 4q-4 0 -4 4zM380 349q-1 -4 -4 -4q4 -1 4 -5q0 4 4 5q-4 0 -4 4zM374 345q-4 0 -4 4q-1 -4 -4 -4q4 -1 4 -5q0 4 4 5zM410 359
q-1 -4 -4 -4q4 -1 4 -5q0 4 4 5q-4 0 -4 4zM400 359q-1 -4 -4 -4q3 -1 4 -4q0 3 4 4q-4 0 -4 4zM390 359q-1 -4 -4 -4q3 -1 4 -4q0 3 4 4q-4 0 -4 4zM380 359q-1 -4 -4 -4q3 -1 4 -4q0 3 4 4q-4 0 -4 4zM300 549q-1 -4 -4 -4q3 -1 4 -4q0 3 4 4q-4 0 -4 4zM400 369
q-1 -4 -4 -4q4 -1 4 -5q0 4 4 5q-4 0 -4 4zM390 369q-1 -4 -4 -4q3 -1 4 -4q0 3 4 4q-4 0 -4 4zM420 379q-1 -4 -4 -4q3 -1 4 -4q0 3 4 4q-4 0 -4 4zM410 379q-1 -4 -4 -4q3 -1 4 -4q0 3 4 4q-4 0 -4 4zM400 379q-1 -4 -4 -4q4 -1 4 -5q0 4 4 5q-4 0 -4 4zM420 389
q-1 -4 -4 -4q4 -1 4 -5q0 4 4 5q-4 0 -4 4zM410 389q-1 -4 -4 -4q4 -1 4 -5q0 4 4 5q-4 0 -4 4zM400 389q-1 -4 -4 -4q3 -1 4 -4q0 3 4 4q-4 0 -4 4zM420 399q-1 -4 -4 -4q4 -1 4 -5q0 4 4 5q-4 0 -4 4zM410 399q-1 -4 -4 -4q4 -1 4 -5q0 4 4 5q-4 0 -4 4zM420 409
q-1 -4 -4 -4q4 -1 4 -5q0 4 4 5q-4 0 -4 4zM434 385q-4 0 -4 4q-1 -4 -4 -4q4 -1 4 -5q0 4 4 5zM440 399q-1 -4 -4 -4q4 -1 4 -5q0 4 4 5q-4 0 -4 4zM434 395q-4 0 -4 4q-1 -4 -4 -4q3 -1 4 -4q0 3 4 4zM450 409q-1 -4 -4 -4q4 -1 4 -5q0 4 4 5q-4 0 -4 4zM440 409
q-1 -4 -4 -4q3 -1 4 -4q0 3 4 4q-4 0 -4 4zM434 405q-4 0 -4 4q-1 -4 -4 -4q4 -1 4 -5q0 4 4 5zM460 419q-1 -4 -4 -4q4 -1 4 -5q0 4 4 5q-4 0 -4 4zM450 419q-1 -4 -4 -4q3 -1 4 -4q0 3 4 4q-4 0 -4 4zM440 419q-1 -4 -4 -4q4 -1 4 -5q0 4 4 5q-4 0 -4 4zM434 415
q-4 0 -4 4q-1 -4 -4 -4q3 -1 4 -4q0 3 4 4zM470 429q-1 -4 -4 -4q3 -1 4 -4q0 3 4 4q-4 0 -4 4zM460 429q-1 -4 -4 -4q4 -1 4 -5q0 4 4 5q-4 0 -4 4zM450 429q-1 -4 -4 -4q3 -1 4 -4q0 3 4 4q-4 0 -4 4zM440 429q-1 -4 -4 -4q3 -1 4 -4q0 3 4 4q-4 0 -4 4zM480 439
q-1 -4 -4 -4q3 -1 4 -4q0 3 4 4q-4 0 -4 4zM470 439q-1 -4 -4 -4q3 -1 4 -4q0 3 4 4q-4 0 -4 4zM460 439q-1 -4 -4 -4q4 -1 4 -5q0 4 4 5q-4 0 -4 4zM450 439q-1 -4 -4 -4q3 -1 4 -4q0 3 4 4q-4 0 -4 4zM470 449q-1 -4 -4 -4q3 -1 4 -4q0 3 4 4q-4 0 -4 4zM460 449
q-1 -4 -4 -4q3 -1 4 -4q0 3 4 4q-4 0 -4 4zM470 459q-1 -4 -4 -4q4 -1 4 -5q0 4 4 5q-4 0 -4 4zM460 459q-1 -4 -4 -4q4 -1 4 -5q0 4 4 5q-4 0 -4 4zM340 629q-1 -4 -4 -4q3 -1 4 -4q0 3 4 4q-4 0 -4 4zM294 525q-4 0 -4 4q-1 -4 -4 -4q4 -1 4 -5q0 4 4 5zM294 535
q-4 0 -4 4q-1 -4 -4 -4q4 -1 4 -5q0 4 4 5zM330 629q-1 -4 -4 -4q3 -1 4 -4q0 3 4 4q-4 0 -4 4zM294 545q-4 0 -4 4q-1 -4 -4 -4q4 -1 4 -5q0 4 4 5zM300 559q-1 -4 -4 -4q3 -1 4 -4q0 3 4 4q-4 0 -4 4zM294 555q-4 0 -4 4q-1 -4 -4 -4q4 -1 4 -5q0 4 4 5zM310 569
q-1 -4 -4 -4q4 -1 4 -5q0 4 4 5q-4 0 -4 4zM300 569q-1 -4 -4 -4q4 -1 4 -5q0 4 4 5q-4 0 -4 4zM310 579q-1 -4 -4 -4q4 -1 4 -5q0 4 4 5q-4 0 -4 4zM300 579q-1 -4 -4 -4q3 -1 4 -4q0 3 4 4q-4 0 -4 4zM320 589q-1 -4 -4 -4q4 -1 4 -5q0 4 4 5q-4 0 -4 4zM310 589
q-1 -4 -4 -4q4 -1 4 -5q0 4 4 5q-4 0 -4 4zM330 599q-1 -4 -4 -4q3 -1 4 -4q0 3 4 4q-4 0 -4 4zM320 599q-1 -4 -4 -4q4 -1 4 -5q0 4 4 5q-4 0 -4 4zM310 599q-1 -4 -4 -4q4 -1 4 -5q0 4 4 5q-4 0 -4 4zM330 609q-1 -4 -4 -4q3 -1 4 -4q0 3 4 4q-4 0 -4 4zM320 609
q-1 -4 -4 -4q4 -1 4 -5q0 4 4 5q-4 0 -4 4zM340 619q-1 -4 -4 -4q4 -1 4 -5q0 4 4 5q-4 0 -4 4zM330 619q-1 -4 -4 -4q4 -1 4 -5q0 4 4 5q-4 0 -4 4zM354 665q-4 0 -4 4q-1 -4 -4 -4q4 -1 4 -5q0 4 4 5zM360 689q-1 -4 -4 -4q4 -1 4 -5q0 4 4 5q-4 0 -4 4zM340 639
q-1 -4 -4 -4q3 -1 4 -4q0 3 4 4q-4 0 -4 4zM340 649q-1 -4 -4 -4q4 -1 4 -5q0 4 4 5q-4 0 -4 4zM354 635q-4 0 -4 4q-1 -4 -4 -4q3 -1 4 -4q0 3 4 4zM354 645q-4 0 -4 4q-1 -4 -4 -4q4 -1 4 -5q0 4 4 5zM360 659q-1 -4 -4 -4q3 -1 4 -4q0 3 4 4q-4 0 -4 4zM354 655
q-4 0 -4 4q-1 -4 -4 -4q4 -1 4 -5q0 4 4 5zM370 669q-1 -4 -4 -4q3 -1 4 -4q0 3 4 4q-4 0 -4 4zM360 669q-1 -4 -4 -4q4 -1 4 -5q0 4 4 5q-4 0 -4 4zM80 9q-1 -4 -4 -4q4 -1 4 -5q0 4 4 5q-4 0 -4 4zM370 679q-1 -4 -4 -4q4 -1 4 -5q0 4 4 5q-4 0 -4 4zM360 679q-1 -4 -4 -4
q4 -1 4 -5q0 4 4 5q-4 0 -4 4zM380 689q-1 -4 -4 -4q4 -1 4 -5q0 4 4 5q-4 0 -4 4zM370 689q-1 -4 -4 -4q3 -1 4 -4q0 3 4 4q-4 0 -4 4zM94 15q-4 0 -4 4q-1 -4 -4 -4q4 -1 4 -5q0 4 4 5zM370 699q-1 -4 -4 -4q4 -1 4 -5q0 4 4 5q-4 0 -4 4zM100 29q-1 -4 -4 -4q4 -1 4 -5
q0 4 4 5q-4 0 -4 4z" />
    <glyph glyph-name="_526" 
d="M0 609q-30 0 -52 21.5t-22 52.5q0 30 22 51.5t52 21.5q31 0 52 -21.5t21 -51.5q0 -31 -21 -52.5t-52 -21.5z" />
    <glyph glyph-name="_531" 
d="M0 -66q-28 0 -47.5 19.5t-19.5 46.5q0 28 19.5 47.5t47.5 19.5q27 0 46.5 -19.5t19.5 -47.5q0 -27 -19.5 -46.5t-46.5 -19.5z" />
    <glyph glyph-name="_532" 
d="M0 -204q-28 0 -47.5 19.5t-19.5 47.5q0 27 19.5 46.5t47.5 19.5q27 0 46.5 -19.5t19.5 -46.5q0 -28 -19.5 -47.5t-46.5 -19.5z" />
    <glyph glyph-name="_534" 
d="M-67 -287l39 90q-38 20 -38 60q0 27 19 46.5t47 19.5q27 0 46.5 -19.5t19.5 -46.5q0 -22 -13 -41l-68 -109h-52z" />
    <glyph glyph-name="_538" 
d="M-66 547l22 163h110l-57 -163h-75z" />
    <glyph glyph-name="_539" 
d="M0 587q-27 0 -46.5 20t-19.5 47q0 21 13 40l68 109h52l-39 -90q38 -20 38 -59q0 -27 -19.5 -47t-46.5 -20z" />
    <glyph glyph-name="_540" 
d="M-97 587q-28 0 -47.5 20t-19.5 48t19.5 47.5t47.5 19.5t48 -19.5t20 -47.5t-20 -48t-48 -20zM96 587q-28 0 -47.5 20t-19.5 48t19.5 47.5t47.5 19.5t48 -19.5t20 -47.5t-20 -48t-48 -20z" />
    <glyph glyph-name="_541" 
d="M257 468l-472 -478l-42 43l472 477z" />
    <glyph glyph-name="_542" 
d="M165 572h-330v78h330v-78z" />
    <glyph glyph-name="_543" 
d="M165 572h-330v78h330v-78z" />
    <glyph glyph-name="_544" 
d="M132 407l-263 -161v91l263 162v-92z" />
    <glyph glyph-name="_545" 
d="M-178 244v79h357v-79h-357z" />
    <glyph glyph-name="zero.zero" horiz-adv-x="626" 
d="M313 -10q-113 0 -185 76.5t-72 196.5v186q0 120 72 196.5t185 76.5t185.5 -76.5t72.5 -196.5v-186q0 -120 -72.5 -196.5t-185.5 -76.5zM313 98q67 0 107.5 44t40.5 121v134l-291 -179q11 -57 49.5 -88.5t93.5 -31.5zM166 449v-136l290 181q-11 57 -49.5 88.5t-93.5 31.5
q-66 0 -106.5 -44t-40.5 -121z" />
    <glyph glyph-name="one.onum" horiz-adv-x="321" 
d="M133 0v462h-123l81 98h152v-560h-110z" />
    <glyph glyph-name="two.onum" horiz-adv-x="495" 
d="M446 98v-98h-399v35q0 18 3.5 35t7.5 31t14 29t16.5 25t21.5 23.5t22.5 20.5t25.5 20.5t25.5 18t27.5 18t26 17.5q47 31 70 58.5t23 66.5q0 31 -21.5 52.5t-58.5 21.5q-41 0 -66.5 -24t-25.5 -62h-110q0 81 58 132.5t147 51.5q79 0 133.5 -45.5t54.5 -125.5
q0 -65 -30.5 -109t-94.5 -88q-10 -7 -33 -22.5t-37.5 -25.5t-29.5 -25.5t-21 -30.5h251z" />
    <glyph glyph-name="three.onum" horiz-adv-x="523" 
d="M266 -77q-93 0 -159.5 57t-68.5 150h109q5 -51 37.5 -80t80.5 -29q43 0 71.5 25t29.5 69q0 48 -30 73.5t-79 25.5h-49v85h46q40 0 67 24.5t28 62.5t-24.5 62t-64.5 24q-43 0 -71.5 -28t-29.5 -77h-110q0 92 63 147.5t152 55.5q87 0 141 -50t54 -128q0 -43 -20.5 -79.5
t-51.5 -55.5q40 -18 64.5 -57t24.5 -91q0 -82 -59 -134t-151 -52z" />
    <glyph glyph-name="four.onum" horiz-adv-x="548" 
d="M325 -68v156h-308v81l319 391h99v-379h80v-93h-80v-156h-110zM152 181h173v218z" />
    <glyph glyph-name="five.onum" horiz-adv-x="498" 
d="M248 -77q-89 0 -152.5 54t-65.5 132h114q9 -40 36 -64t68 -24q49 0 77 32t28 83q0 50 -28 82t-74 32q-68 0 -103 -65l-97 28l66 347h301v-97h-214l-29 -148q40 28 96 28q84 0 138 -58.5t54 -148.5q0 -97 -58 -155t-157 -58z" />
    <glyph glyph-name="six.onum" horiz-adv-x="517" 
d="M257 -10q-94 0 -156 60t-62 145q0 48 17 85t54 85l198 262h135l-167 -221h2q77 0 137.5 -58.5t60.5 -144.5q0 -91 -61.5 -152t-157.5 -61zM151 201q0 -49 29.5 -81.5t76.5 -32.5q48 0 78 32.5t30 81.5q0 50 -30 82.5t-78 32.5q-47 0 -76.5 -32.5t-29.5 -82.5z" />
    <glyph glyph-name="seven.onum" horiz-adv-x="466" 
d="M162 -68h-124l280 529h-291v99h421v-86z" />
    <glyph glyph-name="eight.onum" horiz-adv-x="532" 
d="M266 -10q-93 0 -157.5 57t-64.5 143q0 106 91 155q-62 49 -62 126q0 72 54.5 119t138.5 47q83 0 137.5 -47t54.5 -119q0 -77 -62 -126q92 -50 92 -155q0 -86 -64.5 -143t-157.5 -57zM266 83q49 0 79 31t30 77q0 47 -30 77.5t-79 30.5t-79.5 -30.5t-30.5 -77.5
q0 -46 30.5 -77t79.5 -31zM266 382q38 0 61.5 24t23.5 59t-23.5 58.5t-61.5 23.5t-62 -23.5t-24 -58.5t24 -59t62 -24z" />
    <glyph glyph-name="nine.onum" horiz-adv-x="515" 
d="M259 569q95 0 157 -59.5t62 -145.5q0 -48 -17 -85t-54 -85l-199 -262h-134l166 221h-2q-76 0 -136.5 58.5t-60.5 144.5q0 91 61 152t157 61zM366 358q0 49 -30 81.5t-77 32.5t-77 -32.5t-30 -81.5t30 -82t77 -33t77 33t30 82z" />
    <glyph glyph-name="zero.onum" horiz-adv-x="545" 
d="M272 -10q-96 0 -157 62t-61 158v141q0 96 61 157.5t157 61.5q97 0 158 -61.5t61 -157.5v-141q0 -96 -61.5 -158t-157.5 -62zM272 89q49 0 79 32.5t30 88.5v141q0 56 -30 88t-79 32t-78.5 -32t-29.5 -88v-141q0 -56 29.5 -88.5t78.5 -32.5z" />
    <glyph glyph-name="zero.onum_zero" horiz-adv-x="545" 
d="M272 -10q-96 0 -157 62t-61 158v141q0 96 61 157.5t157 61.5q97 0 158 -61.5t61 -157.5v-141q0 -96 -61.5 -158t-157.5 -62zM272 89q49 0 79 32.5t30 88.5v87l-212 -129q10 -38 37 -58.5t66 -20.5zM164 351v-88l212 130q-23 78 -104 78q-49 0 -78.5 -32t-29.5 -88z" />
    <glyph glyph-name="one.tnum" horiz-adv-x="590" 
d="M72 0v104h176v497h-144l85 109h169v-606h175v-104h-461z" />
    <glyph glyph-name="two.tnum" horiz-adv-x="590" 
d="M528 108v-108h-470v40q0 38 11.5 72.5t24.5 57.5t43 51.5t46 41t56.5 41.5t51.5 37q63 46 91 81t28 84t-30 78.5t-83 29.5q-55 0 -91 -32.5t-37 -88.5h-111q0 101 68.5 165t171.5 64q95 0 159 -56t64 -157q0 -80 -36.5 -134.5t-120.5 -114.5q-13 -10 -48 -34t-51.5 -37
t-35.5 -35.5t-26 -45.5h325z" />
    <glyph glyph-name="three.tnum" horiz-adv-x="590" 
d="M301 -10q-107 0 -181.5 64t-76.5 169h110q4 -57 45.5 -91t102.5 -34q55 0 90.5 29t36.5 80q0 56 -36.5 84.5t-100.5 28.5h-56v94h56q53 0 84.5 28t32.5 73q0 44 -32 71.5t-79 27.5q-56 0 -93 -32.5t-37 -88.5h-111q0 104 70.5 166.5t170.5 62.5q99 0 160.5 -56t61.5 -144
q0 -49 -25 -90.5t-62 -63.5q49 -21 78 -65t29 -103q0 -93 -66.5 -151.5t-171.5 -58.5z" />
    <glyph glyph-name="four.tnum" horiz-adv-x="590" 
d="M375 0v178h-367v89l379 443h98v-430h95v-102h-95v-178h-110zM146 280h229v266z" />
    <glyph glyph-name="five.tnum" horiz-adv-x="590" 
d="M293 -10q-97 0 -170 61t-75 148h113q11 -45 47.5 -73t84.5 -28q59 0 96 38.5t37 93.5q0 57 -36.5 94.5t-93.5 37.5q-86 0 -124 -73l-99 31l76 390h338v-107h-252l-33 -170q44 31 111 31q100 0 162 -69t62 -176q0 -100 -68.5 -164.5t-175.5 -64.5z" />
    <glyph glyph-name="six.tnum" horiz-adv-x="590" 
d="M292 -10q-107 0 -175 68.5t-68 170.5q0 49 19.5 90t60.5 94l237 297h138l-200 -252h11q87 0 154 -65.5t67 -162.5q0 -103 -68.5 -171.5t-175.5 -68.5zM292 96q57 0 95 38.5t38 94.5q0 55 -38.5 94t-94.5 39t-94 -39t-38 -94q0 -56 37.5 -94.5t94.5 -38.5z" />
    <glyph glyph-name="seven.tnum" horiz-adv-x="590" 
d="M207 0h-124l326 603h-349v107h480v-94z" />
    <glyph glyph-name="eight.tnum" horiz-adv-x="590" 
d="M295 -10q-106 0 -175 63.5t-69 161.5q0 124 101 179q-66 51 -66 141q0 81 58.5 134t150.5 53q93 0 151.5 -52.5t58.5 -134.5q0 -90 -66 -141q101 -55 101 -179q0 -99 -68.5 -162t-176.5 -63zM295 93q61 0 97 36t36 88q0 53 -36 88.5t-96 35.5q-61 0 -97 -35.5t-36 -88.5
q0 -52 36.5 -88t95.5 -36zM295 434q46 0 74.5 27.5t28.5 66.5q0 41 -28 67.5t-75 26.5q-45 0 -73.5 -27t-28.5 -67q0 -39 29 -66.5t73 -27.5z" />
    <glyph glyph-name="nine.tnum" horiz-adv-x="590" 
d="M85 0l202 254h-11q-87 0 -154.5 65.5t-67.5 162.5q0 102 68.5 171t175.5 69t175.5 -69t68.5 -170q0 -51 -19.5 -91t-61.5 -94l-238 -298h-138zM298 349q57 0 94.5 38.5t37.5 95.5q0 55 -38 94t-94 39t-94 -39t-38 -94q0 -57 37.5 -95.5t94.5 -38.5z" />
    <glyph glyph-name="zero.tnum" horiz-adv-x="590" 
d="M296 -10q-113 0 -185 76.5t-72 196.5v186q0 120 72 196.5t185 76.5t185.5 -76.5t72.5 -196.5v-186q0 -120 -72.5 -196.5t-185.5 -76.5zM296 98q67 0 107.5 44t40.5 121v186q0 77 -40.5 121t-107.5 44q-66 0 -106.5 -44t-40.5 -121v-186q0 -77 40.5 -121t106.5 -44z" />
    <glyph glyph-name="zero.tnum_zero" horiz-adv-x="590" 
d="M295 -10q-113 0 -185 76.5t-72 196.5v186q0 120 72 196.5t185 76.5t185.5 -76.5t72.5 -196.5v-186q0 -120 -72.5 -196.5t-185.5 -76.5zM295 98q67 0 107.5 44t40.5 121v134l-291 -179q11 -57 49.5 -88.5t93.5 -31.5zM148 449v-136l290 181q-11 57 -49.5 88.5t-93.5 31.5
q-66 0 -106.5 -44t-40.5 -121z" />
    <glyph glyph-name="uni2070.zero" horiz-adv-x="390" 
d="M196 404q-72 0 -117 47.5t-45 121.5v106q0 75 45 122.5t117 47.5q70 0 115 -47.5t45 -122.5v-106q0 -74 -45 -121.5t-115 -47.5zM196 485q34 0 55.5 23.5t21.5 64.5v65l-154 -90q14 -63 77 -63zM117 679v-63l153 90q-7 29 -26.5 45t-47.5 16q-36 0 -57.5 -23.5
t-21.5 -64.5z" />
    <glyph glyph-name="uni2080.zero" horiz-adv-x="389" 
d="M195 -121q-72 0 -117 47.5t-45 121.5v106q0 75 45 122.5t117 47.5q70 0 115 -47.5t45 -122.5v-106q0 -74 -45 -121.5t-115 -47.5zM195 -40q34 0 55.5 23.5t21.5 64.5v65l-154 -90q15 -63 77 -63zM116 154v-63l153 90q-7 29 -26.5 45t-47.5 16q-36 0 -57.5 -23.5
t-21.5 -64.5z" />
    <glyph glyph-name="one.numr" horiz-adv-x="235" 
d="M99 278v350h-91l60 82h114v-432h-83z" />
    <glyph glyph-name="two.numr" horiz-adv-x="354" 
d="M322 359v-81h-293v28q0 18 4 34.5t8 28.5t15.5 26.5t17 21.5t23 21t22.5 17.5t25.5 18t23.5 16.5q34 23 51 44t17 48q0 24 -15.5 38.5t-42.5 14.5q-29 0 -47 -17t-18 -44h-83q0 63 43 103t107 40q58 0 98.5 -35t40.5 -98q0 -52 -22.5 -85.5t-68.5 -66.5q-6 -4 -23 -15.5
t-26.5 -18.5t-20.5 -18t-15 -21h179z" />
    <glyph glyph-name="three.numr" horiz-adv-x="365" 
d="M186 272q-65 0 -112 39t-49 107h82q8 -65 79 -65q30 0 48 14.5t18 40.5q0 27 -19.5 42.5t-52.5 15.5h-36v67h34q29 0 45 14t16 38q1 23 -15 36.5t-41 13.5q-29 0 -48 -17t-19 -44h-82q0 65 44.5 104t105.5 39q64 0 101.5 -36t37.5 -89q-1 -60 -48 -93q26 -12 43 -37.5
t17 -60.5q0 -57 -41.5 -93t-107.5 -36z" />
    <glyph glyph-name="four.numr" horiz-adv-x="392" 
d="M232 278v99h-215v67l224 266h74v-257h56v-76h-56v-99h-83zM119 453h113v134z" />
    <glyph glyph-name="five.numr" horiz-adv-x="349" 
d="M178 272q-63 0 -108.5 37t-47.5 94h85q5 -22 24 -36t46 -14q29 0 47.5 19t18.5 48t-19 48t-48 19q-48 0 -66 -44l-74 22l46 245h212v-81h-147l-16 -81q23 14 60 14q61 0 97.5 -41t36.5 -104q0 -65 -40.5 -105t-106.5 -40z" />
    <glyph glyph-name="six.numr" horiz-adv-x="341" 
d="M169 272q-67 0 -109 42t-42 102q0 23 7 43.5t15 33.5t28 42l129 175h102l-112 -152q52 -2 92 -40t40 -98q0 -64 -41 -106t-109 -42zM169 351q29 0 47.5 19.5t18.5 48.5t-18.5 48.5t-47.5 19.5q-30 0 -49 -19.5t-19 -48.5t19 -48.5t49 -19.5z" />
    <glyph glyph-name="seven.numr" horiz-adv-x="339" 
d="M127 278h-93l195 351h-202v81h300v-72z" />
    <glyph glyph-name="eight.numr" horiz-adv-x="362" 
d="M181 272q-66 0 -109.5 38.5t-43.5 98.5q0 69 57 105q-37 34 -37 87q0 49 37 82.5t96 33.5t95.5 -33.5t36.5 -82.5q0 -53 -37 -87q58 -37 58 -105q0 -60 -43.5 -98.5t-109.5 -38.5zM181 348q31 0 49.5 19t18.5 45q0 27 -18.5 46t-49.5 19t-49.5 -19t-18.5 -46
q0 -26 18.5 -45t49.5 -19zM181 543q24 0 39.5 14.5t15.5 35.5q0 22 -16 36.5t-39 14.5t-38.5 -14.5t-15.5 -36.5q0 -21 15.5 -35.5t38.5 -14.5z" />
    <glyph glyph-name="nine.numr" horiz-adv-x="341" 
d="M42 278l111 152q-52 2 -91.5 40t-39.5 99q0 64 41.5 106t109.5 42q67 0 108.5 -42t41.5 -102q0 -33 -11 -57t-39 -63l-129 -175h-102zM173 501q29 0 48 20t19 48q0 29 -19 48.5t-48 19.5t-48 -19.5t-19 -48.5q0 -28 19 -48t48 -20z" />
    <glyph glyph-name="zero.numr" horiz-adv-x="390" 
d="M196 272q-72 0 -117 47.5t-45 121.5v106q0 75 45 122.5t117 47.5q70 0 115 -47.5t45 -122.5v-106q0 -74 -45 -121.5t-115 -47.5zM196 353q34 0 55.5 23.5t21.5 64.5v106q0 41 -21.5 64.5t-55.5 23.5q-36 0 -57.5 -23.5t-21.5 -64.5v-106q0 -41 21.5 -64.5t57.5 -23.5z
" />
    <glyph glyph-name="zero.numr_zero" horiz-adv-x="390" 
d="M196 272q-72 0 -117 47.5t-45 121.5v106q0 75 45 122.5t117 47.5q70 0 115 -47.5t45 -122.5v-106q0 -74 -45 -121.5t-115 -47.5zM196 353q34 0 55.5 23.5t21.5 64.5v65l-154 -90q14 -63 77 -63zM117 547v-63l153 90q-7 29 -26.5 45t-47.5 16q-36 0 -57.5 -23.5
t-21.5 -64.5z" />
    <glyph glyph-name="one.dnom" horiz-adv-x="235" 
d="M100 1v350h-91l60 82h114v-432h-83z" />
    <glyph glyph-name="two.dnom" horiz-adv-x="354" 
d="M322 82v-81h-293v28q0 18 4 34.5t8 28.5t15.5 26.5t17 21.5t23 21t22.5 17.5t25.5 18t23.5 16.5q34 23 51 44t17 48q0 24 -15.5 38.5t-42.5 14.5q-29 0 -47 -17t-18 -44h-83q0 63 43 103t107 40q58 0 98.5 -35t40.5 -98q0 -52 -22.5 -85.5t-68.5 -66.5q-6 -4 -23 -15.5
t-26.5 -18.5t-20.5 -18t-15 -21h179z" />
    <glyph glyph-name="three.dnom" horiz-adv-x="365" 
d="M186 -5q-65 0 -112 39t-49 107h82q8 -65 79 -65q30 0 48 14.5t18 40.5q0 27 -19.5 42.5t-52.5 15.5h-36v67h34q29 0 45 14t16 38q1 23 -15 36.5t-41 13.5q-29 0 -48 -17t-19 -44h-82q0 65 44.5 104t105.5 39q64 0 101.5 -36t37.5 -89q-1 -60 -48 -93q26 -12 43 -37.5
t17 -60.5q0 -57 -41.5 -93t-107.5 -36z" />
    <glyph glyph-name="four.dnom" horiz-adv-x="392" 
d="M232 1v99h-215v67l224 266h74v-257h56v-76h-56v-99h-83zM119 176h113v134z" />
    <glyph glyph-name="five.dnom" horiz-adv-x="349" 
d="M178 -5q-63 0 -108.5 37t-47.5 94h85q5 -22 24 -36t46 -14q29 0 47.5 19t18.5 48t-19 48t-48 19q-48 0 -66 -44l-74 22l46 245h212v-81h-147l-16 -81q23 14 60 14q61 0 97.5 -41t36.5 -104q0 -65 -40.5 -105t-106.5 -40z" />
    <glyph glyph-name="six.dnom" horiz-adv-x="341" 
d="M169 -5q-67 0 -109 42t-42 102q0 23 7 43.5t15 33.5t28 42l129 175h102l-112 -152q52 -2 92 -40t40 -98q0 -64 -41 -106t-109 -42zM169 74q29 0 47.5 19.5t18.5 48.5t-18.5 48.5t-47.5 19.5q-30 0 -49 -19.5t-19 -48.5t19 -48.5t49 -19.5z" />
    <glyph glyph-name="seven.dnom" horiz-adv-x="339" 
d="M128 1h-93l195 351h-202v81h300v-72z" />
    <glyph glyph-name="eight.dnom" horiz-adv-x="362" 
d="M181 -5q-66 0 -109.5 38.5t-43.5 98.5q0 69 57 105q-37 34 -37 87q0 49 37 82.5t96 33.5t95.5 -33.5t36.5 -82.5q0 -53 -37 -87q58 -37 58 -105q0 -60 -43.5 -98.5t-109.5 -38.5zM181 71q31 0 49.5 19t18.5 45q0 27 -18.5 46t-49.5 19t-49.5 -19t-18.5 -46
q0 -26 18.5 -45t49.5 -19zM181 266q24 0 39.5 14.5t15.5 35.5q0 22 -16 36.5t-39 14.5t-38.5 -14.5t-15.5 -36.5q0 -21 15.5 -35.5t38.5 -14.5z" />
    <glyph glyph-name="nine.dnom" horiz-adv-x="341" 
d="M42 1l111 152q-52 2 -91.5 40t-39.5 99q0 64 41.5 106t109.5 42q67 0 108.5 -42t41.5 -102q0 -33 -11 -57t-39 -63l-129 -175h-102zM173 224q29 0 48 20t19 48q0 29 -19 48.5t-48 19.5t-48 -19.5t-19 -48.5q0 -28 19 -48t48 -20z" />
    <glyph glyph-name="zero.dnom" horiz-adv-x="390" 
d="M196 -5q-72 0 -117 47.5t-45 121.5v106q0 75 45 122.5t117 47.5q70 0 115 -47.5t45 -122.5v-106q0 -74 -45 -121.5t-115 -47.5zM196 76q34 0 55.5 23.5t21.5 64.5v106q0 41 -21.5 64.5t-55.5 23.5q-36 0 -57.5 -23.5t-21.5 -64.5v-106q0 -41 21.5 -64.5t57.5 -23.5z" />
    <glyph glyph-name="zero.dnom_zero" horiz-adv-x="390" 
d="M196 -6q-72 0 -117 47.5t-45 121.5v106q0 75 45 122.5t117 47.5q70 0 115 -47.5t45 -122.5v-106q0 -74 -45 -121.5t-115 -47.5zM196 75q34 0 55.5 23.5t21.5 64.5v65l-154 -90q14 -63 77 -63zM117 269v-63l153 90q-7 29 -26.5 45t-47.5 16q-36 0 -57.5 -23.5t-21.5 -64.5
z" />
    <glyph glyph-name="hyphen.case" horiz-adv-x="398" 
d="M65 301v108h269v-108h-269z" />
    <glyph glyph-name="uni00AD.case" horiz-adv-x="398" 
d="M65 301v108h269v-108h-269z" />
    <glyph glyph-name="endash.case" horiz-adv-x="581" 
d="M65 301v108h452v-108h-452z" />
    <glyph glyph-name="emdash.case" horiz-adv-x="757" 
d="M65 301v108h628v-108h-628z" />
    <glyph glyph-name="questiondown.case" horiz-adv-x="512" 
d="M334 464v-19q0 -66 -89 -132q-3 -2 -17.5 -13t-18 -13.5t-15 -11.5t-14.5 -13.5t-10 -13.5t-9 -16t-4.5 -16.5t-2.5 -19.5q0 -44 28.5 -72t73.5 -28q49 0 82.5 31t33.5 81h110q0 -91 -65.5 -155.5t-160.5 -64.5q-93 0 -152.5 60t-59.5 144q0 103 97 177q5 4 18 13.5
t18 13.5t14.5 12t14 12.5t9.5 11.5t7 13.5t2 13.5v5h110zM279 548q-35 0 -60.5 25.5t-25.5 61.5q0 35 25.5 61t60.5 26q36 0 61.5 -26t25.5 -61q0 -36 -25.5 -61.5t-61.5 -25.5z" />
    <glyph glyph-name="exclamdown.case" horiz-adv-x="287" 
d="M177 464l22 -187v-277h-111v277l21 187h68zM143 548q-35 0 -60.5 25.5t-25.5 61.5q0 35 25.5 61t60.5 26q36 0 61.5 -26t25.5 -61q0 -36 -25.5 -61.5t-61.5 -25.5z" />
    <glyph glyph-name="guilsinglleft.case" horiz-adv-x="340" 
d="M44 355l141 217h95l-116 -217l116 -217h-95z" />
    <glyph glyph-name="guilsinglright.case" horiz-adv-x="340" 
d="M155 572l141 -217l-141 -217h-95l116 217l-116 217h95z" />
    <glyph glyph-name="guillemotleft.case" horiz-adv-x="527" 
d="M231 355l141 217h95l-116 -217l116 -217h-95zM44 355l141 217h95l-116 -217l116 -217h-95z" />
    <glyph glyph-name="guillemotright.case" horiz-adv-x="527" 
d="M-32 572l141 -217l-141 -217h-95l116 217l-116 217h95zM155 572l141 -217l-141 -217h-95l116 217l-116 217h95z" />
    <glyph glyph-name="parenleft.case" horiz-adv-x="289" 
d="M263 -126h-89q-128 233 -128 480t128 480h89q-121 -235 -121 -480t121 -480z" />
    <glyph glyph-name="parenright.case" horiz-adv-x="289" 
d="M115 -126h-89q121 235 121 480t-121 480h89q128 -233 128 -480t-128 -480z" />
    <glyph glyph-name="bracketleft.case" horiz-adv-x="324" 
d="M88 -125v960h202v-85h-107v-790h107v-85h-202z" />
    <glyph glyph-name="bracketright.case" horiz-adv-x="323" 
d="M235 835v-960h-202v85h107v790h-107v85h202z" />
    <glyph glyph-name="braceleft.case" horiz-adv-x="335" 
d="M303 -125h-71q-132 0 -132 143v229q0 33 -12 49t-44 16h-13v85h13q32 0 44 16t12 48v231q0 143 132 143h71v-85h-48q-34 0 -46.5 -15t-12.5 -52v-222q0 -84 -58 -106q58 -24 58 -108v-220q0 -37 12.5 -52t46.5 -15h48v-85z" />
    <glyph glyph-name="braceright.case" horiz-adv-x="335" 
d="M103 -125h-71v85h48q34 0 46.5 15t12.5 52v220q0 84 58 108q-58 22 -58 106v222q0 37 -12.5 52t-46.5 15h-48v85h71q132 0 132 -143v-231q0 -32 12 -48t44 -16h13v-85h-13q-32 0 -44 -16t-12 -49v-229q0 -143 -132 -143z" />
    <glyph glyph-name="bar.case" horiz-adv-x="270" 
d="M87 -55v820h96v-820h-96z" />
    <glyph glyph-name="brokenbar.case" horiz-adv-x="270" 
d="M87 -55v355h96v-355h-96zM87 410v355h96v-355h-96z" />
    <glyph glyph-name="periodcentered.case" horiz-adv-x="287" 
d="M143 269q-35 0 -60.5 25.5t-25.5 61.5q0 35 25.5 61t60.5 26q36 0 61.5 -26t25.5 -61q0 -36 -25.5 -61.5t-61.5 -25.5z" />
    <glyph glyph-name="plus.case" horiz-adv-x="499" 
d="M38 306v97h162v162h98v-162h162v-97h-162v-162h-98v162h-162z" />
    <glyph glyph-name="minus.case" horiz-adv-x="552" 
d="M65 306v97h422v-97h-422z" />
    <glyph glyph-name="multiply.case" horiz-adv-x="509" 
d="M119 152l-69 68l135 135l-135 134l69 68l135 -133l136 133l68 -68l-134 -134l134 -135l-68 -68l-136 133z" />
    <glyph glyph-name="equal.case" horiz-adv-x="551" 
d="M65 200v96h422v-96h-422zM65 413v97h422v-97h-422z" />
    <glyph glyph-name="less.case" horiz-adv-x="470" 
d="M426 608l-253 -253l253 -253h-138l-253 253l253 253h138z" />
    <glyph glyph-name="greater.case" horiz-adv-x="470" 
d="M297 355l-253 253h138l253 -253l-253 -253h-138z" />
    <glyph glyph-name="acute.case" 
d="M-102 770l75 157h129l-118 -157h-86z" />
    <glyph glyph-name="breve.case" 
d="M0 755q-71 0 -118.5 45.5t-47.5 120.5h68q0 -46 27.5 -72t70.5 -26t70.5 26t27.5 72h68q0 -75 -47.5 -120.5t-118.5 -45.5z" />
    <glyph glyph-name="caron.case" 
d="M0 766l-170 80v92l170 -80l170 80v-92z" />
    <glyph glyph-name="cedilla.case" 
d="M-112 -204v58q30 -17 76 -17q65 0 65 38q0 29 -45 29q-22 0 -43 -10l-34 20l54 89h58l-32 -54q21 7 43 7q36 0 59 -20.5t23 -56.5q0 -44 -39 -71t-93 -27q-56 0 -92 15z" />
    <glyph glyph-name="circumflex.case" 
d="M-170 766v92l170 80l170 -80v-92l-170 80z" />
    <glyph glyph-name="dieresis.case" 
d="M-114 779q-28 0 -47.5 19.5t-19.5 46.5q0 28 19.5 47.5t47.5 19.5q27 0 46 -19.5t19 -47.5q0 -27 -19 -46.5t-46 -19.5zM115 779q-27 0 -46.5 19.5t-19.5 46.5q0 28 19.5 47.5t46.5 19.5q28 0 47 -19.5t19 -47.5q0 -27 -19 -46.5t-47 -19.5z" />
    <glyph glyph-name="dotaccent.case" 
d="M0 779q-28 0 -47.5 19.5t-19.5 46.5q0 28 19.5 47.5t47.5 19.5q27 0 46.5 -19.5t19.5 -47.5q0 -27 -19.5 -46.5t-46.5 -19.5z" />
    <glyph glyph-name="_671" 
d="M0 -66q-28 0 -47.5 19.5t-19.5 46.5q0 28 19.5 47.5t47.5 19.5q27 0 46.5 -19.5t19.5 -47.5q0 -27 -19.5 -46.5t-46.5 -19.5z" />
    <glyph glyph-name="_672" 
d="M0 -204q-28 0 -47.5 19.5t-19.5 47.5q0 27 19.5 46.5t47.5 19.5q27 0 46.5 -19.5t19.5 -46.5q0 -28 -19.5 -47.5t-46.5 -19.5z" />
    <glyph glyph-name="_673" 
d="M-67 -287l39 90q-38 20 -38 60q0 27 19 46.5t47 19.5q27 0 46.5 -19.5t19.5 -46.5q0 -22 -13 -41l-68 -109h-52z" />
    <glyph glyph-name="grave.case" 
d="M102 770h-86l-118 157h129z" />
    <glyph glyph-name="hungarumlaut.case" 
d="M-7 770l68 157h120l-116 -157h-72zM-181 770l67 157h121l-116 -157h-72z" />
    <glyph glyph-name="macron.case" 
d="M-166 798v82h332v-82h-332z" />
    <glyph glyph-name="ogonek.case" 
d="M6 -219q-45 0 -74 26t-29 68q0 65 76 125h117q-89 -49 -89 -101q0 -29 36 -29q32 0 53 19v-81q-33 -27 -90 -27z" />
    <glyph glyph-name="ring.case" 
d="M0 753q-50 0 -85.5 35t-35.5 85t35.5 85t85.5 35t86 -35.5t36 -84.5t-36 -84.5t-86 -35.5zM0 809q28 0 47 18.5t19 45.5t-19 46t-47 19q-26 0 -45 -19.5t-19 -45.5q0 -27 19 -45.5t45 -18.5z" />
    <glyph glyph-name="tilde.case" 
d="M-180 782l3 22q8 47 39 75t73 28q30 0 73.5 -22.5t56.5 -22.5q33 0 43 45h72l-3 -22q-8 -47 -39 -74.5t-73 -27.5q-31 0 -74.5 22.5t-55.5 22.5q-32 0 -44 -46h-71z" />
    <glyph glyph-name="_680" 
d="M-167 308v102h335v-102h-335z" />
    <glyph glyph-name="_681" 
d="M351 664l-635 -683l-68 66l636 682z" />
    <glyph glyph-name="_682" 
d="M169 421l-338 -208v99l338 208v-99z" />
    <glyph glyph-name="_683" 
d="M-207 317v103h415v-103h-415z" />
    <glyph glyph-name="_684" 
d="M-366 527v85h731v-85h-731z" />
    <glyph glyph-name="uni0449.locl" horiz-adv-x="926" 
d="M177 500v-281q0 -61 22.5 -95t66.5 -34q53 0 85.5 41t34.5 115v254h110v-281q0 -129 88 -129q53 0 85.5 41t34.5 115v254h110v-363q0 -21 9 -30t29 -9h42v-223h-101v125h-5q-32 0 -53.5 17t-21.5 50v12q-51 -89 -151 -89q-113 0 -155 99q-20 -47 -63.5 -73t-95.5 -26
q-85 0 -133 57t-48 154v299h110z" />
    <glyph glyph-name="uni0437.locl" horiz-adv-x="519" 
d="M12 -38h115q26 -82 126 -82q56 0 87 33t31 85t-31 85.5t-92 33.5h-70v93h69q49 0 75.5 29.5t26.5 76.5q0 43 -27.5 69.5t-74.5 26.5q-82 0 -109 -71h-112q18 82 79 125.5t148 43.5q94 0 148.5 -53t54.5 -129q0 -106 -77 -157q103 -50 103 -179q0 -95 -61.5 -153
t-166.5 -58q-94 0 -161 46.5t-81 134.5z" />
    <glyph glyph-name="uni0446.locl" horiz-adv-x="631" 
d="M410 254v246h110v-363q0 -21 8.5 -30t28.5 -9h42v-223h-100v125h-5q-33 0 -54.5 17t-21.5 50v13q-47 -90 -160 -90q-87 0 -139 57t-52 152v301h110v-283q0 -60 28 -93.5t76 -33.5q57 0 93 43t36 121z" />
    <glyph glyph-name="uni043F.locl" horiz-adv-x="594" 
d="M74 0v500h110v-68q47 78 152 78q87 0 139 -57t52 -152v-301h-110v283q0 60 -28 93.5t-76 33.5q-57 0 -93 -43t-36 -121v-246h-110z" />
    <glyph glyph-name="uni044C.locl" horiz-adv-x="495" 
d="M279 -10h-23q-93 0 -140.5 50t-47.5 122v338h110v-165h101q93 0 140.5 -51.5t47.5 -121.5t-47.5 -121t-140.5 -51zM269 86q92 0 92 76t-91 76h-92v-76q0 -76 91 -76z" />
    <glyph glyph-name="uni0432.locl" horiz-adv-x="556" 
d="M295 -10h-15q-101 0 -157 59t-56 162v332q0 101 51.5 158.5t153.5 57.5q100 0 152.5 -56t52.5 -142q0 -113 -70 -159q53 -24 81.5 -73t28.5 -115q0 -103 -60 -163.5t-162 -60.5zM283 88h16q53 0 80 36t27 96q0 59 -31 95t-87 36h-111v-137q0 -126 106 -126zM177 558v-113
h92q101 0 101 108q0 107 -98 107q-95 0 -95 -102z" />
    <glyph glyph-name="uni041B.locl" horiz-adv-x="730" 
d="M4 0l310 710h102l310 -710h-122l-240 547l-239 -547h-121z" />
    <glyph glyph-name="uni0448.locl" horiz-adv-x="888" 
d="M177 500v-281q0 -61 22.5 -95t66.5 -34q55 0 87.5 43t32.5 121v246h110v-281q0 -129 88 -129q55 0 87.5 43t32.5 121v246h110v-500h-110v68q-45 -78 -142 -78q-113 0 -155 99q-20 -47 -63.5 -73t-95.5 -26q-85 0 -133 57t-48 154v299h110z" />
    <glyph glyph-name="uni0442.locl" horiz-adv-x="888" 
d="M711 0v281q0 61 -22.5 95t-66.5 34q-53 0 -85 -41t-34 -115v-254h-110v281q0 61 -22.5 95t-66.5 34q-55 0 -87.5 -43t-32.5 -121v-246h-110v500h110v-68q46 78 142 78q113 0 155 -99q21 47 64.5 73t95.5 26q84 0 132 -57t48 -154v-299h-110z" />
    <glyph glyph-name="uni0434.locl" horiz-adv-x="624" 
d="M301 -219q-101 0 -168 50.5t-75 129.5h107q29 -86 138 -86q60 0 98 38.5t38 108.5v59q-22 -34 -65.5 -56t-93.5 -22q-102 0 -171.5 73.5t-69.5 180.5q0 106 69.5 179.5t171.5 73.5q50 0 93.5 -21.5t65.5 -55.5v67h110v-469q0 -124 -70.5 -187t-177.5 -63zM299 104
q65 0 107 43t42 110t-42 110t-107 43q-64 0 -106 -43t-42 -110t42 -110t106 -43z" />
    <glyph glyph-name="uni0433.locl" horiz-adv-x="481" 
d="M232 -10q-87 0 -141 38.5t-54 109.5q0 117 132 151l84 22q67 17 67 60q0 24 -20 37.5t-53 13.5q-66 0 -82 -62h-110q6 68 58 109t133 41q84 0 135 -38.5t51 -101.5q0 -117 -127 -151l-83 -22q-40 -10 -57 -25t-17 -41t22 -39.5t59 -13.5q92 0 103 74h114
q-4 -74 -64.5 -118t-149.5 -44z" />
    <glyph glyph-name="uni0438.locl" horiz-adv-x="583" 
d="M253 -10q-86 0 -136 57.5t-50 153.5v299h110v-281q0 -60 26 -94.5t74 -34.5q56 0 89 42.5t33 121.5v246h110v-500h-110v68q-44 -78 -146 -78z" />
    <glyph glyph-name="uni0414.locl" horiz-adv-x="739" 
d="M19 -148v260h69l230 598h102l231 -598h69v-260h-108v148h-485v-148h-108zM368 535l-160 -423h321z" />
    <glyph glyph-name="uni043A.locl" horiz-adv-x="537" 
d="M406 0l-222 213v-213h-110v750h110v-464l197 214h134l-227 -246l263 -254h-145z" />
    <glyph glyph-name="uni0439.locl" horiz-adv-x="583" 
d="M253 -10q-86 0 -136 57.5t-50 153.5v299h110v-281q0 -60 26 -94.5t74 -34.5q56 0 89 42.5t33 121.5v246h110v-500h-110v68q-44 -78 -146 -78zM288 569q-71 0 -118.5 45.5t-47.5 120.5v15h78v-15q0 -46 25 -72.5t63 -26.5t63 26.5t25 72.5v15h78v-15q0 -75 -47.5 -120.5
t-118.5 -45.5z" />
    <glyph glyph-name="uni0436.locl" horiz-adv-x="800" 
d="M667 0l-212 213v-213h-110v214l-212 -214h-140l251 254l-217 246h131l187 -214v464h110v-463l186 213h131l-216 -246l251 -254h-140z" />
    <glyph glyph-name="uni0431.locl" horiz-adv-x="597" 
d="M71 583q0 78 55 122.5t166 44.5h190v-98h-191q-112 0 -112 -80t112 -80h18q107 0 178 -71t71 -171q0 -110 -74 -185t-185 -75q-112 0 -186 75t-74 185q0 61 27.5 114.5t77.5 85.5q-73 43 -73 133zM298 92q65 0 106.5 43t41.5 113q0 62 -42 104t-107 42
q-68 0 -107.5 -41.5t-39.5 -104.5q0 -69 41.5 -112.5t106.5 -43.5z" />
    <glyph glyph-name="uni044E.locl" horiz-adv-x="812" 
d="M521 -10q-96 0 -166 61t-84 153h-87v-204h-110v750h110v-449h88q16 91 85 150t164 59q109 0 180.5 -75t71.5 -185t-71.5 -185t-180.5 -75zM521 93q62 0 101.5 44.5t39.5 112.5t-39.5 112.5t-101.5 44.5t-101.5 -44.5t-39.5 -112.5t39.5 -112.5t101.5 -44.5z" />
    <glyph glyph-name="uni043B.locl" horiz-adv-x="557" 
d="M4 0l226 500h97l227 -500h-123l-153 350l-152 -350h-122z" />
    <glyph glyph-name="uni044A.locl" horiz-adv-x="577" 
d="M361 -10h-23q-93 0 -140.5 50t-47.5 122v240h-133v98h243v-165h101q93 0 140.5 -51.5t47.5 -121.5t-47.5 -121t-140.5 -51zM443 162q0 76 -91 76h-92v-76q0 -76 91 -76q92 0 92 76z" />
    </font>
</defs>
</svg>
