<?xml version="1.0" encoding="iso-8859-1"?>
<!-- Generator: Adobe Illustrator 19.0.0, SVG Export Plug-In . SVG Version: 6.00 Build 0)  -->
<svg version="1.1" id="Capa_1" xmlns="http://www.w3.org/2000/svg" xmlns:xlink="http://www.w3.org/1999/xlink" x="0px" y="0px"
	 viewBox="0 0 512 512" style="enable-background:new 0 0 512 512;" xml:space="preserve">
<path style="fill:#006DF3;" d="M347.976,0l-186.25,0.006c-6.642,0-12.276,4.314-14.256,10.291c-0.816,2.465-0.527,5.166,0.668,7.471
	l36.109,69.634c1.695,3.27,5.072,5.323,8.756,5.323h125.828c3.767,0,7.205-2.146,8.86-5.53l34.01-69.542
	c1.106-2.261,1.339-4.87,0.564-7.264C360.313,4.359,354.654,0,347.976,0z"/>
<path style="fill:#00EED0;" d="M252.924,219.85L180.265,13.303c-0.262-0.746-0.571-1.486-0.927-2.218
	c-3.085-6.323-9.144-10.441-16.209-11.017c-7.111-0.577-14.075,2.663-18.186,8.464l-7.459,10.526
	c-10.434,14.725-23.056,29.291-39.722,45.838c-13.973,13.875-18.783,34.84-12.231,53.462l55.285,155.314
	c2.188,6.147,7.972,9.983,14.144,9.983c1.67,0,3.37-0.281,5.034-0.874l83.751-43.786
	C251.566,236.244,255.675,227.672,252.924,219.85z"/>
<path style="fill:#00B6BE;" d="M414.232,64.896c-16.665-16.547-29.287-31.112-39.723-45.839l-7.46-10.526
	c-4.11-5.8-11.078-9.044-18.186-8.463c-7.065,0.576-13.125,4.694-16.218,11.035c-0.341,0.702-0.647,1.432-0.916,2.193
	L259.067,219.85c-2.751,7.822,1.358,16.392,9.18,19.144l83.726,42.114c7.001,3.522,15.756,0.669,18.85-6.533
	c0.127-0.295,0.245-0.598,0.354-0.905l55.303-155.367C433.014,99.735,428.206,78.771,414.232,64.896z"/>
<path style="fill:#EEEFFF;" d="M406.428,360.797c0,83.373-67.83,151.203-151.203,151.203s-151.203-67.83-151.203-151.203
	s67.83-151.203,151.203-151.203S406.428,277.424,406.428,360.797z"/>
<path style="fill:#CFCFED;" d="M406.428,360.797c0,83.373-67.83,151.203-151.203,151.203V209.594
	C338.598,209.594,406.428,277.424,406.428,360.797z"/>
<path style="fill:#FFB64C;" d="M323.395,359.766l-22.21,21.649l5.235,30.567c1.071,6.185-1.431,12.321-6.506,16.014
	c-5.084,3.683-11.69,4.164-17.245,1.241l-27.444-14.433l-27.444,14.433c-2.422,1.271-5.034,1.902-7.637,1.902
	c-3.383,0-6.736-1.061-9.608-3.143c-5.074-3.693-7.577-9.829-6.506-16.014l5.235-30.567l-22.2-21.649
	c-4.494-4.374-6.085-10.799-4.144-16.775c1.932-5.965,6.996-10.239,13.212-11.14l30.687-4.464l13.722-27.804
	c2.782-5.625,8.407-9.128,14.683-9.128s11.9,3.503,14.673,9.128h0.01l13.722,27.804l30.687,4.464
	c6.215,0.901,11.28,5.175,13.212,11.14C329.47,348.957,327.889,355.392,323.395,359.766z"/>
<path style="fill:#FF9800;" d="M323.395,359.766l-22.21,21.649l5.235,30.567c1.071,6.185-1.431,12.321-6.506,16.014
	c-5.084,3.683-11.69,4.164-17.245,1.241l-27.444-14.433V290.455c6.276,0,11.9,3.503,14.673,9.128h0.01l13.722,27.804l30.687,4.464
	c6.215,0.901,11.28,5.175,13.212,11.14C329.47,348.957,327.889,355.392,323.395,359.766z"/>
<g>
</g>
<g>
</g>
<g>
</g>
<g>
</g>
<g>
</g>
<g>
</g>
<g>
</g>
<g>
</g>
<g>
</g>
<g>
</g>
<g>
</g>
<g>
</g>
<g>
</g>
<g>
</g>
<g>
</g>
</svg>
