<?xml version="1.0" encoding="iso-8859-1"?>
<!-- Generator: Adobe Illustrator 19.0.0, SVG Export Plug-In . SVG Version: 6.00 Build 0)  -->
<svg version="1.1" id="Capa_1" xmlns="http://www.w3.org/2000/svg" xmlns:xlink="http://www.w3.org/1999/xlink" x="0px" y="0px"
	 viewBox="0 0 512 512" style="enable-background:new 0 0 512 512;" xml:space="preserve">
<path style="fill:#00EED0;" d="M268.284,303.173l-72.212,197.624c-2.463,6.728-8.88,11.203-16.018,11.203h-0.2
	c-7.228-0.09-13.635-4.735-15.958-11.583l-17.38-51.318l-7.719-22.806l-20.433,12.344l-46.553,28.132
	c-6.177,3.734-14.076,3.164-19.652-1.432c-5.576-4.585-7.659-12.224-5.186-19.012l78.969-216.095l59.988,30.745l26.89,13.776
	L268.284,303.173z"/>
<polygon style="fill:#00A5FF;" points="212.821,274.751 146.516,449.099 138.797,426.293 118.364,438.637 185.931,260.976 "/>
<path style="fill:#00B6BE;" d="M459.841,465.337c-5.576,4.595-13.475,5.166-19.652,1.432l-46.543-28.122l-20.443-12.354
	l-7.719,22.806l-17.38,51.318c-2.323,6.848-8.73,11.493-15.958,11.583h-0.2c-7.138,0-13.555-4.475-16.018-11.203l-72.212-197.624
	l55.453-28.422l26.89-13.776l59.998-30.745l78.969,216.085C467.5,453.113,465.417,460.752,459.841,465.337z"/>
<polygon style="fill:#006DF3;" points="393.646,438.647 373.203,426.293 365.484,449.099 299.169,274.751 326.059,260.976 "/>
<path style="fill:#EEEFFF;" d="M415.381,156.557c0,86.328-70.23,156.557-156.557,156.557h-0.13
	c-86.268-0.07-156.437-70.27-156.437-156.557S172.425,0.07,258.693,0h0.13C345.151,0,415.381,70.23,415.381,156.557z"/>
<path style="fill:#CFCFED;" d="M415.381,156.557c0,86.328-70.23,156.557-156.557,156.557h-0.13V0h0.13
	C345.151,0,415.381,70.23,415.381,156.557z"/>
<path style="fill:#ADACB2;" d="M293.573,229.37c0,8.299-6.728,15.017-15.017,15.017h-39.475c-8.289,0-15.017-6.718-15.017-15.017
	c0-8.289,6.728-15.017,15.017-15.017h39.475C286.845,214.353,293.573,221.08,293.573,229.37z"/>
<path style="fill:#8A8891;" d="M293.573,229.37c0,8.299-6.728,15.017-15.017,15.017h-19.863v-30.034h19.863
	C286.845,214.353,293.573,221.08,293.573,229.37z"/>
<path style="fill:#ADACB2;" d="M290.875,169.296h-45.091v-1.552c0-2.763,1.842-5.787,5.536-9.07
	c2.192-1.942,4.645-3.924,7.368-5.927c1.872-1.382,3.874-2.773,5.997-4.185c5.206-3.464,10.392-7.268,15.548-11.413
	c5.156-4.145,9.561-9.281,13.225-15.387c3.664-6.107,5.506-12.614,5.506-19.532c0-10.602-4.015-19.032-12.024-25.289
	c-8.019-6.247-17.35-9.371-27.992-9.371h-0.26c-10.222,0.05-19.122,3.033-26.72,8.97c-7.659,5.987-11.493,13.936-11.493,23.857
	c0,9.23,3.934,13.846,11.813,13.846c4.165,0,7.508-1.001,10.041-3.013c2.533-2.012,3.794-4.375,3.794-7.098
	c0-4.615,1.211-7.989,3.644-10.111c2.333-2.052,5.296-3.124,8.92-3.194c0.14-0.01,0.28-0.01,0.43-0.01
	c4.385,0,7.679,1.241,9.871,3.724c2.202,2.473,3.294,5.326,3.294,8.55c0,4.035-1.872,8.189-5.626,12.454
	c-2.333,2.643-4.996,5.226-7.969,7.749c-1.822,1.522-3.754,3.033-5.807,4.515l-15.698,11.763
	c-5.186,3.894-9.611,8.309-13.265,13.245c-3.664,4.926-5.496,9.861-5.496,14.797v16.679c0,2.303,1.291,4.245,3.854,5.857
	c2.563,1.602,5.156,2.403,7.779,2.403h60.869c2.162,0,4.045-1.191,5.636-3.584c1.602-2.403,2.403-5.136,2.403-8.209
	c0-3.083-0.811-5.757-2.413-8.039C294.939,170.436,293.047,169.296,290.875,169.296z"/>
<g>
	<path style="fill:#8A8891;" d="M296.551,172.72c1.602,2.283,2.413,4.956,2.413,8.039c0,3.073-0.801,5.807-2.403,8.209
		c-1.592,2.393-3.474,3.584-5.636,3.584h-32.237v-23.256h32.186C293.047,169.296,294.939,170.436,296.551,172.72z"/>
	<path style="fill:#8A8891;" d="M298.964,102.229c0,6.918-1.842,13.425-5.506,19.532c-3.664,6.107-8.069,11.243-13.225,15.387
		c-5.156,4.145-10.342,7.949-15.548,11.413c-2.122,1.412-4.125,2.803-5.997,4.185v-29.453c2.973-2.523,5.636-5.106,7.969-7.749
		c3.754-4.265,5.626-8.42,5.626-12.454c0-3.224-1.091-6.077-3.294-8.55c-2.193-2.483-5.486-3.724-9.871-3.724
		c-0.15,0-0.29,0-0.43,0.01V67.57h0.26c10.642,0,19.973,3.124,27.992,9.371C294.949,83.198,298.964,91.628,298.964,102.229z"/>
</g>
<g>
</g>
<g>
</g>
<g>
</g>
<g>
</g>
<g>
</g>
<g>
</g>
<g>
</g>
<g>
</g>
<g>
</g>
<g>
</g>
<g>
</g>
<g>
</g>
<g>
</g>
<g>
</g>
<g>
</g>
</svg>
